<?xml version="1.0" encoding="UTF-8"?>
<svg width="1500px" height="960px" viewBox="0 0 1500 960" version="1.1" xmlns="http://www.w3.org/2000/svg" xmlns:xlink="http://www.w3.org/1999/xlink">
    <!-- Generator: Sketch 41 (35326) - http://www.bohemiancoding.com/sketch -->
    <title>box01</title>
    <desc>Created with Sketch.</desc>
    <defs></defs>
    <g id="Page-1" stroke="none" stroke-width="1" fill="none" fill-rule="evenodd">
        <g id="box01">
            <g id="001-worldwide" fill="#4E00BE">
                <rect id="Rectangle-2-Copy-6" x="0.755185211" y="0.641708865" width="1500" height="960"></rect>
            </g>
            <g id="002-sun" transform="translate(576.166438, 411.000000)" fill="#FFFFFF">
                <path d="M33.9082007,162.005472 L11.3029592,162.005472 C5.06047079,162.005472 0,167.06662 0,173.308431 C0,179.550243 5.06047079,184.61139 11.3029592,184.61139 L33.9082007,184.61139 C40.1500122,184.61139 45.21116,179.55092 45.21116,173.308431 C45.21116,167.065943 40.1500122,162.005472 33.9082007,162.005472 Z" id="Shape"></path>
                <path d="M335.313903,162.005472 L312.708662,162.005472 C306.46685,162.005472 301.405702,167.065943 301.405702,173.308431 C301.405702,179.55092 306.466173,184.61139 312.708662,184.61139 L335.313903,184.61139 C341.555715,184.61139 346.616862,179.55092 346.616862,173.308431 C346.616862,167.065943 341.556392,162.005472 335.313903,162.005472 Z" id="Shape"></path>
                <path d="M173.308431,301.405702 C167.06662,301.405702 162.005472,306.466173 162.005472,312.708662 L162.005472,335.313903 C162.005472,341.555715 167.065943,346.616862 173.308431,346.616862 C179.55092,346.616862 184.61139,341.556392 184.61139,335.313903 L184.61139,312.708662 C184.61139,306.46685 179.550243,301.405702 173.308431,301.405702 Z" id="Shape"></path>
                <path d="M173.308431,0 C167.06662,0 162.005472,5.06047079 162.005472,11.3029592 L162.005472,33.9082007 C162.005472,40.1500122 167.065943,45.21116 173.308431,45.21116 C179.55092,45.21116 184.61139,40.1506892 184.61139,33.9082007 L184.61139,11.3029592 C184.61139,5.06047079 179.550243,0 173.308431,0 Z" id="Shape"></path>
                <path d="M264.099709,307.957573 L252.796749,288.381168 C249.675844,282.975434 242.763139,281.122523 237.357405,284.244106 C231.951672,287.365011 230.099438,294.277716 233.220343,299.68345 L244.523303,319.259856 C247.645562,324.668297 254.560298,326.516469 259.962647,323.396917 C265.36838,320.276012 267.220614,313.363307 264.099709,307.957573 Z" id="Shape"></path>
                <path d="M113.396519,46.9327355 L102.09356,27.3563297 C98.9726539,21.950596 92.0599493,20.0976851 86.6542156,23.2192679 C81.2484819,26.3401736 79.396248,33.2528782 82.5171538,38.6586119 L93.820113,58.2350178 C96.9423727,63.6434594 103.857108,65.4923084 109.259457,62.3720796 C114.665191,59.2511739 116.517425,52.3384692 113.396519,46.9327355 Z" id="Shape"></path>
                <path d="M319.260533,244.523303 L299.684127,233.220343 C294.277716,230.098084 287.365688,231.950995 284.244783,237.357405 C281.123877,242.763139 282.976111,249.675844 288.381845,252.796749 L307.95825,264.099709 C313.361276,267.219937 320.275335,265.371088 323.397594,259.962647 C326.5185,254.556913 324.666266,247.644208 319.260533,244.523303 Z" id="Shape"></path>
                <path d="M58.2356948,93.820113 L38.6592889,82.5171538 C33.2528782,79.3948941 26.3401736,81.2484819 23.2199448,86.6542156 C20.0990391,92.0599493 21.951273,98.9726539 27.3570067,102.09356 L46.9334125,113.396519 C52.3364383,116.516748 59.2504969,114.667899 62.3727566,109.259457 C65.4929853,103.853723 63.6414285,96.9410188 58.2356948,93.820113 Z" id="Shape"></path>
                <path d="M323.397594,86.6542156 C320.276689,81.2484819 313.364661,79.3955711 307.95825,82.5171538 L288.381845,93.820113 C282.976111,96.9410188 281.123877,103.853723 284.244783,109.259457 C287.367042,114.667899 294.281778,116.516071 299.684127,113.396519 L319.260533,102.09356 C324.666266,98.9726539 326.5185,92.0599493 323.397594,86.6542156 Z" id="Shape"></path>
                <path d="M62.3720796,237.357405 C59.2518509,231.951672 52.3384692,230.099438 46.9327355,233.220343 L27.3563297,244.523303 C21.950596,247.644208 20.0983621,254.556913 23.2192679,259.962647 C26.3415276,265.371088 33.2562632,267.21926 38.6586119,264.099709 L58.2350178,252.796749 C63.6414285,249.675844 65.4929853,242.763139 62.3720796,237.357405 Z" id="Shape"></path>
                <path d="M259.962647,23.2192679 C254.556236,20.0970082 247.644208,21.950596 244.523303,27.3563297 L233.220343,46.9327355 C230.099438,52.3384692 231.951672,59.2511739 237.357405,62.3720796 C242.760431,65.4923084 249.67449,63.6441364 252.796749,58.2350178 L264.099709,38.6586119 C267.220614,33.2535552 265.36838,26.3408506 259.962647,23.2192679 Z" id="Shape"></path>
                <path d="M109.259457,284.244783 C103.853723,281.122523 96.9403418,282.975434 93.820113,288.381845 L82.5171538,307.95825 C79.396248,313.363984 81.2484819,320.276689 86.6542156,323.397594 C92.0572413,326.517823 98.9712999,324.668974 102.09356,319.260533 L113.396519,299.684127 C116.517425,294.278393 114.665191,287.365688 109.259457,284.244783 Z" id="Shape"></path>
                <path d="M173.308431,67.8164015 C115.140435,67.8164015 67.8164015,115.140435 67.8164015,173.308431 C67.8164015,231.476427 115.140435,278.800461 173.308431,278.800461 C231.476427,278.800461 278.800461,231.476427 278.800461,173.308431 C278.800461,115.140435 231.477104,67.8164015 173.308431,67.8164015 Z M173.308431,256.195219 C127.605102,256.195219 90.421643,219.012437 90.421643,173.308431 C90.421643,127.604425 127.605102,90.421643 173.308431,90.421643 C219.01176,90.421643 256.195219,127.605102 256.195219,173.308431 C256.195219,219.01176 219.012437,256.195219 173.308431,256.195219 Z" id="Shape"></path>
            </g>
        </g>
    </g>
</svg>