<?xml version="1.0" encoding="UTF-8"?>
<svg width="160px" height="160px" viewBox="0 0 160 160" version="1.1" xmlns="http://www.w3.org/2000/svg" xmlns:xlink="http://www.w3.org/1999/xlink">
    <!-- Generator: Sketch 41 (35326) - http://www.bohemiancoding.com/sketch -->
    <title>box1</title>
    <desc>Created with Sketch.</desc>
    <defs>
        <linearGradient x1="50%" y1="26.6933659%" x2="50%" y2="100%" id="linearGradient-1">
            <stop stop-color="#00FFFD" offset="0%"></stop>
            <stop stop-color="#0044E7" offset="100%"></stop>
        </linearGradient>
    </defs>
    <g id="Page-1" stroke="none" stroke-width="1" fill="none" fill-rule="evenodd">
        <g id="box1">
            <g id="computer" transform="translate(47.000000, 50.000000)">
                <path d="M57.5035558,0.107819167 L9.34432782,0.107819167 C4.83029869,0.107819167 2.84217094e-14,2.56609618 2.84217094e-14,9.45214699 L2.84217094e-14,41.7403936 C2.84217094e-14,48.6264444 4.83029869,51.0847214 9.34432782,51.0847214 L27.1704301,51.0847214 L27.1704301,57.0363394 L24.208997,57.0363394 C23.4150885,57.0363394 22.7714081,57.6800199 22.7714081,58.4739283 C22.7714081,59.2678368 23.4150885,59.9115172 24.208997,59.9115172 L43.1851704,59.9115172 C43.9790789,59.9115172 44.6227593,59.2678368 44.6227593,58.4739283 C44.6227593,57.6800199 43.9790789,57.0363394 43.1851704,57.0363394 L39.6774535,57.0363394 L39.6774535,51.0847214 L57.5035558,51.0847214 C64.3896066,51.0847214 66.8478837,46.2544227 66.8478837,41.7403936 L66.8478837,9.45214699 C66.8478837,2.56609618 62.017585,0.107819167 57.5035558,0.107819167 Z M36.8022757,57.0363394 L30.0456079,57.0363394 L30.0456079,51.0847214 L36.8022757,51.0847214 L36.8022757,57.0363394 Z M63.9727059,41.7403936 C63.9727059,43.6811386 63.3401667,48.2095436 57.5035558,48.2095436 L9.34432782,48.2095436 C7.40358281,48.2095436 2.87517779,47.5770045 2.87517779,41.7403936 L2.87517779,39.6846415 L63.9727059,39.6846415 L63.9727059,41.7403936 Z M63.9727059,36.8238396 L2.87517779,36.8238396 L2.87517779,9.50965055 C2.87517779,3.67303963 7.40358281,3.04050051 9.34432782,3.04050051 L57.5035558,3.04050051 C59.4443008,3.04050051 63.9727059,3.67303963 63.9727059,9.50965055 L63.9727059,36.8238396 Z" id="Shape" fill="url(#linearGradient-1)"></path>
                <path d="M56.7290548,6.89305906 C56.0943593,6.41613894 55.1931708,6.54408435 54.7162507,7.17877985 C54.7157116,7.17949864 54.7151725,7.18003774 54.7148131,7.18075653 L54.7866925,7.18075653 L44.0622794,21.5566455 L39.0307182,15.015616 C38.7687176,14.6747277 38.36781,14.4689728 37.9381507,14.4549563 C37.5102883,14.4427368 37.0991378,14.6220761 36.8168313,14.9437366 L28.6223949,24.2593126 L22.6132733,13.9949279 C22.3570231,13.5627527 21.8937601,13.2957206 21.3913228,13.2905093 C20.8867291,13.2876342 20.4173563,13.549455 20.1549963,13.980552 L10.2356329,30.0096682 C9.72510918,30.6177683 9.80435627,31.5245275 10.4124564,32.0350513 C11.0205565,32.545575 11.9273157,32.4663279 12.4378394,31.8582278 C12.5408067,31.7356734 12.6223899,31.5967663 12.6795341,31.4472571 L21.3050674,17.3876377 L27.055423,27.2926252 C27.4563306,27.9779957 28.3368538,28.2083693 29.0222243,27.8074617 C29.1523261,27.7312695 29.2696693,27.6351307 29.3699411,27.5226394 L37.7367085,18.1639357 L42.8689009,24.8343482 C43.1625284,25.1667906 43.5763743,25.3684125 44.018972,25.3950078 C44.4664215,25.3905154 44.8861975,25.1779319 45.1546672,24.8199723 L57.0147756,8.90586321 C57.4916957,8.27116771 57.3637503,7.36997917 56.7290548,6.89305906 Z" id="Shape" fill="#00FFF8"></path>
            </g>
        </g>
    </g>
</svg>