<?xml version="1.0" encoding="UTF-8"?>
<svg width="1500px" height="960px" viewBox="0 0 1500 960" version="1.1" xmlns="http://www.w3.org/2000/svg" xmlns:xlink="http://www.w3.org/1999/xlink">
    <!-- Generator: Sketch 41 (35326) - http://www.bohemiancoding.com/sketch -->
    <title>box10</title>
    <desc>Created with Sketch.</desc>
    <defs>
        <linearGradient x1="105.981011%" y1="-10.0850596%" x2="50%" y2="100%" id="linearGradient-1">
            <stop stop-color="#FF005D" offset="0%"></stop>
            <stop stop-color="#9C00FF" offset="100%"></stop>
        </linearGradient>
    </defs>
    <g id="Page-1" stroke="none" stroke-width="1" fill="none" fill-rule="evenodd">
        <g id="box10">
            <g id="001-worldwide" transform="translate(-2.755185, 0.358291)" fill="#4E00BE">
                <rect id="Rectangle-2-Copy-6" x="0.755185211" y="0.641708865" width="1500" height="960"></rect>
            </g>
            <g id="monitor" transform="translate(537.000000, 408.916525)" fill="url(#linearGradient-1)">
                <path d="M369.557377,0.43765677 L51.9936243,0.43765677 C23.3708715,0.43765677 0,23.7209969 0,52.431281 L0,253.840927 C0,282.463679 23.2833402,305.834551 51.9936243,305.834551 L198.958768,305.834551 L198.958768,355.464829 L125.695024,355.464829 C119.130173,355.464829 113.878292,360.71671 113.878292,367.281561 C113.878292,373.846413 119.130173,379.098294 125.695024,379.098294 L295.855977,379.098294 C302.420828,379.098294 307.672709,373.846413 307.672709,367.281561 C307.672709,360.71671 302.420828,355.464829 295.855977,355.464829 L222.592233,355.464829 L222.592233,305.834551 L369.557377,305.834551 C398.180129,305.834551 421.551001,282.551211 421.551001,253.840927 L421.551001,52.431281 C421.551001,23.7209969 398.267661,0.43765677 369.557377,0.43765677 Z M51.9936243,24.0711224 L369.644908,24.0711224 C385.225489,24.0711224 398.005067,36.7631687 398.005067,52.431281 L398.005067,220.754075 L23.6334656,220.754075 L23.6334656,52.431281 C23.6334656,36.7631687 36.3255119,24.0711224 51.9936243,24.0711224 Z M369.557377,282.201085 L51.9936243,282.201085 C36.4130433,282.201085 23.6334656,269.509039 23.6334656,253.840927 L23.6334656,244.38754 L397.917535,244.38754 L397.917535,253.840927 C397.917535,269.421508 385.225489,282.201085 369.557377,282.201085 Z" id="Shape"></path>
            </g>
        </g>
    </g>
</svg>