<?xml version="1.0" encoding="UTF-8"?>
<svg width="160px" height="160px" viewBox="0 0 160 160" version="1.1" xmlns="http://www.w3.org/2000/svg" xmlns:xlink="http://www.w3.org/1999/xlink">
    <!-- Generator: Sketch 41 (35326) - http://www.bohemiancoding.com/sketch -->
    <title>box1</title>
    <desc>Created with Sketch.</desc>
    <defs>
        <linearGradient x1="46.839554%" y1="-103.875496%" x2="50%" y2="100%" id="linearGradient-1">
            <stop stop-color="#4F32C5" offset="0%"></stop>
            <stop stop-color="#FF2D55" offset="100%"></stop>
        </linearGradient>
    </defs>
    <g id="Page-1" stroke="none" stroke-width="1" fill="none" fill-rule="evenodd">
        <g id="box1" fill="url(#linearGradient-1)">
            <path d="M-33.3499866,159.557722 C-33.3499866,159.557722 -28.4809012,156.897093 -16.5045578,157.328297 C-4.52821431,157.759501 2.29578799,146.021669 10.0522407,145.818457 C17.8086934,145.615246 18.5023599,147.715046 32.5472975,147.66403 C46.5922351,147.613014 43.6180495,130.848811 53.1898203,130.848811 C62.761591,130.848811 66.8905091,142.580444 77.2727635,143.15263 C87.6550179,143.724815 106.270298,104.098969 115.646684,104.3956 C125.02307,104.692231 131.728168,123.050535 141.317513,123.466519 C146.148474,123.676086 148.344511,116.631711 151.085862,109.676138 C153.786029,102.825058 157.015249,96.060132 163.81257,96.3981174 C177.510887,97.0792433 169.093051,160 169.093051,160 L-33.3499866,159.557722 Z" id="Path-34-Copy-2" transform="translate(69.151103, 128.192980) rotate(-360.000000) translate(-69.151103, -128.192980) "></path>
        </g>
    </g>
</svg>