<?xml version="1.0" encoding="UTF-8"?>
<svg width="1500px" height="960px" viewBox="0 0 1500 960" version="1.1" xmlns="http://www.w3.org/2000/svg" xmlns:xlink="http://www.w3.org/1999/xlink">
    <!-- Generator: Sketch 41 (35326) - http://www.bohemiancoding.com/sketch -->
    <title>box12</title>
    <desc>Created with Sketch.</desc>
    <defs></defs>
    <g id="Page-1" stroke="none" stroke-width="1" fill="none" fill-rule="evenodd">
        <g id="box12">
            <g id="001-worldwide" transform="translate(-2.755185, 0.358291)" fill="#005CE9">
                <rect id="Rectangle-2-Copy-6" x="0.755185211" y="0.641708865" width="1500" height="960"></rect>
            </g>
            <g id="comment-white-oval-bubble" transform="translate(528.744815, 407.626191)" fill="#FFFFFF">
                <path d="M407.966426,78.1817997 C388.447683,54.1908127 361.932994,35.2386851 328.424921,21.3305445 C294.916848,7.42240389 258.315039,0.469188225 218.623766,0.469188225 C178.933348,0.469188225 142.332393,7.42240389 108.823466,21.3305445 C75.3145384,35.2386851 48.8007032,54.1873942 29.280251,78.1817997 C9.75894417,102.174496 0,128.321698 0,156.625969 C0,181.024611 7.35830714,203.885786 22.0809038,225.19411 C36.8035004,246.503289 56.9307352,264.399102 82.472009,278.875568 C80.6807184,285.380106 78.5663802,291.559888 76.1255759,297.420895 C73.6856262,303.275919 71.4900988,308.075484 69.5381391,311.818734 C67.5844701,315.556857 64.9436839,319.706908 61.6063796,324.257777 C58.2742032,328.814629 55.7530642,332.028868 54.0446721,333.900493 C52.3379893,335.772118 49.5322608,338.858163 45.6257774,343.171447 C41.7244218,347.479603 39.2015736,350.29046 38.0640699,351.592051 C37.8991276,351.674949 37.2496138,352.402234 36.1112555,353.791851 C34.9737518,355.172068 34.4028634,355.859185 34.4028634,355.859185 L32.9388936,358.055567 C32.1244375,359.269133 31.7586587,360.044276 31.8389933,360.365614 C31.9210372,360.69379 31.7586587,361.506537 31.351858,362.804709 C30.9442027,364.108865 30.9860792,365.085699 31.4732145,365.735213 L31.4732145,365.98049 C32.1244375,368.744342 33.4243197,370.9826 35.3762794,372.690138 C37.3282392,374.392548 39.5280397,375.246316 41.9654255,375.246316 L43.1866823,375.246316 C53.7626464,373.942161 63.0336007,372.158562 71.0029635,369.880136 C113.623031,358.982834 151.037587,339.300003 183.244068,310.83079 C195.442962,312.132381 207.236764,312.781895 218.622057,312.781895 C258.312475,312.781895 294.915139,305.829534 328.423212,291.91712 C361.931284,278.00727 388.445974,259.06198 407.964717,235.070138 C427.486879,211.079151 437.246677,184.929385 437.246677,156.625114 C437.247532,128.325116 427.488588,102.174496 407.966426,78.1817997 Z M380.515924,218.847677 C363.512338,238.0391 340.57681,253.291563 311.704215,264.594811 C282.831619,275.895496 251.801099,281.552248 218.617784,281.552248 C208.696461,281.552248 198.123915,280.902734 186.900147,279.598579 L172.992006,278.138882 L162.499795,287.413255 C142.494772,304.982602 120.12586,318.888179 95.4007512,329.136822 C102.882124,315.963658 108.575625,301.972619 112.481254,287.173106 L119.068691,263.74617 L97.8415555,251.550695 C76.6947551,239.506488 60.3082068,225.234278 48.6750736,208.7221 C37.0436496,192.215049 31.2305015,174.846539 31.2305015,156.629387 C31.2305015,134.343374 39.7297308,113.605083 56.7273349,94.4102427 C73.7300666,75.2171113 96.6630299,59.9663574 125.537335,48.6613996 C154.41164,37.3555871 185.437032,31.6979805 218.622911,31.6979805 C251.806227,31.6979805 282.830765,37.3530233 311.70336,48.6579811 C340.575101,59.9637935 363.510628,75.2136928 380.515069,94.4068243 C397.513528,113.601665 406.011903,134.34081 406.011903,156.625114 C406.011903,178.909418 397.513528,199.652837 380.515924,218.847677 Z" id="Shape"></path>
            </g>
        </g>
    </g>
</svg>