<?xml version="1.0" encoding="UTF-8"?>
<svg width="160px" height="160px" viewBox="0 0 160 160" version="1.1" xmlns="http://www.w3.org/2000/svg" xmlns:xlink="http://www.w3.org/1999/xlink">
    <!-- Generator: Sketch 41 (35326) - http://www.bohemiancoding.com/sketch -->
    <title>box1</title>
    <desc>Created with Sketch.</desc>
    <defs></defs>
    <g id="Page-1" stroke="none" stroke-width="1" fill="none" fill-rule="evenodd">
        <g id="box1" fill="#2AFFD6">
            <g id="computer" transform="translate(50.000000, 64.000000)">
                <path d="M60.0629199,0.443741317 C59.2544055,-0.16378904 58.1064158,-0.00080425694 57.4988854,0.807710145 C57.4981987,0.80862579 57.497512,0.809312524 57.4970541,0.810228168 L57.5886186,0.810228168 L43.9271975,19.1231252 L37.5176835,10.790757 C37.183931,10.3565125 36.6732301,10.0944091 36.1259033,10.076554 C35.5808658,10.0609881 35.0571169,10.2894415 34.6974974,10.6991925 L24.2589172,22.5659498 L16.6041262,9.49054134 C16.2776989,8.94000988 15.6875658,8.59984781 15.04753,8.59320939 C14.4047473,8.58954681 13.8068312,8.92307045 13.4726209,9.47222844 L0.836721938,29.8911086 C0.186385184,30.6657441 0.287335028,31.8208301 1.06197057,32.4711669 C1.83660611,33.1215036 2.99169209,33.0205538 3.64202885,32.2459182 C3.77319497,32.0898008 3.87712066,31.9128524 3.94991443,31.7223983 L14.9376526,13.812385 L22.2628114,26.4299711 C22.7735123,27.3030384 23.8951773,27.5965026 24.7682446,27.0858017 C24.9339764,26.9887433 25.0834554,26.8662758 25.2111878,26.7229774 L35.8692939,14.8012815 L42.4069981,23.2984657 C42.781039,23.7219514 43.3082215,23.9787898 43.8720299,24.0126687 C44.4420188,24.0069459 44.9767554,23.7361439 45.3187487,23.2801528 L60.4268887,3.00777581 C61.0344191,2.19926141 60.8714343,1.05127168 60.0629199,0.443741317 Z" id="Shape"></path>
            </g>
        </g>
    </g>
</svg>