<?xml version="1.0" encoding="UTF-8"?>
<svg width="160px" height="160px" viewBox="0 0 160 160" version="1.1" xmlns="http://www.w3.org/2000/svg" xmlns:xlink="http://www.w3.org/1999/xlink">
    <!-- Generator: Sketch 41 (35326) - http://www.bohemiancoding.com/sketch -->
    <title>box2</title>
    <desc>Created with Sketch.</desc>
    <defs>
        <linearGradient x1="3.38093144%" y1="2.87500216%" x2="93.1887945%" y2="95.8656355%" id="linearGradient-1">
            <stop stop-color="#FF005D" offset="0%"></stop>
            <stop stop-color="#9C00FF" offset="100%"></stop>
        </linearGradient>
    </defs>
    <g id="Page-1" stroke="none" stroke-width="1" fill="none" fill-rule="evenodd">
        <g id="box2" fill="url(#linearGradient-1)">
            <g id="002-leaf-1" transform="translate(80.000000, 80.500000) scale(-1, 1) translate(-80.000000, -80.500000) translate(50.000000, 50.000000)">
                <path d="M59.0821117,57.9853275 C57.4512059,53.1605645 55.5484824,48.6076191 53.2380325,44.2585369 C53.3059869,44.1905825 53.3739413,44.0546736 53.5098501,43.9867192 C58.7423397,38.0746856 60.9848352,29.7842477 56.975525,21.6297186 C53.5098501,14.56246 45.8310019,8.65042641 35.7737493,4.84497949 C26.0562688,1.10748698 14.0962928,-0.659327656 1.72859029,0.224079665 C0.777228556,0.292034074 0.0297300541,1.10748698 0.0976844633,2.05884871 C0.165638873,2.53452958 0.3695021,3.01021044 0.777228556,3.28202808 C7.02903421,8.65042641 9.27152971,16.7370011 11.5819796,24.8235758 C12.9410678,29.5803845 14.2322016,34.2692387 16.4067427,38.6183209 C16.4067427,38.6862753 16.4746971,38.6862753 16.4746971,38.7542297 C21.7071866,48.8794367 29.7258069,52.5489748 37.3367007,52.0732939 C40.4626036,51.8694307 43.4525976,50.9860234 46.2387284,49.6269352 C47.8016798,48.8114823 49.2966768,47.8601206 50.655765,46.77285 C52.6264428,50.7142057 54.3932575,54.7914703 55.8203001,59.1405525 C56.0921177,60.0239598 57.1114338,60.4996407 57.9948412,60.227823 C58.9462029,59.8200966 59.4218838,58.8687349 59.0821117,57.9853275 Z M45.5591843,32.162652 C39.6471507,24.6197126 32.3080745,18.1640437 23.2021836,13.067463 C22.3867307,12.5917822 21.2994602,12.8635998 20.8917337,13.7470071 C20.4160528,14.56246 20.6878705,15.6497306 21.5712778,16.057457 C30.2014878,20.9501745 37.2687463,27.0660713 42.9089623,34.2692387 C45.1514578,37.1912783 47.1900901,40.2492267 49.0248591,43.443084 C47.6657709,44.7342177 46.2387284,45.7535339 44.6757769,46.5010324 C42.2973726,47.7242117 39.7830595,48.4717102 37.1328375,48.6076191 C30.745123,49.0153455 24.0176365,45.8894427 19.4646911,37.1233239 L19.4646911,37.0553695 C17.4940132,32.9781049 16.2028795,28.4251595 14.9117457,23.8042597 C12.805159,16.4651835 10.7665267,9.12610728 5.80585484,3.34998249 C16.2708339,3.07816485 26.260132,4.77702509 34.55057,7.97088232 C43.7923696,11.5045116 50.8596282,16.8049555 53.9175766,23.0567612 C57.1114338,29.5124301 55.480528,36.1040078 51.4712179,40.9287708 C49.7044032,37.8708224 47.7337254,34.9487828 45.5591843,32.162652 Z" id="Shape"></path>
            </g>
        </g>
    </g>
</svg>