<?xml version="1.0" encoding="UTF-8"?>
<svg width="160px" height="160px" viewBox="0 0 160 160" version="1.1" xmlns="http://www.w3.org/2000/svg" xmlns:xlink="http://www.w3.org/1999/xlink">
    <!-- Generator: Sketch 41 (35326) - http://www.bohemiancoding.com/sketch -->
    <title>box2</title>
    <desc>Created with Sketch.</desc>
    <defs>
        <linearGradient x1="3.38093144%" y1="2.87500216%" x2="93.1887945%" y2="95.8656355%" id="linearGradient-1">
            <stop stop-color="#FF005D" offset="0%"></stop>
            <stop stop-color="#9C00FF" offset="100%"></stop>
        </linearGradient>
    </defs>
    <g id="Page-1" stroke="none" stroke-width="1" fill="none" fill-rule="evenodd">
        <g id="box2" fill="url(#linearGradient-1)">
            <g id="002-leaf-1" transform="translate(80.456249, 80.181594) scale(-1, 1) translate(-80.456249, -80.181594) translate(47.456249, 46.681594)">
                <path d="M65.1855884,63.9755009 C63.3862018,58.6523158 61.2869176,53.6290284 58.7377867,48.8306644 C58.8127611,48.7556899 58.8877355,48.605741 59.0376844,48.5307666 C64.8107162,42.0079904 67.2848726,32.861109 62.8613808,23.8641763 C59.0376844,16.0668347 50.5655729,9.54405858 39.469356,5.34549003 C28.7480113,1.22189591 15.5525101,-0.727439489 1.90716228,0.247228211 C0.85752014,0.322202649 0.0328013168,1.22189591 0.107775755,2.27153805 C0.182750194,2.79635912 0.407673509,3.32118019 0.85752014,3.62107794 C7.75516848,9.54405858 10.229325,18.4660168 12.7784559,27.3879749 C14.2779446,32.6361856 15.702459,37.8094219 18.101641,42.607786 C18.101641,42.6827604 18.1766154,42.6827604 18.1766154,42.7577348 C23.9496472,53.9289262 32.7966309,57.9775458 41.193768,57.4527248 C44.6425922,57.2278015 47.9414675,56.2531338 51.0154195,54.753645 C52.7398316,53.8539517 54.3892692,52.8043096 55.888758,51.6047186 C58.0630167,55.953236 60.0123521,60.4517023 61.5868153,65.2500664 C61.8867131,66.2247341 63.0113296,66.7495551 63.9859973,66.4496574 C65.0356395,65.9998108 65.5604606,64.9501686 65.1855884,63.9755009 Z M50.2656751,35.4852143 C43.742899,27.1630516 35.6456596,20.04048 25.5990848,14.4173971 C24.6993916,13.892576 23.4998006,14.1924738 23.0499539,15.1671415 C22.5251329,16.0668347 22.8250306,17.2664257 23.7996983,17.7162724 C33.321452,23.1144319 41.1187936,29.8621314 47.341672,37.8094219 C49.8158285,41.0333227 52.0650616,44.4071725 54.0893715,47.9309711 C52.5898827,49.3554854 51.0154195,50.480102 49.2910074,51.3048208 C46.6669021,52.6543607 43.8928478,53.4790795 40.9688447,53.6290284 C33.9212475,54.078875 26.4987781,50.6300509 21.4754907,40.9583483 L21.4754907,40.8833739 C19.301232,36.3849076 17.8767177,31.3616202 16.4522033,26.2633584 C14.1279958,18.166119 11.8787626,10.0688797 6.40562859,3.69605238 C17.9516921,3.39615463 28.9729346,5.27051559 38.1198161,8.7943142 C48.3163397,12.692985 56.1136813,18.5409912 59.487531,25.4386395 C63.0113296,32.5612112 61.2119431,39.8337317 56.7884513,45.1569169 C54.8391159,41.7830671 52.6648571,38.5591663 50.2656751,35.4852143 Z" id="Shape"></path>
            </g>
        </g>
    </g>
</svg>