<?xml version="1.0" encoding="UTF-8"?>
<svg width="160px" height="160px" viewBox="0 0 160 160" version="1.1" xmlns="http://www.w3.org/2000/svg" xmlns:xlink="http://www.w3.org/1999/xlink">
    <!-- Generator: Sketch 41 (35326) - http://www.bohemiancoding.com/sketch -->
    <title>box2</title>
    <desc>Created with Sketch.</desc>
    <defs></defs>
    <g id="Page-1" stroke="none" stroke-width="1" fill="none" fill-rule="evenodd">
        <g id="box2" fill="#2AFFD6">
            <g id="002-leaf-1" transform="translate(80.000000, 80.500000) scale(-1, 1) translate(-80.000000, -80.500000) translate(55.000000, 55.000000)">
                <path d="M49.4734603,48.6319415 C48.1056301,44.5854437 46.5098281,40.7669176 44.5720686,37.1193703 C44.6290615,37.0623774 44.6860545,36.9483916 44.8000403,36.8913986 C49.1884957,31.933014 51.0692622,24.979877 47.7066796,18.1407258 C44.8000403,12.2134614 38.3598396,7.25507684 29.9248865,4.06347295 C21.774898,0.928861992 11.7441429,-0.552954098 1.3714303,0.187953947 C0.573529326,0.244946873 -0.053392866,0.928861992 0.00360006053,1.72676296 C0.0605929871,2.12571345 0.231571767,2.52466393 0.573529326,2.75263564 C5.81687857,7.25507684 7.69764514,14.0372351 9.63540465,20.8193934 C10.7752632,24.8088982 11.8581288,28.7414101 13.6819024,32.3889574 C13.6819024,32.4459504 13.7388954,32.4459504 13.7388954,32.5029433 C18.1273507,40.9948893 24.852516,44.0725074 31.2357238,43.6735569 C33.8573984,43.5025781 36.3650872,42.7616701 38.7017972,41.6218115 C40.0126345,40.9378964 41.2664789,40.1399954 42.4063374,39.2281086 C44.0591323,42.5336984 45.5409484,45.953274 46.7377998,49.6008213 C46.9657715,50.3417293 47.8206654,50.7406798 48.5615735,50.5127081 C49.3594744,50.1707505 49.7584249,49.3728495 49.4734603,48.6319415 Z M38.1318679,26.9746294 C33.1734833,20.6484146 27.0182472,15.2340866 19.3811951,10.9596171 C18.69728,10.5606666 17.7853931,10.7886383 17.4434356,11.5295463 C17.0444851,12.2134614 17.2724568,13.1253483 18.0133648,13.4673058 C25.2514665,17.5707965 31.1787309,22.7001599 35.9091438,28.7414101 C37.7899104,31.192106 39.4996982,33.7567877 41.0385072,36.4354552 C39.8986486,37.5183208 38.7017972,38.3732147 37.3909599,39.0001369 C35.3962074,40.0260096 33.2874692,40.6529318 31.064745,40.7669176 C25.7074099,41.1088752 20.0651102,38.4872006 16.2465841,31.1351131 L16.2465841,31.0781201 C14.5937893,27.6585445 13.5109237,23.8400185 12.428058,19.9644995 C10.6612773,13.8092634 8.95148953,7.65402732 4.79100589,2.80962857 C13.5679166,2.58165686 21.9458768,4.00648002 28.8990138,6.68514757 C36.6500518,9.64877975 42.5773162,14.094228 45.1419979,19.3375773 C47.8206654,24.7519053 46.4528352,30.2802192 43.0902525,34.3267169 C41.6084364,31.7620352 39.9556416,29.3113394 38.1318679,26.9746294 Z" id="Shape"></path>
            </g>
        </g>
    </g>
</svg>