<?xml version="1.0" encoding="UTF-8"?>
<svg width="1500px" height="960px" viewBox="0 0 1500 960" version="1.1" xmlns="http://www.w3.org/2000/svg" xmlns:xlink="http://www.w3.org/1999/xlink">
    <!-- Generator: Sketch 41 (35326) - http://www.bohemiancoding.com/sketch -->
    <title>box2</title>
    <desc>Created with Sketch.</desc>
    <defs>
        <linearGradient x1="3.38093144%" y1="2.87500216%" x2="93.1887945%" y2="95.8656355%" id="linearGradient-1">
            <stop stop-color="#FF005D" offset="0%"></stop>
            <stop stop-color="#9C00FF" offset="100%"></stop>
        </linearGradient>
    </defs>
    <g id="Page-1" stroke="none" stroke-width="1" fill="none" fill-rule="evenodd">
        <g id="box2">
            <rect id="Rectangle-2-Copy-6" fill="#4E00BE" x="0" y="0" width="1500" height="960"></rect>
            <g id="002-leaf-1" transform="translate(750.000000, 600.500000) scale(-1, 1) translate(-750.000000, -600.500000) translate(564.000000, 411.000000)" fill="url(#linearGradient-1)">
                <path d="M370.393864,363.517974 C360.169492,333.270872 348.241058,304.727833 333.75653,277.46284 C334.182546,277.036824 334.608561,276.184793 335.460592,275.758778 C368.263787,238.695428 382.322299,186.721535 357.187384,135.599673 C335.460592,91.2940599 287.320839,54.23071 224.270543,30.3738412 C163.350324,6.94298786 88.3715934,-4.13341554 10.8367697,1.40478616 C4.87255245,1.83080168 0.186381788,6.94298786 0.612397303,12.9072051 C1.03841282,15.8893137 2.31645936,18.8714223 4.87255245,20.5754843 C44.0659799,54.23071 58.1244919,104.926556 72.6090194,155.622403 C81.1293297,185.443489 89.2236245,214.838559 102.856121,242.103552 C102.856121,242.529568 103.282136,242.529568 103.282136,242.955583 C136.085331,306.431895 186.355162,329.436733 234.0689,326.454624 C253.665613,325.176578 272.410296,319.638376 289.876932,311.118066 C299.675289,306.00588 309.04763,300.041662 317.567941,293.225414 C329.922391,317.934314 340.998794,343.495245 349.94512,370.760238 C351.649182,376.29844 358.039415,379.280548 363.577616,377.576486 C369.541833,375.020393 372.523942,369.056176 370.393864,363.517974 Z M285.616777,201.632078 C248.553427,154.344356 202.543752,113.872882 145.457672,81.9217185 C140.345486,78.9396099 133.529238,80.643672 130.973145,86.1818737 C127.991036,91.2940599 129.695098,98.1103081 135.2333,100.666401 C189.337271,131.339518 233.642884,169.680915 269.002172,214.838559 C283.060684,233.157226 295.841149,252.327925 307.343568,272.350654 C298.823258,280.444949 289.876932,286.835181 280.078575,291.521352 C265.168032,299.189631 249.405458,303.875802 232.790853,304.727833 C192.745395,307.283926 150.569859,287.687212 122.026819,232.731211 L122.026819,232.305195 C109.672369,206.744264 101.578074,178.201225 93.4837796,149.23217 C80.2772986,103.222494 67.4968332,57.2128187 36.3977006,21.0014999 C102.00409,19.2974378 164.628371,29.9478257 216.602264,49.9705549 C274.540374,72.1233617 318.845987,105.352572 338.016685,144.545999 C358.039415,185.017473 347.815042,226.340978 322.680127,256.58808 C311.603723,237.417382 299.249273,219.098714 285.616777,201.632078 Z" id="Shape"></path>
            </g>
        </g>
    </g>
</svg>