<?xml version="1.0" encoding="UTF-8"?>
<svg width="160px" height="160px" viewBox="0 0 160 160" version="1.1" xmlns="http://www.w3.org/2000/svg" xmlns:xlink="http://www.w3.org/1999/xlink">
    <!-- Generator: Sketch 41 (35326) - http://www.bohemiancoding.com/sketch -->
    <title>box3</title>
    <desc>Created with Sketch.</desc>
    <defs>
        <linearGradient x1="50%" y1="0%" x2="50%" y2="100%" id="linearGradient-1">
            <stop stop-color="#00E9D9" offset="0%"></stop>
            <stop stop-color="#0045E9" offset="100%"></stop>
        </linearGradient>
    </defs>
    <g id="Page-1" stroke="none" stroke-width="1" fill="none" fill-rule="evenodd">
        <g id="box3" fill="url(#linearGradient-1)">
            <path d="M80.1693379,113.137864 C79.1180705,113.137864 78.1045496,112.757019 77.3146905,112.065188 C74.3315926,109.456738 71.4555367,107.005471 68.9180724,104.843218 L68.9051147,104.83195 C61.4656794,98.4922332 55.0414554,93.0173046 50.571597,87.6240662 C45.5749783,81.5947717 43.2476548,75.878153 43.2476548,69.6330838 C43.2476548,63.5654793 45.3282177,57.9677339 49.1056819,53.8702699 C52.9282164,49.7243551 58.1732857,47.4409753 63.8763832,47.4409753 C68.1389177,47.4409753 72.0425789,48.7885807 75.4786345,51.446045 C77.2127187,52.7874531 78.7845495,54.429143 80.1693379,56.3440723 C81.5546898,54.429143 83.125957,52.7874531 84.8606046,51.446045 C88.2966602,48.7885807 92.2003215,47.4409753 96.4628559,47.4409753 C102.16539,47.4409753 107.411023,49.7243551 111.233557,53.8702699 C115.011021,57.9677339 117.091021,63.5654793 117.091021,69.6330838 C117.091021,75.878153 114.764261,81.5947717 109.767642,87.6235029 C105.297784,93.0173046 98.874123,98.4916699 91.4358147,104.830824 C88.8938433,106.996457 86.0132804,109.451668 83.0234218,112.066315 C82.2341262,112.757019 81.2200419,113.137864 80.1693379,113.137864 L80.1693379,113.137864 Z M63.8763832,51.7666084 C59.3958208,51.7666084 55.2797651,53.554777 52.2853995,56.8021003 C49.2465269,60.0984377 47.5727243,64.6550566 47.5727243,69.6330838 C47.5727243,74.8854771 49.5248368,79.582941 53.9017373,84.8640667 C58.132159,89.9688546 64.4245521,95.331107 71.7101845,101.54012 L71.7237056,101.551388 C74.2707474,103.722091 77.1580709,106.182936 80.1631407,108.810541 C83.1862387,106.177865 86.0780691,103.713077 88.6301813,101.538993 C95.9152503,95.3299803 102.20708,89.9688546 106.437502,84.8640667 C110.813839,79.582941 112.765951,74.8854771 112.765951,69.6330838 C112.765951,64.6550566 111.092149,60.0984377 108.053276,56.8021003 C105.059474,53.554777 100.942855,51.7666084 96.4628559,51.7666084 C93.180603,51.7666084 90.1670824,52.8099883 87.5062379,54.8674529 C85.1349708,56.7018187 83.48314,59.0206914 82.5146896,60.6432263 C82.0166615,61.4775924 81.140042,61.9756205 80.1693379,61.9756205 C79.1986338,61.9756205 78.3220142,61.4775924 77.8239862,60.6432263 C76.8560991,59.0206914 75.2042684,56.7018187 72.8324378,54.8674529 C70.1715934,52.8099883 67.1580727,51.7666084 63.8763832,51.7666084 L63.8763832,51.7666084 Z" id="Shape"></path>
        </g>
    </g>
</svg>