<?xml version="1.0" encoding="UTF-8"?>
<svg width="160px" height="160px" viewBox="0 0 160 160" version="1.1" xmlns="http://www.w3.org/2000/svg" xmlns:xlink="http://www.w3.org/1999/xlink">
    <!-- Generator: Sketch 41 (35326) - http://www.bohemiancoding.com/sketch -->
    <title>box3</title>
    <desc>Created with Sketch.</desc>
    <defs></defs>
    <g id="Page-1" stroke="none" stroke-width="1" fill="none" fill-rule="evenodd">
        <g id="box3" fill="#2AFFD6">
            <g id="003-clothes-hanger" transform="translate(47.523907, 60.000000)">
                <path d="M62.842599,33.9597819 C62.7706699,33.9119219 62.5845168,33.8706009 62.5073008,33.8360972 L34.5300727,21.4698535 L34.5300727,17.4519791 C39.8517147,16.8119908 42.4792841,13.3010984 42.4792841,8.78709392 C42.4792841,3.78878523 38.9617135,0.0184193228 34.2227392,0.0184193228 C29.2471084,0.0184193228 25.0721586,4.12004874 25.0721586,8.9760296 C25.0721586,9.8114926 25.7640416,10.4900193 26.5995046,10.4900193 C26.8482652,10.4900193 27.0797741,10.4155859 27.2859616,10.3104052 C27.7755527,10.058862 28.124068,9.56398408 28.124068,8.9760296 C28.124068,5.81754817 31.0003981,3.04639879 34.2758861,3.04639879 C37.3371171,3.04639879 39.5602417,5.46110251 39.5602417,8.78709392 C39.5602417,12.0597994 36.9152813,14.5277891 33.3099211,14.5277891 C32.4744581,14.5277891 31.8691127,15.2063158 31.8691127,16.0417788 L31.8691127,19.0006117 L31.8691127,21.9714096 C31.8691127,22.0006265 31.8105398,22.0246956 31.8133224,22.0539124 L4.99099496,34.7315243 C1.03572808,36.1564722 -0.318681958,39.3985695 0.113727535,41.8730982 C0.558102026,44.4181648 2.71597565,46.0572305 5.51119415,46.0572305 L58.7847949,46.0572305 C62.0935344,46.0572305 64.6891044,44.3449835 65.5579581,41.4740794 C66.4159598,38.6456093 65.2984846,35.5963433 62.842599,33.9597819 Z M62.6602023,40.7809443 C62.1799329,42.3707587 60.7670891,43.3965486 58.786047,43.3965486 L5.51119415,43.3965486 C4.15817539,43.3965486 3.27067856,42.6460928 3.07645602,41.536687 C2.85566005,40.2700666 3.66983649,38.4714212 6.11375706,37.5826722 L33.8740847,24.4235387 L61.2605757,36.6180986 C62.5472305,37.5373165 63.1219678,39.2562417 62.6602023,40.7809443 Z" id="Shape"></path>
            </g>
        </g>
    </g>
</svg>