<?xml version="1.0" encoding="UTF-8"?>
<svg width="1500px" height="960px" viewBox="0 0 1500 960" version="1.1" xmlns="http://www.w3.org/2000/svg" xmlns:xlink="http://www.w3.org/1999/xlink">
    <!-- Generator: Sketch 41 (35326) - http://www.bohemiancoding.com/sketch -->
    <title>box3</title>
    <desc>Created with Sketch.</desc>
    <defs></defs>
    <g id="Page-1" stroke="none" stroke-width="1" fill="none" fill-rule="evenodd">
        <g id="box3">
            <g id="underground" fill="#00E9D9">
                <rect id="Rectangle-2-Copy-6" x="0.191045195" y="0" width="1500" height="960"></rect>
            </g>
            <g id="003-clothes-hanger" transform="translate(496.439099, 421.000000)" fill="#000000">
                <path d="M482.770264,260.886296 C482.217689,260.518625 480.787621,260.201189 480.194432,259.936124 L265.267392,164.935999 L265.267392,134.06983 C306.149381,129.153303 326.334931,102.181878 326.334931,67.5043318 C326.334931,29.1062571 299.312203,0.141501171 262.90639,0.141501171 C224.682532,0.141501171 192.609676,31.6510942 192.609676,68.955776 C192.609676,75.3739812 197.924869,80.5865684 204.343074,80.5865684 C206.254106,80.5865684 208.032607,80.014755 209.616583,79.2067345 C213.377726,77.2743257 216.055096,73.4725679 216.055096,68.955776 C216.055096,44.6916472 238.151678,23.403086 263.314676,23.403086 C286.831706,23.403086 303.910224,41.9533556 303.910224,67.5043318 C303.910224,92.6459538 283.591074,111.605578 255.893927,111.605578 C249.475721,111.605578 244.825328,116.818165 244.825328,123.23637 L244.825328,145.966756 L244.825328,168.78906 C244.825328,169.01351 244.375359,169.198414 244.396735,169.422864 L38.341889,266.814986 C7.95668429,277.76174 -2.44818285,302.668224 0.873679205,321.678082 C4.28745893,341.229826 20.8647049,353.821479 42.3381703,353.821479 L451.597346,353.821479 C477.01579,353.821479 496.955513,340.667632 503.630233,318.612734 C510.221585,296.883823 501.636902,273.45871 482.770264,260.886296 Z M481.369054,313.287922 C477.679521,325.501216 466.825754,333.381553 451.606966,333.381553 L42.3381703,333.381553 C31.9439912,333.381553 25.1260511,327.616391 23.6339921,319.093699 C21.9377903,309.363251 28.1924675,295.545673 46.9671872,288.718113 L260.227952,187.62684 L470.616824,281.308052 C480.50118,288.369681 484.916435,301.574831 481.369054,313.287922 Z" id="Shape"></path>
            </g>
        </g>
    </g>
</svg>