<?xml version="1.0" encoding="UTF-8"?>
<svg width="160px" height="160px" viewBox="0 0 160 160" version="1.1" xmlns="http://www.w3.org/2000/svg" xmlns:xlink="http://www.w3.org/1999/xlink">
    <!-- Generator: Sketch 41 (35326) - http://www.bohemiancoding.com/sketch -->
    <title>box3</title>
    <desc>Created with Sketch.</desc>
    <defs>
        <linearGradient x1="50%" y1="21.7687761%" x2="50%" y2="107.974367%" id="linearGradient-1">
            <stop stop-color="#00FFF8" offset="0%"></stop>
            <stop stop-color="#0044E7" offset="100%"></stop>
        </linearGradient>
    </defs>
    <g id="Page-1" stroke="none" stroke-width="1" fill="none" fill-rule="evenodd">
        <g id="box3" fill="url(#linearGradient-1)">
            <g id="003-clothes-hanger" transform="translate(37.000000, 50.000000)">
                <path d="M81.5305046,44.0586195 C81.4371855,43.996527 81.1956748,43.9429182 81.0954966,43.8981539 L44.7985013,27.8544812 L44.7985013,22.6417858 C51.7026739,21.81148 55.1116205,17.2565311 55.1116205,11.4001682 C55.1116205,4.91548053 50.5480075,0.0238967947 44.3997741,0.0238967947 C37.9445081,0.0238967947 32.5280267,5.34525399 32.5280267,11.6452889 C32.5280267,12.7291989 33.4256594,13.6095035 34.5095694,13.6095035 C34.8323056,13.6095035 35.1326597,13.5129353 35.4001625,13.3764764 C36.0353464,13.0501301 36.487502,12.4080872 36.487502,11.6452889 C36.487502,7.54754968 40.2191848,3.95232589 44.4687256,3.95232589 C48.4402944,3.95232589 51.3245238,7.08510549 51.3245238,11.4001682 C51.3245238,15.646099 47.8930147,18.8480106 43.2155054,18.8480106 C42.1315954,18.8480106 41.3462345,19.7283152 41.3462345,20.8122252 L41.3462345,24.6509451 L41.3462345,28.5051882 C41.3462345,28.5430935 41.2702435,28.5743202 41.2738535,28.6122254 L6.47519905,45.0598599 C1.34372917,46.9085536 -0.41345045,51.1147741 0.147547419,54.3251693 C0.724068395,57.6270785 3.5236427,59.7535637 7.15009321,59.7535637 L76.2660053,59.7535637 C80.5586859,59.7535637 83.9261172,57.5321349 85.0533474,53.8074917 C86.1664986,50.1379014 84.7167126,46.1818556 81.5305046,44.0586195 Z M81.2938675,52.9082345 C80.6707772,54.9708222 78.8377871,56.3016579 76.2676298,56.3016579 L7.15009321,56.3016579 C5.3947186,56.3016579 4.24330116,55.3280342 3.99132143,53.8887172 C3.70486595,52.2454339 4.76115923,49.9119138 7.9318441,48.7588719 L43.947438,31.6865226 L79.478025,47.5074567 C81.1473005,48.7000285 81.8929511,50.9301213 81.2938675,52.9082345 Z" id="Shape"></path>
            </g>
        </g>
    </g>
</svg>