<?xml version="1.0" encoding="UTF-8"?>
<svg width="1500px" height="960px" viewBox="0 0 1500 960" version="1.1" xmlns="http://www.w3.org/2000/svg" xmlns:xlink="http://www.w3.org/1999/xlink">
    <!-- Generator: Sketch 41 (35326) - http://www.bohemiancoding.com/sketch -->
    <title>box4</title>
    <desc>Created with Sketch.</desc>
    <defs></defs>
    <g id="Page-1" stroke="none" stroke-width="1" fill="none" fill-rule="evenodd">
        <g id="box4">
            <rect id="Rectangle-2-Copy-6" fill="#FF7F00" x="0" y="0" width="1500" height="960"></rect>
            <rect id="Rectangle" fill="#000000" transform="translate(756.466225, 660.767380) rotate(-15.000000) translate(-756.466225, -660.767380) " x="-201.944371" y="548.26738" width="1916.82119" height="225"></rect>
            <path d="M454.9,649.4 L467.2,649.4 L464.2,663.4 L449.9,663.4 L449.9,672.9 L462.1,672.9 L458.7,689 L469.2,689 L472.6,672.9 L485.7,672.9 L482.3,689 L492.7,689 L496.1,672.9 L510.9,672.9 L510.9,663.4 L498.2,663.4 L501.2,649.4 L515.9,649.4 L515.9,639.8 L503.2,639.8 L506.6,624.2 L496.2,624.2 L492.8,639.8 L479.7,639.8 L483.1,624.2 L472.6,624.2 L469.2,639.8 L454.9,639.8 L454.9,649.4 Z M477.7,649.4 L490.8,649.4 L487.8,663.4 L474.7,663.4 L477.7,649.4 Z M585.033334,689 L585.033334,618.1 L571.133334,618.1 L571.133334,646.6 L540.233334,646.6 L540.233334,618.1 L526.433334,618.1 L526.433334,689 L540.233334,689 L540.233334,659.6 L571.133334,659.6 L571.133334,689 L585.033334,689 Z M647.666667,689 L662.666667,689 L635.666667,618.1 L619.666667,618.1 L592.466667,689 L607.066667,689 L612.966667,672.8 L641.766667,672.8 L647.666667,689 Z M627.366667,633.4 L637.166667,660.2 L617.566667,660.2 L627.366667,633.4 Z M730.6,689 L730.6,618.1 L716.8,618.1 L716.8,665 L687.3,618.1 L670.1,618.1 L670.1,689 L683.9,689 L683.9,638.7 L716.1,689 L730.6,689 Z M758.933333,676.2 L758.933333,630.9 L770.033333,630.9 C781.633333,630.9 791.233333,638.2 791.233333,653.6 C791.233333,669 781.533333,676.2 769.933333,676.2 L758.933333,676.2 Z M770.433333,689 C790.633333,689 805.533333,676 805.533333,653.6 C805.533333,631.2 790.733333,618.1 770.533333,618.1 L745.133333,618.1 L745.133333,689 L770.433333,689 Z M863.366667,635 C861.766667,627 855.166667,616.6 837.966667,616.6 C824.566667,616.6 813.266667,626.2 813.266667,638.8 C813.266667,649.5 820.566667,656.8 831.866667,659.1 L841.766667,661.1 C847.266667,662.2 850.366667,665.4 850.366667,669.5 C850.366667,674.5 846.266667,678.2 838.866667,678.2 C828.866667,678.2 823.966667,671.9 823.366667,664.9 L810.566667,668.3 C811.666667,678.4 819.966667,690.5 838.766667,690.5 C855.266667,690.5 864.366667,679.5 864.366667,668.6 C864.366667,658.6 857.466667,650.2 844.566667,647.7 L834.666667,645.8 C829.466667,644.8 826.966667,641.7 826.966667,637.8 C826.966667,633.1 831.366667,628.8 838.066667,628.8 C847.066667,628.8 850.266667,634.9 850.966667,638.8 L863.366667,635 Z M884.3,653.5 C884.3,637.5 895.5,629.9 906.4,629.9 C917.4,629.9 928.6,637.5 928.6,653.5 C928.6,669.5 917.4,677.1 906.4,677.1 C895.5,677.1 884.3,669.5 884.3,653.5 Z M870,653.6 C870,676.4 887.2,690.5 906.4,690.5 C925.7,690.5 942.9,676.4 942.9,653.6 C942.9,630.7 925.7,616.6 906.4,616.6 C887.2,616.6 870,630.7 870,653.6 Z M967.133333,689 L967.133333,661.4 L994.633333,661.4 L994.633333,648.7 L967.033333,648.7 L967.033333,631.2 L998.033333,631.2 L998.033333,618.1 L953.233333,618.1 L953.233333,689 L967.133333,689 Z M1021.66667,689 L1021.66667,661.4 L1049.16667,661.4 L1049.16667,648.7 L1021.56667,648.7 L1021.56667,631.2 L1052.56667,631.2 L1052.56667,618.1 L1007.76667,618.1 L1007.76667,689 L1021.66667,689 Z" id="#HANDSOFF" fill="#FFFFFF" transform="translate(751.233333, 653.550000) rotate(-15.000000) translate(-751.233333, -653.550000) "></path>
        </g>
    </g>
</svg>