<?xml version="1.0" encoding="UTF-8"?>
<svg width="160px" height="160px" viewBox="0 0 160 160" version="1.1" xmlns="http://www.w3.org/2000/svg" xmlns:xlink="http://www.w3.org/1999/xlink">
    <!-- Generator: Sketch 41 (35326) - http://www.bohemiancoding.com/sketch -->
    <title>box4</title>
    <desc>Created with Sketch.</desc>
    <defs>
        <linearGradient x1="50%" y1="0%" x2="50%" y2="100%" id="linearGradient-1">
            <stop stop-color="#FF0096" offset="0%"></stop>
            <stop stop-color="#9C00FF" offset="100%"></stop>
        </linearGradient>
    </defs>
    <g id="Page-1" stroke="none" stroke-width="1" fill="none" fill-rule="evenodd">
        <g id="box4" fill="url(#linearGradient-1)">
            <g id="hold" transform="translate(56.000000, 50.000000)">
                <path d="M47.844,27.116 C47.412,26.396 46.689,26 45.805,26 L45.793,26 C44.126,26.006 42.12,26.667 40.558,27.724 C39.117,28.699 37.028,30.506 35.265,33.587 C34.934,34.165 34.391,34.557 33.81,34.65 C33.808,34.516 33.809,34.363 33.809,34.218 C33.809,33.909 33.81,33.541 33.797,33.135 L33.797,11 C33.797,8.794 32.003,7 29.797,7 C27.591,7 25.797,8.794 25.797,11 L25.797,26.5 C25.797,26.775 25.572,27 25.297,27 C25.022,27 24.797,26.775 24.797,26.5 L24.797,4 C24.797,1.794 23.003,0 20.797,0 C18.591,0 16.797,1.794 16.797,4 L16.797,26.5 C16.797,26.775 16.572,27 16.297,27 C16.022,27 15.797,26.775 15.797,26.5 L15.797,8.5 C15.797,6.57 14.227,5 12.297,5 C10.367,5 8.797,6.57 8.797,8.5 L8.797,28.5 C8.797,28.775 8.572,29 8.297,29 C8.022,29 7.797,28.775 7.797,28.5 L7.797,16 C7.797,14.07 6.227,12.5 4.287,12.5 C2.357,12.5 0.787,14.07 0.787,16 L0.789,43.197 C1.757,57.18 10.334,59.066 18.597,59.066 C25.443,59.066 31.592,55.67 34.624,50.242 C35.014,49.612 36.069,47.953 37.32,45.988 C40.448,41.074 43.068,36.947 43.455,36.213 C44.318,34.579 45.281,33.302 46.239,32.52 C47.106,31.812 47.636,30.909 48.067,30.116 C48.29,29.703 48.484,28.186 47.844,27.116 Z M46.256,29.259 C45.856,29.988 45.479,30.559 44.974,30.971 C43.794,31.935 42.689,33.384 41.687,35.28 C41.306,36.003 37.893,41.366 35.634,44.915 C34.376,46.891 33.316,48.557 32.901,49.229 C30.2,54.063 24.719,57.067 18.597,57.067 C8.055,57.067 3.474,53.008 2.787,43.129 L2.787,16 C2.787,15.173 3.46,14.5 4.297,14.5 C5.124,14.5 5.797,15.173 5.797,16 L5.797,28.5 C5.797,29.879 6.918,31 8.297,31 C9.676,31 10.797,29.879 10.797,28.5 L10.797,8.5 C10.797,7.673 11.47,7 12.297,7 C13.124,7 13.797,7.673 13.797,8.5 L13.797,26.5 C13.797,27.879 14.918,29 16.297,29 C17.676,29 18.797,27.879 18.797,26.5 L18.797,4 C18.797,2.897 19.694,2 20.797,2 C21.9,2 22.797,2.897 22.797,4 L22.797,26.5 C22.797,27.879 23.918,29 25.297,29 C26.676,29 27.797,27.879 27.797,26.5 L27.797,11 C27.797,9.897 28.694,9 29.797,9 C30.9,9 31.797,9.897 31.797,11 L31.797,33.166 C31.81,33.577 31.809,33.924 31.809,34.216 C31.807,35.111 31.806,35.757 32.299,36.24 C32.712,36.643 33.247,36.668 33.625,36.672 C34.986,36.641 36.28,35.839 37.001,34.58 C38.572,31.832 40.411,30.236 41.678,29.381 C42.91,28.547 44.529,28.005 45.801,28 L45.805,28 C46.019,28 46.068,28.063 46.097,28.1 C46.294,28.35 46.303,28.979 46.256,29.259 Z" id="Shape"></path>
            </g>
        </g>
    </g>
</svg>