<?xml version="1.0" encoding="UTF-8"?>
<svg width="160px" height="160px" viewBox="0 0 160 160" version="1.1" xmlns="http://www.w3.org/2000/svg" xmlns:xlink="http://www.w3.org/1999/xlink">
    <!-- Generator: Sketch 41 (35326) - http://www.bohemiancoding.com/sketch -->
    <title>box4</title>
    <desc>Created with Sketch.</desc>
    <defs></defs>
    <g id="Page-1" stroke="none" stroke-width="1" fill="none" fill-rule="evenodd">
        <g id="box4" fill="#2AFFD6">
            <g id="hold" transform="translate(55.000000, 50.000000)">
                <path d="M48.6691158,27.5836415 C48.2296655,26.8512244 47.4941967,26.448395 46.5949512,26.448395 L46.5827443,26.448395 C44.8869953,26.4544985 42.8463999,27.126898 41.2574617,28.202127 C39.7916103,29.1939418 37.6665834,31.0321053 35.8731788,34.1662401 C35.5364704,34.7542083 34.9841058,35.1529687 34.3930859,35.2475725 C34.3910514,35.1112616 34.3920687,34.955623 34.3920687,34.8081223 C34.3920687,34.4937933 34.3930859,34.1194468 34.3798617,33.7064449 L34.3798617,11.1897056 C34.3798617,8.94566098 32.5549225,7.12072173 30.3108779,7.12072173 C28.0668333,7.12072173 26.2418941,8.94566098 26.2418941,11.1897056 L26.2418941,26.957018 C26.2418941,27.2367606 26.0130137,27.4656409 25.7332711,27.4656409 C25.4535284,27.4656409 25.2246481,27.2367606 25.2246481,26.957018 L25.2246481,4.06898384 C25.2246481,1.82493925 23.3997088,0 21.1556642,0 C18.9116197,0 17.0866804,1.82493925 17.0866804,4.06898384 L17.0866804,26.957018 C17.0866804,27.2367606 16.8578001,27.4656409 16.5780574,27.4656409 C16.2983148,27.4656409 16.0694344,27.2367606 16.0694344,26.957018 L16.0694344,8.64659067 C16.0694344,6.68330596 14.4723583,5.0862298 12.5090736,5.0862298 C10.5457889,5.0862298 8.94871272,6.68330596 8.94871272,8.64659067 L8.94871272,28.9915099 C8.94871272,29.2712525 8.71983238,29.5001329 8.44008974,29.5001329 C8.1603471,29.5001329 7.93146676,29.2712525 7.93146676,28.9915099 L7.93146676,16.2759354 C7.93146676,14.3126507 6.3343906,12.7155745 4.36093343,12.7155745 C2.39764873,12.7155745 0.800572571,14.3126507 0.800572571,16.2759354 L0.802607063,43.9419738 C1.78730115,58.166124 10.5122198,60.0846499 18.9177231,60.0846499 C25.881789,60.0846499 32.1368344,56.6300826 35.2211241,51.1084716 C35.6178501,50.4676066 36.6910446,48.7799956 37.9636193,46.7811072 C41.1455646,41.7823606 43.810749,37.5841865 44.2044232,36.837528 C45.0823065,35.1753481 46.0619144,33.876325 47.036436,33.0808386 C47.9183882,32.3606285 48.4575286,31.4420554 48.8959616,30.6353794 C49.1228075,30.2152568 49.3201532,28.6720947 48.6691158,27.5836415 Z M47.0537292,29.7635996 C46.6468308,30.5051719 46.2633291,31.0860193 45.7496198,31.5051247 C44.5492696,32.4857498 43.4252128,33.9597392 42.4059324,35.8884375 C42.0183617,36.6239063 38.5465012,42.0793964 36.2485426,45.6896023 C34.9688472,47.6996804 33.8905664,49.3944121 33.4684094,50.0780014 C30.720828,54.9953684 25.1453029,58.0511752 18.9177231,58.0511752 C8.19391621,58.0511752 3.53391247,53.9221739 2.83506449,43.872801 L2.83506449,16.2759354 C2.83506449,15.434673 3.51967102,14.7500664 4.37110589,14.7500664 C5.2123683,14.7500664 5.89697484,15.434673 5.89697484,16.2759354 L5.89697484,28.9915099 C5.89697484,30.3942921 7.03730756,31.5346248 8.44008974,31.5346248 C9.84287192,31.5346248 10.9832046,30.3942921 10.9832046,28.9915099 L10.9832046,8.64659067 C10.9832046,7.80532826 11.6678112,7.12072173 12.5090736,7.12072173 C13.350336,7.12072173 14.0349425,7.80532826 14.0349425,8.64659067 L14.0349425,26.957018 C14.0349425,28.3598001 15.1752752,29.5001329 16.5780574,29.5001329 C17.9808396,29.5001329 19.1211723,28.3598001 19.1211723,26.957018 L19.1211723,4.06898384 C19.1211723,2.94696155 20.033642,2.03449192 21.1556642,2.03449192 C22.2776865,2.03449192 23.1901562,2.94696155 23.1901562,4.06898384 L23.1901562,26.957018 C23.1901562,28.3598001 24.3304889,29.5001329 25.7332711,29.5001329 C27.1360533,29.5001329 28.276386,28.3598001 28.276386,26.957018 L28.276386,11.1897056 C28.276386,10.0676833 29.1888556,9.15521365 30.3108779,9.15521365 C31.4329002,9.15521365 32.3453698,10.0676833 32.3453698,11.1897056 L32.3453698,33.7379795 C32.358594,34.1560676 32.3575768,34.509052 32.3575768,34.8060878 C32.3555423,35.7165229 32.354525,36.3736638 32.8560273,36.8649936 C33.2761499,37.2749437 33.8203765,37.3003749 34.2048954,37.3044439 C35.5893672,37.2729093 36.9056835,36.457078 37.6391178,35.1763653 C39.2372112,32.3809734 41.1079265,30.7574489 42.3967772,29.8877036 C43.6500242,29.0393204 45.2969454,28.4879731 46.5908823,28.4828869 L46.5949512,28.4828869 C46.8126419,28.4828869 46.8624869,28.5469734 46.8919871,28.5846115 C47.0923845,28.838923 47.1015397,29.4787707 47.0537292,29.7635996 Z" id="Shape"></path>
            </g>
        </g>
    </g>
</svg>