<?xml version="1.0" encoding="UTF-8"?>
<svg width="160px" height="160px" viewBox="0 0 160 160" version="1.1" xmlns="http://www.w3.org/2000/svg" xmlns:xlink="http://www.w3.org/1999/xlink">
    <!-- Generator: Sketch 41 (35326) - http://www.bohemiancoding.com/sketch -->
    <title>box5</title>
    <desc>Created with Sketch.</desc>
    <defs>
        <linearGradient x1="34.7885144%" y1="100%" x2="75.8447141%" y2="0%" id="linearGradient-1">
            <stop stop-color="#9C00FF" offset="0%"></stop>
            <stop stop-color="#FF0096" offset="100%"></stop>
        </linearGradient>
    </defs>
    <g id="Page-1" stroke="none" stroke-width="1" fill="none" fill-rule="evenodd">
        <g id="box5">
            <g id="Group" transform="translate(49.000000, 49.000000)">
                <path d="M30.764974,45.5426794 C38.9163773,45.5426794 45.4900897,38.9163773 45.4900897,30.8175637 C45.4900897,22.71875 38.8637876,16.0924479 30.764974,16.0924479 C22.6661603,16.0924479 16.0398582,22.71875 16.0398582,30.8175637 C16.0398582,38.9163773 22.6135706,45.5426794 30.764974,45.5426794 Z M30.764974,20.3522135 C36.5498409,20.3522135 41.2303241,25.0326968 41.2303241,30.8175637 C41.2303241,36.6024306 36.5498409,41.2829138 30.764974,41.2829138 C24.9801071,41.2829138 20.2996238,36.6024306 20.2996238,30.8175637 C20.2996238,25.0326968 24.9801071,20.3522135 30.764974,20.3522135 Z" id="Shape" fill="url(#linearGradient-1)"></path>
                <path d="M32.9211516,9.25578704 L32.9211516,2.47171586 C32.9211516,1.26215278 31.974537,0.315538194 30.764974,0.315538194 C29.5554109,0.315538194 28.6087963,1.26215278 28.6087963,2.47171586 L28.6087963,9.25578704 C28.6087963,10.4653501 29.5554109,11.4119647 30.764974,11.4119647 C31.974537,11.4119647 32.9211516,10.4653501 32.9211516,9.25578704 Z" id="Shape" fill="#FF0096"></path>
                <path d="M28.6087963,52.3793403 L28.6087963,59.1634115 C28.6087963,60.3729745 29.5554109,61.3195891 30.764974,61.3195891 C31.974537,61.3195891 32.9211516,60.3729745 32.9211516,59.1634115 L32.9211516,52.3793403 C32.9211516,51.1697772 31.974537,50.2231626 30.764974,50.2231626 C29.5554109,50.2231626 28.6087963,51.1697772 28.6087963,52.3793403 Z" id="Shape" fill="#9C00FF"></path>
                <path d="M47.541088,17.0916522 L52.3267506,12.3059896 C53.1681858,11.4645544 53.1681858,10.0972222 52.3267506,9.25578704 C51.4853154,8.41435185 50.1179832,8.41435185 49.276548,9.25578704 L44.4908854,14.0414497 C43.6494502,14.8828848 43.6494502,16.250217 44.4908854,17.0916522 C44.911603,17.5123698 45.4375,17.7227286 46.0159867,17.7227286 C46.5944734,17.7227286 47.1203704,17.5123698 47.541088,17.0916522 L47.541088,17.0916522 Z" id="Shape" fill="#FF0096"></path>
                <path d="M9.20319734,52.3793403 C9.62391493,52.8000579 10.1498119,53.0104167 10.7282986,53.0104167 C11.2541956,53.0104167 11.8326823,52.8000579 12.2533999,52.3793403 L17.0390625,47.5936777 C17.8804977,46.7522425 17.8804977,45.3849103 17.0390625,44.5434751 C16.1976273,43.7020399 14.8302951,43.7020399 13.98886,44.5434751 L9.20319734,49.3291377 C8.36176215,50.1705729 8.36176215,51.5379051 9.20319734,52.3793403 Z" id="Shape" fill="#9C00FF"></path>
                <path d="M61.2669994,30.8175637 C61.2669994,29.6080006 60.3203848,28.661386 59.1108218,28.661386 L52.3267506,28.661386 C51.1171875,28.661386 50.1705729,29.6080006 50.1705729,30.8175637 C50.1705729,32.0271267 51.1171875,32.9737413 52.3267506,32.9737413 L59.1108218,32.9737413 C60.2677951,32.9737413 61.2669994,32.0271267 61.2669994,30.8175637 Z" id="Shape" fill="#9C00FF"></path>
                <path d="M2.41912616,32.9737413 L9.20319734,32.9737413 C10.4127604,32.9737413 11.359375,32.0271267 11.359375,30.8175637 C11.359375,29.6080006 10.4127604,28.661386 9.20319734,28.661386 L2.41912616,28.661386 C1.20956308,28.661386 0.262948495,29.6080006 0.262948495,30.8175637 C0.262948495,32.0271267 1.26215278,32.9737413 2.41912616,32.9737413 Z" id="Shape" fill="#9C00FF"></path>
                <path d="M50.8016493,53.0104167 C51.3275463,53.0104167 51.906033,52.8000579 52.3267506,52.3793403 C53.1681858,51.5379051 53.1681858,50.1705729 52.3267506,49.3291377 L47.541088,44.5434751 C46.6996528,43.7020399 45.3323206,43.7020399 44.4908854,44.5434751 C43.6494502,45.3849103 43.6494502,46.7522425 44.4908854,47.5936777 L49.276548,52.3793403 C49.6972656,52.8000579 50.2757523,53.0104167 50.8016493,53.0104167 L50.8016493,53.0104167 Z" id="Shape" fill="#9C00FF"></path>
                <path d="M17.0390625,17.0916522 C17.8804977,16.250217 17.8804977,14.8828848 17.0390625,14.0414497 L12.2533999,9.25578704 C11.4119647,8.41435185 10.0446325,8.41435185 9.20319734,9.25578704 C8.36176215,10.0972222 8.36176215,11.4645544 9.20319734,12.3059896 L13.98886,17.0916522 C14.4095775,17.5123698 14.9354745,17.7227286 15.5139612,17.7227286 C16.0924479,17.7227286 16.6183449,17.5123698 17.0390625,17.0916522 L17.0390625,17.0916522 Z" id="Shape" fill="#FF0096"></path>
            </g>
        </g>
    </g>
</svg>