<?xml version="1.0" encoding="UTF-8"?>
<svg width="160px" height="160px" viewBox="0 0 160 160" version="1.1" xmlns="http://www.w3.org/2000/svg" xmlns:xlink="http://www.w3.org/1999/xlink">
    <!-- Generator: Sketch 41 (35326) - http://www.bohemiancoding.com/sketch -->
    <title>box5</title>
    <desc>Created with Sketch.</desc>
    <defs></defs>
    <g id="Page-1" stroke="none" stroke-width="1" fill="none" fill-rule="evenodd">
        <g id="box5" fill="#2AFFD6">
            <g id="Group" transform="translate(49.000000, 49.000000)">
                <g id="Group-2">
                    <path d="M31.1442381,46.1041199 C39.3961302,46.1041199 46.0508819,39.3961302 46.0508819,31.1974761 C46.0508819,22.998822 39.3428922,16.2908322 31.1442381,16.2908322 C22.9455839,16.2908322 16.2375942,22.998822 16.2375942,31.1974761 C16.2375942,39.3961302 22.8923459,46.1041199 31.1442381,46.1041199 Z M31.1442381,20.6031113 C37.0004196,20.6031113 41.7386028,25.3412946 41.7386028,31.1974761 C41.7386028,37.0536576 37.0004196,41.7918408 31.1442381,41.7918408 C25.2880565,41.7918408 20.5498733,37.0536576 20.5498733,31.1974761 C20.5498733,25.3412946 25.2880565,20.6031113 31.1442381,20.6031113 Z" id="Shape"></path>
                    <path d="M33.3269966,9.36989043 L33.3269966,2.50218665 C33.3269966,1.27771233 32.3687124,0.319428083 31.1442381,0.319428083 C29.9197637,0.319428083 28.9614795,1.27771233 28.9614795,2.50218665 L28.9614795,9.36989043 C28.9614795,10.5943647 29.9197637,11.552649 31.1442381,11.552649 C32.3687124,11.552649 33.3269966,10.5943647 33.3269966,9.36989043 Z" id="Shape"></path>
                    <path d="M28.9614795,53.0250617 L28.9614795,59.8927655 C28.9614795,61.1172398 29.9197637,62.0755241 31.1442381,62.0755241 C32.3687124,62.0755241 33.3269966,61.1172398 33.3269966,59.8927655 L33.3269966,53.0250617 C33.3269966,51.8005874 32.3687124,50.8423032 31.1442381,50.8423032 C29.9197637,50.8423032 28.9614795,51.8005874 28.9614795,53.0250617 Z" id="Shape"></path>
                    <path d="M48.1271645,17.3023545 L52.9718237,12.4576952 C53.8236319,11.605887 53.8236319,10.2216986 52.9718237,9.36989043 C52.1200155,8.51808221 50.7358271,8.51808221 49.8840189,9.36989043 L45.0393597,14.2145497 C44.1875514,15.0663579 44.1875514,16.4505463 45.0393597,17.3023545 C45.4652638,17.7282586 45.9976439,17.9412106 46.5832621,17.9412106 C47.1688802,17.9412106 47.7012604,17.7282586 48.1271645,17.3023545 L48.1271645,17.3023545 Z" id="Shape"></path>
                    <path d="M9.31665241,53.0250617 C9.74255652,53.4509658 10.2749367,53.6639179 10.8605548,53.6639179 C11.392935,53.6639179 11.9785531,53.4509658 12.4044572,53.0250617 L17.2491165,48.1804025 C18.1009247,47.3285943 18.1009247,45.9444059 17.2491165,45.0925977 C16.3973082,44.2407895 15.0131199,44.2407895 14.1613117,45.0925977 L9.31665241,49.9372569 C8.46484419,50.7890652 8.46484419,52.1732535 9.31665241,53.0250617 Z" id="Shape"></path>
                    <path d="M62.0222861,31.1974761 C62.0222861,29.9730018 61.0640018,29.0147175 59.8395275,29.0147175 L52.9718237,29.0147175 C51.7473494,29.0147175 50.7890652,29.9730018 50.7890652,31.1974761 C50.7890652,32.4219504 51.7473494,33.3802346 52.9718237,33.3802346 L59.8395275,33.3802346 C61.0107638,33.3802346 62.0222861,32.4219504 62.0222861,31.1974761 Z" id="Shape"></path>
                    <path d="M2.44894863,33.3802346 L9.31665241,33.3802346 C10.5411267,33.3802346 11.499411,32.4219504 11.499411,31.1974761 C11.499411,29.9730018 10.5411267,29.0147175 9.31665241,29.0147175 L2.44894863,29.0147175 C1.22447432,29.0147175 0.266190069,29.9730018 0.266190069,31.1974761 C0.266190069,32.4219504 1.27771233,33.3802346 2.44894863,33.3802346 Z" id="Shape"></path>
                    <path d="M51.4279213,53.6639179 C51.9603015,53.6639179 52.5459196,53.4509658 52.9718237,53.0250617 C53.8236319,52.1732535 53.8236319,50.7890652 52.9718237,49.9372569 L48.1271645,45.0925977 C47.2753562,44.2407895 45.8911679,44.2407895 45.0393597,45.0925977 C44.1875514,45.9444059 44.1875514,47.3285943 45.0393597,48.1804025 L49.8840189,53.0250617 C50.309923,53.4509658 50.8955412,53.6639179 51.4279213,53.6639179 L51.4279213,53.6639179 Z" id="Shape"></path>
                    <path d="M17.2491165,17.3023545 C18.1009247,16.4505463 18.1009247,15.0663579 17.2491165,14.2145497 L12.4044572,9.36989043 C11.552649,8.51808221 10.1684606,8.51808221 9.31665241,9.36989043 C8.46484419,10.2216986 8.46484419,11.605887 9.31665241,12.4576952 L14.1613117,17.3023545 C14.5872158,17.7282586 15.1195959,17.9412106 15.7052141,17.9412106 C16.2908322,17.9412106 16.8232124,17.7282586 17.2491165,17.3023545 L17.2491165,17.3023545 Z" id="Shape"></path>
                </g>
            </g>
        </g>
    </g>
</svg>