<?xml version="1.0" encoding="UTF-8"?>
<svg width="1500px" height="960px" viewBox="0 0 1500 960" version="1.1" xmlns="http://www.w3.org/2000/svg" xmlns:xlink="http://www.w3.org/1999/xlink">
    <!-- Generator: Sketch 41 (35326) - http://www.bohemiancoding.com/sketch -->
    <title>box5</title>
    <desc>Created with Sketch.</desc>
    <defs></defs>
    <g id="Page-1" stroke="none" stroke-width="1" fill="none" fill-rule="evenodd">
        <g id="box5">
            <rect id="Rectangle-2-Copy-6" fill="#FF2D55" x="0" y="0" width="1500" height="960"></rect>
            <g id="Group-2" transform="translate(493.881296, 360.812431)">
                <ellipse id="Oval" fill="#0000FF" opacity="0.2" cx="256.069829" cy="255.49286" rx="118.659389" ry="242.461768"></ellipse>
                <ellipse id="Oval" fill="#0000FF" opacity="0.2" transform="translate(256.069829, 255.492860) rotate(-45.000000) translate(-256.069829, -255.492860) " cx="256.069829" cy="255.49286" rx="118.659389" ry="242.461768"></ellipse>
                <ellipse id="Oval" fill="#0000FF" opacity="0.2" transform="translate(256.069829, 255.492860) rotate(-135.000000) translate(-256.069829, -255.492860) " cx="256.069829" cy="255.49286" rx="118.659389" ry="242.461768"></ellipse>
                <ellipse id="Oval" fill="#0000FF" opacity="0.2" cx="256.069829" cy="255.49286" rx="240.525788" ry="119.614472"></ellipse>
                <path d="M287.819234,214.436001 C280.76381,210.556612 273.708387,208.616918 266.973665,208.616918 C258.956139,208.616918 251.900716,210.556612 245.165994,214.759283 C238.751973,218.638671 233.620756,224.134471 229.772343,231.246683 C225.923931,238.358895 223.999724,246.117672 223.999724,254.523013 C223.999724,263.251636 225.923931,271.010413 229.772343,277.799342 C233.620756,284.911554 238.751973,290.407354 245.165994,294.286743 C251.580015,298.166131 258.956139,300.429107 266.973665,300.429107 C273.387686,300.429107 280.122408,298.812696 287.177831,295.579872 C294.233255,292.347049 300.647276,287.821096 306.099193,282.002013 L330.151772,307.864602 C321.492844,316.916508 311.551111,324.028719 299.685172,329.52452 C287.819234,335.02032 276.273996,337.606578 264.728758,337.606578 C249.014406,337.606578 235.224261,334.050473 222.396219,326.614978 C209.568177,319.179484 199.947146,309.481013 192.891722,296.873002 C185.836299,284.26499 181.987887,270.363848 181.987887,254.846295 C181.987887,239.328742 185.515598,225.427601 192.891722,213.142871 C200.267847,200.858142 210.209579,191.159671 223.037621,184.047459 C235.865663,176.935247 250.297211,173.379141 266.011562,173.379141 C277.5568,173.379141 289.102038,175.9654 300.647276,180.814635 C311.871812,185.663871 321.813545,192.4528 329.51037,200.858142 L305.778492,229.953554 C300.967977,223.487907 294.874657,218.315389 287.819234,214.436001 Z" id="Shape" fill="#FFFFFF"></path>
            </g>
        </g>
    </g>
</svg>