<?xml version="1.0" encoding="UTF-8"?>
<svg width="160px" height="160px" viewBox="0 0 160 160" version="1.1" xmlns="http://www.w3.org/2000/svg" xmlns:xlink="http://www.w3.org/1999/xlink">
    <!-- Generator: Sketch 41 (35326) - http://www.bohemiancoding.com/sketch -->
    <title>box6</title>
    <desc>Created with Sketch.</desc>
    <defs>
        <linearGradient x1="50%" y1="0%" x2="50%" y2="100%" id="linearGradient-1">
            <stop stop-color="#00FFFD" offset="0%"></stop>
            <stop stop-color="#0044E7" offset="100%"></stop>
        </linearGradient>
    </defs>
    <g id="Page-1" stroke="none" stroke-width="1" fill="none" fill-rule="evenodd">
        <g id="box6" fill="url(#linearGradient-1)">
            <g id="condom" transform="translate(47.957357, 47.957357)">
                <g id="Group" transform="translate(0.000000, -0.000000)">
                    <path d="M32.0020018,0.797622632 C30.9239901,0.797622632 30.051671,1.66994179 30.051671,2.74795347 C30.051671,3.82596515 30.9239901,4.6982843 32.0020018,4.6982843 C47.0574149,4.69810146 59.3057193,16.9464058 59.3057193,32.0020018 C59.3057193,47.0575978 47.0574149,59.3057193 32.0020018,59.3057193 C16.9465887,59.3057193 4.69810146,47.0574149 4.69810146,32.0020018 C4.69810146,30.9239901 3.82578231,30.051671 2.74777063,30.051671 C1.66975895,30.051671 0.797622632,30.9239901 0.797622632,32.0020018 C0.797622632,49.2077703 14.7962333,63.206381 32.0020018,63.206381 C49.2077703,63.206381 63.206381,49.2077703 63.206381,32.0020018 C63.206381,14.7962333 49.2077703,0.797622632 32.0020018,0.797622632 Z" id="Shape"></path>
                    <path d="M32.0020018,55.4052405 C33.0800135,55.4052405 33.9523326,54.5329213 33.9523326,53.4549096 C33.9523326,52.376898 33.0800135,51.5045788 32.0020018,51.5045788 C21.2487621,51.5045788 12.499242,42.7550586 12.499242,32.0020018 C12.499242,21.248945 21.2487621,12.499242 32.0020018,12.499242 C42.7552415,12.499242 51.5047616,21.2487621 51.5047616,32.0020018 C51.5047616,33.0800135 52.3770808,33.9523326 53.4550925,33.9523326 C54.5331042,33.9523326 55.4054233,33.0800135 55.4054233,32.0020018 C55.4054233,19.0967612 44.9074252,8.59876313 32.0021846,8.59876313 C19.0969441,8.59876313 8.59894597,19.0967612 8.59894597,32.0020018 C8.59894597,44.9072424 19.0965784,55.4052405 32.0020018,55.4052405 Z" id="Shape"></path>
                </g>
            </g>
        </g>
    </g>
</svg>