<?xml version="1.0" encoding="UTF-8"?>
<svg width="160px" height="160px" viewBox="0 0 160 160" version="1.1" xmlns="http://www.w3.org/2000/svg" xmlns:xlink="http://www.w3.org/1999/xlink">
    <!-- Generator: Sketch 41 (35326) - http://www.bohemiancoding.com/sketch -->
    <title>box6</title>
    <desc>Created with Sketch.</desc>
    <defs></defs>
    <g id="Page-1" stroke="none" stroke-width="1" fill="none" fill-rule="evenodd">
        <g id="box6" fill="#2AFFD6">
            <g id="condom" transform="translate(50.000000, 50.000000)">
                <g id="Group" transform="translate(0.000000, 0.000000)">
                    <path d="M30.6615859,0.764213908 C29.6287272,0.764213908 28.7929454,1.59999565 28.7929454,2.6328544 C28.7929454,3.66571316 29.6287272,4.5014949 30.6615859,4.5014949 C45.0863974,4.50131972 56.821677,16.2365992 56.821677,30.6615859 C56.821677,45.0865726 45.0863974,56.821677 30.6615859,56.821677 C16.2367744,56.821677 4.50131972,45.0863974 4.50131972,30.6615859 C4.50131972,29.6287272 3.66553798,28.7929454 2.63267922,28.7929454 C1.59982047,28.7929454 0.764213908,29.6287272 0.764213908,30.6615859 C0.764213908,47.1466844 14.1764875,60.5589579 30.6615859,60.5589579 C47.1466844,60.5589579 60.5589579,47.1466844 60.5589579,30.6615859 C60.5589579,14.1764875 47.1466844,0.764213908 30.6615859,0.764213908 Z" id="Shape"></path>
                    <path d="M30.6615859,53.0845711 C31.6944447,53.0845711 32.5302264,52.2487894 32.5302264,51.2159307 C32.5302264,50.1830719 31.6944447,49.3472902 30.6615859,49.3472902 C20.3587498,49.3472902 11.9757065,40.9642469 11.9757065,30.6615859 C11.9757065,20.3589249 20.3587498,11.9757065 30.6615859,11.9757065 C40.9644221,11.9757065 49.3474653,20.3587498 49.3474653,30.6615859 C49.3474653,31.6944447 50.1832471,32.5302264 51.2161058,32.5302264 C52.2489646,32.5302264 53.0847463,31.6944447 53.0847463,30.6615859 C53.0847463,18.2968862 43.0264608,8.23860071 30.6617611,8.23860071 C18.2970614,8.23860071 8.23877589,18.2968862 8.23877589,30.6615859 C8.23877589,43.0262857 18.296711,53.0845711 30.6615859,53.0845711 Z" id="Shape"></path>
                </g>
            </g>
        </g>
    </g>
</svg>