<?xml version="1.0" encoding="UTF-8"?>
<svg width="160px" height="160px" viewBox="0 0 160 160" version="1.1" xmlns="http://www.w3.org/2000/svg" xmlns:xlink="http://www.w3.org/1999/xlink">
    <!-- Generator: Sketch 41 (35326) - http://www.bohemiancoding.com/sketch -->
    <title>box6</title>
    <desc>Created with Sketch.</desc>
    <defs>
        <linearGradient x1="50%" y1="0%" x2="50%" y2="100%" id="linearGradient-1">
            <stop stop-color="#00FFFD" offset="0%"></stop>
            <stop stop-color="#0044E7" offset="100%"></stop>
        </linearGradient>
        <linearGradient x1="50%" y1="0%" x2="50%" y2="100%" id="linearGradient-2">
            <stop stop-color="#00FFFD" offset="0%"></stop>
            <stop stop-color="#0095F1" offset="56.9953223%"></stop>
            <stop stop-color="#0044E7" offset="100%"></stop>
        </linearGradient>
    </defs>
    <g id="Page-1" stroke="none" stroke-width="1" fill="none" fill-rule="evenodd">
        <g id="box6">
            <g id="002-condom" transform="translate(46.000000, 49.000000)">
                <g id="Group-Copy" transform="translate(0.304388, 0.541989)">
                    <path d="M32.6356414,19.8415302 C29.1046432,17.4187378 24.227084,17.7748171 21.0917698,20.9097679 C19.3784109,22.6231268 18.4348009,24.9011257 18.4348009,27.3240998 C18.4348009,29.7470738 19.3784109,32.0250727 21.0917698,33.7382499 L31.3508493,43.997511 C31.6914863,44.3381481 32.1536627,44.5296315 32.6354597,44.5296315 C33.1172567,44.5296315 33.5794331,44.3381481 33.9200701,43.997511 L44.1791496,33.7382499 C45.8925085,32.024891 46.8361185,29.7470738 46.8361185,27.3239181 C46.8361185,24.9009441 45.8925085,22.6231268 44.1791496,20.9095863 C41.0443804,17.7749987 36.1666396,17.4187378 32.6356414,19.8415302 Z M41.6101104,31.169029 L32.6356414,40.1436797 L23.6611724,31.169029 C22.6341744,30.1420311 22.0684444,28.7765761 22.0684444,27.3240998 C22.0684444,25.8716234 22.6341744,24.5061684 23.6611724,23.4791705 C24.7212348,22.419108 26.1137591,21.8891676 27.5061017,21.8891676 C28.8986259,21.8891676 30.2909685,22.419108 31.3510309,23.4791705 C32.060646,24.1887855 33.2110001,24.1886039 33.9204335,23.4791705 C36.0405584,21.3592272 39.4901671,21.3590455 41.6102921,23.4791705 C42.6372901,24.5061684 43.2030201,25.8716234 43.2030201,27.3240998 C43.2028384,28.7765761 42.6371084,30.1420311 41.6101104,31.169029 Z" id="Shape" fill="url(#linearGradient-1)"></path>
                    <path d="M65.4413702,0.791252236 C64.9411357,0.516730672 64.3134715,0.484530925 63.7794397,0.705436166 L58.2809981,2.97918761 L52.782729,0.7052864 C52.3137052,0.511339087 51.7691548,0.511339087 51.300131,0.7052864 L45.8027241,2.97903784 L40.3051447,0.7052864 C39.8361209,0.511339087 39.2913981,0.511339087 38.8223743,0.7052864 L33.3251398,2.97888807 L27.8279053,0.7052864 C27.3588815,0.51118932 26.8141587,0.51118932 26.3451349,0.7052864 L20.8487626,2.97888807 L15.3525626,0.705436166 C14.8837113,0.511339087 14.338816,0.511339087 13.8697923,0.705436166 L8.37255775,2.97903784 L2.87566811,0.705436166 C2.34129139,0.484530925 1.71414453,0.516880438 1.21356511,0.791252236 C0.713330563,1.06562403 0.409844592,1.54367795 0.409844592,2.05752601 L0.409844592,58.7293804 C0.409844592,59.2433782 0.713158127,59.7214321 1.21356511,59.9958039 C1.71379966,60.2703255 2.34129139,60.3025252 2.87549567,60.08162 L8.37393723,57.8077188 L13.8722064,60.08162 C14.3412301,60.2755673 14.8857805,60.2755673 15.3548043,60.08162 L20.8522113,57.8078685 L26.3497906,60.08162 C26.8188144,60.275717 27.3633648,60.275717 27.832561,60.08162 L33.3297955,57.8078685 L38.8268576,60.08162 C39.2960538,60.275717 39.8407767,60.275717 40.3098004,60.08162 L45.8061728,57.8078685 L51.3023727,60.08162 C51.7715689,60.2755673 52.3161193,60.275717 52.7853155,60.08162 L58.2823776,57.8078685 L63.7794397,60.08162 C64.0148137,60.178968 64.268121,60.2271928 64.5207386,60.2271928 C64.8416406,60.2271928 65.1615079,60.1493143 65.4413702,59.9959537 C65.9416048,59.7215819 66.2450907,59.2435279 66.2450907,58.7295301 L66.2450907,2.05752601 C66.2450907,1.54367795 65.9417772,1.06562403 65.4413702,0.791252236 Z M62.7963865,56.3573822 L59.0236765,54.7969675 C58.5544803,54.6028704 58.0099299,54.6028704 57.5407337,54.7969675 L52.0436717,57.070719 L46.5474717,54.7969675 C46.078448,54.6028704 45.5337251,54.6028704 45.0643565,54.7969675 L39.5679842,57.070719 L34.0709221,54.7969675 C33.6017259,54.6028704 33.0571755,54.6028704 32.5881517,54.7969675 L27.0909172,57.070719 L21.5933378,54.7969675 C21.124314,54.6028704 20.5795912,54.6028704 20.1105674,54.7969675 L14.6131605,57.070719 L9.11489133,54.7968178 C8.88037945,54.699919 8.62707212,54.6513947 8.37359236,54.6513947 C8.1201126,54.6513947 7.86680528,54.699919 7.63229339,54.7968178 L3.85820394,56.357532 L3.85820394,4.42967389 L7.63091391,5.99008861 C8.10011012,6.18418569 8.64466051,6.18418569 9.11368429,5.99008861 L14.6110912,3.71633717 L20.1074636,5.98993884 C20.5764874,6.18403592 21.1213826,6.18403592 21.5904064,5.98993884 L27.0867787,3.71633717 L32.5838408,5.98993884 C33.0528646,6.18403592 33.5975874,6.18403592 34.0666112,5.98993884 L39.5638457,3.7161874 L45.0614251,5.98993884 C45.5304489,6.18388615 46.0751717,6.18388615 46.5441955,5.98993884 L52.0416024,3.7161874 L57.5398716,5.98993884 C58.0088953,6.18388615 58.5534457,6.18388615 59.0224695,5.98993884 L62.7963865,4.42937435 L62.7963865,56.3573822 Z" id="Shape" fill="url(#linearGradient-2)"></path>
                </g>
            </g>
        </g>
    </g>
</svg>