<?xml version="1.0" encoding="UTF-8"?>
<svg width="1500px" height="960px" viewBox="0 0 1500 960" version="1.1" xmlns="http://www.w3.org/2000/svg" xmlns:xlink="http://www.w3.org/1999/xlink">
    <!-- Generator: Sketch 41 (35326) - http://www.bohemiancoding.com/sketch -->
    <title>box7</title>
    <desc>Created with Sketch.</desc>
    <defs></defs>
    <g id="Page-1" stroke="none" stroke-width="1" fill="none" fill-rule="evenodd">
        <g id="box7">
            <rect id="Rectangle-2-Copy-6" fill="#FF2D55" x="0" y="0" width="1500" height="960"></rect>
            <g id="underground" transform="translate(538.808955, 397.000000)">
                <rect id="Rectangle-path" fill="#FFFFFF" x="8.2091609" y="135.040697" width="403.893179" height="122.309109"></rect>
                <path d="M320.290264,96.1883801 C324.824183,96.1883801 328.499424,92.5131388 328.499424,87.9792192 C328.499424,83.4452996 324.824183,79.7700583 320.290264,79.7700583 L320.282054,79.7700583 C315.748135,79.7700583 312.076998,83.4452996 312.076998,87.9792192 C312.076998,92.5131388 315.756344,96.1883801 320.290264,96.1883801 Z" id="Shape" fill="#000000"></path>
                <path d="M412.099877,126.832357 L393.508591,126.832357 C364.778169,50.843438 291.838133,0.194557113 210.154519,0.194557113 C128.470084,0.194557113 55.5308689,50.844259 26.8012685,126.833178 L8.2091609,126.833178 C3.67524134,126.833178 0,130.508419 0,135.042339 L0,257.354731 C0,261.888651 3.67524134,265.563892 8.2091609,265.563892 L26.8004476,265.563892 C55.5308689,341.552811 128.470905,392.202513 210.153698,392.202513 C291.836491,392.202513 364.777348,341.552811 393.506949,265.563892 L412.098235,265.563892 C416.631334,265.563892 420.307396,261.888651 420.307396,257.354731 L420.307396,135.041518 C420.309038,130.507598 416.632976,126.832357 412.099877,126.832357 Z M210.154519,16.6128789 C282.896715,16.6128789 348.079094,60.4497981 375.849864,126.833178 L307.534869,126.833178 C285.075426,95.3206718 249.00191,76.6415471 210.154519,76.6415471 C171.307128,76.6415471 135.234433,95.3206718 112.774169,126.833178 L81.406965,126.833178 C106.828274,79.7528191 156.136598,49.9305793 210.154519,49.9305793 C238.156788,49.9305793 265.385754,57.9033164 288.900074,72.9860077 C292.717334,75.4339795 297.793879,74.3249219 300.241851,70.508483 C302.690643,66.6920441 301.580765,61.6146781 297.765147,59.1667063 C271.600909,42.3830768 241.305822,33.5122575 210.154519,33.5122575 C147.138537,33.5122575 89.8878491,69.9904849 63.01434,126.833178 L44.4583527,126.833178 C72.229944,60.450619 137.412323,16.6128789 210.154519,16.6128789 Z M286.488223,126.832357 L133.821636,126.832357 C153.226451,105.450776 180.771469,93.059048 210.15534,93.059048 C239.537569,93.0598689 267.082587,105.450776 286.488223,126.832357 Z M210.154519,375.78337 C137.412323,375.78337 72.229944,331.946451 44.4591736,265.563071 L63.0085936,265.563071 C89.8812818,322.467333 146.938234,358.883992 210.15534,358.883992 C214.68926,358.883992 218.364501,355.20875 218.364501,350.674831 C218.364501,346.140911 214.68926,342.46567 210.15534,342.46567 C155.960922,342.46567 106.797079,312.693506 81.3938303,265.563071 L112.77499,265.563071 C135.235254,297.075577 171.307949,315.754702 210.15534,315.754702 C249.002731,315.754702 285.075426,297.075577 307.53569,265.563071 L375.851506,265.563071 C348.079094,331.94563 282.896715,375.78337 210.154519,375.78337 Z M133.821636,265.563071 L286.488223,265.563071 C267.083408,286.944652 239.53839,299.33638 210.154519,299.33638 C180.770649,299.33638 153.226451,286.944652 133.821636,265.563071 Z M117.105322,249.14475 L32.5526066,249.14475 L32.5460393,249.14475 L16.4183218,249.14475 L16.4183218,143.250679 L32.5460393,143.250679 C32.5485021,143.250679 32.5501439,143.2515 32.5526066,143.2515 L117.098755,143.2515 C117.101217,143.2515 117.102859,143.250679 117.105322,143.250679 L303.203716,143.250679 C303.206179,143.250679 303.207821,143.2515 303.210283,143.2515 L387.755611,143.2515 C387.758073,143.2515 387.759715,143.250679 387.762178,143.250679 L403.889895,143.250679 L403.889895,249.14475 L387.762178,249.14475 L387.755611,249.14475 L303.210283,249.14475 L303.203716,249.14475 L117.105322,249.14475 L117.098755,249.14475 L117.105322,249.14475 Z" id="Shape" fill="#000000"></path>
                <path d="M74.3364147,226.675455 C71.4779849,226.675455 68.6187341,225.329974 68.6187341,222.639832 L68.6187341,169.168641 C68.6187341,166.394766 71.897473,165.217572 75.1762119,165.217572 C78.4549507,165.217572 81.7336896,166.394766 81.7336896,169.168641 L81.7336896,215.240915 L100.902901,215.240915 C103.425576,215.240915 104.686503,218.100166 104.686503,220.957775 C104.686503,223.816205 103.424755,226.674634 100.902901,226.674634 L74.3364147,226.674634 L74.3364147,226.675455 Z" id="Shape" fill="#000000"></path>
                <path d="M108.385551,207.337956 L108.385551,185.058293 C108.385551,170.597856 117.38115,165.216751 128.983978,165.216751 C140.585985,165.216751 149.666138,170.597856 149.666138,185.058293 L149.666138,207.337956 C149.666138,221.798393 140.585985,227.178677 128.983978,227.178677 C117.38115,227.179498 108.385551,221.798393 108.385551,207.337956 Z M136.550362,185.057472 C136.550362,179.256879 133.691932,176.64965 128.983978,176.64965 C124.275203,176.64965 121.501328,179.256058 121.501328,185.057472 L121.501328,207.337135 C121.501328,213.137728 124.275203,215.744137 128.983978,215.744137 C133.691932,215.744137 136.550362,213.137728 136.550362,207.337135 L136.550362,185.057472 Z" id="Shape" fill="#000000"></path>
                <path d="M187.16148,223.143874 L171.187274,194.053892 L171.187274,222.639011 C171.187274,225.329153 167.908535,226.674634 164.629796,226.674634 C161.351057,226.674634 158.072319,225.329153 158.072319,222.639011 L158.072319,169.251554 C158.072319,166.476858 161.351057,165.21593 164.629796,165.21593 C169.338571,165.21593 171.103541,165.636239 174.298546,171.773408 L187.918365,197.752119 L187.918365,169.166179 C187.918365,166.392303 191.197104,165.21511 194.475843,165.21511 C197.754582,165.21511 201.03332,166.392303 201.03332,169.166179 L201.03332,222.637369 C201.03332,225.327511 197.754582,226.672993 194.475843,226.672993 C191.449125,226.675455 188.758983,226.086859 187.16148,223.143874 Z" id="Shape" fill="#000000"></path>
                <path d="M230.710258,165.216751 C242.313086,165.216751 251.393239,170.597856 251.393239,185.058293 L251.393239,206.833093 C251.393239,221.29435 242.313086,226.674634 230.710258,226.674634 L215.829512,226.674634 C212.382485,226.674634 210.111831,224.82511 210.111831,222.722744 L210.111831,169.167821 C210.111831,167.065454 212.381664,165.216751 215.829512,165.216751 L230.710258,165.216751 L230.710258,165.216751 Z M223.227608,176.650471 L223.227608,215.240094 L230.710258,215.240094 C235.419033,215.240094 238.277462,212.549952 238.277462,206.833093 L238.277462,185.058293 C238.277462,179.341434 235.419033,176.650471 230.710258,176.650471 L223.227608,176.650471 L223.227608,176.650471 Z" id="Shape" fill="#000000"></path>
                <path d="M259.042535,207.337956 L259.042535,185.058293 C259.042535,170.597856 268.038133,165.216751 279.640141,165.216751 C291.242148,165.216751 300.322301,170.597856 300.322301,185.058293 L300.322301,207.337956 C300.322301,221.798393 291.242148,227.178677 279.640141,227.178677 C268.038133,227.179498 259.042535,221.798393 259.042535,207.337956 Z M287.207345,185.057472 C287.207345,179.256879 284.348915,176.64965 279.640961,176.64965 C274.932187,176.64965 272.158311,179.256058 272.158311,185.057472 L272.158311,207.337135 C272.158311,213.137728 274.932187,215.744137 279.640961,215.744137 C284.348915,215.744137 287.207345,213.137728 287.207345,207.337135 L287.207345,185.057472 Z" id="Shape" fill="#000000"></path>
                <path d="M337.818464,223.143874 L321.843437,194.053892 L321.843437,222.639011 C321.843437,225.329153 318.564698,226.674634 315.285959,226.674634 C312.00722,226.674634 308.728481,225.329153 308.728481,222.639011 L308.728481,169.251554 C308.728481,166.476858 312.00722,165.21593 315.285959,165.21593 C319.994734,165.21593 321.759703,165.636239 324.954709,171.773408 L338.574528,197.752119 L338.574528,169.166179 C338.574528,166.392303 341.853266,165.21511 345.132005,165.21511 C348.410744,165.21511 351.689483,166.392303 351.689483,169.166179 L351.689483,222.637369 C351.689483,225.327511 348.410744,226.672993 345.132005,226.672993 C342.106109,226.675455 339.415967,226.086859 337.818464,223.143874 Z" id="Shape" fill="#000000"></path>
            </g>
        </g>
    </g>
</svg>