<?xml version="1.0" encoding="UTF-8"?>
<svg width="160px" height="160px" viewBox="0 0 160 160" version="1.1" xmlns="http://www.w3.org/2000/svg" xmlns:xlink="http://www.w3.org/1999/xlink">
    <!-- Generator: Sketch 41 (35326) - http://www.bohemiancoding.com/sketch -->
    <title>box7</title>
    <desc>Created with Sketch.</desc>
    <defs>
        <linearGradient x1="50%" y1="28.0296865%" x2="50%" y2="100%" id="linearGradient-1">
            <stop stop-color="#FF0096" offset="0%"></stop>
            <stop stop-color="#9C00FF" offset="100%"></stop>
        </linearGradient>
        <linearGradient x1="50%" y1="0%" x2="50%" y2="100%" id="linearGradient-2">
            <stop stop-color="#FF0096" offset="0%"></stop>
            <stop stop-color="#9C00FF" offset="100%"></stop>
        </linearGradient>
    </defs>
    <g id="Page-1" stroke="none" stroke-width="1" fill="none" fill-rule="evenodd">
        <g id="box7">
            <g id="bitcoin" transform="translate(49.000000, 50.000000)">
                <path d="M30.7895286,61.5790572 C22.5654885,61.5790572 14.8333402,58.3763562 9.01802069,52.5610365 C3.20270103,46.745717 0,39.0135688 0,30.7895286 C0,22.5654885 3.20270103,14.8333402 9.01802069,9.01802069 C14.8333402,3.20270103 22.5654885,0 30.7895286,0 C39.0135688,0 46.745717,3.20270103 52.5610365,9.01802069 C58.3763562,14.8333402 61.5790572,22.5654885 61.5790572,30.7895286 C61.5790572,39.0135688 58.3763562,46.745717 52.5610365,52.5610365 C46.745717,58.3763562 39.0135688,61.5790572 30.7895286,61.5790572 Z M30.7895286,3.55271014 C15.7710828,3.55271014 3.55271014,15.7710828 3.55271014,30.7895286 C3.55271014,45.8079744 15.7710828,58.0263471 30.7895286,58.0263471 C45.8079744,58.0263471 58.0263471,45.8079744 58.0263471,30.7895286 C58.0263471,15.7710828 45.8079744,3.55271014 30.7895286,3.55271014 Z" id="Shape" fill="url(#linearGradient-1)"></path>
                <path d="M38.8922705,26.5042346 C38.8922705,23.5403838 36.4808343,21.128453 33.5164889,21.128453 L32.6594301,21.128453 L32.6594301,18.323848 C32.6594301,17.2912232 31.8221534,16.4539465 30.7895286,16.4539465 C29.7569038,16.4539465 28.9196271,17.2912232 28.9196271,18.323848 L28.9196271,21.128453 L24.5566883,21.128453 C23.5240635,21.128453 22.6867868,21.9657299 22.6867868,22.9983547 L22.6867868,38.5807026 C22.6867868,39.6133274 23.5240635,40.4506042 24.5566883,40.4506042 L28.9196271,40.4506042 L28.9196271,43.2552093 C28.9196271,44.2878341 29.7569038,45.1251108 30.7895286,45.1251108 C31.8221534,45.1251108 32.6594301,44.2878341 32.6594301,43.2552093 L32.6594301,40.4506042 L33.5164889,40.4506042 C36.4808343,40.4506042 38.8922705,38.0386734 38.8922705,35.0748227 L38.8922705,34.2954085 C38.8922705,32.956656 38.399202,31.7316504 37.5866529,30.7895286 C38.399202,29.8474069 38.8922705,28.6224012 38.8922705,27.2836487 L38.8922705,26.5042346 Z M26.4265898,24.8682562 L33.5164889,24.8682562 C34.418552,24.8682562 35.1524674,25.6021715 35.1524674,26.5042346 L35.1524674,27.2836487 C35.1524674,28.1857118 34.418552,28.9196271 33.5164889,28.9196271 L26.4265898,28.9196271 L26.4265898,24.8682562 Z M35.1524674,35.0748227 C35.1524674,35.9768857 34.418552,36.710801 33.5164889,36.710801 L26.4265898,36.710801 L26.4265898,32.6594301 L33.5164889,32.6594301 C34.418552,32.6594301 35.1524674,33.3933455 35.1524674,34.2954085 L35.1524674,35.0748227 Z" id="Shape" fill="url(#linearGradient-2)"></path>
            </g>
        </g>
    </g>
</svg>