<?xml version="1.0" encoding="UTF-8"?>
<svg width="160px" height="160px" viewBox="0 0 160 160" version="1.1" xmlns="http://www.w3.org/2000/svg" xmlns:xlink="http://www.w3.org/1999/xlink">
    <!-- Generator: Sketch 41 (35326) - http://www.bohemiancoding.com/sketch -->
    <title>box8</title>
    <desc>Created with Sketch.</desc>
    <defs></defs>
    <g id="Page-1" stroke="none" stroke-width="1" fill="none" fill-rule="evenodd">
        <g id="box8" fill="#2AFFD6">
            <g id="ethereum" transform="translate(49.802090, 49.802090)">
                <path d="M5.06717297,35.4692828 C2.27310697,35.4692828 7.10542736e-15,33.1961759 7.10542736e-15,30.4021099 C7.10542736e-15,27.6080439 2.27310697,25.3349369 5.06717297,25.3349369 C7.86077499,25.3349369 10.133882,27.6080439 10.133882,30.4021099 C10.133882,33.1961759 7.86077499,35.4692828 5.06717297,35.4692828 L5.06717297,35.4692828 Z M5.06717297,27.3617134 C3.39064055,27.3617134 2.02677637,28.7260414 2.02677637,30.4021099 C2.02677637,32.0781783 3.39064055,33.4425063 5.06717297,33.4425063 C6.74324141,33.4425063 8.10710559,32.0781783 8.10710559,30.4021099 C8.10710559,28.7260414 6.74324141,27.3617134 5.06717297,27.3617134 L5.06717297,27.3617134 Z" id="Shape"></path>
                <path d="M55.7370467,35.4692828 C52.9434447,35.4692828 50.6703378,33.1961759 50.6703378,30.4021099 C50.6703378,27.6080439 52.9434447,25.3349369 55.7370467,25.3349369 C58.5311128,25.3349369 60.8042197,27.6080439 60.8042197,30.4021099 C60.8042197,33.1961759 58.5311128,35.4692828 55.7370467,35.4692828 L55.7370467,35.4692828 Z M55.7370467,27.3617134 C54.0609783,27.3617134 52.6971141,28.7260414 52.6971141,30.4021099 C52.6971141,32.0781783 54.0609783,33.4425063 55.7370467,33.4425063 C57.4135792,33.4425063 58.7774434,32.0781783 58.7774434,30.4021099 C58.7774434,28.7260414 57.4135792,27.3617134 55.7370467,27.3617134 L55.7370467,27.3617134 Z" id="Shape"></path>
                <path d="M30.4021099,60.8042197 C27.6080439,60.8042197 25.3349369,58.5311128 25.3349369,55.7370467 C25.3349369,52.9434447 27.6080439,50.6703378 30.4021099,50.6703378 C33.1961759,50.6703378 35.4692828,52.9434447 35.4692828,55.7370467 C35.4692828,58.5311128 33.1961759,60.8042197 30.4021099,60.8042197 L30.4021099,60.8042197 Z M30.4021099,52.6971141 C28.7260414,52.6971141 27.3617134,54.0609783 27.3617134,55.7370467 C27.3617134,57.4135792 28.7260414,58.7774434 30.4021099,58.7774434 C32.0781783,58.7774434 33.4425063,57.4135792 33.4425063,55.7370467 C33.4425063,54.0609783 32.0781783,52.6971141 30.4021099,52.6971141 Z" id="Shape"></path>
                <path d="M30.4021099,10.133882 C27.6080439,10.133882 25.3349369,7.86077499 25.3349369,5.06717297 C25.3349369,2.27310697 27.6080439,2.84217094e-14 30.4021099,2.84217094e-14 C33.1961759,2.84217094e-14 35.4692828,2.27310697 35.4692828,5.06717297 C35.4692828,7.86077499 33.1961759,10.133882 30.4021099,10.133882 L30.4021099,10.133882 Z M30.4021099,2.02677637 C28.7260414,2.02677637 27.3617134,3.39064055 27.3617134,5.06717297 C27.3617134,6.74324141 28.7260414,8.10710559 30.4021099,8.10710559 C32.0781783,8.10710559 33.4425063,6.74324141 33.4425063,5.06717297 C33.4425063,3.39064055 32.0781783,2.02677637 30.4021099,2.02677637 Z" id="Shape"></path>
                <path d="M55.4151006,27.3941863 C54.9256868,27.3941863 54.4947243,27.0388394 54.4158613,26.5401475 C54.10876,24.615429 53.5683171,22.7306058 52.8116973,20.9399542 C52.5936645,20.4240981 52.8348922,19.829379 53.3507483,19.6113464 C53.8656767,19.3923859 54.4603957,19.6326857 54.6793562,20.1494697 C55.4999943,22.0922803 56.0858991,24.1352931 56.418051,26.2209848 C56.506192,26.773025 56.1295057,27.2930561 55.5770015,27.3811971 C55.5213336,27.3904751 55.4675212,27.3941863 55.4151006,27.3941863 L55.4151006,27.3941863 Z" id="Shape"></path>
                <path d="M50.4625108,15.9437578 C50.1595846,15.9437578 49.8594416,15.8082992 49.6599649,15.5494434 C48.3851694,13.8979616 46.8992996,12.4130197 45.2464262,11.1372963 C44.8034023,10.7949387 44.7212921,10.1584686 45.0641138,9.71544477 C45.4055437,9.27149298 46.0429414,9.1917024 46.4859653,9.53220449 C48.2756891,10.9141608 49.8835644,12.5215721 51.2650567,14.3103681 C51.6064867,14.7543198 51.5253044,15.3893981 51.0827443,15.731292 C50.8971845,15.8751007 50.6791519,15.9437578 50.4625108,15.9437578 L50.4625108,15.9437578 Z" id="Shape"></path>
                <path d="M40.25858,8.07370483 C40.1268326,8.07370483 39.9927656,8.04865433 39.8642655,7.99391414 C38.0745418,7.23683035 36.1897185,6.6963876 34.2631444,6.38835841 C33.7111041,6.30021747 33.333954,5.78065016 33.4220949,5.22721823 C33.5102357,4.67471404 34.0302669,4.29385267 34.583235,4.38709642 C36.671246,4.72064011 38.7128673,5.30608118 40.6538223,6.12718303 C41.1696784,6.34475181 41.4109061,6.93993475 41.1919456,7.45579086 C41.028653,7.84175514 40.6538223,8.07370483 40.25858,8.07370483 Z" id="Shape"></path>
                <path d="M34.4222618,56.4305764 C33.9328481,56.4305764 33.5018855,56.0747655 33.4230226,55.5770015 C33.3348817,55.0235696 33.7111041,54.5040023 34.2640722,54.4158613 C36.1906464,54.1078321 38.0754695,53.5673894 39.8651934,52.8103056 C40.3810495,52.5936645 40.9748407,52.831645 41.1938012,53.3484289 C41.4118339,53.864285 41.1706062,54.4594679 40.6556779,54.6770367 C38.7151868,55.4981385 36.6731018,56.0835796 34.5855544,56.4171233 C34.5298865,56.4264013 34.4751464,56.4305764 34.4222618,56.4305764 L34.4222618,56.4305764 Z" id="Shape"></path>
                <path d="M45.8736182,51.4756671 C45.5706918,51.4756671 45.270549,51.3402085 45.0710722,51.0818164 C44.7287145,50.6378647 44.8108246,50.0023227 45.2533847,49.6608927 C46.9053304,48.3837776 48.3898084,46.8992996 49.6659956,45.2464262 C50.0083533,44.8034023 50.6438954,44.7226838 51.0878472,45.0631859 C51.5304072,45.4055437 51.6125173,46.0420135 51.2710874,46.4850375 C49.8900589,48.2742975 48.2826476,49.8826366 46.4938516,51.264129 C46.3082919,51.40701 46.0907231,51.4756671 45.8736182,51.4756671 L45.8736182,51.4756671 Z" id="Shape"></path>
                <path d="M53.7436711,41.272664 C53.6119237,41.272664 53.4783207,41.2476135 53.3498206,41.1928733 C52.8339645,40.9748407 52.5927368,40.3801216 52.8103056,39.8642655 C53.5683171,38.0726862 54.1078321,36.1887907 54.4149336,34.2640722 C54.5030744,33.712032 55.021714,33.3348817 55.5751459,33.4230226 C56.1271862,33.5111636 56.5043364,34.0311948 56.4161954,34.583235 C56.0835796,36.6698544 55.4981385,38.7119395 54.6770367,40.6547501 C54.514208,41.0397866 54.1389134,41.272664 53.7436711,41.272664 L53.7436711,41.272664 Z" id="Shape"></path>
                <path d="M7.06054859,41.272664 C6.66530631,41.272664 6.29001174,41.0407143 6.12625529,40.6547501 C5.30515333,38.7119395 4.71924838,36.6689266 4.38709642,34.583235 C4.2989556,34.0311948 4.67564189,33.5111636 5.22814609,33.4230226 C5.78157802,33.3348817 6.30021747,33.712032 6.38835841,34.2640722 C6.69545974,36.1887907 7.23590261,38.0736139 7.99252241,39.8642655 C8.21055518,40.3801216 7.9693275,40.9748407 7.45347139,41.1928733 C7.32589903,41.2466857 7.19229601,41.272664 7.06054859,41.272664 Z" id="Shape"></path>
                <path d="M14.9375601,51.4816978 C14.7218469,51.4816978 14.5038141,51.4130406 14.3191822,51.2710874 C12.5299222,49.8886673 10.9215832,48.2817199 9.54009075,46.4929239 C9.1986608,46.0489721 9.27984323,45.41343 9.7224033,45.072 C10.166355,44.7296422 10.8018971,44.8108246 11.1442549,45.2547763 C12.4190504,46.9062581 13.9049201,48.3912 15.5577935,49.6669234 C16.0008175,50.0092811 16.0829276,50.6457511 15.740106,51.0887749 C15.5406293,51.3462391 15.2414142,51.4816978 14.9375601,51.4816978 L14.9375601,51.4816978 Z" id="Shape"></path>
                <path d="M26.3819579,56.4305764 C26.3290733,56.4305764 26.2743332,56.4264013 26.2209848,56.4171233 C24.1329737,56.0835796 22.0913524,55.4981385 20.1503974,54.6770367 C19.6345413,54.4594679 19.3933136,53.864285 19.6122741,53.3484289 C19.8303069,52.831645 20.4250258,52.5936645 20.9408819,52.8103056 C22.7306058,53.5673894 24.615429,54.1078321 26.5420031,54.4158613 C27.0945073,54.5040023 27.4711935,55.0235696 27.3830527,55.5770015 C27.3023343,56.0747655 26.8713716,56.4305764 26.3819579,56.4305764 Z" id="Shape"></path>
                <path d="M20.5456397,8.07370483 C20.1503974,8.07370483 19.7755667,7.84175514 19.6122741,7.45579086 C19.3947053,6.93993475 19.635933,6.34475181 20.1503974,6.12718303 C22.0913524,5.30608118 24.1329737,4.72064011 26.2209848,4.38709642 C26.7720972,4.29292494 27.2930561,4.67471404 27.3821248,5.22721823 C27.4702658,5.78065016 27.0945073,6.30021747 26.5410753,6.38835841 C24.6145012,6.6963876 22.729678,7.23683035 20.9399542,7.99391414 C20.8114541,8.0472626 20.6773871,8.07370483 20.5456397,8.07370483 Z" id="Shape"></path>
                <path d="M10.3356782,15.9521081 C10.119965,15.9521081 9.90193227,15.8829871 9.71730037,15.7410338 C9.2747403,15.398676 9.19263014,14.7622062 9.53406009,14.3191822 C10.9155524,12.5299222 12.5224998,10.9215832 14.3112959,9.54009075 C14.7543198,9.19773307 15.3907897,9.27984323 15.7331476,9.7224033 C16.0755052,10.166355 15.9933951,10.8018971 15.550835,11.143327 C13.8988893,12.4204421 12.4144113,13.9049201 11.1382241,15.5577935 C10.9387474,15.8161856 10.6386045,15.9521081 10.3356782,15.9521081 Z" id="Shape"></path>
                <path d="M5.38911908,27.3941863 C5.33669848,27.3941863 5.28288616,27.3904751 5.22814609,27.3811971 C4.67564189,27.2930561 4.2989556,26.773025 4.38709642,26.2209848 C4.71924838,24.1343653 5.30515333,22.0922803 6.12625529,20.1494697 C6.34382407,19.6345413 6.93854302,19.3923859 7.45439913,19.6113464 C7.97025524,19.829379 8.21148292,20.4240981 7.99391414,20.9399542 C7.23590261,22.7315336 6.6963876,24.615429 6.38928615,26.5401475 C6.30949546,27.0397671 5.87853296,27.3941863 5.38911908,27.3941863 Z" id="Shape"></path>
                <path d="M30.4021099,48.6435613 C20.3443074,48.6435613 12.1606584,40.4599123 12.1606584,30.4021099 C12.1606584,20.3443074 20.3443074,12.1606584 30.4021099,12.1606584 C40.4599123,12.1606584 48.6435613,20.3443074 48.6435613,30.4021099 C48.6435613,40.4599123 40.4599123,48.6435613 30.4021099,48.6435613 Z M30.4021099,14.1874348 C21.4609132,14.1874348 14.1874348,21.461841 14.1874348,30.4021099 C14.1874348,39.3423787 21.4609132,46.6167849 30.4021099,46.6167849 C39.3433065,46.6167849 46.6167849,39.3423787 46.6167849,30.4021099 C46.6167849,21.461841 39.3433065,14.1874348 30.4021099,14.1874348 L30.4021099,14.1874348 Z" id="Shape"></path>
                <path d="M17.2278313,31.41573 C16.6683687,31.41573 16.214675,30.9625003 16.214675,30.4021099 C16.214675,22.5784468 22.5784468,16.214675 30.4021099,16.214675 C30.9615726,16.214675 31.41573,16.6674408 31.41573,17.2278313 C31.41573,17.7882218 30.9615726,18.2414514 30.4021099,18.2414514 C23.6964443,18.2414514 18.2414514,23.6964443 18.2414514,30.4021099 C18.2414514,30.9625003 17.787294,31.41573 17.2278313,31.41573 Z" id="Shape"></path>
                <path d="M30.4021099,44.5895447 C29.8426471,44.5895447 29.3884897,44.1367789 29.3884897,43.5763884 C29.3884897,43.015998 29.8426471,42.5627683 30.4021099,42.5627683 C37.1077754,42.5627683 42.5627683,37.1077754 42.5627683,30.4021099 C42.5627683,29.8417194 43.0169257,29.3884897 43.5763884,29.3884897 C44.135851,29.3884897 44.5895447,29.8417194 44.5895447,30.4021099 C44.5895447,38.2257729 38.2257729,44.5895447 30.4021099,44.5895447 L30.4021099,44.5895447 Z" id="Shape"></path>
                <path d="M35.4692828,33.4425063 C35.3426382,33.4425063 35.2146021,33.4188476 35.0930604,33.3701382 L30.4021099,31.4936651 L25.7111593,33.3701382 C25.32102,33.5246166 24.873821,33.4248782 24.5894507,33.1149934 C24.3046164,32.8060365 24.2405983,32.351879 24.4280136,31.9761204 L29.4951865,21.8417746 C29.8384721,21.1547395 30.9643559,21.1547395 31.3081053,21.8417746 L36.3752783,31.9761204 C36.5636214,32.351879 36.4996033,32.8060365 36.2138413,33.1149934 C36.0194674,33.3279233 35.7466946,33.4425063 35.4692828,33.4425063 Z M30.4021099,29.3884897 C30.5296822,29.3884897 30.6577184,29.4121485 30.7778683,29.460858 L33.3701382,30.4972092 L30.4021099,24.5606888 L27.4340816,30.4972092 L30.0263514,29.460858 C30.1465013,29.4121485 30.2745375,29.3884897 30.4021099,29.3884897 L30.4021099,29.3884897 Z" id="Shape"></path>
                <path d="M30.4021099,39.5228356 C30.1010392,39.5228356 29.8162049,39.3887687 29.6236866,39.1591385 L24.5569777,33.0783454 C24.3491507,32.8292314 24.2730712,32.4956877 24.3533258,32.1807 C24.4331165,31.8652485 24.6581077,31.609176 24.9591784,31.4876344 L30.0263514,29.460858 C30.2671151,29.3634391 30.5371046,29.3634391 30.77926,29.460858 L35.8459691,31.4876344 C36.1470398,31.6082483 36.3729588,31.8652485 36.4522855,32.1807 C36.5311485,32.4956877 36.4559967,32.8292314 36.2486338,33.0783454 L31.1814608,39.1591385 C30.9880148,39.3887687 30.7031805,39.5228356 30.4021099,39.5228356 Z M27.0063664,32.8514986 L30.4021099,36.9263908 L33.7978533,32.8514986 L30.4021099,31.4936651 L27.0063664,32.8514986 Z" id="Shape"></path>
            </g>
        </g>
    </g>
</svg>