<?xml version="1.0" encoding="UTF-8"?>
<svg width="1500px" height="960px" viewBox="0 0 1500 960" version="1.1" xmlns="http://www.w3.org/2000/svg" xmlns:xlink="http://www.w3.org/1999/xlink">
    <!-- Generator: Sketch 41 (35326) - http://www.bohemiancoding.com/sketch -->
    <title>box9</title>
    <desc>Created with Sketch.</desc>
    <defs></defs>
    <g id="Page-1" stroke="none" stroke-width="1" fill="none" fill-rule="evenodd">
        <g id="underground" fill="#005CE9">
            <rect id="Rectangle-2-Copy-6" x="0.191045195" y="0" width="1500" height="960"></rect>
        </g>
        <g id="box9" fill-opacity="0.7" fill="#FFFFFF">
            <g id="001-worldwide" transform="translate(553.244815, 392.358291)">
                <path d="M377.559851,120.867013 C347.032448,49.3269077 276.093675,0 195.836172,0 C86.6824655,0 0,90.0516156 0,197.372142 C0,305.611946 87.5879198,393.208313 195.836172,393.208313 C303.274199,393.208313 393.208313,306.403738 393.208313,197.372142 C393.208313,170.94117 387.943776,145.201385 377.559851,120.867013 Z M359.999874,138.701161 C339.822605,122.730913 313.748747,111.588987 288.783091,104.497413 C281.696893,79.5064137 270.577239,53.4287155 254.474129,33.1961511 C303.495379,50.7591997 342.428378,89.6845188 359.999874,138.701161 Z M289.667809,185.859279 C295.95607,185.934541 301.050115,191.066217 301.050115,197.372142 C301.050115,203.678066 295.95607,208.809742 289.667809,208.885005 C289.623266,208.881933 289.580259,208.872717 289.535716,208.870413 C289.342952,208.858125 289.154027,208.865805 288.963567,208.863501 C282.878054,208.564755 278.015173,203.536757 278.011333,197.379821 L278.011333,197.372142 L278.011333,197.364462 C278.015173,191.286629 282.752873,186.307782 288.727796,185.89307 C288.755443,185.89307 288.782323,185.89691 288.809202,185.89691 C289.049581,185.89691 289.292265,185.88923 289.535716,185.87387 C289.580259,185.870798 289.623266,185.862351 289.667809,185.859279 Z M207.355946,24.9518322 C229.433211,32.2430817 249.596657,59.9235646 262.672369,98.3343337 C245.005642,94.9575037 226.408886,92.9269514 207.355946,92.3417468 L207.355946,24.9518322 Z M207.355946,115.39128 C229.172096,116.10013 250.265572,118.818029 269.81079,123.369876 C272.910377,136.609169 275.21126,150.69939 276.56445,165.3464 C267.445396,169.051927 260.256288,176.537477 256.952417,185.852367 L207.355946,185.852367 L207.355946,115.39128 Z M207.355946,208.891916 L256.952417,208.891916 C260.256288,218.207574 267.446932,225.69466 276.566753,229.39942 C275.276539,243.455081 273.116197,257.069151 270.156383,269.969762 C256.740453,273.020199 242.542715,275.247355 227.865754,276.573665 C224.161762,267.450772 216.673908,260.257056 207.355946,256.952417 L207.355946,208.891916 Z M137.141383,33.401203 C129.397022,43.3135853 122.35844,55.2826313 116.234528,69.1447603 C115.888935,69.1347765 115.545645,69.1186488 115.197748,69.1186488 C93.2356814,69.1186488 76.6134143,89.5247779 81.4824391,111.240321 C62.4986182,118.421749 46.2864552,127.456324 33.4426742,137.776507 C50.9442841,89.3850046 89.1254257,50.94966 137.141383,33.401203 Z M126.717523,103.677973 C126.717523,110.029977 121.549752,115.197748 115.197748,115.197748 C108.845744,115.197748 103.677973,110.029977 103.677973,103.677973 C103.677973,97.3259694 108.845744,92.1581984 115.197748,92.1581984 C121.549752,92.1581984 126.717523,97.3259694 126.717523,103.677973 Z M94.2171662,131.114237 C95.247802,131.903725 96.320677,132.639455 97.4373272,133.311442 C94.6211263,149.783952 92.8685845,167.866926 92.3363709,185.852367 L24.9149689,185.852367 C31.8137781,164.484721 57.345439,144.093183 94.2171662,131.114237 Z M92.332531,208.891916 C92.8923921,227.979415 94.837698,246.252082 97.9856685,263.375075 C59.4573977,250.688731 32.1071483,230.933086 24.9203448,208.891916 L92.332531,208.891916 Z M33.2652697,255.940213 C53.3327174,271.690817 79.0717342,282.36888 103.875345,289.207786 C111.750263,317.822139 123.243159,342.082017 137.291908,359.951491 C89.0386434,342.522072 50.7016008,304.190405 33.2652697,255.940213 Z M184.316397,368.21885 C156.96154,359.040661 138.802535,322.433121 129.771031,295.141238 C140.449862,297.120336 151.493486,298.620978 162.78133,299.613215 C165.983059,310.090066 174.039222,318.463406 184.316397,322.108263 L184.316397,368.21885 Z M184.316397,256.952417 C174.999203,260.257056 167.511349,267.449236 163.807358,276.571361 C149.493654,275.270395 135.78205,273.110053 122.915229,270.217822 C118.623729,251.071188 116.061731,230.368617 115.385136,208.891916 L184.316397,208.891916 L184.316397,256.952417 Z M184.316397,185.852367 L115.385136,185.852367 C115.899686,169.402128 117.494023,152.924243 120.02991,137.892472 C131.631859,136.261272 141.405236,128.854825 146.329555,118.675952 C158.68413,116.894995 171.403497,115.808296 184.316397,115.397424 L184.316397,185.852367 Z M184.316397,92.3486587 C172.250585,92.7096116 160.33453,93.6327296 148.683429,95.1195485 C146.906312,88.1700524 143.01186,82.0638038 137.738107,77.5142607 C150.353797,49.4052422 166.963008,30.7854462 184.316397,24.9848556 L184.316397,92.3486587 Z M195.836172,301.050115 C189.530247,301.050115 184.398571,295.95607 184.323309,289.668577 C184.326381,289.624034 184.335596,289.581027 184.3379,289.535716 C184.34942,289.345256 184.34174,289.158635 184.344812,288.970479 C184.639719,282.878822 189.673092,278.010565 195.836172,278.010565 C201.999251,278.010565 207.032625,282.878822 207.327531,288.970479 C207.329835,289.159403 207.322155,289.346024 207.334443,289.535716 C207.337515,289.581027 207.345963,289.624034 207.349035,289.668577 C207.273772,295.95607 202.142096,301.050115 195.836172,301.050115 Z M207.355946,368.286432 L207.355946,322.108263 C217.633122,318.463406 225.688516,310.090834 228.891013,299.613983 C240.598945,298.587187 252.053441,297.014354 263.126248,294.93465 C253.811358,322.454624 234.941967,359.328656 207.355946,368.286432 Z M254.930312,359.94074 C271.119436,339.651344 282.090101,313.721099 289.065709,288.941296 C313.78945,282.07935 339.816461,271.306824 360.010626,255.494781 C342.499033,303.943882 303.748046,342.452953 254.930312,359.94074 Z M295.119735,263.043306 C297.112656,252.477368 298.617138,241.566606 299.607839,230.428519 C310.087762,227.227558 318.462638,219.01703 322.108263,208.738319 L368.208098,208.738319 C359.089812,235.651585 322.270308,254.01641 295.119735,263.043306 Z M322.108263,185.852367 C318.462638,175.573656 310.087762,167.516725 299.608607,164.315764 C298.584883,152.773717 297.00821,141.465907 294.916219,130.519049 C322.416225,139.915345 359.029141,158.593508 368.208866,185.852367 L322.108263,185.852367 Z" id="Shape"></path>
            </g>
        </g>
    </g>
</svg>