<?xml version="1.0" encoding="UTF-8"?>
<svg width="200px" height="200px" viewBox="0 0 200 200" version="1.1" xmlns="http://www.w3.org/2000/svg" xmlns:xlink="http://www.w3.org/1999/xlink">
    <!-- Generator: Sketch 41 (35326) - http://www.bohemiancoding.com/sketch -->
    <title>iso</title>
    <desc>Created with Sketch.</desc>
    <defs></defs>
    <g id="Page-1" stroke="none" stroke-width="1" fill="none" fill-rule="evenodd">
        <g id="iso">
            <ellipse id="Oval" stroke="#FFFFFF" stroke-width="6" cx="100" cy="100" rx="80.3375809" ry="80.3375809"></ellipse>
            <g id="Group" transform="translate(74.347654, 58.240366)" fill="#FFFFFF">
                <path d="M1.49698344,67.4443147 C0.937003837,67.4443147 0.517025436,67.2406888 0.237035635,66.8334309 C-0.042954166,66.426173 -0.0556807842,65.9680148 0.198855398,65.4589424 L23.9469625,14.0683441 C24.2014987,13.5083645 24.6342037,13.2283789 25.2450905,13.2283789 L26.0086953,13.2283789 C26.6195821,13.2283789 27.0522871,13.5083645 27.3068233,14.0683441 L50.825849,65.4589424 C51.0803852,65.9680148 51.0676585,66.426173 50.7876687,66.8334309 C50.5076789,67.2406888 50.0877005,67.4443147 49.5277209,67.4443147 L42.8843598,67.4443147 C41.9171223,67.4443147 41.1789784,66.93525 40.6699061,65.9171052 L36.9282429,57.6701741 L14.0964615,57.6701741 L10.3547983,65.9171052 C9.94754041,66.93525 9.20939655,67.4443147 8.14034459,67.4443147 L1.49698344,67.4443147 Z M17.8381247,49.1941617 L33.1865797,49.1941617 L25.5505324,32.3948576 L25.321451,32.3948576 L17.8381247,49.1941617 Z M15.7000314,5.74505253 C15.2927735,5.74505253 14.9491548,5.61778635 14.669165,5.36325017 C14.3891752,5.10871399 14.2491824,4.77782191 14.2491824,4.37056402 L14.2491824,1.77430794 C14.2491824,0.807070447 14.7327939,0.323458954 15.7000314,0.323458954 L35.2483125,0.323458954 C36.21555,0.323458954 36.6991615,0.807070447 36.6991615,1.77430794 L36.6991615,4.37056402 C36.6991615,4.77782191 36.5591687,5.10871399 36.2791789,5.36325017 C35.9991891,5.61778635 35.6555704,5.74505253 35.2483125,5.74505253 L15.7000314,5.74505253 Z" id="Ā"></path>
            </g>
        </g>
    </g>
</svg>