<?xml version="1.0" encoding="UTF-8"?>
<svg width="375px" height="667px" viewBox="0 0 375 667" version="1.1" xmlns="http://www.w3.org/2000/svg" xmlns:xlink="http://www.w3.org/1999/xlink">
    <!-- Generator: Sketch 41 (35326) - http://www.bohemiancoding.com/sketch -->
    <title>Weather App Days</title>
    <desc>Created with Sketch.</desc>
    <defs>
        <linearGradient x1="50%" y1="0%" x2="50%" y2="100%" id="linearGradient-1">
            <stop stop-color="#FF83AF" offset="0%"></stop>
            <stop stop-color="#6133FF" offset="100%"></stop>
        </linearGradient>
        <linearGradient x1="89.7396952%" y1="5.2450977e-16%" x2="89.7396982%" y2="99.9489963%" id="linearGradient-2">
            <stop stop-color="#FF0059" offset="0%"></stop>
            <stop stop-color="#3A00FF" offset="100%"></stop>
        </linearGradient>
        <linearGradient x1="4.96060177e-07%" y1="99.9999939%" x2="100.000006%" y2="99.9999939%" id="linearGradient-3">
            <stop stop-color="#4F4F4F" stop-opacity="0.13084112" offset="0%"></stop>
            <stop stop-color="#4F4F4F" offset="7%"></stop>
            <stop stop-color="#4F4F4F" stop-opacity="0.95327103" offset="93.699998%"></stop>
            <stop stop-color="#4F4F4F" stop-opacity="0" offset="100%"></stop>
        </linearGradient>
        <linearGradient x1="5.08779674e-07%" y1="-7.58274287e-05%" x2="100.000007%" y2="-7.58274287e-05%" id="linearGradient-4">
            <stop stop-color="#4F4F4F" stop-opacity="0.13084112" offset="0%"></stop>
            <stop stop-color="#4F4F4F" offset="7%"></stop>
            <stop stop-color="#4F4F4F" stop-opacity="0.95327103" offset="93.699998%"></stop>
            <stop stop-color="#4F4F4F" stop-opacity="0" offset="100%"></stop>
        </linearGradient>
        <linearGradient x1="89.7396982%" y1="100%" x2="89.7396952%" y2="0%" id="linearGradient-5">
            <stop stop-color="#3A00FF" offset="0%"></stop>
            <stop stop-color="#FF0059" offset="100%"></stop>
        </linearGradient>
        <filter x="-50%" y="-50%" width="200%" height="200%" filterUnits="objectBoundingBox" id="filter-6">
            <feGaussianBlur stdDeviation="5.64174107" in="SourceGraphic"></feGaussianBlur>
        </filter>
        <filter x="-50%" y="-50%" width="200%" height="200%" filterUnits="objectBoundingBox" id="filter-7">
            <feGaussianBlur stdDeviation="5.89006696" in="SourceGraphic"></feGaussianBlur>
        </filter>
        <filter x="-50%" y="-50%" width="200%" height="200%" filterUnits="objectBoundingBox" id="filter-8">
            <feGaussianBlur stdDeviation="5.89006696" in="SourceGraphic"></feGaussianBlur>
        </filter>
    </defs>
    <g id="Page-1" stroke="none" stroke-width="1" fill="none" fill-rule="evenodd">
        <g id="Weather-App-Days">
            <g id="layer2" transform="translate(0.000000, -0.319748)">
                <rect id="Rectangle-Copy" fill="url(#linearGradient-1)" x="0" y="0.319747609" width="375" height="667"></rect>
                <path d="M89.6168422,61.6920413 C75.4575174,61.6920413 64.0585584,73.0910003 64.0585584,87.2503251 L64.0585584,575.903663 C64.0585584,590.062987 75.4575174,601.46195 89.6168422,601.46195 L287.598983,601.46195 C301.758308,601.46195 313.15727,590.062987 313.15727,575.903663 L313.15727,87.2503251 C313.15727,73.0910003 301.758308,61.6920413 287.598983,61.6920413 L262.59791,61.6920413 C260.24011,61.6922273 258.328781,63.6035535 258.328592,65.9613534 L258.328592,67.9271358 C258.328592,75.6199967 252.136465,81.8136837 244.443607,81.8136837 L132.772221,81.8136837 C125.079363,81.8136837 118.887233,75.6199967 118.887233,67.9271358 L118.887233,65.9613534 C118.887043,63.603556 116.975718,61.6922309 114.617921,61.6920413 L89.6168422,61.6920413 Z" id="rect5872" fill="url(#linearGradient-2)"></path>
                <g id="layer2-copy" transform="translate(45.065151, 44.000000)">
                    <path d="M42.7888104,0.599228987 C19.4872386,0.599228987 0.729168431,19.3573142 0.729168431,42.6588782 L0.729168431,532.493538 C0.729168431,555.795109 19.4872386,574.554745 42.7888104,574.554745 L128.027191,574.554745 L129.768849,572.086258 L135.951,572.086258 L149.264802,572.086258 L155.445418,572.086258 L157.188641,574.554745 L242.426992,574.554745 C265.728563,574.554745 284.486663,555.795109 284.486663,532.493538 L284.486663,42.6588782 C284.486663,19.3573142 265.728563,0.599228987 242.426992,0.599228987 L42.7888104,0.599228987 Z" id="rect4852" fill="#FFFFFF"></path>
                    <g id="g5823" transform="translate(92.535188, 19.344317)" fill-opacity="0.1">
                        <rect id="rect5261" fill="#1E1E1E" x="33.2098257" y="2.52764294" width="34.2238699" height="4.34024122"></rect>
                        <ellipse id="path5263" fill="#2B2B2B" cx="81.0647495" cy="4.41868741" rx="4.0500917" ry="4.0500917"></ellipse>
                        <path d="M27.832437,4.7919971 C27.8324369,6.54591393 26.4140294,7.96955058 24.6601245,7.9760048 C22.9062195,7.9824594 21.4773726,6.56930074 21.4644638,4.81543144 C21.4515551,3.06156206 22.8594464,1.62752458 24.6132564,1.60816199 C26.3670669,1.58879813 27.8062768,2.99140255 27.8320936,4.74512994 L24.6484082,4.79199801 L27.832437,4.7919971 Z" id="path5267-7" fill="#0F0F0F"></path>
                        <path d="M9.77607782,4.86675048 C9.77607786,7.47036201 7.63658088,9.58368747 4.99102607,9.59326879 C2.3454712,9.6028501 0.190227444,7.50507863 0.170756266,4.90153754 C0.151284988,2.29799653 2.27491942,0.169231511 4.92033092,0.14048818 C7.56574219,0.111745272 9.73661538,2.19384893 9.77555676,4.79717816 L4.97334927,4.86674988 L9.77607782,4.86675048 Z" id="path5267-7-9" fill="#101010"></path>
                    </g>
                    <path d="M43.212632,7.76245653 C36.2895849,7.76245653 29.8493925,9.74248045 24.4124081,13.1601864 L24.4124081,17.6925367 C29.5940021,14.2937289 35.7974838,12.3150398 42.4842207,12.3150398 L122.033816,12.3150398 L163.584505,12.3150398 L243.134097,12.3150398 C249.820834,12.3150398 256.024319,14.2937289 261.205916,17.6925367 L261.205916,13.1601864 C255.768928,9.74248045 249.328736,7.76245653 242.405686,7.76245653 L163.584505,7.76245653 L122.033816,7.76245653 L43.212632,7.76245653 Z" id="rect5756" fill-opacity="0.1" fill="url(#linearGradient-3)"></path>
                    <path d="M43.212632,567.3915 C36.2895849,567.3915 29.8493925,565.411451 24.4124081,561.993766 L24.4124081,557.461409 C29.5940021,560.86021 35.7974838,562.838903 42.4842207,562.838903 L122.033819,562.838903 L163.584508,562.838903 L243.134094,562.838903 C249.820831,562.838903 256.024316,560.86021 261.205913,557.461409 L261.205913,561.993766 C255.768925,565.411451 249.328733,567.3915 242.405683,567.3915 L163.584508,567.3915 L122.033819,567.3915 L43.212632,567.3915 Z" id="rect5756-4" fill-opacity="0.1" fill="url(#linearGradient-4)"></path>
                    <path d="M43.6168422,17.6920413 C29.4575174,17.6920413 18.0585584,29.0910003 18.0585584,43.2503251 L18.0585584,531.903663 C18.0585584,546.062987 29.4575174,557.46195 43.6168422,557.46195 L241.598983,557.46195 C255.758308,557.46195 267.15727,546.062987 267.15727,531.903663 L267.15727,43.2503251 C267.15727,29.0910003 255.758308,17.6920413 241.598983,17.6920413 L216.59791,17.6920413 C214.24011,17.6922273 212.328781,19.6035535 212.328592,21.9613534 L212.328592,23.9271358 C212.328592,31.6199967 206.136465,37.8136837 198.443607,37.8136837 L86.7722211,37.8136837 C79.0793626,37.8136837 72.8872328,31.6199967 72.8872328,23.9271358 L72.8872328,21.9613534 C72.8870432,19.603556 70.9757181,17.6922309 68.6179207,17.6920413 L43.6168422,17.6920413 Z" id="rect5872" fill="url(#linearGradient-5)"></path>
                    <path d="M199.149796,23.7016735 C199.149797,27.2015794 196.288015,30.0424179 192.749334,30.0552972 C189.210653,30.0681765 186.32781,27.2482467 186.301765,23.7484362 C186.275721,20.2486258 189.116283,17.387033 192.654772,17.3483944 C196.193262,17.3097558 199.097013,20.1086243 199.149101,23.608151 L192.725693,23.7016732 L199.149796,23.7016735 Z" id="path5267-7-7" fill-opacity="0.1" fill="#0F0F0F"></path>
                </g>
            </g>
            <path d="M130.31795,246.336993 C134.351364,249.109965 142.922369,251.126672 149.224579,251.126672 C176.702214,251.126672 190.062899,233.228396 190.062899,203.229877 C190.062899,177.138729 174.307374,165.668707 158.299761,165.668707 C142.292148,165.668707 128.175198,177.012685 128.175198,193.902607 C128.175198,211.926927 142.292148,221.506286 156.409098,221.506286 C167.500988,221.506286 174.685507,216.464518 177.584523,211.044618 C177.080346,227.052231 169.013518,240.034783 149.224579,240.034783 C143.930723,240.034783 137.880601,238.270164 134.351364,236.127413 L130.31795,246.336993 Z M175.945949,193.650519 C175.945949,204.490319 167.374943,210.918573 158.299761,210.918573 C148.972491,210.918573 140.653574,204.742408 140.653574,193.650519 C140.653574,182.936762 149.224579,176.508508 158.299761,176.508508 C167.248899,176.508508 175.945949,183.062806 175.945949,193.650519 Z M224.767067,203.103833 C218.086725,203.103833 212.162648,198.18811 212.162648,188.860839 C212.162648,179.533569 218.086725,174.743889 224.767067,174.743889 C231.321366,174.743889 237.245443,179.533569 237.245443,188.860839 C237.245443,198.18811 231.321366,203.103833 224.767067,203.103833 Z M224.767067,166.172884 C211.910559,166.172884 202.709333,175.752243 202.709333,188.860839 C202.709333,201.969436 211.910559,211.548794 224.767067,211.548794 C237.497531,211.548794 246.824802,201.969436 246.824802,188.860839 C246.824802,175.752243 237.497531,166.172884 224.767067,166.172884 Z" id="9º" fill="#FFFFFF" filter="url(#filter-6)"></path>
            <text id="today" font-family="CircularStd-Book, Circular Std" font-size="16" font-weight="300" fill="#FFFFFF">
                <tspan x="168.11544" y="574.5487">today</tspan>
            </text>
            <g id="003-up-arrow-1" transform="translate(188.603440, 544.548700) scale(-1, 1) rotate(-180.000000) translate(-188.603440, -544.548700) translate(177.103440, 537.548700)" fill="#FFFFFF">
                <path d="M22.3090571,10.7783902 L11.7861975,0.256242317 C11.6358529,0.105739499 11.4628893,0.0303694597 11.2672277,0.0303694597 C11.0715662,0.0303694597 10.8982863,0.105739499 10.7478625,0.256242317 L0.225872857,10.7783902 C0.075132778,10.9291302 0,11.1020938 0,11.2978345 C0,11.493496 0.0753700394,11.6666969 0.225872857,11.8171206 L1.35460444,12.9457731 C1.50510726,13.0962759 1.67830809,13.1714878 1.87396966,13.1714878 C2.06963123,13.1714878 2.24283205,13.0962759 2.39333487,12.9457731 L11.2672277,4.07203839 L20.141437,12.9463267 C20.2918607,13.0968295 20.4651406,13.1715669 20.6604858,13.1715669 C20.8564637,13.1715669 21.0296646,13.096355 21.1800883,12.9463267 L22.3089781,11.8171997 C22.4594018,11.6667759 22.5341391,11.493496 22.5341391,11.2979135 C22.5342182,11.1020938 22.4594809,10.928893 22.3090571,10.7783902 Z" id="Shape"></path>
            </g>
            <text id="Monday" font-family="CircularStd-Book, Circular Std" font-size="16" font-weight="300" fill="#FFFFFF">
                <tspan x="85.2775263" y="290.524361">Monday</tspan>
            </text>
            <text id="Tuesday" font-family="CircularStd-Book, Circular Std" font-size="16" font-weight="300" fill="#FFFFFF">
                <tspan x="85.2775263" y="326.207007">Tuesday</tspan>
            </text>
            <text id="Saturday" font-family="CircularStd-Book, Circular Std" font-size="16" font-weight="300" fill="#FFFFFF">
                <tspan x="85.2775263" y="469.365006">Saturday</tspan>
            </text>
            <text id="Sunday" font-family="CircularStd-Book, Circular Std" font-size="16" font-weight="300" fill="#FFFFFF">
                <tspan x="85.2775263" y="505.249491">Sunday</tspan>
            </text>
            <text id="Wednesday" font-family="CircularStd-Book, Circular Std" font-size="16" font-weight="300" fill="#FFFFFF">
                <tspan x="85.2775263" y="362.097842">Wednesday</tspan>
            </text>
            <text id="Thursday" font-family="CircularStd-Book, Circular Std" font-size="16" font-weight="300" fill="#FFFFFF">
                <tspan x="85.2775263" y="398.982326">Thursday</tspan>
            </text>
            <text id="Friday" font-family="CircularStd-Book, Circular Std" font-size="16" font-weight="300" fill="#FFFFFF">
                <tspan x="85.2775263" y="434.486872">Friday</tspan>
            </text>
            <text id="10º" font-family="CircularStd-Book, Circular Std" font-size="16" font-weight="300" fill="#FFFFFF">
                <tspan x="268.784" y="290.524361">10º</tspan>
            </text>
            <text id="12º" font-family="CircularStd-Book, Circular Std" font-size="16" font-weight="300" fill="#FFFFFF">
                <tspan x="270.144" y="326.207007">12º</tspan>
            </text>
            <text id="10º" font-family="CircularStd-Book, Circular Std" font-size="16" font-weight="300" fill="#FFFFFF">
                <tspan x="268.784" y="469.365006">10º</tspan>
            </text>
            <text id="12º" font-family="CircularStd-Book, Circular Std" font-size="16" font-weight="300" fill="#FFFFFF">
                <tspan x="270.144" y="505.249491">12º</tspan>
            </text>
            <text id="8º" font-family="CircularStd-Book, Circular Std" font-size="16" font-weight="300" fill="#FFFFFF">
                <tspan x="275.296" y="362.097842">8º</tspan>
            </text>
            <text id="6º" font-family="CircularStd-Book, Circular Std" font-size="16" font-weight="300" fill="#FFFFFF">
                <tspan x="274.976" y="398.982326">6º</tspan>
            </text>
            <text id="6º-copy" font-family="CircularStd-Book, Circular Std" font-size="16" font-weight="300" fill="#FFFFFF">
                <tspan x="274.976" y="434.486872">6º</tspan>
            </text>
            <path d="M87.1679688,302.368859 L293.154935,302.368859" id="Path-4" stroke="#FFFFFF"></path>
            <path d="M87.1679688,445.526859 L293.154935,445.526859" id="Path-4-Copy" stroke="#FFFFFF"></path>
            <path d="M87.1679688,481.411343 L293.154935,481.411343" id="Path-4-Copy-5" stroke="#FFFFFF"></path>
            <path d="M87.1679688,338.253344 L293.154935,338.253344" id="Path-4-Copy-2" stroke="#FFFFFF"></path>
            <path d="M87.1679688,517.295828 L293.154935,517.295828" id="Path-4-Copy-7" stroke="#FFFFFF"></path>
            <path d="M87.1679688,374.137828 L293.154935,374.137828" id="Path-4-Copy-4" stroke="#FFFFFF"></path>
            <path d="M87.1679688,409.642374 L293.154935,409.642374" id="Path-4-Copy-6" stroke="#FFFFFF"></path>
            <g id="Group-4" transform="translate(215.000000, 271.126672)" fill="#FFFFFF">
                <g id="Group" transform="translate(0.857347, 0.300781)">
                    <g id="Group-3" transform="translate(0.432617, 0.596908)">
                        <path d="M17.5642038,3.99501115 C17.4411232,3.99501115 17.3178363,3.99872523 17.1946526,4.00615339 C16.1840096,1.61851445 13.7591267,0 11.0848844,0 C7.43940962,0 4.47361189,2.9070946 4.47361189,6.48035109 C4.47361189,6.4929377 4.47361189,6.50542114 4.47371506,6.51800775 C2.02850784,6.70185482 0.095947121,8.71303028 0.095947121,11.1587533 C0.095947121,13.7250809 2.22380666,15.8130141 4.83924264,15.8130141 L17.5641006,15.8130141 C20.8870692,15.8130141 23.5906115,13.1621911 23.5906115,9.9040126 C23.5907147,6.64573091 20.8871724,3.99501115 17.5642038,3.99501115 Z M17.5642038,14.2654799 L4.83934581,14.2654799 C3.07722019,14.2654799 1.6435845,12.8717705 1.6435845,11.1587533 C1.6435845,9.44563297 3.07722019,8.05182049 4.83934581,8.05182049 C4.94808588,8.05182049 5.06899989,8.06007401 5.21972972,8.07761273 C5.45856583,8.10588102 5.69678293,8.02086981 5.86443247,7.84837133 C6.03208201,7.67597602 6.1098714,7.43538603 6.07520663,7.19737527 C6.03940701,6.95193635 6.02124927,6.71062418 6.02124927,6.48024792 C6.0211461,3.76040496 8.29271998,1.54753421 11.0848844,1.54753421 C13.3071435,1.54753421 15.3022246,2.99561355 15.9366105,5.06889672 C16.0503026,5.44020176 16.4215045,5.67016534 16.8044676,5.60558158 C17.0541365,5.56369499 17.309686,5.54254536 17.5641006,5.54254536 C20.0337589,5.54254536 22.0430773,7.49914444 22.0430773,9.9040126 C22.0431805,12.3089839 20.033862,14.2654799 17.5642038,14.2654799 Z" id="Shape"></path>
                        <path d="M3.87925559,20.2985936 L6.09594359,18.0819055 C6.39812544,17.7797237 6.39812544,17.2897744 6.09594359,16.9876957 C5.79376174,16.6855138 5.30381241,16.6855138 5.00173373,16.9876957 L2.78504573,19.2043837 C2.48286389,19.5065655 2.48286389,19.9965149 2.78504573,20.2986967 C2.93608507,20.4497361 3.13416945,20.5253589 3.33215066,20.5253589 C3.53013187,20.5251526 3.72811308,20.4496329 3.87925559,20.2985936 Z" id="Shape"></path>
                        <path d="M8.60831379,20.2985936 L10.8247955,18.0819055 C11.1269773,17.7797237 11.1268741,17.2897744 10.8246923,16.9875925 C10.5224073,16.6854107 10.0325611,16.6855138 9.73037927,16.9876957 L7.5138976,19.2043837 C7.21171575,19.5065655 7.21181892,19.9965149 7.5138976,20.2986967 C7.66504011,20.4497361 7.86302132,20.5252557 8.06100253,20.5252557 C8.25919008,20.5251526 8.45727446,20.4496329 8.60831379,20.2985936 Z" id="Shape"></path>
                        <path d="M13.3371657,20.2985936 L15.5536473,18.0819055 C15.8558292,17.7797237 15.855726,17.2897744 15.5536473,16.9875925 C15.2513623,16.6854107 14.7615161,16.6855138 14.4593343,16.9876957 L12.2428526,19.2043837 C11.9406708,19.5065655 11.940774,19.9965149 12.2428526,20.2986967 C12.3939951,20.4497361 12.5919764,20.5252557 12.7899576,20.5252557 C12.9880419,20.5251526 13.1861263,20.4496329 13.3371657,20.2985936 Z" id="Shape"></path>
                        <path d="M19.1883925,16.9875925 L16.9717045,19.2042805 C16.6695227,19.5064624 16.6695227,19.9964117 16.9717045,20.2985936 C17.1227438,20.4496329 17.3208282,20.5252557 17.5188094,20.5252557 C17.7167906,20.5252557 17.914875,20.4497361 18.0659144,20.2985936 L20.2826024,18.0819055 C20.5847842,17.7797237 20.5847842,17.2897744 20.2826024,16.9876957 C19.9805237,16.6854107 19.4905744,16.6854107 19.1883925,16.9875925 Z" id="Shape"></path>
                        <path d="M5.32640641,20.5616744 L3.10992475,22.7783624 C2.8077429,23.0805442 2.80784607,23.5704935 3.10992475,23.8726754 C3.26106726,24.0237147 3.45904847,24.0992344 3.65702968,24.0992344 C3.85511405,24.0992344 4.05309526,24.0237147 4.20423777,23.8725722 L6.42071944,21.6558842 C6.72290128,21.3537024 6.72279811,20.863753 6.42061627,20.5615712 C6.11853759,20.2594925 5.62858826,20.2594925 5.32640641,20.5616744 Z" id="Shape"></path>
                        <path d="M10.0691861,20.5616744 L7.85270442,22.7783624 C7.55052258,23.0805442 7.55062575,23.5704935 7.85280759,23.8726754 C8.0039501,24.0237147 8.20193131,24.0992344 8.39991252,24.0992344 C8.59789373,24.0992344 8.79597811,24.0237147 8.94712062,23.8725722 L11.1636023,21.6558842 C11.4657841,21.3537024 11.465681,20.863753 11.1636023,20.5615712 C10.8612141,20.2594925 10.3713679,20.2594925 10.0691861,20.5616744 Z" id="Shape"></path>
                        <path d="M14.8119658,20.5616744 L12.5954841,22.7783624 C12.2933023,23.0805442 12.2934054,23.5704935 12.5954841,23.8726754 C12.7466266,24.0237147 12.9446078,24.0992344 13.142589,24.0992344 C13.3405702,24.0992344 13.5386546,24.0237147 13.6897971,23.8725722 L15.9062788,21.6558842 C16.2084606,21.3537024 16.2083575,20.863753 15.9061756,20.5615712 C15.6039938,20.2594925 15.1141476,20.2594925 14.8119658,20.5616744 Z" id="Shape"></path>
                    </g>
                </g>
                <g id="Group-Copy" transform="translate(0.857347, 40.086685)">
                    <g id="Group-3" transform="translate(0.432617, 0.596908)">
                        <path d="M17.5642038,4.48524552 C17.4411232,4.48524552 17.3178363,4.4889596 17.1946526,4.49638777 C16.1840096,2.10874882 13.7591267,0.490234375 11.0848844,0.490234375 C7.43940962,0.490234375 4.47361189,3.39732897 4.47361189,6.97058546 C4.47361189,6.98317207 4.47361189,6.99565552 4.47371506,7.00824213 C2.02850784,7.19208919 0.095947121,9.20326465 0.095947121,11.6489877 C0.095947121,14.2153153 2.22380666,16.3032484 4.83924264,16.3032484 L17.5641006,16.3032484 C20.8870692,16.3032484 23.5906115,13.6524255 23.5906115,10.394247 C23.5907147,7.13596528 20.8871724,4.48524552 17.5642038,4.48524552 Z M17.5642038,14.7557142 L4.83934581,14.7557142 C3.07722019,14.7557142 1.6435845,13.3620049 1.6435845,11.6489877 C1.6435845,9.93586735 3.07722019,8.54205487 4.83934581,8.54205487 C4.94808588,8.54205487 5.06899989,8.55030838 5.21972972,8.5678471 C5.45856583,8.5961154 5.69678293,8.51110418 5.86443247,8.3386057 C6.03208201,8.16621039 6.1098714,7.92562041 6.07520663,7.68760965 C6.03940701,7.44217072 6.02124927,7.20085855 6.02124927,6.97048229 C6.0211461,4.25063934 8.29271998,2.03776858 11.0848844,2.03776858 C13.3071435,2.03776858 15.3022246,3.48584793 15.9366105,5.55913109 C16.0503026,5.93043614 16.4215045,6.16039972 16.8044676,6.09581596 C17.0541365,6.05392937 17.309686,6.03277973 17.5641006,6.03277973 C20.0337589,6.03277973 22.0430773,7.98937882 22.0430773,10.394247 C22.0431805,12.7992183 20.033862,14.7557142 17.5642038,14.7557142 Z" id="Shape"></path>
                    </g>
                </g>
                <g id="Group-Copy-2" transform="translate(0.857347, 183.244685)">
                    <g id="Group-3" transform="translate(0.432617, 0.596908)">
                        <path d="M17.5642038,4.48524552 C17.4411232,4.48524552 17.3178363,4.4889596 17.1946526,4.49638777 C16.1840096,2.10874882 13.7591267,0.490234375 11.0848844,0.490234375 C7.43940962,0.490234375 4.47361189,3.39732897 4.47361189,6.97058546 C4.47361189,6.98317207 4.47361189,6.99565552 4.47371506,7.00824213 C2.02850784,7.19208919 0.095947121,9.20326465 0.095947121,11.6489877 C0.095947121,14.2153153 2.22380666,16.3032484 4.83924264,16.3032484 L17.5641006,16.3032484 C20.8870692,16.3032484 23.5906115,13.6524255 23.5906115,10.394247 C23.5907147,7.13596528 20.8871724,4.48524552 17.5642038,4.48524552 Z M17.5642038,14.7557142 L4.83934581,14.7557142 C3.07722019,14.7557142 1.6435845,13.3620049 1.6435845,11.6489877 C1.6435845,9.93586735 3.07722019,8.54205487 4.83934581,8.54205487 C4.94808588,8.54205487 5.06899989,8.55030838 5.21972972,8.5678471 C5.45856583,8.5961154 5.69678293,8.51110418 5.86443247,8.3386057 C6.03208201,8.16621039 6.1098714,7.92562041 6.07520663,7.68760965 C6.03940701,7.44217072 6.02124927,7.20085855 6.02124927,6.97048229 C6.0211461,4.25063934 8.29271998,2.03776858 11.0848844,2.03776858 C13.3071435,2.03776858 15.3022246,3.48584793 15.9366105,5.55913109 C16.0503026,5.93043614 16.4215045,6.16039972 16.8044676,6.09581596 C17.0541365,6.05392937 17.309686,6.03277973 17.5641006,6.03277973 C20.0337589,6.03277973 22.0430773,7.98937882 22.0430773,10.394247 C22.0431805,12.7992183 20.033862,14.7557142 17.5642038,14.7557142 Z" id="Shape"></path>
                    </g>
                </g>
                <g id="Group-Copy-3" transform="translate(0.857347, 219.129169)">
                    <g id="Group-3" transform="translate(0.432617, 0.596908)">
                        <path d="M17.5642038,4.48524552 C17.4411232,4.48524552 17.3178363,4.4889596 17.1946526,4.49638777 C16.1840096,2.10874882 13.7591267,0.490234375 11.0848844,0.490234375 C7.43940962,0.490234375 4.47361189,3.39732897 4.47361189,6.97058546 C4.47361189,6.98317207 4.47361189,6.99565552 4.47371506,7.00824213 C2.02850784,7.19208919 0.095947121,9.20326465 0.095947121,11.6489877 C0.095947121,14.2153153 2.22380666,16.3032484 4.83924264,16.3032484 L17.5641006,16.3032484 C20.8870692,16.3032484 23.5906115,13.6524255 23.5906115,10.394247 C23.5907147,7.13596528 20.8871724,4.48524552 17.5642038,4.48524552 Z M17.5642038,14.7557142 L4.83934581,14.7557142 C3.07722019,14.7557142 1.6435845,13.3620049 1.6435845,11.6489877 C1.6435845,9.93586735 3.07722019,8.54205487 4.83934581,8.54205487 C4.94808588,8.54205487 5.06899989,8.55030838 5.21972972,8.5678471 C5.45856583,8.5961154 5.69678293,8.51110418 5.86443247,8.3386057 C6.03208201,8.16621039 6.1098714,7.92562041 6.07520663,7.68760965 C6.03940701,7.44217072 6.02124927,7.20085855 6.02124927,6.97048229 C6.0211461,4.25063934 8.29271998,2.03776858 11.0848844,2.03776858 C13.3071435,2.03776858 15.3022246,3.48584793 15.9366105,5.55913109 C16.0503026,5.93043614 16.4215045,6.16039972 16.8044676,6.09581596 C17.0541365,6.05392937 17.309686,6.03277973 17.5641006,6.03277973 C20.0337589,6.03277973 22.0430773,7.98937882 22.0430773,10.394247 C22.0431805,12.7992183 20.033862,14.7557142 17.5642038,14.7557142 Z" id="Shape"></path>
                    </g>
                </g>
                <g id="002-sun" transform="translate(1.857347, 72.971170)">
                    <path d="M2.31795276,11.0746375 L0.772666346,11.0746375 C0.345932016,11.0746375 0,11.4206158 0,11.8473038 C0,12.2739919 0.345932016,12.6199702 0.772666346,12.6199702 L2.31795276,12.6199702 C2.74464081,12.6199702 3.0906191,12.2740381 3.0906191,11.8473038 C3.0906191,11.4205695 2.74464081,11.0746375 2.31795276,11.0746375 Z" id="Shape"></path>
                    <path d="M22.9219413,11.0746375 L21.3766549,11.0746375 C20.9499668,11.0746375 20.6039885,11.4205695 20.6039885,11.8473038 C20.6039885,12.2740381 20.9499205,12.6199702 21.3766549,12.6199702 L22.9219413,12.6199702 C23.3486293,12.6199702 23.6946076,12.2740381 23.6946076,11.8473038 C23.6946076,11.4205695 23.3486756,11.0746375 22.9219413,11.0746375 Z" id="Shape"></path>
                    <path d="M11.8473038,20.6039885 C11.4206158,20.6039885 11.0746375,20.9499205 11.0746375,21.3766549 L11.0746375,22.9219413 C11.0746375,23.3486293 11.4205695,23.6946076 11.8473038,23.6946076 C12.2740381,23.6946076 12.6199702,23.3486756 12.6199702,22.9219413 L12.6199702,21.3766549 C12.6199702,20.9499668 12.2739919,20.6039885 11.8473038,20.6039885 Z" id="Shape"></path>
                    <path d="M11.8473038,0 C11.4206158,0 11.0746375,0.345932016 11.0746375,0.772666346 L11.0746375,2.31795276 C11.0746375,2.74464081 11.4205695,3.0906191 11.8473038,3.0906191 C12.2740381,3.0906191 12.6199702,2.74468709 12.6199702,2.31795276 L12.6199702,0.772666346 C12.6199702,0.345932016 12.2739919,0 11.8473038,0 Z" id="Shape"></path>
                    <path d="M18.0537638,21.0518721 L17.2810975,19.7136359 C17.0677535,19.3441018 16.5952034,19.2174375 16.2256693,19.4308278 C15.8561352,19.6441718 15.7295172,20.1167219 15.9428612,20.4862559 L16.7155276,21.8244922 C16.9289641,22.1942114 17.4016531,22.3205518 17.7709557,22.1073003 C18.1404898,21.8939563 18.2671079,21.4214062 18.0537638,21.0518721 Z" id="Shape"></path>
                    <path d="M7.75174642,3.20830541 L6.97908008,1.87006914 C6.76573605,1.50053507 6.29318597,1.37387074 5.92365191,1.58726104 C5.55411784,1.80060507 5.42749978,2.27315514 5.64084381,2.64268921 L6.41351015,3.98092548 C6.62694674,4.35064466 7.09963565,4.47703132 7.46893832,4.26373358 C7.83847239,4.05038955 7.96509045,3.57783947 7.75174642,3.20830541 Z" id="Shape"></path>
                    <path d="M21.8245385,16.7155276 L20.4863022,15.9428612 C20.1167219,15.7294246 19.6442181,15.856089 19.4308741,16.2256693 C19.21753,16.5952034 19.3441481,17.0677535 19.7136822,17.2810975 L21.0519184,18.0537638 C21.4212674,18.2670616 21.89391,18.1406749 22.1073466,17.7709557 C22.3206906,17.4014217 22.1940726,16.9288716 21.8245385,16.7155276 Z" id="Shape"></path>
                    <path d="M3.98097175,6.41351015 L2.64273549,5.64084381 C2.27315514,5.42740723 1.80060507,5.55411784 1.58730732,5.92365191 C1.37396329,6.29318597 1.50058135,6.76573605 1.87011542,6.97908008 L3.20835169,7.75174642 C3.57770064,7.96504417 4.05034327,7.8386575 4.26377985,7.46893832 C4.4770776,7.09940426 4.35050582,6.62685418 3.98097175,6.41351015 Z" id="Shape"></path>
                    <path d="M22.1073466,5.92365191 C21.8940026,5.55411784 21.4214988,5.4274535 21.0519184,5.64084381 L19.7136822,6.41351015 C19.3441481,6.62685418 19.21753,7.09940426 19.4308741,7.46893832 C19.6443106,7.8386575 20.1169996,7.96499789 20.4863022,7.75174642 L21.8245385,6.97908008 C22.1940726,6.76573605 22.3206906,6.29318597 22.1073466,5.92365191 Z" id="Shape"></path>
                    <path d="M4.26373358,16.2256693 C4.05043583,15.8561352 3.57783947,15.7295172 3.20830541,15.9428612 L1.87006914,16.7155276 C1.50053507,16.9288716 1.37391701,17.4014217 1.58726104,17.7709557 C1.80069762,18.1406749 2.27338653,18.2670153 2.64268921,18.0537638 L3.98092548,17.2810975 C4.35050582,17.0677535 4.4770776,16.5952034 4.26373358,16.2256693 Z" id="Shape"></path>
                    <path d="M17.7709557,1.58726104 C17.4013754,1.37382446 16.9288716,1.50053507 16.7155276,1.87006914 L15.9428612,3.20830541 C15.7295172,3.57783947 15.8561352,4.05038955 16.2256693,4.26373358 C16.5950183,4.47703132 17.0676609,4.35069093 17.2810975,3.98092548 L18.0537638,2.64268921 C18.2671079,2.27320142 18.1404898,1.80065134 17.7709557,1.58726104 Z" id="Shape"></path>
                    <path d="M7.46893832,19.4308741 C7.09940426,19.2174375 6.6268079,19.3441018 6.41351015,19.7136822 L5.64084381,21.0519184 C5.42749978,21.4214525 5.55411784,21.8940026 5.92365191,22.1073466 C6.29300086,22.3206443 6.76564349,22.1942577 6.97908008,21.8245385 L7.75174642,20.4863022 C7.96509045,20.1167682 7.83847239,19.6442181 7.46893832,19.4308741 Z" id="Shape"></path>
                    <path d="M11.8473038,4.63590552 C7.87095992,4.63590552 4.63590552,7.87095992 4.63590552,11.8473038 C4.63590552,15.8236477 7.87095992,19.0587021 11.8473038,19.0587021 C15.8236477,19.0587021 19.0587021,15.8236477 19.0587021,11.8473038 C19.0587021,7.87095992 15.823694,4.63590552 11.8473038,4.63590552 Z M11.8473038,17.5134157 C8.72304022,17.5134157 6.18119193,14.9716137 6.18119193,11.8473038 C6.18119193,8.72299394 8.72304022,6.18119193 11.8473038,6.18119193 C14.9715674,6.18119193 17.5134157,8.72304022 17.5134157,11.8473038 C17.5134157,14.9715674 14.9716137,17.5134157 11.8473038,17.5134157 Z" id="Shape"></path>
                </g>
                <g id="002-sun-copy" transform="translate(1.857347, 109.855654)">
                    <path d="M2.31795276,11.0746375 L0.772666346,11.0746375 C0.345932016,11.0746375 0,11.4206158 0,11.8473038 C0,12.2739919 0.345932016,12.6199702 0.772666346,12.6199702 L2.31795276,12.6199702 C2.74464081,12.6199702 3.0906191,12.2740381 3.0906191,11.8473038 C3.0906191,11.4205695 2.74464081,11.0746375 2.31795276,11.0746375 Z" id="Shape"></path>
                    <path d="M22.9219413,11.0746375 L21.3766549,11.0746375 C20.9499668,11.0746375 20.6039885,11.4205695 20.6039885,11.8473038 C20.6039885,12.2740381 20.9499205,12.6199702 21.3766549,12.6199702 L22.9219413,12.6199702 C23.3486293,12.6199702 23.6946076,12.2740381 23.6946076,11.8473038 C23.6946076,11.4205695 23.3486756,11.0746375 22.9219413,11.0746375 Z" id="Shape"></path>
                    <path d="M11.8473038,20.6039885 C11.4206158,20.6039885 11.0746375,20.9499205 11.0746375,21.3766549 L11.0746375,22.9219413 C11.0746375,23.3486293 11.4205695,23.6946076 11.8473038,23.6946076 C12.2740381,23.6946076 12.6199702,23.3486756 12.6199702,22.9219413 L12.6199702,21.3766549 C12.6199702,20.9499668 12.2739919,20.6039885 11.8473038,20.6039885 Z" id="Shape"></path>
                    <path d="M11.8473038,0 C11.4206158,0 11.0746375,0.345932016 11.0746375,0.772666346 L11.0746375,2.31795276 C11.0746375,2.74464081 11.4205695,3.0906191 11.8473038,3.0906191 C12.2740381,3.0906191 12.6199702,2.74468709 12.6199702,2.31795276 L12.6199702,0.772666346 C12.6199702,0.345932016 12.2739919,0 11.8473038,0 Z" id="Shape"></path>
                    <path d="M18.0537638,21.0518721 L17.2810975,19.7136359 C17.0677535,19.3441018 16.5952034,19.2174375 16.2256693,19.4308278 C15.8561352,19.6441718 15.7295172,20.1167219 15.9428612,20.4862559 L16.7155276,21.8244922 C16.9289641,22.1942114 17.4016531,22.3205518 17.7709557,22.1073003 C18.1404898,21.8939563 18.2671079,21.4214062 18.0537638,21.0518721 Z" id="Shape"></path>
                    <path d="M7.75174642,3.20830541 L6.97908008,1.87006914 C6.76573605,1.50053507 6.29318597,1.37387074 5.92365191,1.58726104 C5.55411784,1.80060507 5.42749978,2.27315514 5.64084381,2.64268921 L6.41351015,3.98092548 C6.62694674,4.35064466 7.09963565,4.47703132 7.46893832,4.26373358 C7.83847239,4.05038955 7.96509045,3.57783947 7.75174642,3.20830541 Z" id="Shape"></path>
                    <path d="M21.8245385,16.7155276 L20.4863022,15.9428612 C20.1167219,15.7294246 19.6442181,15.856089 19.4308741,16.2256693 C19.21753,16.5952034 19.3441481,17.0677535 19.7136822,17.2810975 L21.0519184,18.0537638 C21.4212674,18.2670616 21.89391,18.1406749 22.1073466,17.7709557 C22.3206906,17.4014217 22.1940726,16.9288716 21.8245385,16.7155276 Z" id="Shape"></path>
                    <path d="M3.98097175,6.41351015 L2.64273549,5.64084381 C2.27315514,5.42740723 1.80060507,5.55411784 1.58730732,5.92365191 C1.37396329,6.29318597 1.50058135,6.76573605 1.87011542,6.97908008 L3.20835169,7.75174642 C3.57770064,7.96504417 4.05034327,7.8386575 4.26377985,7.46893832 C4.4770776,7.09940426 4.35050582,6.62685418 3.98097175,6.41351015 Z" id="Shape"></path>
                    <path d="M22.1073466,5.92365191 C21.8940026,5.55411784 21.4214988,5.4274535 21.0519184,5.64084381 L19.7136822,6.41351015 C19.3441481,6.62685418 19.21753,7.09940426 19.4308741,7.46893832 C19.6443106,7.8386575 20.1169996,7.96499789 20.4863022,7.75174642 L21.8245385,6.97908008 C22.1940726,6.76573605 22.3206906,6.29318597 22.1073466,5.92365191 Z" id="Shape"></path>
                    <path d="M4.26373358,16.2256693 C4.05043583,15.8561352 3.57783947,15.7295172 3.20830541,15.9428612 L1.87006914,16.7155276 C1.50053507,16.9288716 1.37391701,17.4014217 1.58726104,17.7709557 C1.80069762,18.1406749 2.27338653,18.2670153 2.64268921,18.0537638 L3.98092548,17.2810975 C4.35050582,17.0677535 4.4770776,16.5952034 4.26373358,16.2256693 Z" id="Shape"></path>
                    <path d="M17.7709557,1.58726104 C17.4013754,1.37382446 16.9288716,1.50053507 16.7155276,1.87006914 L15.9428612,3.20830541 C15.7295172,3.57783947 15.8561352,4.05038955 16.2256693,4.26373358 C16.5950183,4.47703132 17.0676609,4.35069093 17.2810975,3.98092548 L18.0537638,2.64268921 C18.2671079,2.27320142 18.1404898,1.80065134 17.7709557,1.58726104 Z" id="Shape"></path>
                    <path d="M7.46893832,19.4308741 C7.09940426,19.2174375 6.6268079,19.3441018 6.41351015,19.7136822 L5.64084381,21.0519184 C5.42749978,21.4214525 5.55411784,21.8940026 5.92365191,22.1073466 C6.29300086,22.3206443 6.76564349,22.1942577 6.97908008,21.8245385 L7.75174642,20.4863022 C7.96509045,20.1167682 7.83847239,19.6442181 7.46893832,19.4308741 Z" id="Shape"></path>
                    <path d="M11.8473038,4.63590552 C7.87095992,4.63590552 4.63590552,7.87095992 4.63590552,11.8473038 C4.63590552,15.8236477 7.87095992,19.0587021 11.8473038,19.0587021 C15.8236477,19.0587021 19.0587021,15.8236477 19.0587021,11.8473038 C19.0587021,7.87095992 15.823694,4.63590552 11.8473038,4.63590552 Z M11.8473038,17.5134157 C8.72304022,17.5134157 6.18119193,14.9716137 6.18119193,11.8473038 C6.18119193,8.72299394 8.72304022,6.18119193 11.8473038,6.18119193 C14.9715674,6.18119193 17.5134157,8.72304022 17.5134157,11.8473038 C17.5134157,14.9715674 14.9716137,17.5134157 11.8473038,17.5134157 Z" id="Shape"></path>
                </g>
                <g id="002-sun-copy-2" transform="translate(1.857347, 145.360200)">
                    <path d="M2.31795276,11.0746375 L0.772666346,11.0746375 C0.345932016,11.0746375 0,11.4206158 0,11.8473038 C0,12.2739919 0.345932016,12.6199702 0.772666346,12.6199702 L2.31795276,12.6199702 C2.74464081,12.6199702 3.0906191,12.2740381 3.0906191,11.8473038 C3.0906191,11.4205695 2.74464081,11.0746375 2.31795276,11.0746375 Z" id="Shape"></path>
                    <path d="M22.9219413,11.0746375 L21.3766549,11.0746375 C20.9499668,11.0746375 20.6039885,11.4205695 20.6039885,11.8473038 C20.6039885,12.2740381 20.9499205,12.6199702 21.3766549,12.6199702 L22.9219413,12.6199702 C23.3486293,12.6199702 23.6946076,12.2740381 23.6946076,11.8473038 C23.6946076,11.4205695 23.3486756,11.0746375 22.9219413,11.0746375 Z" id="Shape"></path>
                    <path d="M11.8473038,20.6039885 C11.4206158,20.6039885 11.0746375,20.9499205 11.0746375,21.3766549 L11.0746375,22.9219413 C11.0746375,23.3486293 11.4205695,23.6946076 11.8473038,23.6946076 C12.2740381,23.6946076 12.6199702,23.3486756 12.6199702,22.9219413 L12.6199702,21.3766549 C12.6199702,20.9499668 12.2739919,20.6039885 11.8473038,20.6039885 Z" id="Shape"></path>
                    <path d="M11.8473038,0 C11.4206158,0 11.0746375,0.345932016 11.0746375,0.772666346 L11.0746375,2.31795276 C11.0746375,2.74464081 11.4205695,3.0906191 11.8473038,3.0906191 C12.2740381,3.0906191 12.6199702,2.74468709 12.6199702,2.31795276 L12.6199702,0.772666346 C12.6199702,0.345932016 12.2739919,0 11.8473038,0 Z" id="Shape"></path>
                    <path d="M18.0537638,21.0518721 L17.2810975,19.7136359 C17.0677535,19.3441018 16.5952034,19.2174375 16.2256693,19.4308278 C15.8561352,19.6441718 15.7295172,20.1167219 15.9428612,20.4862559 L16.7155276,21.8244922 C16.9289641,22.1942114 17.4016531,22.3205518 17.7709557,22.1073003 C18.1404898,21.8939563 18.2671079,21.4214062 18.0537638,21.0518721 Z" id="Shape"></path>
                    <path d="M7.75174642,3.20830541 L6.97908008,1.87006914 C6.76573605,1.50053507 6.29318597,1.37387074 5.92365191,1.58726104 C5.55411784,1.80060507 5.42749978,2.27315514 5.64084381,2.64268921 L6.41351015,3.98092548 C6.62694674,4.35064466 7.09963565,4.47703132 7.46893832,4.26373358 C7.83847239,4.05038955 7.96509045,3.57783947 7.75174642,3.20830541 Z" id="Shape"></path>
                    <path d="M21.8245385,16.7155276 L20.4863022,15.9428612 C20.1167219,15.7294246 19.6442181,15.856089 19.4308741,16.2256693 C19.21753,16.5952034 19.3441481,17.0677535 19.7136822,17.2810975 L21.0519184,18.0537638 C21.4212674,18.2670616 21.89391,18.1406749 22.1073466,17.7709557 C22.3206906,17.4014217 22.1940726,16.9288716 21.8245385,16.7155276 Z" id="Shape"></path>
                    <path d="M3.98097175,6.41351015 L2.64273549,5.64084381 C2.27315514,5.42740723 1.80060507,5.55411784 1.58730732,5.92365191 C1.37396329,6.29318597 1.50058135,6.76573605 1.87011542,6.97908008 L3.20835169,7.75174642 C3.57770064,7.96504417 4.05034327,7.8386575 4.26377985,7.46893832 C4.4770776,7.09940426 4.35050582,6.62685418 3.98097175,6.41351015 Z" id="Shape"></path>
                    <path d="M22.1073466,5.92365191 C21.8940026,5.55411784 21.4214988,5.4274535 21.0519184,5.64084381 L19.7136822,6.41351015 C19.3441481,6.62685418 19.21753,7.09940426 19.4308741,7.46893832 C19.6443106,7.8386575 20.1169996,7.96499789 20.4863022,7.75174642 L21.8245385,6.97908008 C22.1940726,6.76573605 22.3206906,6.29318597 22.1073466,5.92365191 Z" id="Shape"></path>
                    <path d="M4.26373358,16.2256693 C4.05043583,15.8561352 3.57783947,15.7295172 3.20830541,15.9428612 L1.87006914,16.7155276 C1.50053507,16.9288716 1.37391701,17.4014217 1.58726104,17.7709557 C1.80069762,18.1406749 2.27338653,18.2670153 2.64268921,18.0537638 L3.98092548,17.2810975 C4.35050582,17.0677535 4.4770776,16.5952034 4.26373358,16.2256693 Z" id="Shape"></path>
                    <path d="M17.7709557,1.58726104 C17.4013754,1.37382446 16.9288716,1.50053507 16.7155276,1.87006914 L15.9428612,3.20830541 C15.7295172,3.57783947 15.8561352,4.05038955 16.2256693,4.26373358 C16.5950183,4.47703132 17.0676609,4.35069093 17.2810975,3.98092548 L18.0537638,2.64268921 C18.2671079,2.27320142 18.1404898,1.80065134 17.7709557,1.58726104 Z" id="Shape"></path>
                    <path d="M7.46893832,19.4308741 C7.09940426,19.2174375 6.6268079,19.3441018 6.41351015,19.7136822 L5.64084381,21.0519184 C5.42749978,21.4214525 5.55411784,21.8940026 5.92365191,22.1073466 C6.29300086,22.3206443 6.76564349,22.1942577 6.97908008,21.8245385 L7.75174642,20.4863022 C7.96509045,20.1167682 7.83847239,19.6442181 7.46893832,19.4308741 Z" id="Shape"></path>
                    <path d="M11.8473038,4.63590552 C7.87095992,4.63590552 4.63590552,7.87095992 4.63590552,11.8473038 C4.63590552,15.8236477 7.87095992,19.0587021 11.8473038,19.0587021 C15.8236477,19.0587021 19.0587021,15.8236477 19.0587021,11.8473038 C19.0587021,7.87095992 15.823694,4.63590552 11.8473038,4.63590552 Z M11.8473038,17.5134157 C8.72304022,17.5134157 6.18119193,14.9716137 6.18119193,11.8473038 C6.18119193,8.72299394 8.72304022,6.18119193 11.8473038,6.18119193 C14.9715674,6.18119193 17.5134157,8.72304022 17.5134157,11.8473038 C17.5134157,14.9715674 14.9716137,17.5134157 11.8473038,17.5134157 Z" id="Shape"></path>
                </g>
            </g>
            <g id="Group-Copy-2" transform="translate(117.500000, 103.000000)" fill="#FFFFFF">
                <g id="Group-Copy" filter="url(#filter-7)" transform="translate(91.532867, 0.033356)">
                    <g id="Group-3" transform="translate(0.134202, 0.479973)">
                        <path d="M36.9660844,8.66347021 C36.7070459,8.66347021 36.447573,8.67128696 36.1883173,8.68692047 C34.0612915,3.66183285 28.9578192,0.255464857 23.3295387,0.255464857 C15.6571768,0.255464857 9.41528105,6.37381247 9.41528105,13.8941819 C9.41528105,13.920672 9.41528105,13.946945 9.41549818,13.9734351 C4.26925086,14.3603645 0.20193283,18.5931371 0.20193283,23.7404701 C0.20193283,29.1416305 4.68028188,33.5359494 10.1847971,33.5359494 L36.9658673,33.5359494 C43.9594743,33.5359494 49.6494203,27.9569579 49.6494203,21.0997098 C49.6496375,14.2422446 43.9596914,8.66347021 36.9660844,8.66347021 Z M36.9660844,30.2789683 L10.1850143,30.2789683 C6.47639841,30.2789683 3.45913109,27.3457311 3.45913109,23.7404701 C3.45913109,20.134992 6.47639841,17.2015377 10.1850143,17.2015377 C10.4138715,17.2015377 10.6683503,17.2189082 10.9855802,17.2558207 C11.488241,17.3153149 11.9895989,17.1363981 12.3424386,16.7733532 C12.6952782,16.4105255 12.8589958,15.9041735 12.7860394,15.4032498 C12.7106946,14.8866926 12.6724793,14.3788207 12.6724793,13.8939648 C12.6722622,8.16971187 17.4530762,3.51244599 23.3295387,3.51244599 C28.0065636,3.51244599 32.2054637,6.5601118 33.5406088,10.923598 C33.7798884,11.7050563 34.5611296,12.1890437 35.3671238,12.053119 C35.8925834,11.9649634 36.4304196,11.9204513 36.9658673,11.9204513 C42.1635749,11.9204513 46.3924392,16.0383611 46.3924392,21.0997098 C46.3926563,26.1612756 42.163792,30.2789683 36.9660844,30.2789683 Z" id="Shape"></path>
                    </g>
                </g>
                <path d="M3.59683952,16.9373562 L3.59683952,9.16135619 L8.14083952,9.16135619 C10.8608395,9.16135619 12.5248395,10.6973562 12.5248395,13.0973562 C12.5248395,15.4333562 10.8608395,16.9373562 8.14083952,16.9373562 L3.59683952,16.9373562 Z M8.71683952,19.7533562 C12.9088395,19.7533562 15.7248395,16.9053562 15.7248395,13.0653562 C15.7248395,9.25735619 12.9088395,6.34535619 8.71683952,6.34535619 L0.460839522,6.34535619 L0.460839522,29.0333562 L3.59683952,29.0333562 L3.59683952,19.7533562 L8.71683952,19.7533562 Z M16.4359506,24.9053562 C16.4359506,27.3373562 18.4519506,29.5133562 21.5879506,29.5133562 C24.3399506,29.5133562 25.8759506,28.0413562 26.5479506,26.9533562 C26.5479506,28.0733562 26.6439506,28.6493562 26.7079506,29.0333562 L29.6519506,29.0333562 C29.5879506,28.6493562 29.4599506,27.8493562 29.4599506,26.5053562 L29.4599506,18.7933562 C29.4599506,15.7853562 27.6679506,13.1613562 23.0599506,13.1613562 C19.7319506,13.1613562 17.0759506,15.2093562 16.7559506,18.1533562 L19.6359506,18.8253562 C19.8279506,17.0333562 21.0119506,15.7213562 23.1239506,15.7213562 C25.4599506,15.7213562 26.4519506,16.9693562 26.4519506,18.4733562 C26.4519506,19.0173562 26.1959506,19.4973562 25.2679506,19.6253562 L21.1079506,20.2333562 C18.4519506,20.6173562 16.4359506,22.1533562 16.4359506,24.9053562 Z M22.0039506,26.9853562 C20.4679506,26.9853562 19.5079506,25.8973562 19.5079506,24.7453562 C19.5079506,23.3693562 20.4679506,22.6333562 21.7479506,22.4413562 L26.4519506,21.7373562 L26.4519506,22.4413562 C26.4519506,25.8013562 24.4679506,26.9853562 22.0039506,26.9853562 Z M41.7870617,13.4813562 C41.6270617,13.4493562 41.2110617,13.3853562 40.7950617,13.3853562 C39.2270617,13.3853562 37.3070617,13.9613562 36.1870617,16.3293562 L36.1870617,13.6413562 L33.2430617,13.6413562 L33.2430617,29.0333562 L36.2510617,29.0333562 L36.2510617,21.3213562 C36.2510617,17.9293562 37.9470617,16.5853562 40.4750617,16.5853562 C40.8910617,16.5853562 41.3390617,16.6173562 41.7870617,16.6813562 L41.7870617,13.4813562 Z M47.0741728,29.0333562 L47.0741728,13.6413562 L44.0981728,13.6413562 L44.0981728,29.0333562 L47.0741728,29.0333562 Z M43.4261728,7.81735619 C43.4261728,9.00135619 44.3861728,9.96135619 45.5701728,9.96135619 C46.7861728,9.96135619 47.7461728,9.00135619 47.7461728,7.81735619 C47.7461728,6.60135619 46.7861728,5.64135619 45.5701728,5.64135619 C44.3861728,5.64135619 43.4261728,6.60135619 43.4261728,7.81735619 Z M49.8652839,25.0333562 C50.1212839,26.7933562 51.9132839,29.5133562 56.1372839,29.5133562 C59.9452839,29.5133562 61.7692839,26.9213562 61.7692839,24.7453562 C61.7692839,22.4733562 60.2972839,20.7773562 57.5132839,20.1693562 L55.0172839,19.6253562 C53.8332839,19.3693562 53.2572839,18.6973562 53.2572839,17.7693562 C53.2572839,16.7133562 54.2812839,15.7213562 55.8172839,15.7213562 C58.2492839,15.7213562 58.8892839,17.4813562 59.0172839,18.2813562 L61.6732839,17.2893562 C61.3532839,15.9133562 60.0412839,13.1613562 55.8172839,13.1613562 C52.8092839,13.1613562 50.3452839,15.4013562 50.3452839,18.0253562 C50.3452839,20.2013562 51.7852839,21.8333562 54.1852839,22.3453562 L56.8092839,22.9213562 C58.0892839,23.2093562 58.7932839,23.9453562 58.7932839,24.9053562 C58.7932839,25.9933562 57.8652839,26.9533562 56.1692839,26.9533562 C53.9932839,26.9533562 52.7772839,25.6733562 52.5852839,24.0733562 L49.8652839,25.0333562 Z" id="Paris" filter="url(#filter-8)"></path>
            </g>
        </g>
    </g>
</svg>