<?xml version="1.0" encoding="UTF-8"?>
<svg width="375px" height="667px" viewBox="0 0 375 667" version="1.1" xmlns="http://www.w3.org/2000/svg" xmlns:xlink="http://www.w3.org/1999/xlink">
    <!-- Generator: Sketch 41 (35326) - http://www.bohemiancoding.com/sketch -->
    <title>Weather App</title>
    <desc>Created with Sketch.</desc>
    <defs>
        <linearGradient x1="50%" y1="0%" x2="50%" y2="100%" id="linearGradient-1">
            <stop stop-color="#FF83AF" offset="0%"></stop>
            <stop stop-color="#6133FF" offset="100%"></stop>
        </linearGradient>
        <linearGradient x1="4.96060177e-07%" y1="99.9999939%" x2="100.000006%" y2="99.9999939%" id="linearGradient-2">
            <stop stop-color="#4F4F4F" stop-opacity="0.13084112" offset="0%"></stop>
            <stop stop-color="#4F4F4F" offset="7%"></stop>
            <stop stop-color="#4F4F4F" stop-opacity="0.95327103" offset="93.699998%"></stop>
            <stop stop-color="#4F4F4F" stop-opacity="0" offset="100%"></stop>
        </linearGradient>
        <linearGradient x1="5.08779674e-07%" y1="-7.58274287e-05%" x2="100.000007%" y2="-7.58274287e-05%" id="linearGradient-3">
            <stop stop-color="#4F4F4F" stop-opacity="0.13084112" offset="0%"></stop>
            <stop stop-color="#4F4F4F" offset="7%"></stop>
            <stop stop-color="#4F4F4F" stop-opacity="0.95327103" offset="93.699998%"></stop>
            <stop stop-color="#4F4F4F" stop-opacity="0" offset="100%"></stop>
        </linearGradient>
        <linearGradient x1="89.7396982%" y1="100%" x2="89.7396952%" y2="0%" id="linearGradient-4">
            <stop stop-color="#3A00FF" offset="0%"></stop>
            <stop stop-color="#FF0059" offset="100%"></stop>
        </linearGradient>
    </defs>
    <g id="Page-1" stroke="none" stroke-width="1" fill="none" fill-rule="evenodd">
        <g id="Weather-App">
            <rect id="Rectangle" fill="url(#linearGradient-1)" x="0" y="0" width="375" height="667"></rect>
            <g id="layer2" transform="translate(46.000000, 43.680252)">
                <path d="M42.7888104,0.599228987 C19.4872386,0.599228987 0.729168431,19.3573142 0.729168431,42.6588782 L0.729168431,532.493538 C0.729168431,555.795109 19.4872386,574.554745 42.7888104,574.554745 L128.027191,574.554745 L129.768849,572.086258 L135.951,572.086258 L149.264802,572.086258 L155.445418,572.086258 L157.188641,574.554745 L242.426992,574.554745 C265.728563,574.554745 284.486663,555.795109 284.486663,532.493538 L284.486663,42.6588782 C284.486663,19.3573142 265.728563,0.599228987 242.426992,0.599228987 L42.7888104,0.599228987 Z" id="rect4852" fill="#FFFFFF"></path>
                <g id="g5823" transform="translate(92.535188, 19.344317)" fill-opacity="0.1">
                    <rect id="rect5261" fill="#1E1E1E" x="33.2098257" y="2.52764294" width="34.2238699" height="4.34024122"></rect>
                    <ellipse id="path5263" fill="#2B2B2B" cx="81.0647495" cy="4.41868741" rx="4.0500917" ry="4.0500917"></ellipse>
                    <path d="M27.832437,4.7919971 C27.8324369,6.54591393 26.4140294,7.96955058 24.6601245,7.9760048 C22.9062195,7.9824594 21.4773726,6.56930074 21.4644638,4.81543144 C21.4515551,3.06156206 22.8594464,1.62752458 24.6132564,1.60816199 C26.3670669,1.58879813 27.8062768,2.99140255 27.8320936,4.74512994 L24.6484082,4.79199801 L27.832437,4.7919971 Z" id="path5267-7" fill="#0F0F0F"></path>
                    <path d="M9.77607782,4.86675048 C9.77607786,7.47036201 7.63658088,9.58368747 4.99102607,9.59326879 C2.3454712,9.6028501 0.190227444,7.50507863 0.170756266,4.90153754 C0.151284988,2.29799653 2.27491942,0.169231511 4.92033092,0.14048818 C7.56574219,0.111745272 9.73661538,2.19384893 9.77555676,4.79717816 L4.97334927,4.86674988 L9.77607782,4.86675048 Z" id="path5267-7-9" fill="#101010"></path>
                </g>
                <path d="M43.212632,7.76245653 C36.2895849,7.76245653 29.8493925,9.74248045 24.4124081,13.1601864 L24.4124081,17.6925367 C29.5940021,14.2937289 35.7974838,12.3150398 42.4842207,12.3150398 L122.033816,12.3150398 L163.584505,12.3150398 L243.134097,12.3150398 C249.820834,12.3150398 256.024319,14.2937289 261.205916,17.6925367 L261.205916,13.1601864 C255.768928,9.74248045 249.328736,7.76245653 242.405686,7.76245653 L163.584505,7.76245653 L122.033816,7.76245653 L43.212632,7.76245653 Z" id="rect5756" fill-opacity="0.1" fill="url(#linearGradient-2)"></path>
                <path d="M43.212632,567.3915 C36.2895849,567.3915 29.8493925,565.411451 24.4124081,561.993766 L24.4124081,557.461409 C29.5940021,560.86021 35.7974838,562.838903 42.4842207,562.838903 L122.033819,562.838903 L163.584508,562.838903 L243.134094,562.838903 C249.820831,562.838903 256.024316,560.86021 261.205913,557.461409 L261.205913,561.993766 C255.768925,565.411451 249.328733,567.3915 242.405683,567.3915 L163.584508,567.3915 L122.033819,567.3915 L43.212632,567.3915 Z" id="rect5756-4" fill-opacity="0.1" fill="url(#linearGradient-3)"></path>
                <path d="M43.6168422,17.6920413 C29.4575174,17.6920413 18.0585584,29.0910003 18.0585584,43.2503251 L18.0585584,531.903663 C18.0585584,546.062987 29.4575174,557.46195 43.6168422,557.46195 L241.598983,557.46195 C255.758308,557.46195 267.15727,546.062987 267.15727,531.903663 L267.15727,43.2503251 C267.15727,29.0910003 255.758308,17.6920413 241.598983,17.6920413 L216.59791,17.6920413 C214.24011,17.6922273 212.328781,19.6035535 212.328592,21.9613534 L212.328592,23.9271358 C212.328592,31.6199967 206.136465,37.8136837 198.443607,37.8136837 L86.7722211,37.8136837 C79.0793626,37.8136837 72.8872328,31.6199967 72.8872328,23.9271358 L72.8872328,21.9613534 C72.8870432,19.603556 70.9757181,17.6922309 68.6179207,17.6920413 L43.6168422,17.6920413 Z" id="rect5872" fill="url(#linearGradient-4)"></path>
                <path d="M199.149796,23.7016735 C199.149797,27.2015794 196.288015,30.0424179 192.749334,30.0552972 C189.210653,30.0681765 186.32781,27.2482467 186.301765,23.7484362 C186.275721,20.2486258 189.116283,17.387033 192.654772,17.3483944 C196.193262,17.3097558 199.097013,20.1086243 199.149101,23.608151 L192.725693,23.7016732 L199.149796,23.7016735 Z" id="path5267-7-7" fill-opacity="0.1" fill="#0F0F0F"></path>
            </g>
            <path d="M130.31795,246.336993 C134.351364,249.109965 142.922369,251.126672 149.224579,251.126672 C176.702214,251.126672 190.062899,233.228396 190.062899,203.229877 C190.062899,177.138729 174.307374,165.668707 158.299761,165.668707 C142.292148,165.668707 128.175198,177.012685 128.175198,193.902607 C128.175198,211.926927 142.292148,221.506286 156.409098,221.506286 C167.500988,221.506286 174.685507,216.464518 177.584523,211.044618 C177.080346,227.052231 169.013518,240.034783 149.224579,240.034783 C143.930723,240.034783 137.880601,238.270164 134.351364,236.127413 L130.31795,246.336993 Z M175.945949,193.650519 C175.945949,204.490319 167.374943,210.918573 158.299761,210.918573 C148.972491,210.918573 140.653574,204.742408 140.653574,193.650519 C140.653574,182.936762 149.224579,176.508508 158.299761,176.508508 C167.248899,176.508508 175.945949,183.062806 175.945949,193.650519 Z M224.767067,203.103833 C218.086725,203.103833 212.162648,198.18811 212.162648,188.860839 C212.162648,179.533569 218.086725,174.743889 224.767067,174.743889 C231.321366,174.743889 237.245443,179.533569 237.245443,188.860839 C237.245443,198.18811 231.321366,203.103833 224.767067,203.103833 Z M224.767067,166.172884 C211.910559,166.172884 202.709333,175.752243 202.709333,188.860839 C202.709333,201.969436 211.910559,211.548794 224.767067,211.548794 C237.497531,211.548794 246.824802,201.969436 246.824802,188.860839 C246.824802,175.752243 237.497531,166.172884 224.767067,166.172884 Z" id="9ยบ" fill="#FFFFFF"></path>
            <text id="next-7-days" font-family="CircularStd-Book, Circular Std" font-size="16" font-weight="300" fill="#FFFFFF">
                <tspan x="148.45144" y="574.5487">next 7 days</tspan>
            </text>
            <g id="003-up-arrow-1" transform="translate(177.103440, 537.548700)" fill="#FFFFFF">
                <path d="M22.3090571,10.7783902 L11.7861975,0.256242317 C11.6358529,0.105739499 11.4628893,0.0303694597 11.2672277,0.0303694597 C11.0715662,0.0303694597 10.8982863,0.105739499 10.7478625,0.256242317 L0.225872857,10.7783902 C0.075132778,10.9291302 0,11.1020938 0,11.2978345 C0,11.493496 0.0753700394,11.6666969 0.225872857,11.8171206 L1.35460444,12.9457731 C1.50510726,13.0962759 1.67830809,13.1714878 1.87396966,13.1714878 C2.06963123,13.1714878 2.24283205,13.0962759 2.39333487,12.9457731 L11.2672277,4.07203839 L20.141437,12.9463267 C20.2918607,13.0968295 20.4651406,13.1715669 20.6604858,13.1715669 C20.8564637,13.1715669 21.0296646,13.096355 21.1800883,12.9463267 L22.3089781,11.8171997 C22.4594018,11.6667759 22.5341391,11.493496 22.5341391,11.2979135 C22.5342182,11.1020938 22.4594809,10.928893 22.3090571,10.7783902 Z" id="Shape"></path>
            </g>
            <g id="Group-2" transform="translate(118.500000, 100.000000)"></g>
            <g id="006-arc-de-triomphe-1" transform="translate(111.710219, 312.915889)" fill="#FFFFFF" opacity="0.786118659">
                <path d="M148.679695,27.5259705 L146.697629,27.5259705 L146.036638,27.5259705 L143.143747,27.5259705 L143.143747,18.6820486 L146.697629,18.6820486 C148.005412,18.6820486 149.065172,17.6219864 149.065172,16.3145058 L149.065172,9.86350298 C149.065172,8.5560224 148.005412,7.49596016 146.697629,7.49596016 L143.143747,7.49596016 L143.143747,2.36754281 C143.143747,1.06006223 142.083987,0 140.776204,0 L10.2728459,0 C8.96536532,0 7.90530309,1.06006223 7.90530309,2.36754281 L7.90530309,7.49626226 L4.35172314,7.49626226 C3.04424256,7.49626226 1.98418032,8.5563245 1.98418032,9.86380507 L1.98418032,16.31511 C1.98418032,17.6225906 3.04424256,18.6826528 4.35172314,18.6826528 L7.90530309,18.6826528 L7.90530309,27.5262726 L5.01241168,27.5262726 L4.35172314,27.5262726 L2.3696575,27.5262726 C1.06217692,27.5262726 0.0021146867,28.5863348 0.0021146867,29.8938154 C0.0021146867,31.0695812 0.86037539,32.0429413 1.98418032,32.2272211 L1.98418032,39.3077964 C1.98418032,40.615277 3.04424256,41.6753392 4.35172314,41.6753392 L7.90530309,41.6753392 L7.90530309,50.1917868 L6.40568812,50.1917868 C5.09820754,50.1917868 4.03814531,51.251849 4.03814531,52.5593296 C4.03814531,53.8668102 5.09820754,54.9268724 6.40568812,54.9268724 L7.90530309,54.9268724 L7.90530309,60.2166101 C7.90530309,61.5240907 8.96536532,62.584153 10.2728459,62.584153 C11.5803265,62.584153 12.6403887,61.5240907 12.6403887,60.2166101 L12.6403887,54.9268724 L43.5235754,54.9268724 L43.5235754,79.5412214 L12.6403887,79.5412214 L12.6403887,69.5484205 C12.6403887,68.2409399 11.5803265,67.1808776 10.2728459,67.1808776 C8.96536532,67.1808776 7.90530309,68.2409399 7.90530309,69.5484205 L7.90530309,79.5412214 L7.11169138,79.5412214 C5.8042108,79.5412214 4.74414857,80.6012837 4.74414857,81.9087642 C4.74414857,83.2162448 5.8042108,84.276307 7.11169138,84.276307 L7.90530309,84.276307 L7.90530309,131.122962 L7.11169138,131.122962 C5.8042108,131.122962 4.74414857,132.183024 4.74414857,133.490504 C4.74414857,134.797985 5.8042108,135.858047 7.11169138,135.858047 L7.90530309,135.858047 L7.90530309,143.304161 L6.45070074,143.304161 C5.14322016,143.304161 4.08315792,144.364223 4.08315792,145.671704 L4.08315792,152.307893 C4.08315792,153.615374 5.14322016,154.675436 6.45070074,154.675436 L56.4721042,154.675436 C57.7795848,154.675436 58.839647,153.615374 58.839647,152.307893 L58.839647,145.671704 C58.839647,144.364223 57.7795848,143.304161 56.4721042,143.304161 L54.8709843,143.304161 L54.8709843,84.4705561 C54.8709843,83.7050395 54.9144864,82.9316684 55.0005843,82.166756 C56.1561096,71.7060051 64.9794888,63.8173174 75.524223,63.8173174 C81.039628,63.8173174 86.2260482,65.965537 90.1297598,69.8653214 C93.4359215,73.171483 95.5376179,77.5401236 96.0484658,82.1721938 C96.1339596,82.9316684 96.1774617,83.7050395 96.1774617,84.4705561 L96.1774617,100.544592 C96.1774617,101.852072 97.2372218,102.912135 98.5450045,102.912135 C99.8527872,102.912135 100.912547,101.852072 100.912547,100.544592 L100.912547,84.4705561 C100.912547,84.4059071 100.910433,84.3406539 100.909828,84.2757029 L102.790087,84.2757029 L102.790087,143.303557 L100.912245,143.303557 L100.912245,110.140738 C100.912245,108.833257 99.8524851,107.773195 98.5447024,107.773195 C97.2369197,107.773195 96.1771596,108.833257 96.1771596,110.140738 L96.1771596,143.302953 L94.5766439,143.302953 C93.2688612,143.302953 92.2091011,144.363015 92.2091011,145.670496 L92.2091011,152.306685 C92.2091011,153.614165 93.2688612,154.674227 94.5766439,154.674227 L144.598047,154.674227 C145.90583,154.674227 146.96559,153.614165 146.96559,152.306685 L146.96559,145.670496 C146.96559,144.363015 145.90583,143.302953 144.598047,143.302953 L143.143445,143.302953 L143.143445,135.856537 L143.937359,135.856537 C145.245141,135.856537 146.304902,134.796474 146.304902,133.488994 C146.304902,132.181513 145.245141,131.121451 143.937359,131.121451 L143.143445,131.121451 L143.143445,84.2750987 L143.937359,84.2750987 C145.245141,84.2750987 146.304902,83.2150364 146.304902,81.9075558 C146.304902,80.6000753 145.245141,79.540013 143.937359,79.540013 L143.143445,79.540013 L143.143445,54.925664 L144.643362,54.925664 C145.951145,54.925664 147.010905,53.8656018 147.010905,52.5581212 C147.010905,51.2506406 145.951145,50.1905784 144.643362,50.1905784 L143.143445,50.1905784 L143.143445,41.6741308 L146.697327,41.6741308 C148.00511,41.6741308 149.06487,40.6140686 149.06487,39.306588 L149.06487,32.2260128 C150.188675,32.042035 151.046935,31.0686749 151.046935,29.8929091 C151.046935,28.5860327 149.987477,27.5259705 148.679695,27.5259705 Z M12.6403887,4.73508562 L138.408964,4.73508562 L138.408964,7.49626226 L12.6403887,7.49626226 L12.6403887,4.73508562 Z M6.71926595,13.9472651 L6.71926595,12.2310458 L144.329482,12.2310458 L144.329482,13.9472651 L112.3814,13.9472651 C111.073617,13.9472651 110.013857,15.0073273 110.013857,16.3148079 C110.013857,17.4651975 110.834355,18.4228485 111.921606,18.6367339 L111.921606,27.5259705 L103.734748,27.5259705 L103.734748,18.6397549 C104.831666,18.4334219 105.661832,17.4718436 105.661832,16.3148079 C105.661832,15.0073273 104.602071,13.9472651 103.294289,13.9472651 L6.71926595,13.9472651 L6.71926595,13.9472651 Z M138.408661,18.6820486 L138.408661,27.5259705 L129.578334,27.5259705 L129.578334,18.6820486 L138.408661,18.6820486 Z M124.843853,18.6820486 L124.843853,27.5259705 L116.656994,27.5259705 L116.656994,18.6820486 L124.843853,18.6820486 Z M99.0002664,18.6820486 L99.0002664,27.5259705 L90.8134078,27.5259705 L90.8134078,18.6820486 L99.0002664,18.6820486 Z M86.0789264,18.6820486 L86.0789264,27.5259705 L77.8920679,27.5259705 L77.8920679,18.6820486 L86.0789264,18.6820486 Z M73.1572844,18.6820486 L73.1572844,27.5259705 L64.9704258,27.5259705 L64.9704258,18.6820486 L73.1572844,18.6820486 Z M60.2356423,18.6820486 L60.2356423,27.5259705 L52.0487838,27.5259705 L52.0487838,18.6820486 L60.2356423,18.6820486 Z M47.3140003,18.6820486 L47.3140003,27.5259705 L39.127746,27.5259705 L39.127746,18.6820486 L47.3140003,18.6820486 Z M34.3926603,18.6820486 L34.3926603,27.5259705 L26.2058018,27.5259705 L26.2058018,18.6820486 L34.3926603,18.6820486 Z M21.4710183,18.6820486 L21.4710183,27.5259705 L12.6403887,27.5259705 L12.6403887,18.6820486 L21.4710183,18.6820486 Z M12.6403887,84.2750987 L43.5235754,84.2750987 L43.5235754,131.121753 L39.2334803,131.121753 L39.2334803,125.89032 C39.2334803,124.58284 38.1734181,123.522778 36.8659375,123.522778 L36.4716995,123.522778 C37.3009587,122.001109 37.788243,120.202115 37.7994206,118.273823 L37.7997227,109.559501 C37.7997227,106.164523 35.9517886,103.236286 33.2332078,102.202204 C33.089107,100.333727 31.6961327,98.8468005 29.9636001,98.7165962 L29.9636001,98.1105875 C29.9636001,96.8031069 28.9035378,95.7430446 27.5960573,95.7430446 C26.2885767,95.7430446 25.2285145,96.8031069 25.2285145,98.1105875 L25.2285145,98.7165962 C23.4959819,98.8464984 22.1027054,100.333727 21.9592088,102.202204 C19.2409301,103.236286 17.3926939,106.164523 17.3926939,109.559501 L17.3926939,118.177454 L17.392996,118.275031 C17.4041737,120.202417 17.8914579,122.001412 18.7207172,123.52308 L18.3267813,123.52308 C17.0193007,123.52308 15.9592384,124.583142 15.9592384,125.890622 L15.9592384,131.122055 L12.6403887,131.122055 L12.6403887,84.2750987 Z M43.5235754,135.856839 L43.5235754,143.302953 L39.2334803,143.302953 L39.2334803,135.856839 L43.5235754,135.856839 Z M20.6943241,129.520331 L20.6943241,128.257863 L34.4983947,128.257863 L34.4983947,129.520331 L20.6943241,129.520331 Z M34.4983947,135.856839 L34.4983947,143.302953 L20.6943241,143.302953 L20.6943241,135.856839 L34.4983947,135.856839 Z M22.1280817,109.559501 C22.1280817,107.969257 22.9673102,106.79772 23.7784436,106.584439 C25.211597,106.207119 26.2822326,104.972142 26.591279,103.439296 L28.6017418,103.439296 C28.9107882,104.972444 29.9814239,106.207421 31.4145773,106.584439 C32.2257107,106.798325 33.0649392,107.969861 33.0649392,109.559501 L33.0649392,118.177454 L33.0646371,118.247541 C33.0486259,121.046479 31.3239478,123.411303 29.2989843,123.411303 L25.8940366,123.411303 C23.8687709,123.411303 22.144697,121.046782 22.1283838,118.247843 L22.1280817,109.559501 Z M12.6403887,135.856839 L15.9595405,135.856839 L15.9595405,143.302953 L12.6403887,143.302953 L12.6403887,135.856839 Z M8.81824355,149.939142 L8.81824355,148.037736 L54.1045614,148.037736 L54.1045614,149.939142 L8.81824355,149.939142 Z M48.258661,143.302953 L48.258661,84.2750987 L50.1389196,84.2750987 C50.1383154,84.3397477 50.1362007,84.4050008 50.1362007,84.4699519 L50.1362007,143.303255 L48.258661,143.303255 L48.258661,143.302953 Z M73.1575865,59.1912892 C61.9639456,60.2241626 52.776236,68.5101093 50.6210682,79.5403151 L48.3846359,79.5403151 C49.013,73.9113212 52.6460317,59.7731301 73.1575865,56.6687701 L73.1575865,59.1912892 L73.1575865,59.1912892 Z M48.2589631,66.1649217 L48.2589631,54.9259661 L61.8588154,54.9259661 C55.0344193,57.8641722 50.832839,62.1678618 48.2589631,66.1649217 Z M45.9092441,50.1908805 C45.9029001,50.1908805 45.8971602,50.1899742 45.8908161,50.1899742 C45.8844721,50.1899742 45.8787322,50.1908805 45.8723881,50.1908805 L12.6403887,50.1908805 L12.6403887,41.6744329 L138.408964,41.6744329 L138.408964,50.1908805 L105.17636,50.1908805 C105.170016,50.1908805 105.163974,50.1899742 105.157932,50.1899742 C105.15189,50.1899742 105.145848,50.1908805 105.139504,50.1908805 L45.9092441,50.1908805 Z M135.089812,131.121753 L135.089812,125.89032 C135.089812,124.58284 134.030052,123.522778 132.722269,123.522778 L132.329843,123.522778 C133.157894,122.003828 133.644272,120.209063 133.655752,118.287417 L133.656054,109.559501 C133.656054,106.164825 131.807818,103.23689 129.089539,102.202204 C128.946043,100.333727 127.552766,98.8468005 125.820234,98.7165962 L125.820234,98.1105875 C125.820234,96.8031069 124.760473,95.7430446 123.452691,95.7430446 C122.144908,95.7430446 121.085148,96.8031069 121.085148,98.1105875 L121.085148,98.7165962 C119.352011,98.8464984 117.959339,100.333727 117.815842,102.202204 C115.097866,103.236588 113.249327,106.164825 113.249327,109.559501 L113.249327,118.275031 C113.260807,120.202417 113.747789,122.001109 114.577049,123.522778 L114.183113,123.522778 C112.87533,123.522778 111.81557,124.58284 111.81557,125.89032 L111.81557,131.121753 L107.525173,131.121753 L107.525173,84.2750987 L138.408359,84.2750987 L138.408359,131.121753 L135.089812,131.121753 L135.089812,131.121753 Z M138.408661,135.856839 L138.408661,143.302953 L135.089812,143.302953 L135.089812,135.856839 L138.408661,135.856839 Z M116.550958,129.520331 L116.550958,128.257863 L130.355028,128.257863 L130.355028,129.520331 L116.550958,129.520331 Z M130.355028,135.856839 L130.355028,143.302953 L116.550958,143.302953 L116.550958,135.856839 L130.355028,135.856839 Z M117.984413,118.261437 L117.984413,109.559803 C117.984413,107.969559 118.823642,106.798023 119.634775,106.584741 C121.067928,106.207119 122.138866,104.972142 122.44761,103.439296 L124.458073,103.439296 C124.76712,104.972444 125.837755,106.207421 127.270909,106.584439 C128.08174,106.798325 128.921271,107.969861 128.921271,109.559501 L128.921271,118.177454 L128.920969,118.247843 C128.904957,121.046782 127.180279,123.411303 125.155014,123.411303 L121.750368,123.411303 C119.725102,123.411001 118.000726,121.046479 117.984413,118.261437 Z M111.815872,135.856839 L111.815872,143.302953 L107.525475,143.302953 L107.525475,135.856839 L111.815872,135.856839 Z M107.525475,79.540013 L107.525475,54.925664 L138.408661,54.925664 L138.408661,79.540013 L107.525475,79.540013 Z M100.430701,79.540013 C99.460966,74.6381693 97.0369308,70.0755816 93.4773089,66.5156576 C89.2427998,62.2841695 83.7778452,59.7338574 77.89237,59.1927997 L77.89237,56.668468 C98.4039247,59.7725259 102.036956,73.9110191 102.665321,79.540013 L100.430701,79.540013 Z M89.1908389,54.9259661 L102.790691,54.9259661 L102.790691,66.1649217 C100.216211,62.1681639 96.0149329,57.8641722 89.1908389,54.9259661 Z M142.230807,149.939142 L96.9444888,149.939142 L96.9444888,148.037736 L142.230807,148.037736 L142.230807,149.939142 Z M144.330388,36.9396494 L144.330086,36.9396494 L140.776204,36.9396494 L10.2728459,36.9396494 L6.71926595,36.9396494 L6.71926595,32.260754 L11.1335234,32.260754 L11.1335234,33.658864 C11.1335234,34.9663446 12.1935856,36.0264069 13.5010662,36.0264069 C14.8085468,36.0264069 15.868609,34.9663446 15.868609,33.658864 L15.868609,32.260754 L21.4710183,32.260754 L21.4710183,33.658864 C21.4710183,34.9663446 22.5310805,36.0264069 23.8385611,36.0264069 C25.1460417,36.0264069 26.2061039,34.9663446 26.2061039,33.658864 L26.2061039,32.260754 L31.8085132,32.260754 L31.8085132,33.658864 C31.8085132,34.9663446 32.8685754,36.0264069 34.176056,36.0264069 C35.4835366,36.0264069 36.5435988,34.9663446 36.5435988,33.658864 L36.5435988,32.260754 L42.1460081,32.260754 L42.1460081,33.658864 C42.1460081,34.9663446 43.2060703,36.0264069 44.5135509,36.0264069 C45.8210315,36.0264069 46.8810937,34.9663446 46.8810937,33.658864 L46.8810937,32.260754 L52.483503,32.260754 L52.483503,33.658864 C52.483503,34.9663446 53.5435652,36.0264069 54.8510458,36.0264069 C56.1585264,36.0264069 57.2185886,34.9663446 57.2185886,33.658864 L57.2185886,32.260754 L62.8209979,32.260754 L62.8209979,33.658864 C62.8209979,34.9663446 63.8810601,36.0264069 65.1885407,36.0264069 C66.4960213,36.0264069 67.5560835,34.9663446 67.5560835,33.658864 L67.5560835,32.260754 L73.1584928,32.260754 L73.1584928,33.658864 C73.1584928,34.9663446 74.218555,36.0264069 75.5260356,36.0264069 C76.8338182,36.0264069 77.8935784,34.9663446 77.8935784,33.658864 L77.8935784,32.260754 L83.4959877,32.260754 L83.4959877,33.658864 C83.4959877,34.9663446 84.5557478,36.0264069 85.8635305,36.0264069 C87.1713131,36.0264069 88.2310733,34.9663446 88.2310733,33.658864 L88.2310733,32.260754 L93.8331805,32.260754 L93.8331805,33.658864 C93.8331805,34.9663446 94.8929406,36.0264069 96.2007233,36.0264069 C97.5085059,36.0264069 98.5682661,34.9663446 98.5682661,33.658864 L98.5682661,32.260754 L104.170675,32.260754 L104.170675,33.658864 C104.170675,34.9663446 105.230435,36.0264069 106.538218,36.0264069 C107.846001,36.0264069 108.905761,34.9663446 108.905761,33.658864 L108.905761,32.260754 L114.507868,32.260754 L114.507868,33.658864 C114.507868,34.9663446 115.567628,36.0264069 116.875411,36.0264069 C118.183194,36.0264069 119.242954,34.9663446 119.242954,33.658864 L119.242954,32.260754 L124.845363,32.260754 L124.845363,33.658864 C124.845363,34.9663446 125.905123,36.0264069 127.212906,36.0264069 C128.520689,36.0264069 129.580449,34.9663446 129.580449,33.658864 L129.580449,32.260754 L135.182556,32.260754 L135.182556,33.658864 C135.182556,34.9663446 136.242316,36.0264069 137.550099,36.0264069 C138.857881,36.0264069 139.917641,34.9663446 139.917641,33.658864 L139.917641,32.260754 L144.331899,32.260754 L144.331899,36.9396494 L144.330388,36.9396494 Z" id="Shape"></path>
            </g>
            <g id="Group" transform="translate(114.500000, 100.000000)" fill="#FFFFFF">
                <g id="Group-Copy" transform="translate(94.532867, 3.033356)">
                    <g id="Group-3" transform="translate(0.134202, 0.479973)">
                        <path d="M36.9660844,8.66347021 C36.7070459,8.66347021 36.447573,8.67128696 36.1883173,8.68692047 C34.0612915,3.66183285 28.9578192,0.255464857 23.3295387,0.255464857 C15.6571768,0.255464857 9.41528105,6.37381247 9.41528105,13.8941819 C9.41528105,13.920672 9.41528105,13.946945 9.41549818,13.9734351 C4.26925086,14.3603645 0.20193283,18.5931371 0.20193283,23.7404701 C0.20193283,29.1416305 4.68028188,33.5359494 10.1847971,33.5359494 L36.9658673,33.5359494 C43.9594743,33.5359494 49.6494203,27.9569579 49.6494203,21.0997098 C49.6496375,14.2422446 43.9596914,8.66347021 36.9660844,8.66347021 Z M36.9660844,30.2789683 L10.1850143,30.2789683 C6.47639841,30.2789683 3.45913109,27.3457311 3.45913109,23.7404701 C3.45913109,20.134992 6.47639841,17.2015377 10.1850143,17.2015377 C10.4138715,17.2015377 10.6683503,17.2189082 10.9855802,17.2558207 C11.488241,17.3153149 11.9895989,17.1363981 12.3424386,16.7733532 C12.6952782,16.4105255 12.8589958,15.9041735 12.7860394,15.4032498 C12.7106946,14.8866926 12.6724793,14.3788207 12.6724793,13.8939648 C12.6722622,8.16971187 17.4530762,3.51244599 23.3295387,3.51244599 C28.0065636,3.51244599 32.2054637,6.5601118 33.5406088,10.923598 C33.7798884,11.7050563 34.5611296,12.1890437 35.3671238,12.053119 C35.8925834,11.9649634 36.4304196,11.9204513 36.9658673,11.9204513 C42.1635749,11.9204513 46.3924392,16.0383611 46.3924392,21.0997098 C46.3926563,26.1612756 42.163792,30.2789683 36.9660844,30.2789683 Z" id="Shape"></path>
                    </g>
                </g>
                <text id="Paris" font-family="CircularStd-Book, Circular Std" font-size="32" font-weight="300" letter-spacing="-0.888888896">
                    <tspan x="0.580839522" y="32.0333562">Pari</tspan>
                    <tspan x="51.7452839" y="32.0333562" letter-spacing="-0.790123463">s</tspan>
                </text>
            </g>
        </g>
    </g>
</svg>