<?xml version="1.0" encoding="UTF-8"?>
<svg width="100px" height="100px" viewBox="0 0 100 100" version="1.1" xmlns="http://www.w3.org/2000/svg" xmlns:xlink="http://www.w3.org/1999/xlink">
    <!-- Generator: Sketch 41 (35326) - http://www.bohemiancoding.com/sketch -->
    <title>adv</title>
    <desc>Created with Sketch.</desc>
    <defs></defs>
    <g id="Page-1" stroke="none" stroke-width="1" fill="none" fill-rule="evenodd">
        <g id="adv" fill="#69737B">
            <g id="4" transform="translate(19.000000, 7.000000)">
                <path d="M61.8673414,28.6792967 C61.8673414,25.3737895 60.5946951,22.2518494 58.2842131,19.888827 C56.2182711,17.7761822 53.5276815,16.4782388 50.6204439,16.1727258 C50.079472,13.7065685 49.0967712,11.3870053 47.6930982,9.26398223 C47.3090989,8.68214555 46.5255328,8.52257837 45.9436962,8.90657763 C45.3618593,9.29122551 45.2022921,10.0747916 45.58694,10.6566283 C46.9808832,12.7647324 47.901314,15.0940253 48.3222861,17.5802908 C48.4228265,18.175749 48.9320147,18.6168293 49.5359054,18.6310996 C52.1694139,18.6959644 54.6349227,19.7694759 56.4783787,21.6544451 C58.3250779,23.5426578 59.3415083,26.0373557 59.3415083,28.6792967 C59.3415083,33.9832865 55.2109216,38.3383051 49.998391,38.7041423 L49.998391,32.0399389 C49.998391,29.6029706 48.0161245,27.6207041 45.5791562,27.6207041 C43.1428366,27.6207041 41.1599215,29.6029706 41.1599215,32.0399389 L41.1599215,34.1863131 L21.9690391,34.1863131 L21.9690391,32.0399389 C21.9690391,29.6029706 19.9867726,27.6207041 17.5498043,27.6207041 C15.1128361,27.6207041 13.1305696,29.6029706 13.1305696,32.0399389 L13.1305696,38.6490073 C7.17728355,37.9556033 2.52518433,32.8585318 2.52518433,26.7365976 C2.52518433,23.8676301 3.55458781,21.0914192 5.42334096,18.9197477 C7.27263477,16.7701302 9.82441359,15.3411599 12.6077597,14.8955391 C13.0514345,14.824188 13.4237582,14.5225668 13.58592,14.1035407 C14.8890526,10.7318714 17.1515347,7.85187686 20.1275292,5.77361056 C23.1709827,3.64864164 26.7495706,2.52518433 30.4754013,2.52518433 C35.0710682,2.52518433 39.4520329,4.24928923 42.8113777,7.37901294 C43.3218632,7.85447145 44.1209969,7.82593096 44.5964554,7.31609418 C45.071914,6.80560863 45.0433734,6.00647502 44.532888,5.53101651 C40.7045709,1.96410436 35.7119318,0 30.4754013,0 C26.2293553,0 22.1513091,1.28043007 18.681694,3.70312802 C15.4877542,5.9331779 13.0157589,8.97598295 11.4979241,12.533814 C8.40387585,13.1908937 5.58874609,14.8553231 3.5085338,17.2728318 C1.24605163,19.9030971 0,23.2637393 0,26.7365976 C0,30.5908605 1.49383503,34.2213402 4.20647841,36.9579835 C6.62204137,39.3949519 9.75371107,40.8693274 13.1305696,41.1878132 L13.1305696,69.3235433 C13.1305696,70.0208393 13.6955413,70.5864598 14.3934861,70.5864598 C15.090782,70.5864598 15.6557539,70.0208393 15.6557539,69.3235433 L15.6557539,32.0399389 C15.6557539,30.9956165 16.5054821,30.146537 17.5498043,30.146537 C18.5941266,30.146537 19.4432062,30.9956165 19.4432062,32.0399389 L19.4432062,35.4492297 C19.4432062,36.1465257 20.0088267,36.7121462 20.7061226,36.7121462 L42.4228379,36.7121462 C43.1201339,36.7121462 43.6857544,36.1465257 43.6857544,35.4492297 L43.6857544,32.0399389 C43.6857544,30.9956165 44.5348338,30.146537 45.5791562,30.146537 C46.6234786,30.146537 47.4732067,30.9956165 47.4732067,32.0399389 L47.4732067,80.6002786 C47.4732067,81.6446009 46.6234786,82.494329 45.5791562,82.494329 C44.5348338,82.494329 43.6857544,81.6446009 43.6857544,80.6002786 L43.6857544,77.9583376 C43.6857544,77.2610417 43.1201339,76.6960698 42.4228379,76.6960698 L20.7061226,76.6960698 C20.0088267,76.6960698 19.4438548,77.2610417 19.4438548,77.9583376 L19.4438548,80.6002786 C19.4438548,81.6446009 18.5941266,82.494329 17.5498043,82.494329 C16.5054821,82.494329 15.6557539,81.6446009 15.6557539,80.6002786 L15.6557539,74.3745607 C15.6557539,73.6772647 15.090782,73.1116441 14.3934861,73.1116441 C13.6955413,73.1116441 13.1305696,73.6772647 13.1305696,74.3745607 L13.1305696,80.6002786 C13.1305696,83.0372469 15.1128361,85.0195134 17.5498043,85.0195134 C19.9867726,85.0195134 21.9690391,83.0372469 21.9690391,80.6002786 L21.9690391,79.2212541 L41.1605701,79.2212541 L41.1605701,80.6002786 C41.1605701,83.0372469 43.1428366,85.0195134 45.5791562,85.0195134 C48.0161245,85.0195134 49.998391,83.0372469 49.998391,80.6002786 L49.998391,41.2358132 C56.6055136,40.8667328 61.8673414,35.3765812 61.8673414,28.6792967 L61.8673414,28.6792967 Z" id="Shape"></path>
                <path d="M20.7061226,54.8100576 L42.4228379,54.8100576 C43.1207826,54.8100576 43.6857544,54.244437 43.6857544,53.547141 L43.6857544,41.7618663 C43.6857544,41.0645703 43.1207826,40.4995983 42.4228379,40.4995983 L20.7061226,40.4995983 C20.0088267,40.4995983 19.4438548,41.0645703 19.4438548,41.7618663 L19.4438548,53.547141 C19.4438548,54.244437 20.0088267,54.8100576 20.7061226,54.8100576 L20.7061226,54.8100576 Z M21.9690391,43.0247826 L41.1605701,43.0247826 L41.1605701,52.2848732 L21.9690391,52.2848732 L21.9690391,43.0247826 Z" id="Shape"></path>
                <path d="M19.4438548,71.6457011 C19.4438548,72.342997 20.0088267,72.9079689 20.7061226,72.9079689 L42.4228379,72.9079689 C43.1207826,72.9079689 43.6857544,72.342997 43.6857544,71.6457011 L43.6857544,59.8604262 C43.6857544,59.1631302 43.1207826,58.5975097 42.4228379,58.5975097 L20.7061226,58.5975097 C20.0088267,58.5975097 19.4438548,59.1631302 19.4438548,59.8604262 L19.4438548,71.6457011 Z M21.9690391,61.1226942 L41.1605701,61.1226942 L41.1605701,70.3827846 L21.9690391,70.3827846 L21.9690391,61.1226942 Z" id="Shape"></path>
            </g>
        </g>
    </g>
</svg>