<?xml version="1.0" encoding="UTF-8"?>
<svg width="100px" height="100px" viewBox="0 0 100 100" version="1.1" xmlns="http://www.w3.org/2000/svg" xmlns:xlink="http://www.w3.org/1999/xlink">
    <!-- Generator: Sketch 41 (35326) - http://www.bohemiancoding.com/sketch -->
    <title>adv</title>
    <desc>Created with Sketch.</desc>
    <defs></defs>
    <g id="Page-1" stroke="none" stroke-width="1" fill="none" fill-rule="evenodd">
        <g id="adv" fill="#69737B">
            <g id="1" transform="translate(9.000000, 9.000000)">
                <path d="M64.1873743,62.7181679 L62.2871473,62.7181679 L58.0169742,52.0427351 L78.0641026,52.0427351 C80.6395508,52.0427351 82.7346045,49.9476814 82.7346045,47.3722332 C82.7346045,44.796785 80.6395508,42.7017313 78.0641026,42.7017313 L44.308384,42.7017313 L70.3951385,12.8892507 C70.8341657,12.3861709 70.8341657,11.6348874 70.3951385,11.1318076 L61.0541348,0.456374754 C60.7992588,0.166803638 60.4336253,0 60.0493097,0 L22.6852948,0 C22.3009792,0 21.9340112,0.166803638 21.6804697,0.455040325 L12.3394659,11.1304732 C11.9004388,11.6335529 11.9004388,12.3848365 12.3394659,12.8879163 L38.4262205,42.7017313 L4.67050186,42.7017313 C2.09505369,42.7017313 2.84217094e-14,44.796785 2.84217094e-14,47.3722332 C2.84217094e-14,49.9476814 2.09505369,52.0427351 4.67050186,52.0427351 L10.2350712,52.0427351 C10.0402446,52.5484837 9.9401624,53.0902619 9.95484112,53.6520566 C9.98286413,54.8063377 10.4712652,55.8685433 11.3199621,56.63584 L34.9300162,78.3096376 C36.1656976,79.4425679 37.7683469,80.0657463 39.4430555,80.0657463 L64.052597,80.0657463 L64.052597,82.7346045 L66.7214552,82.7346045 L66.7214552,64.052597 C66.7214552,61.8454513 68.5175968,60.0493097 70.7247425,60.0493097 L82.7346045,60.0493097 L82.7346045,57.3804515 L70.7247425,57.3804515 C67.5034307,57.3804515 64.8078839,59.677004 64.1873743,62.7181679 Z M44.3390758,38.6130406 L51.7091278,13.344291 L66.4492317,13.344291 L44.3390758,38.6130406 Z M60.0493097,3.36142691 L66.4492317,10.6754328 L53.6493877,10.6754328 L60.0493097,3.36142691 Z M57.1082279,2.66885821 L50.708306,9.98286413 L44.308384,2.66885821 L57.1082279,2.66885821 Z M47.7672242,10.6754328 L34.9673802,10.6754328 L41.3673022,3.36142691 L47.7672242,10.6754328 Z M38.4262205,2.66885821 L32.0262985,9.98286413 L25.6263765,2.66885821 L38.4262205,2.66885821 Z M22.6852948,3.36142691 L29.0852168,10.6754328 L16.2853728,10.6754328 L22.6852948,3.36142691 Z M16.2853728,13.344291 L31.0254767,13.344291 L38.3955286,38.6130406 L16.2853728,13.344291 Z M33.8050925,13.344291 L48.9281775,13.344291 L41.3673022,39.2709141 L33.8050925,13.344291 Z M4.67050186,49.3738769 C3.566929,49.3738769 2.66885821,48.4758061 2.66885821,47.3722332 C2.66885821,46.2686603 3.566929,45.3705895 4.67050186,45.3705895 L78.0641026,45.3705895 C79.1676755,45.3705895 80.0657463,46.2686603 80.0657463,47.3722332 C80.0657463,48.4758061 79.1676755,49.3738769 78.0641026,49.3738769 L56.0460224,49.3738769 L50.708306,49.3738769 L4.67050186,49.3738769 Z M41.9197559,52.0427351 L49.3738769,52.0427351 L49.3738769,63.2279198 L41.4793943,67.1751611 L42.1546154,53.6080204 C42.181304,53.0649078 42.097235,52.5364738 41.9197559,52.0427351 Z M33.3794096,62.4032426 L33.3633965,62.6167513 L33.5008427,62.6274267 L36.5033081,68.1506288 L27.6600465,60.156064 L25.4769205,54.1858282 C25.2994414,53.7708208 25.3127857,53.3211181 25.5116156,52.9167861 C25.71178,52.5124541 26.0640693,52.2308896 26.5004276,52.1214664 C27.1583011,51.9559972 27.8468665,52.2522404 28.1671295,52.8140351 L33.3794096,62.4032426 Z M30.7879483,52.0427351 L34.3468707,52.0427351 C34.2241032,52.3776768 34.1293588,52.7272972 34.1013358,53.0982685 L33.7597219,57.5098911 L30.7879483,52.0427351 Z M36.101645,61.8214315 L36.760853,53.3037706 C36.816899,52.5965231 37.4147232,52.0427351 38.1233051,52.0427351 C38.5009485,52.0427351 38.8519034,52.1935256 39.112117,52.4670835 C39.3723307,52.7406415 39.5057736,53.0996029 39.4870916,53.4759119 L38.8225459,66.8268751 L36.101645,61.8214315 Z M22.9988856,55.1693025 L23.4192308,56.3209148 L18.6846763,52.0427351 L23.0082266,52.0427351 C22.5972225,53.068911 22.5838782,54.2058446 22.9988856,55.1693025 Z M64.052597,77.396888 L39.4430555,77.396888 C38.4382303,77.396888 37.476107,77.0219135 36.7354988,76.3426891 L13.1174381,54.6622194 C12.809185,54.3833237 12.6330403,54.0003426 12.6223649,53.5840007 C12.6116895,53.1676588 12.7678177,52.7780055 13.0627265,52.4830967 C13.6245212,51.9199676 14.5319329,51.8946134 15.1177473,52.4150408 L25.3795071,61.6906575 L25.4342187,61.841448 L25.5142845,61.8120905 L36.468613,71.7135545 C36.8796172,72.0831914 37.4707692,72.1632571 37.9605047,71.9177221 L51.3047958,65.2455766 C51.7571672,65.0200581 52.0427351,64.5570112 52.0427351,64.0512626 L52.0427351,52.0414006 L55.1426139,52.0414006 L60.1440542,64.5476702 C60.3482218,65.0547533 60.8379573,65.3870261 61.3837388,65.3870261 L64.052597,65.3870261 L64.052597,77.396888 Z" id="Shape"></path>
            </g>
        </g>
    </g>
</svg>