<?xml version="1.0" encoding="UTF-8"?>
<svg width="100px" height="100px" viewBox="0 0 100 100" version="1.1" xmlns="http://www.w3.org/2000/svg" xmlns:xlink="http://www.w3.org/1999/xlink">
    <!-- Generator: Sketch 41 (35326) - http://www.bohemiancoding.com/sketch -->
    <title>adv</title>
    <desc>Created with Sketch.</desc>
    <defs></defs>
    <g id="Page-1" stroke="none" stroke-width="1" fill="none" fill-rule="evenodd">
        <g id="adv" fill="#69737B">
            <g id="2" transform="translate(9.000000, 9.000000)">
                <g id="surface1">
                    <path d="M68.7877026,14.5747384 L68.7877026,6.87877026 C68.7828875,3.08168908 65.7060136,0.00481513918 61.9089324,0 L6.87877026,0 C3.08168908,0.00481513918 0.00481513918,3.08168908 0,6.87877026 L0,37.1453594 C0.0106621159,40.6586914 2.67377805,43.5969581 6.16888117,43.9532783 L11.3403407,57.3775424 C12.7064644,60.9221728 16.6872088,62.6879531 20.232183,61.323549 L52.5262897,48.883293 C50.2948167,54.712019 50.9297272,61.2506341 54.2397915,66.5414402 L55.0301621,67.8054142 L55.0301621,81.1694891 C55.0301621,81.9295932 55.6458121,82.5452432 56.4059162,82.5452432 L81.1694891,82.5452432 C81.9295932,82.5452432 82.5452432,81.9295932 82.5452432,81.1694891 L82.5452432,35.7575675 C82.5321735,30.9998661 80.6381041,26.4413051 77.2743855,23.0765546 L68.7877026,14.5747384 Z M68.7877026,22.8024355 L72.9631162,33.6413139 C73.7813459,35.7689175 72.7209835,38.1561947 70.5937238,38.9751123 L68.2071344,39.8968675 C68.5882183,39.0294546 68.785639,38.0918782 68.7877026,37.1453594 L68.7877026,22.8024355 Z M2.75150811,37.1453594 L2.75150811,6.87877026 C2.75150811,4.59983372 4.59983372,2.75150811 6.87877026,2.75150811 L61.9089324,2.75150811 C64.1878689,2.75150811 66.0361945,4.59983372 66.0361945,6.87877026 L66.0361945,15.623063 L66.0241567,15.623063 L66.0361945,15.6543614 L66.0361945,37.1453594 C66.0255324,37.3854285 65.9942341,37.623434 65.9426433,37.858 L53.3407361,25.2547171 C50.5080585,22.4873879 45.9921458,22.4660637 43.1340168,25.2045021 C40.2751999,27.9446602 40.1035746,32.4571335 42.7474299,35.4046866 L48.1197495,41.2726216 L6.87877026,41.2726216 C4.59983372,41.2726216 2.75150811,39.424296 2.75150811,37.1453594 Z M20.3762933,44.0241297 L10.5933062,47.7906004 L9.14601294,44.0241297 L20.3762933,44.0241297 Z M19.2426719,58.7553602 C17.1157562,59.5753096 14.7271032,58.5149471 13.9074977,56.3880314 L11.5866006,50.3525983 L28.0089768,44.0241297 L28.0089768,44.0158752 L50.6415067,44.0158752 L52.429643,45.9653187 L19.2426719,58.7553602 Z M79.7937351,79.7937351 L57.7816702,79.7937351 L57.7816702,68.7877026 L79.7937351,68.7877026 L79.7937351,79.7937351 Z M79.7937351,66.0361945 L57.1694597,66.0361945 L56.5727263,65.082797 C53.218294,59.7221713 53.0848459,52.9513977 56.2243166,47.4635148 C56.5214795,46.9441676 56.4485645,46.2920602 56.0440928,45.8511311 L44.7701323,33.5518898 C43.0889608,31.7118187 43.183544,28.8671034 44.9833742,27.1436275 C46.7838923,25.4198076 49.6299835,25.4480106 51.395076,27.2062243 L73.3180607,49.12405 L75.263377,47.1787337 L70.173087,42.0884437 L71.5846106,41.5381421 C75.1264895,40.1716744 76.8915818,36.1943695 75.5288975,32.650427 L70.8723139,20.5589246 L75.3290692,25.0249662 C78.1768801,27.8720893 79.782729,31.7303915 79.7937351,35.7575675 L79.7937351,66.0361945 Z" id="Shape"></path>
                    <path d="M15.6835962,19.2605567 C17.659179,19.2605567 19.2605567,17.659179 19.2605567,15.6835962 L19.2605567,9.07997675 C19.2605567,7.10439393 17.659179,5.50301621 15.6835962,5.50301621 L9.07997675,5.50301621 C7.10439393,5.50301621 5.50301621,7.10439393 5.50301621,9.07997675 L5.50301621,15.6835962 C5.50301621,17.659179 7.10439393,19.2605567 9.07997675,19.2605567 L15.6835962,19.2605567 Z M8.25452432,15.6835962 L8.25452432,13.7575405 L11.0060324,13.7575405 L11.0060324,11.0060324 L8.25452432,11.0060324 L8.25452432,9.07997675 C8.25452432,8.62425824 8.62425824,8.25452432 9.07997675,8.25452432 L15.6835962,8.25452432 C16.1393147,8.25452432 16.5090486,8.62425824 16.5090486,9.07997675 L16.5090486,11.0060324 L13.7575405,11.0060324 L13.7575405,13.7575405 L16.5090486,13.7575405 L16.5090486,15.6835962 C16.5090486,16.1393147 16.1393147,16.5090486 15.6835962,16.5090486 L9.07997675,16.5090486 C8.62425824,16.5090486 8.25452432,16.1393147 8.25452432,15.6835962 Z" id="Shape"></path>
                    <polygon id="Shape" points="6.87877026 23.3878189 12.3817865 23.3878189 12.3817865 26.139327 6.87877026 26.139327"></polygon>
                    <polygon id="Shape" points="6.87877026 31.6423432 12.3817865 31.6423432 12.3817865 34.3938513 6.87877026 34.3938513"></polygon>
                    <polygon id="Shape" points="31.6423432 31.6423432 37.1453594 31.6423432 37.1453594 34.3938513 31.6423432 34.3938513"></polygon>
                    <polygon id="Shape" points="15.1332946 23.3878189 20.6363108 23.3878189 20.6363108 26.139327 15.1332946 26.139327"></polygon>
                    <polygon id="Shape" points="23.3878189 23.3878189 28.8908351 23.3878189 28.8908351 26.139327 23.3878189 26.139327"></polygon>
                    <polygon id="Shape" points="31.6423432 23.3878189 37.1453594 23.3878189 37.1453594 26.139327 31.6423432 26.139327"></polygon>
                    <polygon id="Shape" points="57.7816702 6.87877026 60.5331783 6.87877026 60.5331783 11.0060324 57.7816702 11.0060324"></polygon>
                    <polygon id="Shape" points="52.278654 6.87877026 55.0301621 6.87877026 55.0301621 11.0060324 52.278654 11.0060324"></polygon>
                    <polygon id="Shape" points="46.7756378 6.87877026 49.5271459 6.87877026 49.5271459 11.0060324 46.7756378 11.0060324"></polygon>
                    <polygon id="Shape" points="41.2726216 6.87877026 44.0241297 6.87877026 44.0241297 11.0060324 41.2726216 11.0060324"></polygon>
                    <polygon id="Shape" points="60.5331783 71.5392107 63.2846864 71.5392107 63.2846864 74.2907188 60.5331783 74.2907188"></polygon>
                </g>
            </g>
        </g>
    </g>
</svg>