<?xml version="1.0" encoding="UTF-8"?>
<svg width="100px" height="100px" viewBox="0 0 100 100" version="1.1" xmlns="http://www.w3.org/2000/svg" xmlns:xlink="http://www.w3.org/1999/xlink">
    <!-- Generator: Sketch 41 (35326) - http://www.bohemiancoding.com/sketch -->
    <title>adv</title>
    <desc>Created with Sketch.</desc>
    <defs></defs>
    <g id="Page-1" stroke="none" stroke-width="1" fill="none" fill-rule="evenodd">
        <g id="adv" fill="#69737B">
            <g id="3" transform="translate(17.000000, 8.000000)">
                <g id="004-web">
                    <path d="M59.8203999,0 L6.95586045,0 C3.11622548,0.00452130929 0.00452130929,3.11622548 0,6.95586045 L0,44.5175069 C0.00452130929,48.3571418 3.11622548,51.468846 6.95586045,51.4733673 L25.9787476,51.4733673 L23.9921539,58.4292278 L19.4764093,58.4292278 L19.4764093,61.2115719 L47.299851,61.2115719 L47.299851,58.4292278 L42.7841064,58.4292278 L40.7975127,51.4733673 L59.8203999,51.4733673 C63.6600348,51.468846 66.771739,48.3571418 66.7762603,44.5175069 L66.7762603,6.95586045 C66.771739,3.11622548 63.6600348,0.00452130929 59.8203999,0 Z M26.8857918,58.4292278 L28.8723855,51.4733673 L37.9038748,51.4733673 L39.8904685,58.4292278 L26.8857918,58.4292278 Z M63.9939161,44.5175069 C63.9939161,46.8225051 62.1253981,48.6910231 59.8203999,48.6910231 L6.95586045,48.6910231 C4.65086219,48.6910231 2.78234418,46.8225051 2.78234418,44.5175069 L2.78234418,41.7351627 L63.9939161,41.7351627 L63.9939161,44.5175069 Z M63.9939161,38.9528185 L2.78234418,38.9528185 L2.78234418,6.95586045 C2.78234418,4.65086219 4.65086219,2.78234418 6.95586045,2.78234418 L59.8203999,2.78234418 C62.1253981,2.78234418 63.9939161,4.65086219 63.9939161,6.95586045 L63.9939161,38.9528185 Z" id="Shape"></path>
                    <path d="M44.5175069,63.9939161 L5.56468836,63.9939161 C4.79641357,63.9939161 4.17351627,64.6168134 4.17351627,65.3850882 L4.17351627,82.0791533 C4.17351627,82.8474281 4.79641357,83.4703254 5.56468836,83.4703254 L44.5175069,83.4703254 C45.2857817,83.4703254 45.908679,82.8474281 45.908679,82.0791533 L45.908679,65.3850882 C45.908679,64.6168134 45.2857817,63.9939161 44.5175069,63.9939161 Z M43.1263348,80.6879812 L6.95586045,80.6879812 L6.95586045,66.7762603 L43.1263348,66.7762603 L43.1263348,80.6879812 Z" id="Shape"></path>
                    <rect id="Rectangle-path" x="9.73820463" y="75.1232928" width="2.78234418" height="2.78234418"></rect>
                    <rect id="Rectangle-path" x="9.73820463" y="69.5586045" width="2.78234418" height="2.78234418"></rect>
                    <rect id="Rectangle-path" x="15.302893" y="69.5586045" width="2.78234418" height="2.78234418"></rect>
                    <rect id="Rectangle-path" x="20.8675813" y="69.5586045" width="2.78234418" height="2.78234418"></rect>
                    <rect id="Rectangle-path" x="31.9969581" y="69.5586045" width="2.78234418" height="2.78234418"></rect>
                    <rect id="Rectangle-path" x="26.4322697" y="69.5586045" width="2.78234418" height="2.78234418"></rect>
                    <rect id="Rectangle-path" x="37.5616464" y="75.1232928" width="2.78234418" height="2.78234418"></rect>
                    <rect id="Rectangle-path" x="37.5616464" y="69.5586045" width="2.78234418" height="2.78234418"></rect>
                    <rect id="Rectangle-path" x="15.302893" y="75.1232928" width="19.4764093" height="2.78234418"></rect>
                    <path d="M55.6468836,63.9939161 C51.8053358,63.9939161 48.6910231,67.1082287 48.6910231,70.9497766 L48.6910231,76.5144649 C48.6910231,80.3560128 51.8053358,83.4703254 55.6468836,83.4703254 C59.4884314,83.4703254 62.602744,80.3560128 62.602744,76.5144649 L62.602744,70.9497766 C62.602744,67.1082287 59.4884314,63.9939161 55.6468836,63.9939161 Z M59.8203999,76.5144649 C59.8203999,78.8194632 57.9518818,80.6879812 55.6468836,80.6879812 C53.3418853,80.6879812 51.4733673,78.8194632 51.4733673,76.5144649 L51.4733673,70.9497766 C51.4733673,68.6447783 53.3418853,66.7762603 55.6468836,66.7762603 C57.9518818,66.7762603 59.8203999,68.6447783 59.8203999,70.9497766 L59.8203999,76.5144649 Z" id="Shape"></path>
                    <rect id="Rectangle-path" x="54.2557115" y="69.5586045" width="2.78234418" height="2.78234418"></rect>
                    <rect id="Rectangle-path" transform="translate(33.378734, 22.282425) rotate(-74.031780) translate(-33.378734, -22.282425) " x="23.2555002" y="20.8918822" width="20.2464668" height="2.78108514"></rect>
                    <path d="M25.9314477,16.3713131 L24.1507475,14.2344728 L15.8037149,21.1903333 C15.2136841,21.6824604 15.1342134,22.5595944 15.6263405,23.1497992 C15.6800745,23.2141409 15.7393732,23.2736135 15.8037149,23.3271736 L24.1507475,30.283034 L25.9314477,28.1461937 L18.8670759,22.2587534 L25.9314477,16.3713131 Z" id="Shape"></path>
                    <path d="M51.1499198,21.3677077 C51.0961858,21.303366 51.0368871,21.2438934 50.9725454,21.1903333 L42.6255128,14.2344728 L40.8448125,16.3713131 L47.9091844,22.2587534 L40.8448125,28.1461937 L42.6255128,30.283034 L50.9725454,23.3271736 C51.5625762,22.8350465 51.6420469,21.9579125 51.1499198,21.3677077 Z" id="Shape"></path>
                </g>
            </g>
        </g>
    </g>
</svg>