<?xml version="1.0" encoding="UTF-8"?>
<svg width="1580px" height="500px" viewBox="0 0 1580 500" version="1.1" xmlns="http://www.w3.org/2000/svg" xmlns:xlink="http://www.w3.org/1999/xlink">
    <!-- Generator: Sketch 41 (35326) - http://www.bohemiancoding.com/sketch -->
    <title>bitcoin-logo</title>
    <desc>Created with Sketch.</desc>
    <defs></defs>
    <g id="Page-1" stroke="none" stroke-width="1" fill="none" fill-rule="evenodd">
        <g id="bitcoin-logo">
            <g id="Group-3" transform="translate(6.000000, 60.000000)">
                <g id="Group-2" transform="translate(0.391249, 0.500000)">
                    <circle id="Oval" stroke="#FFFFFF" stroke-width="6" fill="#FF7900" cx="190" cy="189.662701" r="189.041075"></circle>
                    <circle id="Oval" stroke="#FFFFFF" stroke-width="6" cx="190" cy="189.662701" r="156.031244"></circle>
                    <path d="M269.169584,195.51958 C263.643414,188.373661 255.304339,183.465349 244.152861,180.797646 C258.353572,173.554092 264.594234,161.260028 262.880855,143.913451 C262.30806,137.623221 260.569648,132.171654 257.661611,127.55074 C254.751572,122.928825 250.824622,119.213168 245.865739,116.402266 C240.910861,113.58786 235.521882,111.445386 229.711317,109.968336 C223.89925,108.491286 217.226488,107.418797 209.697538,106.752372 L209.697538,70.7283715 L187.684985,70.7283715 L187.684985,105.751483 C183.873194,105.751483 178.060126,105.846615 170.24628,106.03738 L170.24628,70.7283715 L148.230723,70.7283715 L148.230723,106.752372 C145.084856,106.848005 140.463442,106.896572 134.364477,106.896572 L104.059414,106.752372 L104.059414,130.196913 L119.925936,130.196913 C127.16899,130.196913 131.409876,133.437911 132.648595,139.917405 L132.648595,180.945351 C133.60292,180.945351 134.364477,180.994419 134.936771,181.089551 L132.648595,181.089551 L132.648595,238.553811 C131.887038,243.413055 129.123703,245.844931 124.358088,245.844931 L108.492567,245.844931 L104.060415,272.005741 L132.651099,272.005741 C134.462112,272.005741 137.081248,272.029775 140.513512,272.072835 C143.943773,272.120901 146.515843,272.144935 148.231724,272.144935 L148.231724,308.59703 L170.250786,308.59703 L170.250786,272.573529 C174.25234,272.671165 180.065409,272.71773 187.689491,272.71773 L187.689491,308.59703 L209.702545,308.59703 L209.702545,272.144935 C217.518894,271.764406 224.451516,271.05342 230.500412,270.001459 C236.552312,268.949499 242.34335,267.308221 247.86952,265.067111 C253.39519,262.829004 258.016604,260.039633 261.732762,256.704003 C265.450923,253.371377 268.521685,249.128488 270.956064,243.981344 C273.382431,238.8342 274.933084,232.877933 275.598007,226.110039 C276.842234,212.866657 274.696756,202.668502 269.169584,195.51958 Z M170.674374,131.76509 C171.341801,131.76509 173.223913,131.741056 176.321212,131.692989 C179.420013,131.643921 181.992083,131.596856 184.040927,131.548789 C186.090271,131.501724 188.854108,131.620889 192.333937,131.906786 C195.812265,132.192683 198.742332,132.574713 201.124138,133.050374 C203.505944,133.526034 206.129085,134.312625 208.98555,135.408647 C211.847021,136.503667 214.132694,137.838519 215.846072,139.410702 C217.562955,140.982884 219.015972,142.985163 220.205122,145.415536 C221.397778,147.845409 221.993605,150.632778 221.993605,153.777142 C221.993605,156.445846 221.56551,158.87672 220.708821,161.069764 C219.853634,163.261306 218.563844,165.096353 216.850466,166.573403 C215.136587,168.050954 213.370135,169.338741 211.559122,170.433761 C209.750111,171.528781 207.4369,172.411005 204.626499,173.07743 C201.816599,173.744857 199.362693,174.269084 197.267285,174.649613 C195.170374,175.031142 192.550238,175.294007 189.404872,175.436204 C186.259006,175.578402 183.875698,175.675537 182.25645,175.722602 C180.6357,175.769667 178.420626,175.769667 175.608222,175.722602 C172.795318,175.675537 171.153539,175.650502 170.675876,175.650502 L170.675876,131.764589 L170.674374,131.764589 L170.674374,131.76509 Z M230.787811,229.113708 C229.880051,231.306752 228.714433,233.213899 227.28595,234.835149 C225.854964,236.452394 223.97185,237.88338 221.638111,239.120597 C219.304873,240.361319 217.039228,241.360206 214.849188,242.122764 C212.656144,242.888327 210.010472,243.551748 206.916177,244.125544 C203.814873,244.697838 201.100605,245.100397 198.763361,245.34023 C196.429622,245.579062 193.643255,245.768825 190.401756,245.913025 C187.16276,246.05322 184.635752,246.12582 182.82574,246.12582 C181.014727,246.12582 178.727051,246.099784 175.963215,246.05322 C173.197877,246.008658 171.436432,245.984624 170.673373,245.984624 L170.673373,197.665058 C171.43493,197.665058 173.698572,197.618493 177.463798,197.521358 C181.229525,197.425225 184.301288,197.380663 186.684096,197.380663 C189.066402,197.380663 192.355467,197.521358 196.55029,197.809258 C200.741106,198.093152 204.267501,198.520245 207.128973,199.092038 C209.98694,199.664833 213.105768,200.545055 216.491468,201.73771 C219.873662,202.928363 222.614967,204.38138 224.712378,206.096761 C226.809289,207.815146 228.571234,210.003683 230.000218,212.672888 C231.432706,215.340591 232.147198,218.390825 232.147198,221.822588 C232.146697,224.493796 231.694569,226.920163 230.787811,229.113708 Z" id="Shape" fill="#FFFFFF"></path>
                </g>
                <g id="Group" transform="translate(448.391249, 90.500000)" fill="#69737B">
                    <path d="M137.550223,113.187803 C137.550223,100.689296 135.496928,90.6460038 131.390276,83.0576247 C127.283624,75.4692457 122.284296,69.7110915 116.392143,65.7829894 C110.49999,61.8548874 104.25083,59.2659498 97.6444767,58.0160992 C91.0381232,56.7662485 85.1460585,56.1413325 79.9681057,56.1413325 C76.9327541,56.1413325 74.0313586,56.3645168 71.2638321,56.810892 C68.4963057,57.2572673 65.8627313,57.7482727 63.36303,58.283923 L75.6829249,0.433981521 L39.7945353,5.79045758 L0.424436257,191.124529 C7.38788995,193.08858 15.5117974,194.874054 24.7964023,196.481005 C34.0810073,198.087956 44.0796626,198.89142 54.7926683,198.89142 C70.3265265,198.89142 83.3604879,196.257845 93.8949435,190.990617 C104.429399,185.72339 112.955038,178.938588 119.472117,170.636008 C125.989195,162.333429 130.631428,153.0936 133.398954,142.916245 C136.166481,132.738889 137.550223,122.829508 137.550223,113.187803 Z M101.661834,116.401688 C101.661834,122.293841 100.903007,128.364453 99.3853315,134.613707 C97.8676557,140.86296 95.4572655,146.531841 92.1540888,151.620518 C88.850912,156.709196 84.4318635,160.90506 78.8968105,164.208237 C73.3617576,167.511414 66.5769558,169.162977 58.5422015,169.162977 C55.5068499,169.162977 52.2929964,168.939793 48.9005446,168.493418 C45.5080928,168.047043 42.6513341,167.556037 40.3301829,167.020387 L56.9352587,88.5480127 C59.7920602,88.0123624 62.4702714,87.521357 64.9699728,87.0749818 C67.4696741,86.6286065 70.1478853,86.4054223 73.0046869,86.4054223 C76.7542389,86.4054223 80.369824,86.8964277 83.8515509,87.8784532 C87.3332777,88.8604787 90.4132207,90.5566792 93.0914721,92.9671054 C95.7697235,95.3775317 97.8676557,98.5021115 99.3853315,102.340939 C100.903007,106.179766 101.661834,110.866635 101.661834,116.401688 Z M218.126928,0.433981521 L183.309834,0.433981521 L175.542943,36.3223711 L210.627861,36.3223711 L218.126928,0.433981521 Z M205.271385,60.6943372 L170.454291,60.6943372 L142.064968,194.874062 L176.882062,194.874062 L205.271385,60.6943372 Z M310.755704,60.6943372 L271.117781,61.4978086 L273.796019,22.3955334 L245.942343,23.7346524 L237.639805,63.3725752 L214.606958,66.8542847 L210.589601,85.8697747 L232.818977,85.8697747 L222.909496,132.73894 C222.373846,134.881541 221.88284,137.247295 221.436465,139.836271 C220.99009,142.425247 220.543721,145.103459 220.097346,147.870985 C219.650971,150.638512 219.293876,153.36136 219.026051,156.039611 C218.758226,158.717862 218.624315,161.217526 218.624315,163.538678 C218.624315,170.859231 219.918784,176.795933 222.50776,181.34896 C225.096737,185.901988 228.399864,189.472936 232.417241,192.061913 C236.434618,194.650889 240.853667,196.436363 245.674519,197.418389 C250.495372,198.400414 255.137605,198.89142 259.601357,198.89142 C262.815259,198.89142 267.011123,198.623598 272.189076,198.087948 C277.367029,197.552298 282.991272,196.302466 289.061976,194.338415 L288.794152,167.556035 C285.58025,168.448785 282.277123,169.073701 278.884671,169.430801 C275.492219,169.787901 272.546187,169.966449 270.046485,169.966449 C264.868533,169.966449 260.895853,168.939801 258.128326,166.886475 C255.3608,164.833149 253.977057,161.217564 253.977057,156.039611 C253.977057,154.07556 254.289515,151.441986 254.914441,148.138809 C255.539366,144.835632 256.208919,141.487868 256.923119,138.095416 L268.171719,85.8697747 L305.399227,85.8697747 L310.755704,60.6943372 Z M426.417326,83.4593604 C421.417924,73.282005 414.900943,66.1847452 406.866189,62.1673681 C398.831434,58.149991 390.082611,56.1413325 380.619456,56.1413325 C368.6566,56.1413325 357.899118,58.4178121 348.346688,62.9708395 C338.794258,67.5238669 330.67035,73.6837528 323.974722,81.4506819 C317.279093,89.217611 312.101218,98.2788924 308.440941,108.634798 C304.780664,118.990703 302.950553,129.97137 302.950553,141.577126 C302.950553,153.004332 304.780664,162.422708 308.440941,169.832537 C312.101218,177.242366 316.698814,183.089794 322.233867,187.374996 C327.76892,191.660198 333.839532,194.650867 340.445886,196.347093 C347.052239,198.043319 353.301399,198.89142 359.193552,198.89142 C365.978455,198.89142 373.343536,198.132593 381.289015,196.614917 C389.234495,195.097241 396.599576,192.910036 403.384479,190.053234 L400.170594,164.342149 C393.92134,166.12765 387.940002,167.556029 382.226399,168.62733 C376.512796,169.69863 371.245647,170.234273 366.424794,170.234273 C363.032343,170.234273 359.639942,169.69863 356.24749,168.62733 C352.855038,167.556029 349.819732,165.815192 347.141481,163.404766 C344.463229,160.994339 342.32066,157.735849 340.713709,153.629197 C339.106758,149.522545 338.303295,144.34467 338.303295,138.095416 C338.303295,130.417762 339.419216,123.365139 341.651093,116.937336 C343.882969,110.509532 346.873638,104.974562 350.62319,100.33226 C354.372742,95.6899576 358.65788,92.1190092 363.478733,89.6193079 C368.299585,87.1196066 373.298913,85.8697747 378.476866,85.8697747 C383.476268,85.8697747 387.98459,86.8964223 392.001968,88.9497484 C396.019345,91.0030745 399.813477,95.4221231 403.384479,102.207027 L426.417326,83.4593604 Z M552.791901,111.58086 C552.791901,100.689304 551.095701,91.6280226 547.703249,84.3967438 C544.310797,77.1654649 540.025659,71.4965844 534.847706,67.3899323 C529.669754,63.2832801 523.911599,60.3818846 517.573071,58.6856587 C511.234543,56.9894328 505.03002,56.1413325 498.959317,56.1413325 C484.139659,56.1413325 471.730613,58.7302701 461.731808,63.9082228 C451.733003,69.0861756 443.698369,75.8263405 437.627666,84.12892 C431.556963,92.4314994 427.227188,101.805239 424.638211,112.250419 C422.049235,122.6956 420.754766,133.095987 420.754766,143.451892 C420.754766,150.593896 421.781414,157.467972 423.83474,164.074325 C425.888066,170.680679 429.10192,176.572743 433.476397,181.750696 C437.850874,186.928649 443.519755,191.079876 450.483208,194.204503 C457.446662,197.32913 465.838391,198.89142 475.658646,198.89142 C490.478304,198.89142 502.842712,196.257845 512.752243,190.990617 C522.661773,185.72339 530.562496,178.938588 536.454649,170.636008 C542.346802,162.333429 546.542667,152.95969 549.042368,142.514509 C551.542069,132.069328 552.791901,121.758215 552.791901,111.58086 Z M517.171335,112.384331 C517.171335,117.740834 516.546419,123.722172 515.296569,130.328526 C514.046718,136.934879 511.948786,143.094765 509.002709,148.808368 C506.056633,154.521971 502.173226,159.298115 497.352374,163.136942 C492.531521,166.975769 486.460909,168.895154 479.140355,168.895154 C474.498053,168.895154 470.748557,168.047053 467.891756,166.350827 C465.034954,164.654602 462.713838,162.556669 460.928337,160.056968 C459.142836,157.557267 457.937641,154.745145 457.312715,151.620518 C456.68779,148.495892 456.375332,145.505222 456.375332,142.648421 C456.375332,136.756268 457.044885,130.507108 458.384011,123.900755 C459.723136,117.294401 461.910342,111.179152 464.945694,105.554824 C467.981045,99.9304962 471.953725,95.2882634 476.863853,91.6279864 C481.773981,87.9677095 487.799956,86.1375985 494.94196,86.1375985 C501.905413,86.1375985 507.35111,88.3694412 511.279212,92.8331935 C515.207314,97.2969459 517.171335,103.813927 517.171335,112.384331 Z M632.029487,0.433981521 L597.212392,0.433981521 L589.445502,36.3223711 L624.53042,36.3223711 L632.029487,0.433981521 Z M619.173944,60.6943372 L584.35685,60.6943372 L555.967527,194.874062 L590.784621,194.874062 L619.173944,60.6943372 Z M758.136238,100.064436 C758.136238,87.0302793 754.208194,76.4513449 746.35199,68.3273156 C738.495786,60.2032863 726.443836,56.1413325 710.195777,56.1413325 C698.768571,56.1413325 687.296899,57.3911645 675.780418,59.8908658 C664.263937,62.3905671 654.131371,64.9795046 645.382417,67.6577561 L618.332212,194.874062 L653.149307,194.874062 L674.843035,92.8331935 C683.234889,89.976392 691.626618,88.5480127 700.018472,88.5480127 C708.410327,88.5480127 714.257755,90.2442132 717.560931,93.636665 C720.864108,97.0291168 722.515672,101.67135 722.515672,107.563503 C722.515672,110.420304 722.292488,113.500247 721.846112,116.803424 C721.399737,120.106601 720.730184,123.632912 719.837434,127.382464 L705.374948,194.874062 L740.192043,194.874062 L754.654528,126.846817 C755.904379,121.133213 756.797116,115.999975 757.332766,111.446948 C757.868416,106.89392 758.136238,103.099788 758.136238,100.064436 Z M945.969564,111.58086 C945.969564,100.689304 944.273363,91.6280226 940.880911,84.3967438 C937.48846,77.1654649 933.203322,71.4965844 928.025369,67.3899323 C922.847416,63.2832801 917.089262,60.3818846 910.750734,58.6856587 C904.412205,56.9894328 898.207683,56.1413325 892.136979,56.1413325 C877.317321,56.1413325 864.908276,58.7302701 854.909471,63.9082228 C844.910665,69.0861756 836.876032,75.8263405 830.805328,84.12892 C824.734625,92.4314994 820.40485,101.805239 817.815874,112.250419 C815.226898,122.6956 813.932429,133.095987 813.932429,143.451892 C813.932429,150.593896 814.959077,157.467972 817.012403,164.074325 C819.065729,170.680679 822.279582,176.572743 826.65406,181.750696 C831.028537,186.928649 836.697417,191.079876 843.660871,194.204503 C850.624325,197.32913 859.016053,198.89142 868.836308,198.89142 C883.655966,198.89142 896.020375,196.257845 905.929905,190.990617 C915.839435,185.72339 923.740159,178.938588 929.632312,170.636008 C935.524465,162.333429 939.720329,152.95969 942.22003,142.514509 C944.719732,132.069328 945.969564,121.758215 945.969564,111.58086 Z M910.348998,112.384331 C910.348998,117.740834 909.724082,123.722172 908.474231,130.328526 C907.224381,136.934879 905.126449,143.094765 902.180372,148.808368 C899.234295,154.521971 895.350889,159.298115 890.530037,163.136942 C885.709184,166.975769 879.638572,168.895154 872.318018,168.895154 C867.675715,168.895154 863.92622,168.047053 861.069418,166.350827 C858.212617,164.654602 855.8915,162.556669 854.105999,160.056968 C852.320498,157.557267 851.115303,154.745145 850.490378,151.620518 C849.865453,148.495892 849.552995,145.505222 849.552995,142.648421 C849.552995,136.756268 850.222547,130.507108 851.561673,123.900755 C852.900799,117.294401 855.088005,111.179152 858.123356,105.554824 C861.158708,99.9304962 865.131388,95.2882634 870.041516,91.6279864 C874.951643,87.9677095 880.977619,86.1375985 888.119622,86.1375985 C895.083076,86.1375985 900.528772,88.3694412 904.456874,92.8331935 C908.384976,97.2969459 910.348998,103.813927 910.348998,112.384331 Z M1025.20715,0.433981521 L990.390055,0.433981521 L982.623165,36.3223711 L1017.70808,36.3223711 L1025.20715,0.433981521 Z M1012.35161,60.6943372 L977.534512,60.6943372 L949.145189,194.874062 L983.962284,194.874062 L1012.35161,60.6943372 Z M1086.76836,0.433981521 L1050.61215,5.79045758 L1022.49065,138.898888 C1021.5979,142.46989 1020.66053,146.844301 1019.6785,152.022254 C1018.69648,157.200207 1018.20547,161.663892 1018.20547,165.413444 C1018.20547,172.019798 1019.18748,177.465494 1021.15153,181.750696 C1023.11558,186.035898 1025.61525,189.472936 1028.6506,192.061913 C1031.68595,194.650889 1035.07835,196.436363 1038.8279,197.418389 C1042.57746,198.400414 1046.23768,198.89142 1049.80868,198.89142 C1053.91533,198.89142 1057.57555,198.757509 1060.78945,198.489684 C1064.00336,198.221859 1067.84213,197.64158 1072.30588,196.748829 L1070.43111,169.430801 C1069.89546,169.609351 1068.91345,169.743262 1067.48505,169.832537 C1066.05665,169.921812 1064.98536,169.966449 1064.27116,169.966449 C1060.87871,169.966449 1058.28977,169.207622 1056.50427,167.689946 C1054.71877,166.172271 1053.82604,163.181601 1053.82604,158.717849 C1053.82604,156.932348 1054.00458,154.968327 1054.36168,152.825725 C1054.71878,150.683124 1055.16515,148.451282 1055.7008,146.13013 L1086.76836,0.433981521 Z" id="bitcoin-oil"></path>
                </g>
            </g>
        </g>
    </g>
</svg>