<?xml version="1.0" encoding="UTF-8"?>
<svg width="100px" height="100px" viewBox="0 0 100 100" version="1.1" xmlns="http://www.w3.org/2000/svg" xmlns:xlink="http://www.w3.org/1999/xlink">
    <!-- Generator: Sketch 41 (35326) - http://www.bohemiancoding.com/sketch -->
    <title>core</title>
    <desc>Created with Sketch.</desc>
    <defs></defs>
    <g id="Page-1" stroke="none" stroke-width="1" fill="none" fill-rule="evenodd">
        <g id="core" fill="#69737B">
            <path d="M86.8683919,38.5731445 L84.296582,38.5731445 L84.296582,34.7154297 C84.296582,34.3738612 84.1609592,34.0473619 83.9198521,33.8062547 L77.4903273,27.37673 C76.9880207,26.8744233 76.174284,26.8744233 75.6719774,27.37673 L69.2424526,33.8062547 C69.0013454,34.0473619 68.8657227,34.3738612 68.8657227,34.7154297 L68.8657227,38.5731445 L66.2939128,38.5731445 L66.2939128,34.7154297 C66.2939128,34.3738612 66.15829,34.0473619 65.9171828,33.8062547 L59.4876581,27.37673 C58.9853514,26.8744233 58.1716147,26.8744233 57.6693081,27.37673 L51.2397834,33.8062547 C50.9986762,34.0473619 50.8630534,34.3738612 50.8630534,34.7154297 L50.8630534,38.5731445 L48.2912435,38.5731445 L48.2912435,34.7154297 C48.2912435,34.3738612 48.1556207,34.0473619 47.9145135,33.8062547 L41.4849888,27.37673 C40.9826822,26.8744233 40.1689454,26.8744233 39.6666388,27.37673 L33.2371141,33.8062547 C32.9960069,34.0473619 32.8603841,34.3738612 32.8603841,34.7154297 L32.8603841,38.5731445 L30.2885742,38.5731445 L30.2885742,34.7154297 C30.2885742,34.3738612 30.1529514,34.0473619 29.9118443,33.8062547 L23.4823195,27.37673 C22.9800129,26.8744233 22.1662762,26.8744233 21.6639695,27.37673 L15.2344448,33.8062547 C14.9933376,34.0473619 14.8577148,34.3738612 14.8577148,34.7154297 L14.8577148,38.5731445 L12.2859049,38.5731445 C11.5757689,38.5731445 11,39.1482856 11,39.8590495 L11,50.1462891 C11,50.8564251 11.5757689,51.432194 12.2859049,51.432194 L14.8577148,51.432194 L14.8577148,56.5758138 L12.2859049,56.5758138 C11.5757689,56.5758138 11,57.1509549 11,57.8617187 L11,68.1489583 C11,68.8590944 11.5757689,69.4348633 12.2859049,69.4348633 L14.8577148,69.4348633 L14.8577148,74.5784831 L12.2859049,74.5784831 C11.5757689,74.5784831 11,75.1536242 11,75.864388 C11,76.574524 11.5757689,77.150293 12.2859049,77.150293 L86.8683919,77.150293 C87.578528,77.150293 88.1542969,76.574524 88.1542969,75.864388 C88.1542969,75.1536242 87.578528,74.5784831 86.8683919,74.5784831 L84.296582,74.5784831 L84.296582,69.4348633 L86.8683919,69.4348633 C87.578528,69.4348633 88.1542969,68.8590944 88.1542969,68.1489583 L88.1542969,57.8617187 C88.1542969,57.1509549 87.578528,56.5758138 86.8683919,56.5758138 L84.296582,56.5758138 L84.296582,51.432194 L86.8683919,51.432194 C87.578528,51.432194 88.1542969,50.8564251 88.1542969,50.1462891 L88.1542969,39.8590495 C88.1542969,39.1482856 87.578528,38.5731445 86.8683919,38.5731445 Z M66.2939128,59.1476237 L68.8657227,59.1476237 L68.8657227,66.8630534 L66.2939128,66.8630534 L66.2939128,59.1476237 Z M68.8657227,56.5758138 L66.2939128,56.5758138 L66.2939128,51.432194 L68.8657227,51.432194 L68.8657227,56.5758138 Z M66.2939128,69.4348633 L68.8657227,69.4348633 L68.8657227,74.5784831 L66.2939128,74.5784831 L66.2939128,69.4348633 Z M68.8657227,41.1449544 L68.8657227,48.8603841 L66.2939128,48.8603841 L66.2939128,41.1449544 L68.8657227,41.1449544 Z M48.2912435,59.1476237 L50.8630534,59.1476237 L50.8630534,66.8630534 L48.2912435,66.8630534 L48.2912435,59.1476237 Z M50.8630534,56.5758138 L48.2912435,56.5758138 L48.2912435,51.432194 L50.8630534,51.432194 L50.8630534,56.5758138 Z M48.2912435,69.4348633 L50.8630534,69.4348633 L50.8630534,74.5784831 L48.2912435,74.5784831 L48.2912435,69.4348633 Z M50.8630534,41.1449544 L50.8630534,48.8603841 L48.2912435,48.8603841 L48.2912435,41.1449544 L50.8630534,41.1449544 Z M30.2885742,59.1476237 L32.8603841,59.1476237 L32.8603841,66.8630534 L30.2885742,66.8630534 L30.2885742,59.1476237 Z M32.8603841,56.5758138 L30.2885742,56.5758138 L30.2885742,51.432194 L32.8603841,51.432194 L32.8603841,56.5758138 Z M30.2885742,69.4348633 L32.8603841,69.4348633 L32.8603841,74.5784831 L30.2885742,74.5784831 L30.2885742,69.4348633 Z M32.8603841,41.1449544 L32.8603841,48.8603841 L30.2885742,48.8603841 L30.2885742,41.1449544 L32.8603841,41.1449544 Z M13.5718099,48.8603841 L13.5718099,41.1449544 L14.8577148,41.1449544 L14.8577148,48.8603841 L13.5718099,48.8603841 Z M13.5718099,66.8630534 L13.5718099,59.1476237 L14.8577148,59.1476237 L14.8577148,66.8630534 L13.5718099,66.8630534 Z M17.4295247,74.5784831 L17.4295247,64.2912435 L20.0013346,64.2912435 C20.7114707,64.2912435 21.2872396,63.7154746 21.2872396,63.0053385 C21.2872396,62.2945747 20.7114707,61.7194336 20.0013346,61.7194336 L17.4295247,61.7194336 L17.4295247,35.2472469 L22.5731445,30.1036271 L27.7167643,35.2472469 L27.7167643,74.5784831 L17.4295247,74.5784831 Z M35.432194,74.5784831 L35.432194,35.2472469 L40.5758138,30.1036271 L45.7194336,35.2472469 L45.7194336,74.5784831 L35.432194,74.5784831 Z M53.4348633,74.5784831 L53.4348633,35.2472469 L58.5784831,30.1036271 L63.7221029,35.2472469 L63.7221029,74.5784831 L53.4348633,74.5784831 Z M71.4375326,74.5784831 L71.4375326,35.2472469 L76.5811523,30.1036271 L81.7247721,35.2472469 L81.7247721,43.7167643 L79.1529622,43.7167643 C78.4428262,43.7167643 77.8670573,44.2919054 77.8670573,45.0026693 C77.8670573,45.7128053 78.4428262,46.2885742 79.1529622,46.2885742 L81.7247721,46.2885742 L81.7247721,74.5784831 L71.4375326,74.5784831 Z M85.582487,59.1476237 L85.582487,66.8630534 L84.296582,66.8630534 L84.296582,59.1476237 L85.582487,59.1476237 Z M85.582487,48.8603841 L84.296582,48.8603841 L84.296582,41.1449544 L85.582487,41.1449544 L85.582487,48.8603841 Z" id="6"></path>
        </g>
    </g>
</svg>