<?xml version="1.0" encoding="UTF-8"?>
<svg width="100px" height="100px" viewBox="0 0 100 100" version="1.1" xmlns="http://www.w3.org/2000/svg" xmlns:xlink="http://www.w3.org/1999/xlink">
    <!-- Generator: Sketch 41 (35326) - http://www.bohemiancoding.com/sketch -->
    <title>core</title>
    <desc>Created with Sketch.</desc>
    <defs></defs>
    <g id="Page-1" stroke="none" stroke-width="1" fill="none" fill-rule="evenodd">
        <g id="core" fill="#69737B">
            <path d="M88.4163737,74.1735352 L88.4163737,23 L72.6706706,23 L72.6706706,74.1735352 L68.7342448,74.1735352 L68.7342448,33.4971354 L52.9885417,33.4971354 L52.9885417,74.1735352 L49.0521159,74.1735352 L49.0521159,43.9942708 L33.3064128,43.9942708 L33.3064128,74.1735352 L29.369987,74.1735352 L29.369987,55.8035482 L13.6242839,55.8035482 L13.6242839,74.1735352 L12.3121419,74.1735352 C11.5878396,74.1735352 11,74.7600626 11,75.4856771 C11,76.2112916 11.5878396,76.797819 12.3121419,76.797819 L13.6242839,76.797819 L29.369987,76.797819 L33.3064128,76.797819 L49.0521159,76.797819 L52.9885417,76.797819 L68.7342448,76.797819 L72.6706706,76.797819 L88.4163737,76.797819 C89.140676,76.797819 89.7285156,76.2112916 89.7285156,75.4856771 C89.7285156,74.7600626 89.140676,74.1735352 88.4163737,74.1735352 Z M16.2485677,74.1735352 L16.2485677,58.427832 L26.7457031,58.427832 L26.7457031,74.1735352 L16.2485677,74.1735352 Z M35.9306966,74.1735352 L35.9306966,46.6185547 L46.427832,46.6185547 L46.427832,74.1735352 L35.9306966,74.1735352 Z M55.6128255,74.1735352 L55.6128255,36.1214193 L66.1099609,36.1214193 L66.1099609,74.1735352 L55.6128255,74.1735352 Z M75.2949544,74.1735352 L75.2949544,25.6242839 L85.7920898,25.6242839 L85.7920898,74.1735352 L75.2949544,74.1735352 Z" id="5"></path>
        </g>
    </g>
</svg>