<?xml version="1.0" encoding="UTF-8"?>
<svg width="100px" height="100px" viewBox="0 0 100 100" version="1.1" xmlns="http://www.w3.org/2000/svg" xmlns:xlink="http://www.w3.org/1999/xlink">
    <!-- Generator: Sketch 41 (35326) - http://www.bohemiancoding.com/sketch -->
    <title>core</title>
    <desc>Created with Sketch.</desc>
    <defs></defs>
    <g id="Page-1" stroke="none" stroke-width="1" fill="none" fill-rule="evenodd">
        <g id="core" fill="#69737B">
            <g id="10" transform="translate(15.000000, 12.000000)">
                <path d="M58.7840419,53.4239281 L49.9539568,53.4239281 C48.1290595,53.4227466 46.3350792,53.894971 44.7472787,54.7945212 C43.3957873,55.5611474 42.2266478,56.6119354 41.3207961,57.874417 C40.7174201,57.7690625 40.1059702,57.7164838 39.4933387,57.7168776 L30.6553767,57.7168776 C30.0427453,57.7162868 29.4312953,57.7690625 28.8279193,57.874417 C27.9222645,56.6117385 26.753125,55.5609505 25.4014367,54.7945212 C23.8136362,53.894971 22.0196559,53.4227466 20.1947586,53.4239281 L11.3646735,53.4239281 C5.49711748,53.4369251 0.743759036,58.1902836 0.730762033,64.0578397 L0.730762033,70.052215 C0.735094367,70.6800096 1.24512827,71.1864988 1.8729229,71.1864988 L19.9899573,71.1864988 L19.9899573,74.3372874 C19.9899573,74.9680359 20.5013697,75.4794483 21.1321182,75.4794483 L48.9850894,75.4794483 C49.6158378,75.4794483 50.1272502,74.9680359 50.1272502,74.3372874 L50.1272502,71.1864988 L68.2442846,71.1864988 C68.8750331,71.1864988 69.3864455,70.6750865 69.3864455,70.044338 L69.3864455,64.0578397 C69.3734485,58.2024929 64.6391917,53.4542545 58.7840419,53.4239281 Z M20.1081119,67.3267828 L20.1081119,67.5709689 L20.1081119,67.8939248 L20.1081119,68.3507891 L20.1081119,68.9021771 L3.01508376,68.9021771 L3.01508376,64.0578397 C3.02808077,59.4517806 6.75861446,55.7212469 11.3646735,55.7082499 L20.1947586,55.7082499 C21.6246258,55.7066745 23.0304683,56.0757106 24.2750298,56.779518 C25.109398,57.2513486 25.8579072,57.86142 26.4884588,58.5833445 C22.9341723,60.1260493 20.4930989,63.4713991 20.1081119,67.3267828 Z M47.8192976,68.3507891 L47.8192976,73.2030035 L22.3057869,73.2030035 L22.3057869,68.2641424 L22.3057869,68.0042024 L22.3057869,67.5945998 L22.3057869,67.3897986 L22.3057869,67.1534894 L22.3057869,66.9014264 L22.3057869,66.8226566 L22.3057869,66.73601 L22.3057869,66.5627166 L22.3530488,66.3736693 L22.4318185,66.0900983 L22.4869573,65.901051 C23.6184842,62.4716145 26.815747,60.1496802 30.4269445,60.1351079 L30.6553767,60.0090763 L39.4933387,60.0090763 C43.6872353,60.0244364 47.2241924,63.1372186 47.7720357,67.2952749 C47.7720357,67.4685683 47.7720357,67.6418617 47.8192976,67.8151551 L47.8192976,68.3507891 Z M67.1336317,68.9100541 L50.1193732,68.9100541 L50.1193732,68.2247576 L50.1193732,67.9648175 L50.1193732,67.6970005 L50.1193732,67.3110289 L50.1193732,67.1928743 L50.1193732,67.0589658 L50.1193732,66.8147797 L50.1193732,66.7753948 L50.1193732,66.6808712 L50.1193732,66.5942245 L50.1193732,66.5390857 L50.1193732,66.436685 L50.1193732,66.3264074 L50.1193732,66.2712686 L50.1193732,66.2003759 L50.1193732,66.1294832 L50.1193732,66.0585904 L50.1193732,65.885297 L50.1193732,65.8065273 L50.1193732,65.7041267 L50.1193732,65.6017261 L50.0642344,65.4048018 L50.0642344,65.3260321 L50.0642344,65.2551393 L50.0642344,65.2000005 L50.0642344,65.1212308 L50.0642344,65.0188302 L49.9539568,64.7116283 C48.9275875,61.9832423 46.8342823,59.7904903 44.1565058,58.6384833 C44.6303057,57.937039 45.2065061,57.3104259 45.8658086,56.779518 C47.1103701,56.0757106 48.5162126,55.7066745 49.9460799,55.7082499 L58.7840419,55.7082499 C63.389904,55.7212469 67.1206347,59.4517806 67.1336317,64.0578397 L67.1336317,68.9100541 Z" id="Shape"></path>
                <ellipse id="Oval" cx="35.1216195" cy="15.8507742" rx="1.29182332" ry="1.29182332"></ellipse>
                <path d="M21.462951,37.7723858 C19.9578587,36.2584319 17.9106338,35.407719 15.7757776,35.4092944 C11.3341503,35.4053559 7.7302389,39.0027687 7.72630041,43.444593 C7.72236192,47.8862203 11.3197748,51.4901316 15.761599,51.4940701 C20.2034232,51.4980086 23.8071377,47.9005957 23.8110762,43.4587715 C23.8128485,41.3270661 22.9684372,39.2818105 21.462951,37.7723858 Z M19.8481718,47.5161995 C17.5998872,49.7652718 13.9542279,49.7660595 11.7049587,47.5177749 C9.45588642,45.2694903 9.45509873,41.623831 11.7033833,39.3745618 C13.9516679,37.1254895 17.5973272,37.1247018 19.8465964,39.3729864 C20.9265292,40.4525254 21.5334499,41.9168544 21.5338437,43.4438053 C21.5360099,44.9715439 20.9294831,46.4370544 19.8481718,47.5161995 Z" id="Shape"></path>
                <ellipse id="Oval" cx="43.4712093" cy="15.8507742" rx="1.29182332" ry="1.29182332"></ellipse>
                <path d="M48.528225,4.99630745 C44.6752044,2.03299078 39.934843,0.456611859 35.0743577,0.522187646 C30.2138725,0.456611859 25.4737079,2.03299078 21.6204904,4.99630745 C18.0916072,7.81626324 15.9096861,11.738995 15.9096861,16.0792063 C15.9140184,18.2835768 16.4748588,20.4511224 17.5402192,22.3807835 C18.5539854,24.2037116 19.9163076,25.8096292 21.5495977,27.1069664 L20.6437459,33.1328496 C20.5494192,33.7521765 20.9751695,34.3305431 21.5944964,34.4248698 C21.8510888,34.4638609 22.113195,34.4138421 22.3372948,34.2828874 L28.4970865,30.6909884 C29.4732402,30.9812548 30.4681017,31.2049608 31.4745817,31.360531 C32.6683368,31.5444583 33.874498,31.6366189 35.0822347,31.636225 C39.9427199,31.7018008 44.6830814,30.1254219 48.536102,27.1621052 C52.0571082,24.3342724 54.2390293,20.4194176 54.2390293,16.0792063 C54.2390293,11.738995 52.0571082,7.81626324 48.528225,4.99630745 Z M47.1103701,25.3976636 C43.6553335,28.0264059 39.4151598,29.4139344 35.0743577,29.3361493 C33.9853664,29.3377247 32.8977536,29.2561981 31.8211685,29.0919632 C30.7530512,28.9322576 29.6995062,28.6872838 28.6703799,28.3594049 C28.3649503,28.2631089 28.0331329,28.3001307 27.7566512,28.4618055 L23.2589005,31.1163449 L23.9126891,26.7840106 C23.9751141,26.3608203 23.7957161,25.9382208 23.4479478,25.6891115 C21.8323809,24.5199721 20.4887665,23.0152736 19.5094621,21.2780075 C18.6335428,19.685087 18.1731338,17.8970144 18.1703769,16.0792063 C18.1703769,12.4557994 20.0214652,9.16322537 23.0147144,6.76862603 C26.469751,4.13988373 30.7099247,2.7523552 35.0507268,2.83014029 C39.3915289,2.7523552 43.6317026,4.13988373 47.0867392,6.76862603 C50.0799884,9.13171748 51.9310767,12.4557994 51.9310767,16.0792063 C51.9310767,19.7026132 50.1036193,22.9951873 47.1103701,25.3976636 Z" id="Shape"></path>
                <path d="M54.3794364,35.4014174 C49.9378091,35.3974789 46.3338977,38.9948918 46.3299592,43.436716 C46.3279899,45.5684214 47.1725982,47.613874 48.6780844,49.1231017 C50.1831767,50.6370556 52.2304016,51.4877686 54.3652578,51.4861932 C58.8068851,51.4901316 62.4107965,47.8927188 62.414735,43.4508945 C62.4186735,39.0090703 58.8210637,35.4053559 54.3794364,35.4014174 Z M58.4453321,47.5128518 C56.1970475,49.7619241 52.5513882,49.7627118 50.302119,47.5144272 C49.2221862,46.4348883 48.6152655,44.9705593 48.6148717,43.4436083 C48.6127055,41.9158697 49.2192323,40.4503592 50.3005436,39.3712141 C52.5488282,37.1221418 56.1944875,37.1213541 58.4437567,39.3696387 C60.692829,41.6179233 60.6936167,45.2637795 58.4453321,47.5128518 Z" id="Shape"></path>
                <ellipse id="Oval" cx="26.7720298" cy="15.8507742" rx="1.29182332" ry="1.29182332"></ellipse>
                <path d="M40.7497157,42.0377659 C39.242851,40.5360212 37.2017308,39.6933822 35.0743577,39.6943668 C32.9395015,39.6927915 30.8922766,40.5435044 29.3871843,42.0574583 C26.2549066,45.2005668 26.2637682,50.2877119 29.4068767,53.4199897 C32.5499853,56.5522674 37.6371304,56.5434058 40.7694081,53.4002972 C43.9016858,50.2571887 43.8928242,45.1700436 40.7497157,42.0377659 Z M35.0727823,53.5011225 C31.892652,53.5001378 29.3155039,50.9214143 29.3162916,47.7414809 C29.3170793,44.5615475 31.8959997,41.9842025 35.0759331,41.9849902 C36.602884,41.985384 38.067213,42.5923047 39.146752,43.6722374 C40.2280632,44.7513825 40.83459,46.2168931 40.8324239,47.7446317 C40.8314392,50.924762 38.2527157,53.5019102 35.0727823,53.5011225 Z" id="Shape"></path>
            </g>
        </g>
    </g>
</svg>