<?xml version="1.0" encoding="UTF-8"?>
<svg width="100px" height="100px" viewBox="0 0 100 100" version="1.1" xmlns="http://www.w3.org/2000/svg" xmlns:xlink="http://www.w3.org/1999/xlink">
    <!-- Generator: Sketch 41 (35326) - http://www.bohemiancoding.com/sketch -->
    <title>core</title>
    <desc>Created with Sketch.</desc>
    <defs></defs>
    <g id="Page-1" stroke="none" stroke-width="1" fill="none" fill-rule="evenodd">
        <g id="core" fill="#69737B">
            <g id="12" transform="translate(13.000000, 13.000000)">
                <path d="M37.1101875,0.000154793474 C35.6820629,0.0035602499 34.2632259,0.231725831 32.9059967,0.676137894 L33.6764038,3.02946308 C34.7879758,2.66647238 35.9493912,2.47994625 37.1187011,2.47685038 L37.1101875,0.000154793474 Z" id="Shape"></path>
                <path d="M41.319796,0.650751765 L40.5627011,3.00887555 C41.6752018,3.36660327 42.7242372,3.89754488 43.6712636,4.58219642 L45.1212141,2.57467985 C43.9633589,1.73724716 42.6804306,1.08788854 41.319796,0.650751765 Z" id="Shape"></path>
                <path d="M29.1152593,2.62189186 C27.9625123,3.46458753 26.9489246,4.48266421 26.1113372,5.63912626 L28.1176154,7.09279177 C28.8031957,6.14483654 29.6331983,5.31034492 30.5774385,4.61965644 L29.1152593,2.62189186 Z" id="Shape"></path>
                <path d="M48.1427827,5.57519655 L46.1462565,7.04093596 C46.8378737,7.98269945 47.3760906,9.02801978 47.7407841,10.1380438 L50.0941093,9.36392162 C49.6469109,8.00622806 48.9884195,6.72763397 48.1427827,5.57519655 Z" id="Shape"></path>
                <path d="M46.1716426,20.1692801 C45.4837404,21.1149134 44.6520351,21.9469283 43.7065566,22.6351401 L45.1650207,24.6378581 C46.3193156,23.7970199 47.3347608,22.7804912 48.1743606,21.6254223 L46.1716426,20.1692801 Z" id="Shape"></path>
                <path d="M30.6113382,22.6482976 L29.1576727,24.6533374 C30.31398,25.493092 31.5958247,26.1449273 32.9555306,26.5846956 L33.7174241,24.2288937 C32.6053878,23.8686893 31.5571264,23.335271 30.6113382,22.6482976 Z" id="Shape"></path>
                <path d="M24.183694,9.44008001 C23.74826,10.7912722 23.5272149,12.2023696 23.5289176,13.6219805 L23.5289176,13.6473666 L26.0056132,13.6219805 C26.0042201,12.4605651 26.1847093,11.3062701 26.5407343,10.2007351 L24.183694,9.44008001 Z" id="Shape"></path>
                <path d="M40.6038762,24.2217732 C39.491685,24.5829064 38.3296504,24.7672654 37.1603405,24.768349 L37.1651391,27.2450446 C38.5932637,27.2436514 40.0122555,27.0184269 41.3705682,26.5774203 L40.6038762,24.2217732 Z" id="Shape"></path>
                <path d="M26.5540465,17.0854845 L24.199483,17.8546533 C24.6432759,19.2134304 25.2991358,20.4932628 26.142915,21.6470934 L28.1431563,20.1861526 C27.453087,19.2429959 26.9167276,18.1964372 26.5540465,17.0854845 Z" id="Shape"></path>
                <path d="M48.2958735,13.6219805 C48.2972666,14.7914452 48.1144555,15.9536346 47.7540963,17.0661353 L50.1098982,17.8305055 C50.5502856,16.4711092 50.7738074,15.0510339 50.7725691,13.6219805 L50.7725691,13.5724466 L48.2958735,13.6219805 Z" id="Shape"></path>
                <path d="M74.1499439,72.4701251 L66.7198571,58.8482994 C66.5028367,58.4504802 66.0858231,58.2028106 65.6327426,58.202501 L59.0188818,58.202501 L55.625654,50.2851244 C55.4309239,49.8294124 54.9831063,49.5339117 54.4876124,49.5340665 L50.3437911,49.5340665 L42.0001133,30.4630461 C41.803216,30.0119779 41.3578752,29.7205018 40.8657867,29.7205018 L33.4357,29.7205018 C32.9196185,29.7206566 32.4577148,30.0404599 32.2759873,30.5235703 L25.147593,49.5342213 L21.7323846,49.5342213 L13.4286435,36.4855958 L11.3389316,37.8158909 L16.1635346,45.3972109 L15.3333772,47.0575257 L12.3837875,47.0575257 L12.3837875,46.7129554 C13.568422,46.0290778 13.9742905,44.5142689 13.2902581,43.3297892 C12.6063805,42.1451548 11.0915716,41.7392863 9.90709192,42.4233187 C8.72245747,43.1071962 8.31658898,44.6220052 9.00062134,45.8064848 C9.21795138,46.1829425 9.53063419,46.4956254 9.90709192,46.7129554 L9.90709192,54.3352956 L8.94025188,58.2026558 L8.66874413,58.2026558 C8.21550884,58.2029654 7.79865001,58.4504802 7.58162956,58.8484542 L0.151542811,72.4702799 C-0.175845386,73.070569 0.0451996944,73.8225557 0.645488786,74.1500987 C0.827371118,74.2493213 1.03138892,74.3013319 1.23865738,74.3013319 L73.0628293,74.3013319 C73.7465521,74.3014867 74.3010223,73.747326 74.3011771,73.0636033 C74.3011771,72.8560252 74.2491665,72.6520074 74.1499439,72.4701251 Z M12.3837875,49.5340665 L16.0988309,49.5340665 C16.5678551,49.5342213 16.9967878,49.2692148 17.206533,48.8495697 L17.7142556,47.8341245 L19.6566041,50.8863423 L18.0342137,54.6716619 L15.735995,52.373598 C15.5038048,52.1414077 15.1889548,52.0109168 14.8604831,52.010762 L12.3837875,52.010762 L12.3837875,49.5340665 L12.3837875,49.5340665 Z M12.3467919,54.7872926 C12.3712492,54.6891535 12.3836327,54.5885378 12.3836327,54.4873028 L14.3476523,54.4873028 L16.9833208,57.1229713 L16.5207979,58.2023462 L11.4931059,58.2023462 L12.3467919,54.7872926 Z M3.32465423,71.8243267 L9.40385834,60.6791966 L17.3370239,60.6791966 C17.8325178,60.6793514 18.2803353,60.3838506 18.4750655,59.9281387 L21.868448,52.010762 L26.0056132,52.010762 C26.5216947,52.0106073 26.9835984,51.6908039 27.1653259,51.2076935 L34.2937202,32.1971974 L40.0562168,32.1971974 L48.3998947,51.2682178 C48.596792,51.7191311 49.0421328,52.010762 49.5342213,52.010762 L53.6713864,52.010762 L57.064769,59.9281387 C57.2594992,60.3836959 57.7073167,60.6791966 58.2028106,60.6791966 L64.8976283,60.6791966 L70.9768324,71.8243267 L3.32465423,71.8243267 Z" id="Shape"></path>
                <path d="M44.5167456,10.5285877 C44.3693822,10.0885099 43.9881259,9.76777779 43.529318,9.69781114 L39.9043644,9.14396009 L38.2717577,5.66590553 C37.9812103,5.04673163 37.2437742,4.78033206 36.6246003,5.07087941 C36.3629994,5.19363064 36.1524802,5.40414976 36.029729,5.66590553 L34.3971222,9.14396009 L30.7721687,9.69781114 C30.0961856,9.8009036 29.6318051,10.432461 29.7348976,11.1082893 C29.7739055,11.3640081 29.892013,11.6011517 30.072657,11.7862847 L32.7320088,14.512043 L32.1019994,18.3758429 C31.9916316,19.0505876 32.4492012,19.6870984 33.1239459,19.7974661 C33.3983947,19.8423563 33.6798093,19.7935963 33.9231446,19.658926 L37.1508981,17.8752408 L40.3786517,19.658926 C40.9769284,19.9900292 41.7303083,19.7733184 42.0612567,19.1750416 C42.195927,18.9317062 42.244687,18.6501369 42.1997969,18.3758429 L41.5697874,14.512043 L44.2291393,11.7862847 C44.5529673,11.4540979 44.664109,10.9686656 44.5167456,10.5285877 Z M39.3601106,13.2301982 C39.0856618,13.511458 38.961053,13.9064909 39.0245183,14.2944034 L39.3449408,16.258423 L37.7497941,15.3767193 C37.3768966,15.1703796 36.9241257,15.1703796 36.551383,15.3767193 L34.9562363,16.2582682 L35.2766588,14.2942486 C35.3401241,13.9063361 35.2155153,13.5113032 34.9410665,13.2300434 L33.5285761,11.7824149 L35.4241769,11.4921771 C35.8325221,11.4301049 36.1829745,11.1683491 36.3583555,10.7943681 L37.1504338,9.10619049 L37.942512,10.7943681 C38.117893,11.1683491 38.4683454,11.4301049 38.8766906,11.4921771 L40.7722915,11.7824149 L39.3601106,13.2301982 Z" id="Shape"></path>
            </g>
        </g>
    </g>
</svg>