<?xml version="1.0" encoding="UTF-8"?>
<svg width="100px" height="100px" viewBox="0 0 100 100" version="1.1" xmlns="http://www.w3.org/2000/svg" xmlns:xlink="http://www.w3.org/1999/xlink">
    <!-- Generator: Sketch 41 (35326) - http://www.bohemiancoding.com/sketch -->
    <title>core</title>
    <desc>Created with Sketch.</desc>
    <defs></defs>
    <g id="Page-1" stroke="none" stroke-width="1" fill="none" fill-rule="evenodd">
        <g id="core" fill="#69737B">
            <g id="11" transform="translate(13.000000, 13.000000)">
                <path d="M37.285281,19.8854832 C27.6756212,19.8854832 19.8854832,27.6756212 19.8854832,37.285281 C19.8854832,46.8949407 27.6756212,54.6850787 37.285281,54.6850787 C46.8905908,54.6748253 54.6748253,46.8905908 54.6850787,37.285281 C54.6850787,27.6756212 46.8949407,19.8854832 37.285281,19.8854832 Z M50.2183021,29.8891241 C51.3029931,31.773895 51.9578158,33.875076 52.1360084,36.0424383 L45.9553516,36.0424383 C45.9000451,34.2291308 45.6963743,32.423591 45.3463587,30.6435296 C47.0863385,30.4533746 48.7268909,30.1998347 50.2183021,29.8891241 Z M48.6597773,27.6619499 C47.4343344,27.8831759 46.1194069,28.0683595 44.7348801,28.2125293 C44.244734,26.4901046 43.5035337,24.8493969 42.5350485,23.3430716 C44.9101209,24.2393165 47.0179821,25.7257564 48.6597773,27.6619499 Z M31.0996529,36.0424383 C31.1560468,34.3052549 31.3606498,32.5759946 31.7111315,30.8734555 C33.5095248,31.003954 35.3824888,31.0710675 37.285281,31.0710675 C39.1880731,31.0710675 41.0610371,31.003954 42.8594305,30.8734555 C43.2099121,32.5759946 43.4145151,34.3052549 43.4709091,36.0424383 L31.0996529,36.0424383 Z M43.4709091,38.5281237 C43.4143597,40.265307 43.2099121,41.9945673 42.8594305,43.6971064 C41.0610371,43.566608 39.1880731,43.4994945 37.285281,43.4994945 C35.3824888,43.4994945 33.5095248,43.566608 31.7111315,43.6971064 C31.3606498,41.9945673 31.1560468,40.265307 31.0996529,38.5281237 L43.4709091,38.5281237 Z M37.285281,22.3711686 C39.0774601,22.3711686 40.9889522,24.6555135 42.2131523,28.4238125 C40.6185851,28.5269685 38.96809,28.5853821 37.285281,28.5853821 C35.602472,28.5853821 33.9519768,28.5269685 32.3574097,28.4238125 C33.5816097,24.6555135 35.4931018,22.3711686 37.285281,22.3711686 Z M32.0355134,23.3430716 C31.0670282,24.8493969 30.3258279,26.4901046 29.8356818,28.2125293 C28.4511551,28.0683595 27.1362275,27.8831759 25.9107846,27.6619499 C27.5525798,25.7257564 29.660441,24.2393165 32.0355134,23.3430716 Z M24.3522598,29.8891241 C25.8436711,30.1998347 27.4817378,30.4533746 29.2242032,30.6435296 C28.8741876,32.423591 28.6705168,34.2291308 28.6152103,36.0424383 L22.4345536,36.0424383 C22.6127461,33.875076 23.2677242,31.773895 24.3522598,29.8891241 Z M24.3522598,44.6814379 C23.2675689,42.7966669 22.6127461,40.695486 22.4345536,38.5281237 L28.6152103,38.5281237 C28.6705168,40.3414312 28.8741876,42.1469709 29.2242032,43.9270323 C27.4842234,44.1171873 25.8436711,44.3707272 24.3522598,44.6814379 Z M25.9107846,46.908612 C27.1362275,46.687386 28.4511551,46.5022024 29.8356818,46.3580327 C30.3258279,48.0804573 31.0670282,49.721165 32.0355134,51.2274904 C29.660441,50.3310901 27.5525798,48.8448056 25.9107846,46.908612 Z M37.285281,52.1993934 C35.4931018,52.1993934 33.5816097,49.9150485 32.3574097,46.1467494 C33.9519768,46.0435935 35.602472,45.9851799 37.285281,45.9851799 C38.96809,45.9851799 40.6185851,46.0435935 42.2131523,46.1467494 C40.9889522,49.9150485 39.0774601,52.1993934 37.285281,52.1993934 Z M42.5350485,51.2274904 C43.5035337,49.721165 44.244734,48.0804573 44.7348801,46.3580327 C46.1194069,46.5022024 47.4343344,46.687386 48.6597773,46.908612 C47.0179821,48.8448056 44.9101209,50.3310901 42.5350485,51.2274904 Z M50.2183021,44.6814379 C48.7268909,44.3707272 47.0888242,44.1171873 45.3463587,43.9270323 C45.6963743,42.1469709 45.9000451,40.3412758 45.9553516,38.5281237 L52.1360084,38.5281237 C51.9578158,40.695486 51.3028377,42.7966669 50.2183021,44.6814379 Z" id="Shape"></path>
                <path d="M13.6712697,0 L1.2428427,0 C0.556482818,0 0,0.556482818 0,1.2428427 L0,11.1855843 C0,11.8719442 0.556482818,12.428427 1.2428427,12.428427 L6.21421349,12.428427 L6.21421349,14.9141124 L1.2428427,14.9141124 L1.2428427,17.3997978 L13.6712697,17.3997978 L13.6712697,14.9141124 L8.69989889,14.9141124 L8.69989889,12.428427 L13.6712697,12.428427 C14.3576296,12.428427 14.9141124,11.8719442 14.9141124,11.1855843 L14.9141124,1.2428427 C14.9141124,0.556482818 14.3576296,0 13.6712697,0 Z M12.428427,9.94274159 L2.4856854,9.94274159 L2.4856854,2.4856854 L12.428427,2.4856854 L12.428427,9.94274159 Z" id="Shape"></path>
                <path d="M73.3277192,0 L60.8992922,0 C60.2129324,0 59.6564495,0.556482818 59.6564495,1.2428427 L59.6564495,11.1855843 C59.6564495,11.8719442 60.2129324,12.428427 60.8992922,12.428427 L65.870663,12.428427 L65.870663,14.9141124 L60.8992922,14.9141124 L60.8992922,17.3997978 L73.3277192,17.3997978 L73.3277192,14.9141124 L68.3563484,14.9141124 L68.3563484,12.428427 L73.3277192,12.428427 C74.0140791,12.428427 74.5705619,11.8719442 74.5705619,11.1855843 L74.5705619,1.2428427 C74.5705619,0.556482818 74.0140791,0 73.3277192,0 Z M72.0848765,9.94274159 L62.1421349,9.94274159 L62.1421349,2.4856854 L72.0848765,2.4856854 L72.0848765,9.94274159 Z" id="Shape"></path>
                <path d="M13.6712697,69.5991911 C14.3576296,69.5991911 14.9141124,69.0427083 14.9141124,68.3563484 L14.9141124,58.4136068 C14.9141124,57.727247 14.3576296,57.1707641 13.6712697,57.1707641 L1.2428427,57.1707641 C0.556482818,57.1707641 0,57.727247 0,58.4136068 L0,68.3563484 C0,69.0427083 0.556482818,69.5991911 1.2428427,69.5991911 L6.21421349,69.5991911 L6.21421349,72.0848765 L0,72.0848765 L0,74.5705619 L14.9141124,74.5705619 L14.9141124,72.0848765 L8.69989889,72.0848765 L8.69989889,69.5991911 L13.6712697,69.5991911 Z M2.4856854,67.1135057 L2.4856854,59.6564495 L12.428427,59.6564495 L12.428427,67.1135057 L2.4856854,67.1135057 Z" id="Shape"></path>
                <path d="M73.3277192,69.5991911 C74.0140791,69.5991911 74.5705619,69.0427083 74.5705619,68.3563484 L74.5705619,58.4136068 C74.5705619,57.727247 74.0140791,57.1707641 73.3277192,57.1707641 L60.8992922,57.1707641 C60.2129324,57.1707641 59.6564495,57.727247 59.6564495,58.4136068 L59.6564495,68.3563484 C59.6564495,69.0427083 60.2129324,69.5991911 60.8992922,69.5991911 L65.870663,69.5991911 L65.870663,72.0848765 L59.6564495,72.0848765 L59.6564495,74.5705619 L74.5705619,74.5705619 L74.5705619,72.0848765 L68.3563484,72.0848765 L68.3563484,69.5991911 L73.3277192,69.5991911 Z M62.1421349,67.1135057 L62.1421349,59.6564495 L72.0848765,59.6564495 L72.0848765,67.1135057 L62.1421349,67.1135057 Z" id="Shape"></path>
                <path d="M19.705271,17.94292 L21.5260355,17.33517 L20.7355876,14.9787402 L17.0070595,16.2215829 C16.6352942,16.3435368 16.3435368,16.6351388 16.2215829,17.0070595 L14.9787402,20.7355876 L17.3401413,21.5210642 L17.9478914,19.7002996 L21.4974502,23.2498584 L23.2548297,21.4924788 L19.705271,17.94292 Z" id="Shape"></path>
                <path d="M58.3539504,17.0120309 C58.2323072,16.6371584 57.9383749,16.3432261 57.5635024,16.2215829 L53.8349743,14.9787402 L53.0494978,17.3401413 L54.8702623,17.9478914 L51.3207036,21.4974502 L53.0780831,23.2548297 L56.6276419,19.705271 L57.235392,21.5260355 L59.5967931,20.740559 L58.3539504,17.0120309 Z" id="Shape"></path>
                <path d="M23.244887,53.0731118 L21.4924788,51.3207036 L17.94292,54.8702623 L17.33517,53.0494978 L14.9737688,53.8349743 L16.2166115,57.5635024 C16.3385655,57.9352678 16.6301674,58.2270251 17.0020881,58.348979 L20.7306162,59.5918217 L21.5160928,57.2304206 L19.6953282,56.6226705 L23.244887,53.0731118 Z" id="Shape"></path>
                <path d="M57.2304206,53.0494978 L56.6226705,54.8702623 L53.0731118,51.3207036 L51.3157322,53.0780831 L54.8652909,56.6276419 L53.0445264,57.235392 L53.8349743,59.5918217 L57.5635024,58.348979 C57.9352678,58.2270251 58.2270251,57.9354231 58.348979,57.5635024 L59.5918217,53.8349743 L57.2304206,53.0494978 Z" id="Shape"></path>
                <rect id="Rectangle-path" x="36.0424383" y="4.9713708" width="2.4856854" height="9.94274159"></rect>
                <rect id="Rectangle-path" x="36.0424383" y="0" width="2.4856854" height="2.4856854"></rect>
                <rect id="Rectangle-path" transform="translate(43.498836, 16.156705) rotate(-45.000000) translate(-43.498836, -16.156705) " x="41.7414737" y="14.9138746" width="3.51472545" height="2.48566156"></rect>
                <rect id="Rectangle-path" transform="translate(31.071474, 16.156604) rotate(-45.000000) translate(-31.071474, -16.156604) " x="29.8286428" y="14.3992418" width="2.48566156" height="3.51472545"></rect>
                <rect id="Rectangle-path" x="36.0424383" y="59.6564495" width="2.4856854" height="9.94274159"></rect>
                <rect id="Rectangle-path" x="36.0424383" y="72.0848765" width="2.4856854" height="2.4856854"></rect>
                <rect id="Rectangle-path" transform="translate(43.499456, 58.413916) rotate(-45.000000) translate(-43.499456, -58.413916) " x="42.2566248" y="56.6565537" width="2.48566156" height="3.51472545"></rect>
                <rect id="Rectangle-path" transform="translate(31.382076, 58.102062) rotate(-45.000000) translate(-31.382076, -58.102062) " x="30.0640535" y="56.859231" width="2.63604408" height="2.48566156"></rect>
                <rect id="Rectangle-path" x="59.6564495" y="36.0424383" width="9.94274159" height="2.4856854"></rect>
                <rect id="Rectangle-path" x="72.0848765" y="36.0424383" width="2.4856854" height="2.4856854"></rect>
                <rect id="Rectangle-path" transform="translate(58.413529, 31.070874) rotate(-45.000000) translate(-58.413529, -31.070874) " x="56.6561664" y="29.8280436" width="3.51472545" height="2.48566156"></rect>
                <rect id="Rectangle-path" transform="translate(58.413471, 43.492902) rotate(-45.000000) translate(-58.413471, -43.492902) " x="57.1706398" y="41.7355394" width="2.48566156" height="3.51472545"></rect>
                <rect id="Rectangle-path" x="4.9713708" y="36.0424383" width="9.94274159" height="2.4856854"></rect>
                <rect id="Rectangle-path" x="0" y="36.0424383" width="2.4856854" height="2.4856854"></rect>
                <rect id="Rectangle-path" transform="translate(16.157382, 31.071204) rotate(-45.000000) translate(-16.157382, -31.071204) " x="14.9145515" y="29.3138413" width="2.48566156" height="3.51472545"></rect>
                <rect id="Rectangle-path" transform="translate(16.156226, 43.499686) rotate(-45.000000) translate(-16.156226, -43.499686) " x="14.3988633" y="42.2568556" width="3.51472545" height="2.48566156"></rect>
            </g>
        </g>
    </g>
</svg>