<?xml version="1.0" encoding="UTF-8"?>
<svg width="100px" height="100px" viewBox="0 0 100 100" version="1.1" xmlns="http://www.w3.org/2000/svg" xmlns:xlink="http://www.w3.org/1999/xlink">
    <!-- Generator: Sketch 41 (35326) - http://www.bohemiancoding.com/sketch -->
    <title>core</title>
    <desc>Created with Sketch.</desc>
    <defs></defs>
    <g id="Page-1" stroke="none" stroke-width="1" fill="none" fill-rule="evenodd">
        <g id="core">
            <g id="1" transform="translate(9.000000, 11.000000)"></g>
            <g id="2" transform="translate(16.000000, 6.000000)" fill="#69737B">
                <path d="M50.3817276,30.9390236 L46.6155289,30.9390236 C46.385551,30.2091298 46.0930629,29.5024494 45.7400543,28.8244541 L48.4029561,26.1613864 C48.735736,25.8286066 48.9189556,25.3860609 48.9189556,24.9153275 C48.9189556,24.4444283 48.735736,24.0018825 48.4029561,23.6691027 L45.2689893,20.5349701 C44.5818744,19.8483526 43.4639863,19.848021 42.7767056,20.5351359 L40.1136379,23.1982035 C39.4356426,22.8451949 38.7287964,22.552541 37.9990684,22.3227289 L37.9990684,18.5563644 C37.9989026,17.5847202 37.2083225,16.7939744 36.2365126,16.7939744 L31.8042568,16.7939744 C30.8326127,16.7939744 30.0420326,17.5845544 30.0420326,18.5563644 L30.0420326,22.3227289 C29.3121388,22.5527068 28.6054584,22.8451949 27.9272973,23.1982035 L25.2640638,20.5349701 C24.5769489,19.8481868 23.4590608,19.8483526 22.7719459,20.5351359 L19.6381449,23.6689369 C19.3051992,24.0017167 19.1218138,24.4442625 19.1218138,24.9151617 C19.1218138,25.3858951 19.3051992,25.8284408 19.6379791,26.1612206 L22.3010467,28.8242883 C21.9480381,29.5022836 21.6553842,30.2091298 21.4255721,30.9388578 L17.6592076,30.9388578 C16.6875634,30.9388578 15.8969834,31.7294379 15.8969834,32.7012478 L15.8969834,37.1335036 C15.8969834,38.1051477 16.6875634,38.8957278 17.6592076,38.8957278 L21.4255721,38.8957278 C21.65555,39.6254557 21.9480381,40.3324678 22.3010467,41.0102973 L19.6379791,43.6733649 C18.9508642,44.3604798 18.9508642,45.4785338 19.6379791,46.1656487 L22.7719459,49.2996155 C23.4590608,49.9868962 24.5772806,49.9867304 25.2642296,49.2996155 L27.9272973,46.6365479 C28.6052926,46.9895565 29.3123047,47.2822104 30.0420326,47.5120225 L30.0420326,51.278387 C30.0420326,52.2500311 30.8326127,53.0406112 31.8042568,53.0406112 L36.2365126,53.0406112 C37.2081567,53.0406112 37.9989026,52.2500311 37.9989026,51.278387 L37.9989026,47.5120225 C38.7284647,47.2822104 39.4354768,46.9895565 40.1134721,46.6365479 L42.7765398,49.2996155 C43.4638205,49.9868962 44.5818744,49.9867304 45.2689893,49.2996155 L48.4027903,46.1656487 C48.7355702,45.8328689 48.9187897,45.3903231 48.9187897,44.9195897 C48.9187897,44.4488563 48.7355702,44.0063106 48.4027903,43.6733649 L45.7397227,41.0102973 C46.0927313,40.332302 46.3853852,39.6254557 46.6151973,38.8957278 L50.3815618,38.8957278 C51.353206,38.8957278 52.1439518,38.1051477 52.1439518,37.1335036 L52.1439518,32.7012478 C52.1441176,31.7296037 51.3533718,30.9390236 50.3817276,30.9390236 Z M49.6571398,36.4085841 L45.6679272,36.4085841 C45.0902466,36.4085841 44.5886726,36.8063613 44.4570198,37.3689532 C44.1918903,38.5022617 43.7468574,39.5772052 43.134191,40.5636063 C42.8292672,41.0544027 42.9027208,41.6904482 43.3111098,42.0991688 L46.1316966,44.9197555 L44.0229304,47.0285217 L41.2023436,44.207935 C40.7937888,43.7993802 40.1577433,43.7257608 39.6666153,44.0308504 C38.6800483,44.6435168 37.6051049,45.0885497 36.472128,45.353845 C35.9095361,45.485332 35.5117589,45.986906 35.5117589,46.5647524 L35.5117589,50.5541308 L32.5296737,50.5541308 L32.5296737,46.5647524 C32.5296737,45.9870718 32.1318965,45.4854978 31.5693046,45.353845 C30.4363278,45.0888813 29.3613843,44.6438484 28.3746515,44.0308504 C27.884021,43.726424 27.2478096,43.7993802 26.839089,44.207935 L24.0185023,47.0285217 L21.9097361,44.9197555 L24.7303228,42.0991688 C25.1388776,41.690614 25.2121654,41.0545685 24.9074074,40.5636063 C24.294741,39.5770393 23.8497081,38.5020959 23.5845786,37.3689532 C23.4530916,36.8063613 22.9513518,36.4085841 22.3736713,36.4085841 L18.3844587,36.4085841 L18.3844587,33.4264989 L22.3736713,33.4264989 C22.9513518,33.4264989 23.4529258,33.0287217 23.5845786,32.4661298 C23.8497081,31.3329872 24.294741,30.2580437 24.9074074,29.2714767 C25.2121654,28.7806803 25.1388776,28.1446348 24.7303228,27.7359142 L21.9097361,24.9153275 L24.0185023,22.8065613 L26.839089,25.627148 C27.2473122,26.0357028 27.8836893,26.1091564 28.3746515,25.8042326 C29.3610527,25.1915662 30.4359962,24.7465333 31.5693046,24.4814038 C32.1318965,24.3499168 32.5296737,23.8483428 32.5296737,23.2704965 L32.5296737,19.281118 L35.5117589,19.281118 L35.5117589,23.2704965 C35.5117589,23.848177 35.9095361,24.349751 36.472128,24.4814038 C37.6052707,24.7465333 38.6800483,25.1915662 39.6667811,25.8042326 C40.1572459,26.1088248 40.793623,26.0353712 41.2023436,25.627148 L44.0229304,22.8065613 L46.1316966,24.9153275 L43.3111098,27.7359142 C42.902555,28.144469 42.8292672,28.7805145 43.134191,29.2714767 C43.7466916,30.2577121 44.1917245,31.3326555 44.4570198,32.4661298 C44.5886726,33.0287217 45.0900808,33.4264989 45.6679272,33.4264989 L49.6571398,33.4264989 L49.6571398,36.4085841 Z" id="Shape"></path>
                <path d="M34.0204676,28.2552298 C30.3467906,28.2552298 27.3582388,31.2439474 27.3582388,34.9174586 C27.3582388,38.5909698 30.3469564,41.5796874 34.0204676,41.5796874 C37.6939788,41.5796874 40.6826964,38.5909698 40.6826964,34.9174586 C40.6826964,31.2439474 37.6941446,28.2552298 34.0204676,28.2552298 Z M34.0204676,39.0925438 C31.7183674,39.0925438 29.8453824,37.2195588 29.8453824,34.9174586 C29.8453824,32.6153584 31.7183674,30.7423734 34.0204676,30.7423734 C36.3225678,30.7423734 38.1955528,32.6153584 38.1955528,34.9174586 C38.1955528,37.2195588 36.3225678,39.0925438 34.0204676,39.0925438 Z" id="Shape"></path>
                <path d="M5.43058543,33.6738868 L1.30491153,33.6738868 C0.618128258,33.6738868 0.061339698,34.2306753 0.061339698,34.9174586 C0.061339698,35.6042419 0.618128258,36.1610304 1.30491153,36.1610304 L5.43058543,36.1610304 C6.1173687,36.1610304 6.67415726,35.6042419 6.67415726,34.9174586 C6.67415726,34.2306753 6.1173687,33.6738868 5.43058543,33.6738868 Z" id="Shape"></path>
                <path d="M66.7361895,33.6738868 L62.6105156,33.6738868 C61.9235665,33.6738868 61.3669438,34.2306753 61.3669438,34.9174586 C61.3669438,35.6042419 61.9235665,36.1610304 62.6105156,36.1610304 L66.7361895,36.1610304 C67.4231386,36.1610304 67.9797613,35.6042419 67.9797613,34.9174586 C67.9797613,34.2306753 67.4229728,33.6738868 66.7361895,33.6738868 Z" id="Shape"></path>
                <path d="M14.6835889,54.2543373 C14.1980984,53.7686811 13.4106688,53.7686811 12.9248467,54.2543373 L10.007593,57.171591 C9.52193675,57.6572473 9.52193675,58.444677 10.007593,58.9303332 C10.4932493,59.4159895 11.2806789,59.4159895 11.7663352,58.9303332 L14.6835889,56.0130795 C15.1692451,55.5274232 15.1692451,54.7399936 14.6835889,54.2543373 Z" id="Shape"></path>
                <path d="M58.0333422,10.9049156 C57.5475201,10.4192594 56.7602563,10.4192594 56.2744342,10.9049156 L53.3571805,13.8221693 C52.8715243,14.3078256 52.8715243,15.0952553 53.3571805,15.5809115 C53.8430026,16.0665678 54.6302664,16.0664019 55.1160885,15.5809115 L58.0333422,12.6636578 C58.5189985,12.1778357 58.5189985,11.3904061 58.0333422,10.9049156 Z" id="Shape"></path>
                <path d="M34.0206334,0.958330695 C33.3336843,0.958330695 32.7770616,1.51511926 32.7770616,2.20190252 L32.7770616,6.32757643 C32.7770616,7.0143597 33.3336843,7.57114826 34.0206334,7.57114826 C34.7075825,7.57114826 35.2642052,7.0143597 35.2642052,6.32757643 L35.2642052,2.20190252 C35.2642052,1.51511926 34.7075825,0.958330695 34.0206334,0.958330695 Z" id="Shape"></path>
                <path d="M58.0333422,57.171591 L55.1160885,54.2543373 C54.6302664,53.7686811 53.8430026,53.7686811 53.3571805,54.2543373 C52.8715243,54.7399936 52.8715243,55.5275891 53.3571805,56.0130795 L56.2744342,58.9303332 C56.7602563,59.4159895 57.5475201,59.4159895 58.0333422,58.9303332 C58.5189985,58.444677 58.5189985,57.6572473 58.0333422,57.171591 Z" id="Shape"></path>
                <path d="M14.6835889,13.8221693 L11.7663352,10.9049156 C11.2806789,10.4192594 10.4932493,10.4192594 10.007593,10.9049156 C9.52193675,11.3905719 9.52193675,12.1780016 10.007593,12.6636578 L12.9248467,15.5809115 C13.410503,16.0665678 14.1979326,16.0665678 14.6835889,15.5809115 C15.1692451,15.0950894 15.1692451,14.3076598 14.6835889,13.8221693 Z" id="Shape"></path>
                <path d="M58.8303888,31.8710392 C57.4921397,20.4509046 48.4394343,11.3973701 37.0728561,10.0118652 C36.3922078,9.9281314 35.7709193,10.4141193 35.6876829,11.0957624 C35.6046123,11.7775714 36.0899369,12.3976992 36.7717459,12.4809356 C47.0945528,13.7390987 55.149582,21.8317668 56.3598261,32.1605428 C56.433943,32.7934379 56.9713319,33.2593628 57.5932836,33.2593628 C57.6417,33.2593628 57.690448,33.2565441 57.7396934,33.2509065 C58.4221657,33.1711521 58.9103091,32.5533456 58.8303888,31.8710392 Z" id="Shape"></path>
                <path d="M57.7251022,36.5855029 C57.04263,36.4986187 56.4213415,36.981622 56.3351205,37.6630994 C55.4873361,44.3598166 51.707541,50.2687725 45.9648921,53.8743018 C43.4891893,55.4287665 42.0113286,58.0890154 42.0113286,60.9903514 L42.0113286,66.1083956 L26.0301041,66.1083956 L26.0301041,60.8771035 C26.0301041,58.067626 24.5618603,55.4133463 22.1985764,53.9504084 C15.5154555,49.8134594 11.5254139,42.6576155 11.5252481,34.8083559 C11.5252481,23.4749397 20.0143668,13.8768865 31.2716764,12.4824279 C31.9533196,12.3980309 32.4373178,11.7769082 32.3529207,11.095265 C32.2685236,10.4137876 31.6477326,9.92846302 30.9657578,10.0140208 C18.5275523,11.5548892 9.03744116,22.251265 9.03760697,34.8083559 C9.03760697,39.1414576 10.1646147,43.4107226 12.2970916,47.1547028 C14.3642396,50.7842745 17.3353815,53.865348 20.8890123,56.0651437 C22.5257187,57.0782402 23.5422972,58.9220427 23.5422972,60.8769376 L23.5422972,66.2894597 C22.2778333,66.7288551 21.3660465,67.929648 21.3660465,69.3418482 L21.3660465,71.1146842 C21.3660465,71.8653041 21.6253727,72.5552378 22.0559801,73.1045649 C21.6252068,73.653892 21.3660465,74.3436599 21.3660465,75.0944457 L21.3660465,76.8671158 C21.3660465,78.6500662 22.8167145,80.1005684 24.599499,80.1005684 L28.5092889,80.1005684 L28.5092889,82.9118698 C28.5092889,84.5336533 29.8286357,85.8530001 31.4502533,85.8530001 L36.5898528,85.8530001 C38.2116363,85.8530001 39.5308173,84.5336533 39.5308173,82.9118698 L39.5308173,80.1005684 L43.4406071,80.1005684 C45.2235575,80.1005684 46.6740597,78.6499004 46.6740597,76.8671158 L46.6740597,75.0944457 C46.6740597,74.3438257 46.4147335,73.653892 45.9839602,73.1045649 C46.4147335,72.5552378 46.6740597,71.8654699 46.6740597,71.1146842 L46.6740597,69.3418482 C46.6740597,67.9294822 45.7624386,66.7288551 44.497809,66.2894597 L44.497809,60.9901856 C44.497809,58.9498987 45.5402538,57.0772454 47.2867261,55.9807466 C53.6627676,51.9774402 57.8600712,45.4146971 58.8017038,37.9754846 C58.8887538,37.2940073 58.4064138,36.6717239 57.7251022,36.5855029 Z M37.0440052,82.911704 C37.0440052,83.1575996 36.8362458,83.3655248 36.5903502,83.3655248 L31.4507508,83.3655248 C31.2048552,83.3655248 30.9970958,83.1577654 30.9970958,82.911704 L30.9970958,80.1004026 L37.0440052,80.1004026 L37.0440052,82.911704 Z M44.1874135,76.86695 C44.1874135,77.2713596 43.8456799,77.6130931 43.4412704,77.6130931 L24.5999965,77.6130931 C24.1955869,77.6130931 23.8538534,77.2713596 23.8538534,76.86695 L23.8538534,75.0942798 C23.8538534,74.6898703 24.1955869,74.3481367 24.5999965,74.3481367 L43.4412704,74.3481367 C43.8456799,74.3481367 44.1874135,74.6898703 44.1874135,75.0942798 L44.1874135,76.86695 Z M44.1874135,71.1145184 C44.1874135,71.5189279 43.8456799,71.8606615 43.4412704,71.8606615 L24.5999965,71.8606615 C24.1955869,71.8606615 23.8538534,71.5189279 23.8538534,71.1145184 L23.8538534,69.3416824 C23.8538534,68.9372728 24.1955869,68.5955393 24.5999965,68.5955393 L43.4412704,68.5955393 C43.8456799,68.5955393 44.1874135,68.9372728 44.1874135,69.3416824 L44.1874135,71.1145184 Z" id="Shape"></path>
            </g>
        </g>
    </g>
</svg>