<?xml version="1.0" encoding="UTF-8"?>
<svg width="100px" height="100px" viewBox="0 0 100 100" version="1.1" xmlns="http://www.w3.org/2000/svg" xmlns:xlink="http://www.w3.org/1999/xlink">
    <!-- Generator: Sketch 41 (35326) - http://www.bohemiancoding.com/sketch -->
    <title>core</title>
    <desc>Created with Sketch.</desc>
    <defs></defs>
    <g id="Page-1" stroke="none" stroke-width="1" fill="none" fill-rule="evenodd">
        <g id="core" fill="#69737B">
            <g id="8" transform="translate(16.000000, 16.000000)">
                <path d="M53.6708029,32.4849422 L53.6708029,63.557582 C53.6708029,64.3376189 53.0384049,64.9700168 52.258368,64.9700168 L21.1858607,64.9700168 C20.4058238,64.9700168 19.7734258,64.3376189 19.7734258,63.557582 L19.7734258,48.0213283 L16.9486885,48.0213283 L16.9486885,63.557582 C16.9486885,65.8976927 18.8457499,67.7947541 21.1858607,67.7947541 L52.2585004,67.7947541 C54.5986111,67.7947541 56.4956726,65.8976927 56.4956726,63.557582 L56.4956726,32.4849422 L53.6708029,32.4849422 Z" id="Shape"></path>
                <path d="M26.8354676,38.1345492 L14.1239512,38.1345492 C8.66647354,38.141567 4.24418995,42.5638506 4.23717213,48.0213283 L7.06190942,48.0213283 C7.06654382,44.1229975 10.2256205,40.9640533 14.1238188,40.9594189 L26.8353352,40.9594189 C28.395409,40.9594189 29.6600725,42.2240823 29.6600725,43.7841562 C29.6600725,45.34423 28.395409,46.6088934 26.8353352,46.6088934 L14.1238188,46.6088934 L14.1238188,49.4336307 L26.8353352,49.4336307 C29.9554829,49.4336307 32.4849422,46.9041714 32.4849422,43.7840238 C32.4849422,40.6638761 29.9556153,38.1345492 26.8354676,38.1345492 Z" id="Shape"></path>
                <path d="M1.41243485,42.3717213 C0.632397941,42.3717213 0,43.0041193 0,43.7841562 L0,45.196591 L7.06190942,45.196591 L7.06190942,42.3717213 L1.41243485,42.3717213 Z" id="Shape"></path>
                <path d="M14.1239512,62.1451471 C10.2256205,62.1405127 7.06667623,58.9815685 7.06190942,55.0832377 L4.23717213,55.0832377 C4.24418995,60.540583 8.66647354,64.962999 14.1239512,64.9700168 L18.3611234,64.9700168 L18.3611234,62.1452795 L14.1239512,62.1452795 L14.1239512,62.1451471 Z" id="Shape"></path>
                <path d="M0,57.907975 L0,59.3204098 C0,60.1004467 0.632397941,60.7328447 1.41243485,60.7328447 L7.06204183,60.7328447 L7.06204183,57.9081074 L0,57.9081074 L0,57.907975 Z" id="Shape"></path>
                <path d="M53.6708029,2.82473728 L43.7840238,2.82473728 C40.6640085,2.82473728 38.1345492,5.35419663 38.1345492,8.47434426 C38.1345492,11.5944919 40.6640085,14.1239512 43.7841562,14.1239512 L56.4956726,14.1239512 L56.4956726,11.2990815 L43.7841562,11.2990815 C42.2240823,11.2990815 40.9594189,10.0344181 40.9594189,8.47434426 C40.9594189,6.91427045 42.2240823,5.64960698 43.7841562,5.64960698 L53.6709353,5.64960698 C57.569266,5.65424139 60.7282103,8.81331803 60.7328447,12.7115164 L63.557582,12.7115164 C63.5505642,7.2541711 59.1282806,2.8317551 53.6708029,2.82473728 Z" id="Shape"></path>
                <path d="M66.3823193,7.06190942 L60.7327123,7.06190942 L60.7327123,9.8866467 L67.7947541,9.8866467 L67.7947541,8.47434426 C67.7947541,7.69430736 67.1623562,7.06190942 66.3823193,7.06190942 Z" id="Shape"></path>
                <path d="M60.7328447,19.7734258 C60.7282103,23.6717566 57.5691336,26.8307008 53.6709353,26.8353352 L43.7841562,26.8353352 L43.7841562,29.6602049 L53.6709353,29.6602049 C59.1282806,29.6531871 63.5506966,25.2309035 63.5577144,19.7734258 L60.7328447,19.7734258 Z" id="Shape"></path>
                <path d="M60.7328447,22.5982955 L60.7328447,25.4230328 L66.3824517,25.4230328 C67.1624886,25.4230328 67.7948865,24.7906348 67.7948865,24.0105979 L67.7948865,22.5981631 L60.7328447,22.5981631 L60.7328447,22.5982955 Z" id="Shape"></path>
                <path d="M50.2062526,12.3231531 L47.4887687,13.0928619 C48.5940086,16.9988725 47.9612134,21.1918192 45.7521902,24.5975787 C41.5172691,31.1269285 32.7912103,32.9870471 26.261728,28.752126 C19.7323782,24.5172048 17.8722596,15.7911461 22.1071808,9.26166381 C26.3421019,2.73231397 35.0681607,0.872195401 41.5976429,5.10711653 L43.1399736,2.73999384 C40.3911082,0.952436848 37.1825096,0.000529646516 33.9033356,-4.82211653e-15 C24.5427603,-0.00158893955 16.9533229,7.58520017 16.951734,16.9457755 C16.9501451,26.3063508 24.5369342,33.8957881 33.8973771,33.8973771 C35.4537433,33.8963178 37.0025622,33.6810165 38.5002701,33.2575641 C47.5136621,30.7091698 52.7546468,21.3365451 50.2062526,12.3231531 Z" id="Shape"></path>
                <path d="M31.0726398,12.7115164 L36.7222467,12.7115164 L36.7222467,9.88677911 L31.0726398,9.88677911 C28.732529,9.88677911 26.8354676,11.7838405 26.8354676,14.1239512 C26.8354676,16.464062 28.732529,18.3611234 31.0726398,18.3611234 L36.7222467,18.3611234 L36.7222467,15.5363861 L31.0726398,15.5363861 C30.2926029,15.5363861 29.6602049,14.9039881 29.6602049,14.1239512 C29.6602049,13.3439143 30.2926029,12.7115164 31.0726398,12.7115164 Z" id="Shape"></path>
                <path d="M36.7221143,15.5362537 L31.0725074,15.5362537 L31.0725074,18.360991 L36.7221143,18.360991 C37.5021512,18.360991 38.1345492,18.9933889 38.1345492,19.7734258 C38.1345492,20.5534627 37.5021512,21.1858607 36.7221143,21.1858607 L31.0725074,21.1858607 C30.2924704,21.1858607 29.6600725,20.5534627 29.6600725,19.7734258 L26.8353352,19.7734258 C26.8353352,22.1135365 28.7323966,24.0105979 31.0725074,24.0105979 L36.7221143,24.0105979 C39.0622251,24.0105979 40.9592865,22.1135365 40.9592865,19.7734258 C40.9592865,17.4333151 39.0622251,15.5362537 36.7221143,15.5362537 Z" id="Shape"></path>
                <rect id="Rectangle-path" x="32.4849422" y="22.5982955" width="2.82473728" height="4.23717213"></rect>
                <rect id="Rectangle-path" x="32.4849422" y="7.06190942" width="2.82473728" height="4.23717213"></rect>
                <path d="M21.1858607,29.6602049 C18.8457499,29.6602049 16.9486885,31.5572663 16.9486885,33.8973771 L16.9486885,39.546984 L19.7734258,39.546984 L19.7734258,33.8973771 C19.7734258,33.1173401 20.4058238,32.4849422 21.1858607,32.4849422 L26.8354676,32.4849422 L26.8354676,29.6602049 L21.1858607,29.6602049 Z" id="Shape"></path>
                <rect id="Rectangle-path" x="24.0105979" y="31.0726398" width="2.82473728" height="8.47434426"></rect>
                <path d="M33.8973771,32.4849422 L33.8973771,42.3717213 L31.0726398,42.3717213 L31.0726398,45.1964586 L35.3098119,45.1964586 C36.0898488,45.1964586 36.7222467,44.5640607 36.7222467,43.7840238 L36.7222467,32.4849422 L33.8973771,32.4849422 Z" id="Shape"></path>
                <rect id="Rectangle-path" x="42.3717213" y="59.3204098" width="8.47434426" height="2.82473728"></rect>
                <rect id="Rectangle-path" x="42.3717213" y="53.6708029" width="8.47434426" height="2.82473728"></rect>
            </g>
        </g>
    </g>
</svg>