<?xml version="1.0" encoding="UTF-8"?>
<svg width="100px" height="100px" viewBox="0 0 100 100" version="1.1" xmlns="http://www.w3.org/2000/svg" xmlns:xlink="http://www.w3.org/1999/xlink">
    <!-- Generator: Sketch 41 (35326) - http://www.bohemiancoding.com/sketch -->
    <title>core</title>
    <desc>Created with Sketch.</desc>
    <defs></defs>
    <g id="Page-1" stroke="none" stroke-width="1" fill="none" fill-rule="evenodd">
        <g id="core" fill="#69737B">
            <g id="7" transform="translate(22.000000, 17.000000)">
                <path d="M37.0713916,14.0247513 C36.2748913,13.2271874 34.9817745,13.2271874 34.1842106,14.0247513 L19.6759935,28.5329684 C18.8784295,29.329469 18.8784295,30.6225858 19.6759935,31.4201495 C20.4735571,32.2177134 21.7666739,32.2177134 22.5631742,31.4201495 L37.0713916,16.9119321 C37.8689556,16.1143684 37.8689556,14.822315 37.0713916,14.0247513 Z" id="Shape"></path>
                <path d="M23.1863376,15.4922687 C23.1863376,16.6194922 22.2717977,17.534032 21.1445742,17.534032 C20.0162874,17.534032 19.1028109,16.6194922 19.1028109,15.4922687 C19.1028109,14.3650452 20.0162874,13.4505054 21.1445742,13.4505054 C22.2717977,13.4505054 23.1863376,14.3650452 23.1863376,15.4922687 Z" id="Shape"></path>
                <path d="M37.6456376,29.9526321 C37.6456376,31.0798556 36.7310977,31.993332 35.6038742,31.993332 C34.4755874,31.993332 33.5621109,31.0798556 33.5621109,29.9526321 C33.5621109,28.8243452 34.4755874,27.9108687 35.6038742,27.9108687 C36.7310977,27.9108687 37.6456376,28.8243452 37.6456376,29.9526321 Z" id="Shape"></path>
                <path d="M2.09449675,48.4008146 L20.4884451,63.8427134 C22.7726679,65.76112 25.5737118,66.7192602 28.3736924,66.7192602 C31.1747366,66.7192602 33.9747172,65.76112 36.25894,63.8427134 L41.4165194,59.513537 C42.2800151,58.7882856 42.3927373,57.5004858 41.6674861,56.6369903 C40.9422346,55.7734943 39.6544349,55.6618354 38.7909394,56.3860233 L33.63336,60.7162631 C30.5856027,63.2737845 26.1617821,63.2737845 23.1140251,60.7162631 L4.720077,45.2733011 C3.86296163,44.5544303 4.11180167,43.6313831 4.20857281,43.3655286 C4.30534368,43.0996739 4.70837933,42.2329878 5.82709549,42.2329878 L10.6539517,42.2329878 C11.7822386,42.2329878 12.695715,41.3195113 12.695715,40.1912245 L12.695715,8.92459663 C12.695715,6.35644111 14.7853321,4.26788736 17.3524243,4.26788736 L39.394961,4.26788736 C41.9631163,4.26788736 44.05167,6.35644111 44.05167,8.92459663 L44.05167,40.1912245 C44.05167,41.3195113 44.9662099,42.2329878 46.0934334,42.2329878 L50.9213529,42.2329878 C52.0390057,42.2329878 52.4420414,43.0996739 52.5388125,43.3655286 C52.6355834,43.6313831 52.8844234,44.5544303 52.0283717,45.2733011 L45.6670027,50.6137885 C44.8035069,51.3379763 44.6907844,52.6268394 45.4160359,53.4903352 C46.1412874,54.3538309 47.4290869,54.4654898 48.2925826,53.7413019 L54.6528881,48.4008146 C56.5447095,46.813131 57.2199802,44.2885755 56.3756261,41.9681967 C55.5312718,39.6488812 53.3895473,38.1494611 50.9213529,38.1494611 L48.1351967,38.1494611 L48.1351967,8.92459663 C48.1351967,4.10518441 44.214373,0.184360683 39.394961,0.184360683 L17.3524243,0.184360683 C12.5330118,0.184360683 8.61218837,4.10518441 8.61218837,8.92459663 L8.61218837,38.1494611 L5.82603214,38.1494611 C3.35677447,38.1494611 1.21611328,39.6488812 0.371759204,41.9681967 C-0.472595146,44.2885755 0.20267561,46.813131 2.09449675,48.4008146 L2.09449675,48.4008146 Z" id="Shape"></path>
            </g>
        </g>
    </g>
</svg>