<?xml version="1.0" encoding="UTF-8"?>
<svg width="100px" height="100px" viewBox="0 0 100 100" version="1.1" xmlns="http://www.w3.org/2000/svg" xmlns:xlink="http://www.w3.org/1999/xlink">
    <!-- Generator: Sketch 41 (35326) - http://www.bohemiancoding.com/sketch -->
    <title>core</title>
    <desc>Created with Sketch.</desc>
    <defs></defs>
    <g id="Page-1" stroke="none" stroke-width="1" fill="none" fill-rule="evenodd">
        <g id="core" fill="#69737B">
            <g id="3" transform="translate(16.000000, 11.907401)">
                <path d="M61.755675,83.8746897 L6.30116521,83.8746897 C2.9610616,83.8746897 0.247959888,81.161588 0.247959888,77.8273442 L0.247959888,31.5434698 C0.247959888,28.2033662 2.96399151,25.4902644 6.30116521,25.4902644 L61.7586049,25.4902644 C65.0957786,25.4902644 67.8059504,28.2062961 67.8059504,31.5434698 L67.8059504,77.8273442 C67.8059504,81.161588 65.0928487,83.8746897 61.755675,83.8746897 Z M6.30116521,28.41725 C4.57837493,28.41725 3.17787534,29.8206795 3.17787534,31.5405399 L3.17787534,77.8244143 C3.17787534,79.5442746 4.58130484,80.9418443 6.30116521,80.9418443 L61.7586049,80.9418443 C63.4784653,80.9418443 64.876035,79.5413447 64.876035,77.8244143 L64.876035,31.5434698 C64.876035,29.8206795 63.4755354,28.4201799 61.7586049,28.4201799 L6.30116521,28.4201799 L6.30116521,28.41725 Z" id="Shape"></path>
                <path d="M55.5032354,28.41725 C54.6945788,28.41725 54.0382777,27.7609489 54.0382777,26.9522923 L54.0382777,22.941238 C54.0382777,11.9071764 45.0639467,2.92991545 34.0269551,2.92991545 C22.9899636,2.92991545 14.0156326,11.9071764 14.0156326,22.941238 L14.0156326,26.9522923 C14.0156326,27.7609489 13.3593315,28.41725 12.5506749,28.41725 C11.7420182,28.41725 11.0857171,27.7609489 11.0857171,26.9522923 L11.0857171,22.941238 C11.0857171,10.292793 21.3785101,0 34.0269551,0 C46.6754002,0 56.9681931,10.292793 56.9681931,22.941238 L56.9681931,26.9522923 C56.9681931,27.7638788 56.3118921,28.41725 55.5032354,28.41725 Z" id="Shape"></path>
                <path d="M34.0210953,69.620651 C31.5306672,69.620651 29.5060956,67.5960794 29.5060956,65.1056513 L29.5060956,57.5757686 C26.4589835,55.9262262 24.5398889,52.7531277 24.5398889,49.2313694 C24.5398889,43.9985404 28.7970561,39.7443031 34.0269551,39.7443031 C39.265644,39.7443031 43.525741,44.0014703 43.525741,49.2313694 C43.525741,52.7501978 41.6037165,55.9262262 38.5536745,57.5728387 L38.5536745,65.1056513 C38.5507446,67.5931495 36.5173833,69.620651 34.0210953,69.620651 Z M34.0240252,42.6712887 C30.4085096,42.6712887 27.4668744,45.6129238 27.4668744,49.2284394 C27.4668744,51.8946625 29.0607485,54.2766838 31.5277373,55.2933644 C32.0785614,55.5218978 32.4360111,56.0551424 32.4360111,56.6469854 L32.4360111,65.1027214 C32.4360111,65.9758362 33.1479805,66.6878056 34.0210953,66.6878056 C34.9059298,66.6878056 35.6237591,65.9758362 35.6237591,65.1027214 L35.6237591,56.6469854 C35.6237591,56.0522125 35.9812088,55.5189679 36.5320329,55.2933644 C39.0019516,54.2737539 40.5987555,51.8946625 40.5987555,49.2313694 C40.5958256,45.6129238 37.6483306,42.6712887 34.0240252,42.6712887 Z" id="Shape"></path>
            </g>
        </g>
    </g>
</svg>