<?xml version="1.0" encoding="UTF-8"?>
<svg width="100px" height="100px" viewBox="0 0 100 100" version="1.1" xmlns="http://www.w3.org/2000/svg" xmlns:xlink="http://www.w3.org/1999/xlink">
    <!-- Generator: Sketch 41 (35326) - http://www.bohemiancoding.com/sketch -->
    <title>core</title>
    <desc>Created with Sketch.</desc>
    <defs></defs>
    <g id="Page-1" stroke="none" stroke-width="1" fill="none" fill-rule="evenodd">
        <g id="core" fill="#69737B">
            <path d="M9.7278535,31.8678118 C10.4003518,32.2296522 11.2388692,31.9777893 11.6007096,31.3052909 L11.7651089,30.999816 L11.7651089,85.9357399 L10.3830211,85.9357399 C9.61965771,85.9357399 9.00093331,86.5544643 9.00093331,87.3178277 C9.00093331,88.0811911 9.61965771,88.6999155 10.3830211,88.6999155 L90.5471894,88.6999155 C91.3105528,88.6999155 91.9292772,88.0811911 91.9292772,87.3178277 C91.9292772,86.5544643 91.3103908,85.9357399 90.5471894,85.9357399 L89.1651017,85.9357399 L89.1651017,30.999816 L89.3295009,31.3052909 C89.5706739,31.7532992 90.0384425,32.032535 90.5471894,32.0323731 C90.7755668,32.032697 91.0003808,31.9756836 91.2008993,31.866516 C91.8729117,31.5049996 92.1246127,30.6672921 91.7634202,29.9951177 L82.0884818,12.0271668 C81.8476328,11.5796444 81.3805121,11.3004086 80.8722511,11.3000846 L20.0579594,11.3000846 C19.5492125,11.2999226 19.0814439,11.5791585 18.840271,12.0271668 L9.1653326,29.9949557 C8.8034922,30.6674541 9.05535514,31.5059714 9.7278535,31.8678118 Z M36.6436606,85.9359019 L20.0579594,85.9359019 L20.0579594,62.4394379 L36.6436606,62.4394379 L36.6436606,85.9359019 Z M36.6436606,59.6751004 L20.0579594,59.6751004 L20.0579594,43.0893992 L36.6436606,43.0893992 L36.6436606,59.6751004 Z M80.8722511,85.9359019 L64.2865499,85.9359019 L64.2865499,62.4394379 L80.8722511,62.4394379 L80.8722511,85.9359019 L80.8722511,85.9359019 Z M80.8722511,59.6751004 L64.2865499,59.6751004 L64.2865499,43.0893992 L80.8722511,43.0893992 L80.8722511,59.6751004 L80.8722511,59.6751004 Z M14.5294464,27.8859478 L68.4329752,27.8859478 C69.1963386,27.8859478 69.815063,27.2670614 69.815063,26.50386 C69.815063,25.7404966 69.1963386,25.1217722 68.4329752,25.1217722 L14.9301595,25.1217722 L20.8872445,14.0645841 L80.042966,14.0645841 L85.9972975,25.1217722 L73.9616502,25.1217722 C73.1982869,25.1217722 72.5795625,25.7406586 72.5795625,26.50386 C72.5795625,27.2672234 73.1984488,27.8859478 73.9616502,27.8859478 L86.4009261,27.8859478 L86.4009261,85.9359019 L83.6365886,85.9359019 L83.6365886,41.7073114 C83.6365886,40.943948 83.0177022,40.3252236 82.2545008,40.3252236 L62.9043002,40.3252236 C62.1409368,40.3252236 61.5222124,40.943948 61.5222124,41.7073114 L61.5222124,85.9359019 L39.4079981,85.9359019 L39.4079981,41.7073114 C39.4079981,40.943948 38.7892737,40.3252236 38.0259104,40.3252236 L18.6758717,40.3252236 C17.9125083,40.3252236 17.2937839,40.943948 17.2937839,41.7073114 L17.2937839,85.9359019 L14.5294464,85.9359019 L14.5294464,27.8859478 Z" id="Shape"></path>
            <path d="M43.5539568,58.2927696 L57.3753205,58.2927696 C58.1386838,58.2927696 58.7574082,57.6738832 58.7574082,56.9106818 L58.7574082,43.0893182 C58.7574082,42.3259548 58.1386838,41.7072304 57.3753205,41.7072304 L43.5539568,41.7072304 C42.7905934,41.7072304 42.171869,42.3259548 42.171869,43.0893182 L42.171869,56.9106818 C42.1717071,57.6738832 42.7905934,58.2927696 43.5539568,58.2927696 Z M51.8468074,44.471244 L55.9932327,44.471244 L55.9932327,55.5284321 L51.8468074,55.5284321 L51.8468074,44.471244 Z M44.9360446,44.471244 L49.0824699,44.471244 L49.0824699,55.5284321 L44.9360446,55.5284321 L44.9360446,44.471244 Z" id="Shape"></path>
        </g>
    </g>
</svg>