<?xml version="1.0" encoding="UTF-8"?>
<svg width="100px" height="100px" viewBox="0 0 100 100" version="1.1" xmlns="http://www.w3.org/2000/svg" xmlns:xlink="http://www.w3.org/1999/xlink">
    <!-- Generator: Sketch 41 (35326) - http://www.bohemiancoding.com/sketch -->
    <title>core</title>
    <desc>Created with Sketch.</desc>
    <defs></defs>
    <g id="Page-1" stroke="none" stroke-width="1" fill="none" fill-rule="evenodd">
        <g id="core">
            <g id="1" transform="translate(9.000000, 11.000000)"></g>
            <g id="4" transform="translate(6.000000, 23.000000)" fill="#69737B">
                <path d="M73.6246651,16.1236022 L59.2023448,16.1236022 L59.2023448,13.5497317 C59.2023448,6.07819168 53.1241531,0 45.652613,0 L13.5490666,0 C6.07819168,0 0,6.07819168 0,13.5497317 L0,25.0596546 C0,32.5305295 6.07819168,38.6093863 13.5490666,38.6093863 L27.972052,38.6093863 L27.972052,41.1832566 C27.972052,48.6547968 34.0502437,54.7329885 41.5211188,54.7329885 L73.6246651,54.7329885 C81.0955401,54.7329885 87.1737318,48.6547968 87.1737318,41.1832566 L87.1737318,29.6733339 C87.1737318,22.2017939 81.0955401,16.1236022 73.6246651,16.1236022 L73.6246651,16.1236022 Z M13.5490666,36.060124 C7.48351158,36.060124 2.5492623,31.1258747 2.5492623,25.0596546 L2.5492623,13.5497317 C2.5492623,7.48417662 7.48351158,2.5492623 13.5490666,2.5492623 L45.652613,2.5492623 C51.718168,2.5492623 56.6530825,7.48351158 56.6530825,13.5497317 L56.6530825,25.0596546 C56.6530825,31.1252096 51.718168,36.060124 45.652613,36.060124 L13.5490666,36.060124 Z M84.6244695,41.1832566 C84.6244695,47.2488117 79.6902202,52.1837262 73.6246651,52.1837262 L41.5211188,52.1837262 C35.4555638,52.1837262 30.5206493,47.2494769 30.5206493,41.1832566 L30.5206493,38.6093863 L35.9018342,38.6093863 L35.9018342,39.4693383 C35.9018342,43.8143243 39.4367493,47.3492392 43.7817351,47.3492392 L59.2209671,47.3492392 C59.9246246,47.3492392 60.4952658,46.7785983 60.4952658,46.0749406 C60.4952658,45.3706179 59.9246246,44.7999769 59.2209671,44.7999769 L43.7817351,44.7999769 C40.8420692,44.7999769 38.4510967,42.4090042 38.4510967,39.4693383 L38.4510967,38.6093863 L45.652613,38.6093863 C52.7882864,38.6093863 58.6489959,33.0632608 59.1617746,26.0566136 L71.3633836,26.0566136 C74.3030496,26.0566136 76.6946873,28.4475862 76.6946873,31.3872522 L76.6946873,39.4693383 C76.6946873,42.4090042 74.3030496,44.7999769 71.3633836,44.7999769 L67.2079463,44.7999769 C66.5036236,44.7999769 65.9329827,45.3706179 65.9329827,46.0749406 C65.9329827,46.7785983 66.5036236,47.3492392 67.2079463,47.3492392 L71.3633836,47.3492392 C75.7083695,47.3492392 79.2432846,43.8143243 79.2432846,39.4693383 L79.2432846,31.3872522 C79.2432846,27.0422663 75.7083695,23.5073513 71.3633836,23.5073513 L59.2023448,23.5073513 L59.2023448,18.6728645 L73.6246651,18.6728645 C79.6895552,18.6728645 84.6244695,23.6077788 84.6244695,29.6733339 L84.6244695,41.1832566 Z" id="Shape"></path>
                <path d="M51.2712324,23.3457363 L51.2712324,15.2636502 C51.2712324,10.9186642 47.7363175,7.38374925 43.3913315,7.38374925 L15.8103481,7.38374925 C11.857096,7.38374925 8.49709776,10.3367168 7.99429517,14.2527243 C7.90517416,14.9510612 8.3986655,15.5895407 9.09633731,15.6793269 C9.79533937,15.7677828 10.4331538,15.2749565 10.52294,14.5772847 C10.8621322,11.928925 13.1353852,9.93234651 15.8103481,9.93234651 L43.3913315,9.93234651 C46.3309976,9.93234651 48.7226351,12.3239841 48.7226351,15.2636502 L48.7226351,16.1236022 L41.5211188,16.1236022 C34.3854454,16.1236022 28.5247358,21.6697276 28.0119571,28.6763747 L15.8103481,28.6763747 C12.8706822,28.6763747 10.4790445,26.285402 10.4790445,23.3457363 L10.4790445,22.4871143 C10.4790445,21.7834567 9.90840336,21.2128157 9.20474585,21.2128157 C8.50042313,21.2128157 7.93044722,21.7834567 7.93044722,22.4871143 L7.93044722,23.3457363 C7.93044722,27.6907221 11.4653623,31.2256372 15.8103481,31.2256372 L43.3913315,31.2256372 C47.7363175,31.2256372 51.2712324,27.6907221 51.2712324,23.3457363 Z M43.3913315,28.6763747 L39.1953242,28.6763747 C40.1244448,27.1094397 41.8317124,26.0566136 43.7817351,26.0566136 L47.9797377,26.0566136 C47.049952,27.6235488 45.3420194,28.6763747 43.3913315,28.6763747 L43.3913315,28.6763747 Z M48.7226351,23.3457363 C48.7226351,23.3996079 48.719975,23.4534796 48.7186447,23.5073513 L43.7817351,23.5073513 C40.3898129,23.5073513 37.4933774,25.6635498 36.3860145,28.6763747 L30.5678702,28.6763747 C31.0733331,23.0763776 35.7914305,18.6728645 41.5211188,18.6728645 L48.7226351,18.6728645 L48.7226351,23.3457363 Z" id="Shape"></path>
            </g>
        </g>
    </g>
</svg>