<?xml version="1.0" encoding="UTF-8"?>
<svg width="100px" height="100px" viewBox="0 0 100 100" version="1.1" xmlns="http://www.w3.org/2000/svg" xmlns:xlink="http://www.w3.org/1999/xlink">
    <!-- Generator: Sketch 41 (35326) - http://www.bohemiancoding.com/sketch -->
    <title>core</title>
    <desc>Created with Sketch.</desc>
    <defs></defs>
    <g id="Page-1" stroke="none" stroke-width="1" fill="none" fill-rule="evenodd">
        <g id="core" fill="#69737B">
            <g id="9" transform="translate(12.000000, 16.000000)">
                <path d="M30.4098986,49.3810034 C30.1212997,49.3810034 29.8305892,49.2817535 29.5933748,49.0797344 L21.4309526,42.1294275 C21.1493927,41.8893977 20.9874957,41.5388555 20.9874957,41.1686043 C20.9874957,40.7990567 21.1500966,40.4485147 21.4309526,40.2084849 L29.5933748,33.258178 C30.1234115,32.8062744 30.9195222,32.8703292 31.3714258,33.4003659 C31.8226256,33.9311062 31.7592747,34.727217 31.2285341,35.1784167 L24.1944632,41.1686043 L31.2285341,47.1587917 C31.7592747,47.6106954 31.8226256,48.406806 31.3714258,48.9368427 C31.1215413,49.2303689 30.7667758,49.3810034 30.4098986,49.3810034 Z" id="Shape"></path>
                <path d="M46.5235734,49.3810034 C46.1666962,49.3810034 45.8119307,49.2303689 45.56275,48.9368427 C45.1108465,48.406806 45.1749012,47.6106954 45.7049379,47.1587917 L52.7390088,41.1686043 L45.7049379,35.1784167 C45.1749012,34.727217 45.1108465,33.9311062 45.56275,33.4003659 C46.0139498,32.8703292 46.8107646,32.8062744 47.3400972,33.258178 L55.5025194,40.2084849 C55.7840793,40.4485147 55.9459763,40.7990567 55.9459763,41.1686043 C55.9459763,41.5388555 55.7840793,41.8893977 55.5025194,42.1294275 L47.3400972,49.0797344 C47.1028829,49.2817535 46.8121723,49.3810034 46.5235734,49.3810034 L46.5235734,49.3810034 Z" id="Shape"></path>
                <path d="M35.5772273,54.5940855 C35.4906476,54.5940855 35.403364,54.5849349 35.3153766,54.5666334 C34.6340015,54.4230378 34.1975836,53.7536292 34.3411792,53.0722542 L39.4282632,28.9193395 C39.5718586,28.2379645 40.2405636,27.8015466 40.9226424,27.9451422 C41.6040175,28.0887377 42.0404353,28.7574427 41.8968398,29.4395215 L36.8097559,53.592436 C36.6844617,54.1865275 36.1607602,54.5940855 35.5772273,54.5940855 L35.5772273,54.5940855 Z" id="Shape"></path>
                <path d="M68.1994644,67.7527888 L8.7340076,67.7527888 C4.06433628,67.7527888 0.264684957,63.9538414 0.264684957,59.2834662 L0.264684957,8.8124412 C0.264684957,4.14276988 4.06433628,0.343118562 8.7340076,0.343118562 L68.1994644,0.343118562 C72.8691357,0.343118562 76.6687871,4.14276988 76.6687871,8.8124412 L76.6687871,59.2834662 C76.6687871,63.9538414 72.8691357,67.7527888 68.1994644,67.7527888 Z M8.7340076,2.86589552 C5.45524232,2.86589552 2.78746191,5.53367593 2.78746191,8.8124412 L2.78746191,59.2834662 C2.78746191,62.5622315 5.45524232,65.2300119 8.7340076,65.2300119 L68.1994644,65.2300119 C71.4782297,65.2300119 74.1460101,62.5622315 74.1460101,59.2834662 L74.1460101,8.8124412 C74.1460101,5.53367593 71.4782297,2.86589552 68.1994644,2.86589552 L8.7340076,2.86589552 Z" id="Shape"></path>
                <path d="M75.4073986,20.541524 L1.52607344,20.541524 C0.829212523,20.541524 0.264684957,19.9769962 0.264684957,19.2801355 C0.264684957,18.5839784 0.829212523,18.018747 1.52607344,18.018747 L75.4073986,18.018747 C76.1042595,18.018747 76.6687871,18.5839784 76.6687871,19.2801355 C76.6687871,19.9769962 76.1042595,20.541524 75.4073986,20.541524 Z" id="Shape"></path>
                <path d="M21.8166896,14.5055829 C19.6162988,14.5055829 17.8248738,12.7141579 17.8248738,10.513767 C17.8248738,8.31267224 19.6162988,6.52195109 21.8166896,6.52195109 C24.0177843,6.52195109 25.8085055,8.31267224 25.8085055,10.513767 C25.8085055,12.7141579 24.0177843,14.5055829 21.8166896,14.5055829 Z M21.8166896,9.04472805 C21.0072049,9.04472805 20.3476508,9.70357828 20.3476508,10.513767 C20.3476508,11.3239558 21.0072049,11.982806 21.8166896,11.982806 C22.6268783,11.982806 23.2857285,11.3239558 23.2857285,10.513767 C23.2857285,9.70357828 22.6268783,9.04472805 21.8166896,9.04472805 Z" id="Shape"></path>
                <path d="M9.5519391,14.4668684 C7.35084449,14.4668684 5.56012335,12.6761473 5.56012335,10.4750525 C5.56012335,8.27395788 7.35084449,6.48323674 9.5519391,6.48323674 C11.7530339,6.48323674 13.543755,8.27395788 13.543755,10.4750525 C13.543755,12.6761473 11.7530339,14.4668684 9.5519391,14.4668684 Z M9.5519391,9.0060137 C8.74245439,9.0060137 8.08290031,9.66556778 8.08290031,10.4750525 C8.08290031,11.2852412 8.74245439,11.9440915 9.5519391,11.9440915 C10.3621278,11.9440915 11.0209781,11.2852412 11.0209781,10.4750525 C11.0209781,9.66556778 10.3621278,9.0060137 9.5519391,9.0060137 Z" id="Shape"></path>
                <path d="M34.08144,14.5435936 C31.8810493,14.5435936 30.0903281,12.7528725 30.0903281,10.5517777 C30.0903281,8.35138677 31.8810493,6.56066563 34.08144,6.56066563 C36.2825348,6.56066563 38.073256,8.35138677 38.073256,10.5517777 C38.073256,12.7528725 36.2825348,14.5435936 34.08144,14.5435936 Z M34.08144,9.08273873 C33.2719553,9.08273873 32.6131051,9.74158896 32.6131051,10.5517777 C32.6131051,11.3619664 33.2719553,12.0208167 34.08144,12.0208167 C34.8916288,12.0208167 35.550479,11.3619664 35.550479,10.5517777 C35.550479,9.74158896 34.8916288,9.08273873 34.08144,9.08273873 Z" id="Shape"></path>
            </g>
        </g>
    </g>
</svg>