<?xml version="1.0" encoding="UTF-8"?>
<svg width="227px" height="54px" viewBox="0 0 227 54" version="1.1" xmlns="http://www.w3.org/2000/svg" xmlns:xlink="http://www.w3.org/1999/xlink">
    <!-- Generator: Sketch 41 (35326) - http://www.bohemiancoding.com/sketch -->
    <title>crypto</title>
    <desc>Created with Sketch.</desc>
    <defs></defs>
    <g id="Page-1" stroke="none" stroke-width="1" fill="none" fill-rule="evenodd">
        <g id="crypto">
            <g id="cv-logo" transform="translate(1.000000, 0.000000)">
                <g id="Layer_1" transform="translate(0.118031, 0.095710)">
                    <g id="Group-5">
                        <g id="Group-3" transform="translate(0.000000, 0.940310)" fill="#FF0000">
                            <path d="M4.62963543,22.4618431 C4.62869952,20.3179849 5.0142945,18.1919091 5.76832609,16.1850058 L1.83750355,13.9138639 C-0.633611157,19.8762354 -0.406184996,26.6160362 2.46144364,32.3980889 L6.35794947,30.1487849 C5.21489123,27.7478635 4.62433194,25.1210757 4.62963543,22.4618431 Z" id="Shape"></path>
                            <path d="M20.2499755,4.70450824 L20.2499755,0.177822924 C13.5313886,0.87632385 7.48572118,4.56692946 3.79355572,10.2232583 L7.68382215,12.4788017 C10.5601859,8.20138045 15.1383463,5.36900444 20.2499755,4.70450824 Z" id="Shape"></path>
                            <path d="M24.4241346,40.2722128 L24.4241346,44.7801799 C30.6941086,44.248583 36.4508918,41.102989 40.2846916,36.1136522 L36.3569888,33.8456299 C33.3754911,37.469162 29.0902706,39.7771164 24.4241346,40.2722128 Z" id="Shape"></path>
                            <path d="M40.2971704,22.149873 C40.2993542,24.878987 39.6738543,27.5722243 38.469026,30.0208772 L42.3624121,32.2701812 C45.352021,26.388298 45.5906781,19.4859608 43.0144295,13.4115921 L39.083607,15.6796143 C39.8866178,17.7423603 40.2981063,19.9364456 40.2971704,22.149873 Z" id="Shape"></path>
                            <path d="M37.2773004,12.3040985 L41.1800456,10.0516748 C37.3949131,4.37038833 31.2266414,0.724082469 24.4241346,0.14662592 L24.4241346,4.65147334 C29.6193718,5.20646804 34.313273,8.00140766 37.2773004,12.3040985 Z" id="Shape"></path>
                            <path d="M8.59789438,33.6927646 L4.67955064,35.9514277 C8.42568692,40.9204866 14.069537,44.1075725 20.2593346,44.7489829 L20.2593346,40.2191779 C15.6755587,39.6304904 11.49672,37.291963 8.59789438,33.6927646 Z" id="Shape"></path>
                            <path d="M23.0857832,29.814977 C19.7495755,29.8168488 16.8279761,27.5769039 15.964131,24.3545653 C15.100286,21.1319148 16.5091427,17.7311294 19.3989212,16.0636495 C22.2886997,14.3964816 25.9381253,14.8787872 28.2956829,17.2394646 L31.0067026,14.5284449 C26.6650155,10.1833261 19.6341466,10.1446419 15.2447281,14.4417172 C10.8556216,18.7387926 10.7451842,25.7690375 14.9973359,30.2018198 C19.2491756,34.6349141 26.2778606,34.8171047 30.7540068,30.6105006 L28.0429871,27.8994809 C26.6877893,29.1345703 24.9195431,29.8180967 23.0857832,29.814977 Z" id="Shape"></path>
                        </g>
                        <g id="Group-4" transform="translate(53.000000, 9.000000)" fill="#FFFFFF">
                            <g id="Group" transform="translate(2.163966, 0.107549)">
                                <g id="Group-2">
                                    <path d="M0.29013214,11.5428916 C0.29013214,4.78967607 3.45756398,1.41322429 9.79273964,1.41322429 C11.1504333,1.40885671 12.5015755,1.60009435 13.8046744,1.98100977 C15.0940466,2.36161322 15.7388887,2.83580769 15.7388887,3.40359317 C15.7388887,3.81944923 15.516454,4.36976439 15.0712728,5.05391469 C14.6260915,5.738065 14.2320734,6.07936022 13.8889063,6.07717643 C13.6823821,6.02351759 13.4827213,5.94708493 13.2930435,5.8494383 C12.1615282,5.3652608 10.9386056,5.13221917 9.70850773,5.16622391 C6.42658288,5.16622391 4.78562046,7.31476159 4.78562046,11.611525 C4.78562046,15.9082884 6.40786468,18.0568261 9.65235312,18.0568261 C11.007863,18.0586979 12.3477743,17.7670059 13.580056,17.2020282 C13.8143455,17.078488 14.0626736,16.9830252 14.319425,16.9181354 C14.7187466,16.9181354 15.0984142,17.245704 15.4581156,17.9008411 C15.7491837,18.3513258 15.9338699,18.8626447 15.9978238,19.3951776 C15.9978238,20.1542007 15.2958912,20.7428881 13.892026,21.160928 C12.5165501,21.5730404 11.0883512,21.7833082 9.65235312,21.7848681 C6.46620308,21.7848681 4.10958137,20.952844 2.58311195,19.2891077 C1.05664253,17.6253715 0.29231593,15.0431955 0.29013214,11.5428916 Z" id="Shape"></path>
                                    <path d="M18.3875143,20.702332 L18.3875143,11.6832781 C18.4149677,10.6840381 18.3575652,9.68417407 18.2159308,8.69460509 C18.1379383,8.35736548 18.0808478,8.01544631 18.0443473,7.67134335 C18.0443473,7.3677965 18.4290063,7.14005837 19.1986364,6.98812896 C19.7648621,6.86146912 20.3410707,6.78534843 20.9207111,6.76039083 C21.1777744,6.73792898 21.4363975,6.77661327 21.6756786,6.87270004 C21.8129454,6.95724392 21.921511,7.08109603 21.9876486,7.22834589 C22.0625214,7.39057031 22.1217957,7.52159773 22.1592321,7.62766755 C22.2141389,7.80018698 22.2568788,7.97645005 22.2871399,8.15489692 C22.3339354,8.40135325 22.3682521,8.55421857 22.3869703,8.61037318 C23.1834298,7.16907158 24.2172985,6.44842078 25.4879525,6.44842078 C26.0953582,6.44842078 26.5174536,6.60440581 26.7545509,6.91637585 C26.9888404,7.22241846 27.1142523,7.59803039 27.1101967,7.98331339 C27.0924144,8.49057668 27.0066227,8.99316042 26.8543813,9.4776499 C26.6837337,10.0744486 26.4759616,10.3730039 26.2304412,10.3730039 C26.0273487,10.3577174 25.82644,10.320281 25.6314587,10.2606947 C25.3909298,10.1911254 25.1422897,10.1521291 24.8920897,10.1452658 C23.9437008,10.1452658 23.1856136,10.6194603 22.6178281,11.5678492 L22.6178281,20.6992123 C22.6178281,21.306618 22.0491067,21.6101649 20.911352,21.6101649 L20.1158284,21.6101649 C18.963723,21.6101649 18.3875143,21.3075539 18.3875143,20.702332 Z" id="Shape"></path>
                                    <path d="M27.3192166,7.24394439 C27.3192166,6.82808833 27.8972971,6.62000431 29.0537701,6.62000431 L29.9647226,6.62000431 C30.8943933,6.62000431 31.4256783,6.81966513 31.5588895,7.21898679 L33.2372884,12.4788017 C33.407936,13.0091508 33.6731105,14.1531449 34.032812,15.9104722 L34.1451212,15.9104722 C34.5257246,14.0885671 34.7908992,12.944573 34.9406448,12.4788017 L36.6190436,7.21586709 C36.7522548,6.81872922 37.2835398,6.6190684 38.2132105,6.61688461 L38.8964249,6.61688461 C40.0341797,6.61688461 40.6029011,6.82496863 40.6029011,7.24082469 C40.5966617,7.41428004 40.5682724,7.58617553 40.5186692,7.75245556 L34.0047347,26.8294237 C33.8528053,27.2265615 33.3215203,27.4262224 32.4105677,27.4284062 L31.9270142,27.4284062 C30.7892594,27.4284062 30.220538,27.2287453 30.220538,26.8294237 C30.221474,26.6528486 30.2595343,26.4784574 30.3328473,26.3177928 L32.1329144,21.5540103 L27.4533638,7.75557526 C27.3912817,7.59023114 27.3460461,7.41864762 27.3192166,7.24394439 Z" id="Shape"></path>
                                    <path d="M42.7118186,26.5174536 L42.7118186,11.6832781 C42.7395839,10.6840381 42.6821814,9.68417407 42.540235,8.69460509 C42.4622425,8.35736548 42.40484,8.01575828 42.3686515,7.67134335 C42.3686515,7.3677965 42.7523747,7.14005837 43.519821,6.98812896 C44.0860466,6.86146912 44.6622553,6.78534843 45.2418956,6.76039083 C45.4989589,6.73792898 45.7575821,6.77661327 45.9968631,6.87270004 C46.133818,6.95755589 46.2423835,7.081408 46.3088331,7.22834589 C46.3734109,7.36249301 46.4308134,7.49975983 46.4804167,7.64014635 C46.5318917,7.8082982 46.5746316,7.97894581 46.6083244,8.15177722 C46.6560558,8.37857944 46.6894366,8.52083778 46.7081548,8.57917618 C47.0653605,7.9374538 47.5919659,7.40648079 48.2305686,7.04428357 C48.9250139,6.63965842 49.7167939,6.43251031 50.5204287,6.44530108 C52.0949415,6.44530108 53.3749546,7.12321199 54.36078,8.47934576 C55.3466053,9.83547954 55.839518,11.7072998 55.839518,14.0948065 C55.839518,16.4760739 55.3132245,18.3541335 54.2609495,19.7289855 C53.2086746,21.1038375 51.7339922,21.7911075 49.8372143,21.7911075 C48.8002259,21.8160651 47.7828916,21.5065908 46.9358929,20.9082323 L46.9358929,26.523693 C46.9358929,27.1310987 46.3671715,27.4346456 45.2294168,27.4346456 L44.4338932,27.4346456 C43.2858434,27.4221668 42.7118186,27.1164361 42.7118186,26.5174536 Z M48.913783,18.4655068 C50.6773497,18.4655068 51.559289,17.0376199 51.559289,14.1821581 C51.559289,11.3266963 50.7918427,9.89568976 49.2569501,9.88945036 C48.3459975,9.88945036 47.5682562,10.4488126 46.9234141,11.5678492 L46.9234141,17.9133199 C47.528948,18.2627263 48.2146581,18.4486604 48.913783,18.453028 L48.913783,18.4655068 Z" id="Shape"></path>
                                    <path d="M64.4498911,18.453028 L65.2173374,18.3375991 C65.4628579,18.3375991 65.6706299,18.6174362 65.8412775,19.1767985 C65.9785443,19.567697 66.0643361,19.9745059 66.097093,20.3872423 C66.097093,21.316913 65.1870763,21.7817484 63.3673551,21.7817484 C60.5970611,21.7817484 59.2119141,20.2459199 59.2119141,17.1739509 L59.2119141,9.99863987 L58.7564379,9.99863987 C58.1864686,9.99863987 57.9016399,9.52444541 57.9016399,8.57605648 L57.9016399,8.11122111 C57.9016399,7.16283218 58.1864686,6.68863772 58.7564379,6.68863772 L59.2119141,6.68863772 L59.5862782,3.97137864 C59.682053,3.36397297 60.1946198,3.06042612 61.1242905,3.06042612 L62.0071657,3.06042612 C62.9555546,3.06042612 63.4297491,3.36397297 63.4297491,3.97137864 L63.4297491,6.67303921 L64.8242552,6.67303921 C65.3942245,6.67303921 65.6790531,7.14723368 65.6790531,8.09562261 L65.6790531,8.57917618 C65.6790531,9.52756511 65.3942245,10.0017596 64.8242552,10.0017596 L63.4235097,10.0017596 L63.4235097,17.2301055 C63.4235097,18.0452832 63.7657408,18.453028 64.4498911,18.453028 Z" id="Shape"></path>
                                    <path d="M69.7128258,19.8038583 C68.5376346,18.4851609 67.950195,16.5833916 67.950195,14.0979262 C67.950195,11.6124609 68.5376346,9.72098653 69.7128258,8.42319115 C70.8880169,7.11510077 72.6047881,6.46089959 74.8634512,6.46089959 C77.1221143,6.46089959 78.8338939,7.11510077 79.9984781,8.42319115 C81.1568228,9.72317032 81.7361512,11.6155806 81.7361512,14.1010459 C81.7361512,16.5865113 81.1527672,18.4882806 79.9859993,19.806978 C78.8192313,21.1256754 77.1074517,21.7848681 74.8509724,21.7848681 C72.594493,21.7848681 70.8817775,21.1244275 69.7128258,19.8038583 Z M72.2085861,14.1135247 C72.2085861,17.0064229 73.0861578,18.453028 74.8416133,18.453028 C76.5970687,18.453028 77.4746404,17.0064229 77.4746404,14.1135247 C77.4746404,11.2206265 76.5970687,9.77402144 74.8416133,9.77402144 C73.0861578,9.77402144 72.2117058,11.2206265 72.2179452,14.1135247 L72.2085861,14.1135247 Z" id="Shape"></path>
                                    <path d="M89.912886,2.2087479 C89.912886,1.79289184 90.4909665,1.58480782 91.6474395,1.58480782 L92.5833496,1.58480782 C93.5317385,1.58480782 94.0911008,1.85934145 94.2617484,2.40840873 L98.4203091,15.7232902 L98.535738,15.7232902 L102.803488,2.40840873 C102.992854,1.85934145 103.552216,1.58480782 104.481887,1.58480782 L105.364762,1.58480782 C106.502517,1.58480782 107.071238,1.79289184 107.071238,2.2087479 C107.067807,2.38251522 107.039417,2.55472268 106.987006,2.72037877 L100.841197,21.0143021 C100.707985,21.4114399 100.1767,21.6111008 99.2470297,21.6132846 L97.7682917,21.6132846 C96.838621,21.6132846 96.307336,21.4136237 96.1741248,21.0143021 L90.0283149,2.72037877 C89.9724723,2.55441071 89.933476,2.38282719 89.912886,2.2087479 Z" id="Shape"></path>
                                    <path d="M108.518779,17.6294271 C108.514724,17.1421299 108.562767,16.6557686 108.662286,16.1787664 C108.789881,15.672439 109.012004,15.1951249 109.317423,14.7717815 C109.669637,14.2551591 110.137592,13.8277602 110.683851,13.5239014 C112.029378,12.7274418 114.030354,12.3290561 116.686155,12.3290561 L116.686155,11.393146 C116.686155,10.3115458 115.946786,9.77090174 114.468048,9.77090174 C113.415149,9.77246159 112.375665,10.0058152 111.42322,10.4541161 C111.232607,10.5520747 111.031698,10.6285074 110.824238,10.6818543 C110.539409,10.6818543 110.222136,10.3876665 109.872729,9.79897904 C109.586029,9.39092223 109.404774,8.91828761 109.3455,8.42319115 C109.3455,7.91156028 109.871793,7.45608402 110.924068,7.05676237 C112.162901,6.62717962 113.46912,6.42439909 114.780018,6.45777989 C118.858403,6.45777989 120.897751,8.04165179 120.897751,11.2090836 L120.897751,16.5344123 C120.88652,17.5230453 120.943922,18.5110545 121.069334,19.4918883 L121.240918,20.6586562 C121.240918,20.9622031 120.857195,21.1899412 120.089748,21.3418706 C119.523523,21.4688424 118.947314,21.5449631 118.367674,21.5696088 C118.11061,21.5920706 117.851987,21.5536983 117.612706,21.4572995 C117.470136,21.3662043 117.360946,21.2317452 117.300736,21.0735764 C117.225863,20.8926338 117.166589,20.7616063 117.129153,20.6461774 C117.072686,20.4646109 117.029946,20.2789887 117.001245,20.0908708 C116.954449,19.8256962 116.920133,19.6634718 116.901414,19.6073172 C116.481191,20.2842922 115.866922,20.8190088 115.138784,21.1422098 C114.392551,21.535916 113.564583,21.7496155 112.721016,21.7661499 C111.265052,21.7661499 110.198114,21.3864823 109.520203,20.6274592 C108.842292,19.8684361 108.508484,18.8688841 108.518779,17.6294271 Z M112.702298,17.2020282 C112.687323,17.5451952 112.82303,17.8777553 113.073542,18.1129807 C113.387384,18.3628687 113.78421,18.484225 114.184155,18.453028 C114.709825,18.4414851 115.218336,18.2624143 115.634816,17.9413972 C116.094036,17.6175723 116.457169,17.1755107 116.686155,16.66232 L116.686155,15.1024698 C114.030354,15.0984142 112.702298,15.798163 112.702298,17.2020282 Z" id="Shape"></path>
                                    <path d="M129.85753,18.453028 L130.624977,18.3375991 C130.870497,18.3375991 131.078269,18.6174362 131.248917,19.1767985 C131.385872,19.567697 131.471975,19.9745059 131.504732,20.3872423 C131.504732,21.316913 130.59378,21.7817484 128.771875,21.7817484 C126.001581,21.7817484 124.616434,20.2459199 124.616434,17.1739509 L124.616434,1.01390264 C124.616434,0.406496966 125.185155,0.102950114 126.32291,0.102950114 L127.118433,0.102950114 C128.256188,0.102950114 128.824909,0.406496966 128.824909,1.01390264 L128.824909,17.2363449 C128.837388,18.047467 129.181491,18.453028 129.85753,18.453028 Z" id="Shape"></path>
                                    <path d="M138.308799,18.453028 L139.076245,18.3375991 C139.321765,18.3375991 139.529538,18.6174362 139.700185,19.1767985 C139.837452,19.567697 139.923244,19.9745059 139.956001,20.3872423 C139.956001,21.316913 139.045048,21.7817484 137.223143,21.7817484 C134.452849,21.7817484 133.068638,20.2459199 133.070822,17.1739509 L133.070822,1.01390264 C133.070822,0.406496966 133.639543,0.102950114 134.777298,0.102950114 L135.572821,0.102950114 C136.710576,0.102950114 137.279298,0.406496966 137.279298,1.01390264 L137.279298,17.2363449 C137.283353,18.047467 137.62652,18.453028 138.308799,18.453028 Z" id="Shape"></path>
                                    <path d="M142.760611,19.775781 C141.537689,18.4383654 140.926227,16.5085188 140.926227,13.985617 C140.926227,11.4627153 141.537689,9.57529652 142.760611,8.32336074 C143.983534,7.07548057 145.661933,6.45154048 147.795808,6.45154048 C149.929683,6.45154048 151.489533,7.13475488 152.475358,8.50118367 C153.471479,9.86761245 153.969695,11.6355467 153.969695,13.8046744 C153.969695,14.0314766 153.775338,14.3684043 153.386311,14.8154573 C152.997284,15.2625104 152.7084,15.485257 152.519034,15.4830732 L145.27821,15.4830732 C145.371801,16.5646734 145.694066,17.3330556 146.245317,17.7885318 C146.843363,18.2602305 147.59022,18.5026313 148.351114,18.4717462 C149.186258,18.4751779 150.015163,18.3260562 150.79696,18.0318685 C151.574701,17.7386166 151.973087,17.5919907 151.991805,17.5919907 C152.276633,17.5919907 152.593907,17.8718278 152.943313,18.4311901 C153.229702,18.8195928 153.411269,19.2750691 153.470543,19.7539431 C153.470543,20.3778832 152.8778,20.8760994 151.692314,21.2482796 C150.612897,21.6008058 149.486373,21.7879878 148.351114,21.8035863 C145.846931,21.7889237 143.983534,21.1131966 142.760611,19.775781 Z M149.889127,12.6472655 C149.925003,11.9156958 149.74718,11.1894295 149.377496,10.5570662 C149.043064,10.038572 148.455624,9.73939277 147.839484,9.77402144 C146.435618,9.77402144 145.581756,10.7317695 145.27821,12.6472655 L149.889127,12.6472655 Z" id="Shape"></path>
                                    <path d="M155.361081,7.24394439 C155.361081,6.82808833 155.939162,6.62000431 157.095635,6.62000431 L158.006587,6.62000431 C158.936258,6.62000431 159.467543,6.81966513 159.600754,7.21898679 L161.266674,12.4788017 C161.437322,13.0091508 161.702496,14.1531449 162.062198,15.9104722 L162.174507,15.9104722 C162.55511,14.0885671 162.820285,12.944573 162.970031,12.4788017 L164.648429,7.21586709 C164.781641,6.81872922 165.312926,6.6190684 166.242596,6.61688461 L166.925811,6.61688461 C168.063566,6.61688461 168.632287,6.82496863 168.632287,7.24082469 C168.626048,7.41428004 168.597658,7.58617553 168.548055,7.75245556 L162.03724,26.8294237 C161.885311,27.2265615 161.354026,27.4262224 160.443073,27.4284062 L159.95952,27.4284062 C158.821765,27.4284062 158.253044,27.2287453 158.253044,26.8294237 C158.25398,26.6528486 158.29204,26.4784574 158.365353,26.3177928 L160.159181,21.5664891 L155.47963,7.76805406 C155.421915,7.59803039 155.381983,7.42239126 155.361081,7.24394439 Z" id="Shape"></path>
                                </g>
                            </g>
                            <text id="Member" font-family="MyriadPro-Semibold, Myriad Pro" font-size="16" font-weight="500">
                                <tspan x="0.881969299" y="43.9042902">Member</tspan>
                            </text>
                        </g>
                    </g>
                </g>
            </g>
        </g>
    </g>
</svg>