<?xml version="1.0" encoding="UTF-8"?>
<svg width="760px" height="760px" viewBox="0 0 760 760" version="1.1" xmlns="http://www.w3.org/2000/svg" xmlns:xlink="http://www.w3.org/1999/xlink">
    <!-- Generator: Sketch 41 (35326) - http://www.bohemiancoding.com/sketch -->
    <title>need</title>
    <desc>Created with Sketch.</desc>
    <defs></defs>
    <g id="Page-1" stroke="none" stroke-width="1" fill="none" fill-rule="evenodd">
        <g id="need">
            <g id="development" transform="translate(32.000000, 73.000000)">
                <path d="M274.999941,447.348478 C272.367196,447.348478 269.715186,446.44307 267.551196,444.600149 L193.089438,381.195922 C190.520906,379.006248 189.043999,375.808424 189.043999,372.430805 C189.043999,369.059604 190.527327,365.861782 193.089438,363.672108 L267.551196,300.267881 C272.38646,296.145387 279.648987,296.729727 283.771481,301.56499 C287.887554,306.406674 287.309635,313.6692 282.46795,317.785273 L218.299585,372.430805 L282.46795,427.076335 C287.309635,431.19883 287.887554,438.461355 283.771481,443.296619 C281.491907,445.974314 278.255556,447.348478 274.999941,447.348478 Z" id="Shape" fill="#FF7900"></path>
                <path d="M421.997063,447.348478 C418.741447,447.348478 415.505096,445.974314 413.231944,443.296619 C409.10945,438.461355 409.69379,431.19883 414.529054,427.076335 L478.697419,372.430805 L414.529054,317.785273 C409.69379,313.6692 409.10945,306.406674 413.231944,301.56499 C417.348017,296.729727 424.616966,296.145387 429.445807,300.267881 L503.907565,363.672108 C506.476098,365.861782 507.953005,369.059604 507.953005,372.430805 C507.953005,375.808424 506.476098,379.006248 503.907565,381.195922 L429.445807,444.600149 C427.281817,446.44307 424.629808,447.348478 421.997063,447.348478 L421.997063,447.348478 Z" id="Shape" fill="#FF7900"></path>
                <path d="M322.138937,494.904859 C321.349112,494.904859 320.552867,494.821383 319.750201,494.654427 C313.534352,493.344475 309.553127,487.23779 310.863078,481.021942 L357.270041,260.686793 C358.579991,254.470945 364.680257,250.489719 370.902527,251.799671 C377.118376,253.109622 381.099601,259.209888 379.78965,265.432158 L333.382688,485.767304 C332.239691,491.186908 327.46222,494.904859 322.138937,494.904859 L322.138937,494.904859 Z" id="Shape" fill="#FF7900"></path>
                <path d="M619.735543,614.945231 L77.2614603,614.945231 C34.6623481,614.945231 0,580.289304 0,537.683771 L0,77.2614603 C0,34.6623481 34.6623481,0 77.2614603,0 L619.735543,0 C662.334655,0 696.997004,34.6623481 696.997004,77.2614603 L696.997004,537.683771 C696.997004,580.289304 662.334655,614.945231 619.735543,614.945231 Z M77.2614603,23.014052 C47.3508991,23.014052 23.014052,47.3508991 23.014052,77.2614603 L23.014052,537.683771 C23.014052,567.594332 47.3508991,591.931179 77.2614603,591.931179 L619.735543,591.931179 C649.646104,591.931179 673.982952,567.594332 673.982952,537.683771 L673.982952,77.2614603 C673.982952,47.3508991 649.646104,23.014052 619.735543,23.014052 L77.2614603,23.014052 Z" id="Shape" fill="#69737B"></path>
                <path d="M685.489978,184.260107 L11.507026,184.260107 C5.14990702,184.260107 0,179.110198 0,172.753081 C0,166.402383 5.14990702,161.246055 11.507026,161.246055 L685.489978,161.246055 C691.847097,161.246055 696.997004,166.402383 696.997004,172.753081 C696.997004,179.110198 691.847097,184.260107 685.489978,184.260107 Z" id="Shape" fill="#69737B"></path>
                <path d="M196.608326,129.197189 C176.535245,129.197189 160.192957,112.854901 160.192957,92.7818181 C160.192957,72.7023141 176.535245,56.3664469 196.608326,56.3664469 C216.68783,56.3664469 233.023697,72.7023141 233.023697,92.7818181 C233.023697,112.854901 216.68783,129.197189 196.608326,129.197189 Z M196.608326,79.3804989 C189.223796,79.3804989 183.207009,85.3908651 183.207009,92.7818181 C183.207009,100.172771 189.223796,106.183137 196.608326,106.183137 C203.999279,106.183137 210.009645,100.172771 210.009645,92.7818181 C210.009645,85.3908651 203.999279,79.3804989 196.608326,79.3804989 Z" id="Shape" fill="#69737B"></path>
                <path d="M84.7230467,128.844016 C64.6435444,128.844016 48.3076771,112.508148 48.3076771,92.4286444 C48.3076771,72.3491421 64.6435444,56.0132749 84.7230467,56.0132749 C104.802551,56.0132749 121.138418,72.3491421 121.138418,92.4286444 C121.138418,112.508148 104.802551,128.844016 84.7230467,128.844016 Z M84.7230467,79.0273269 C77.3385163,79.0273269 71.3217291,85.0441141 71.3217291,92.4286444 C71.3217291,99.8195974 77.3385163,105.829964 84.7230467,105.829964 C92.1139996,105.829964 98.1243659,99.8195974 98.1243659,92.4286444 C98.1243659,85.0441141 92.1139996,79.0273269 84.7230467,79.0273269 Z" id="Shape" fill="#69737B"></path>
                <path d="M308.493606,129.543942 C288.420525,129.543942 272.084657,113.208075 272.084657,93.1285708 C272.084657,73.0554878 288.420525,56.7196205 308.493606,56.7196205 C328.57311,56.7196205 344.908977,73.0554878 344.908977,93.1285708 C344.908977,113.208075 328.57311,129.543942 308.493606,129.543942 Z M308.493606,79.7272516 C301.109076,79.7272516 295.098709,85.7376179 295.098709,93.1285708 C295.098709,100.519524 301.109076,106.52989 308.493606,106.52989 C315.884559,106.52989 321.894925,100.519524 321.894925,93.1285708 C321.894925,85.7376179 315.884559,79.7272516 308.493606,79.7272516 Z" id="Shape" fill="#69737B"></path>
            </g>
        </g>
    </g>
</svg>