<?xml version="1.0" encoding="UTF-8"?>
<svg width="100px" height="100px" viewBox="0 0 100 100" version="1.1" xmlns="http://www.w3.org/2000/svg" xmlns:xlink="http://www.w3.org/1999/xlink">
    <!-- Generator: Sketch 41 (35326) - http://www.bohemiancoding.com/sketch -->
    <title>adv</title>
    <desc>Created with Sketch.</desc>
    <defs></defs>
    <g id="Page-1" stroke="none" stroke-width="1" fill="none" fill-rule="evenodd">
        <g id="adv" fill="#69737B">
            <g id="ex10" transform="translate(6.000000, 7.000000)">
                <path d="M72.5100803,45.5845756 C71.8038629,45.5845756 71.2313376,46.1571008 71.2313376,46.8633183 C71.2313376,47.7586612 70.5029812,48.4870177 69.6076382,48.4870177 C68.7124669,48.4870177 67.9839388,47.7586612 67.9839388,46.8633183 C67.9839388,46.1569292 67.4114136,45.5845756 66.7051962,45.5845756 C65.9989787,45.5845756 65.4264535,46.1571008 65.4264535,46.8633183 C65.4264535,49.168865 67.3022631,51.044503 69.6076382,51.044503 C71.9130133,51.044503 73.7888229,49.1686934 73.7888229,46.8633183 C73.7888229,46.1567576 73.2162977,45.5845756 72.5100803,45.5845756 Z" id="Shape"></path>
                <path d="M84.5133738,45.7934375 L80.9141534,44.6404925 C80.4531814,44.4927274 80.0898613,44.1247736 79.9424394,43.6560786 C79.1838778,41.2442989 78.0391706,38.9801126 76.5400675,36.9261612 C75.8568472,35.9899726 75.0970843,35.0960026 74.2671286,34.2449377 C74.7981218,31.9155357 75.0867871,29.2792767 75.0493738,27.0017041 C74.9958283,23.7434932 74.344701,21.8325014 73.0589219,21.1590635 C72.3664341,20.795915 70.2589372,19.6927399 58.8518525,24.9144583 C58.5817221,25.0380249 58.3294403,25.1902521 58.0958652,25.3646183 C57.3268347,25.1579875 56.5408139,24.9668025 55.7499876,24.7951822 C55.6547384,24.7744162 55.5565716,24.7560528 55.4606359,24.7358016 C56.3849827,22.7165175 56.9247284,20.523382 57.026156,18.2593673 C57.0577341,17.5536648 56.5114668,16.956083 55.8057642,16.9246765 C55.1019495,16.8896659 54.5024799,17.4391941 54.4710734,18.1448966 C54.3044301,21.867512 52.7601909,25.3701101 50.1230737,28.0073989 C48.547428,29.5830446 46.7025101,30.7275802 44.7362566,31.4483853 C41.3263334,30.969908 37.8530823,30.969908 34.4431591,31.4483853 C32.476734,30.7275802 30.6319877,29.5830446 29.056342,28.0073989 C26.2427992,25.1938561 24.6932398,21.453049 24.6932398,17.474033 C24.6932398,13.4948453 26.2427992,9.75420985 29.056342,6.94066709 C31.8698847,4.12695271 35.6108634,2.57739326 39.5897079,2.57739326 C43.5685523,2.57739326 47.309531,4.12695271 50.1230737,6.94066709 C51.2537081,8.07130145 52.1880089,9.36154266 52.9000614,10.7751789 C53.2177305,11.406055 53.986761,11.660053 54.6174655,11.3422122 C55.2483416,11.0247147 55.502168,10.2556843 55.1844988,9.62497978 C54.3499095,7.96729956 53.255487,6.45583982 51.9317798,5.13196103 C48.635126,1.8353072 44.2519442,0.0197363314 39.5898795,0.0197363314 C34.9278148,0.0197363314 30.544633,1.8353072 27.2479792,5.13196103 C23.9513253,8.42878648 22.1357545,12.8117966 22.1357545,17.4738614 C22.1357545,22.1359261 23.9513253,26.5191079 27.2479792,29.8157617 C28.1989271,30.7667096 29.2334541,31.5844802 30.327705,32.2695883 C30.3280482,32.2695883 30.3283914,32.2694167 30.3287347,32.2694167 C29.5336179,32.4760475 28.7445079,32.7080781 27.9641506,32.968941 C27.2943166,33.1929054 26.9328843,33.9173146 27.1568488,34.5873201 C27.3806416,35.2571541 28.105394,35.6185864 28.7750563,35.3947935 C35.7490178,33.0633321 43.4307412,33.0633321 50.4047026,35.3947935 C50.5392529,35.439758 50.6758626,35.4610389 50.8102413,35.4610389 C51.3451817,35.4610389 51.8439102,35.1226038 52.0229102,34.5873201 C52.2468746,33.9174862 51.8854423,33.1929054 51.2156084,32.968941 C50.435251,32.7080781 49.646141,32.4758759 48.8510243,32.2694167 C48.8513675,32.2694167 48.8517108,32.2695883 48.852054,32.2695883 C49.9464765,31.5844802 50.9808319,30.7667096 51.9317798,29.8157617 C52.7730624,28.9744791 53.5156633,28.0557958 54.1604407,27.079448 C54.5129487,27.1479245 54.8628824,27.2196618 55.2076676,27.2944882 C55.6669234,27.3941996 56.1241198,27.5012907 56.5771974,27.613702 C56.5629529,27.6693069 56.5483652,27.7247403 56.5365234,27.7812033 C55.9128553,30.740795 55.9533577,33.3583474 56.6568292,35.5607503 C57.2890782,37.5403902 58.4301814,39.1441816 60.0480458,40.3278467 C61.9549186,41.7227762 64.257033,42.325335 66.3423909,42.325335 C67.9118583,42.325335 69.3587888,41.9838107 70.4214616,41.3819384 C71.6234899,40.7011207 72.6305577,39.2665469 73.4277339,37.1127125 C73.7962026,37.5427929 74.1454499,37.9833421 74.4746175,38.4343602 C75.8093084,40.2628026 76.828218,42.2779678 77.5030289,44.4235645 C77.8993001,45.6837721 78.8830275,46.6753941 80.1343109,47.0764707 L83.7335313,48.2294156 C84.6779576,48.5319822 85.3124378,49.4012389 85.3124378,50.3928608 L85.3124378,56.3609558 C85.3124378,57.3525778 84.6779576,58.2218344 83.7335313,58.524401 L77.9346539,60.3818472 C77.0068747,60.6792651 76.2217119,61.3168344 75.7238415,62.1773385 C73.4455824,66.1146508 69.8636957,69.3728617 65.0770346,71.8615273 C64.5240741,72.1493345 64.1410177,72.6640237 64.0256888,73.2739621 L62.1684142,83.1083186 C62.1170998,83.379307 61.8797489,83.5758123 61.6039552,83.5758123 L55.5651526,83.5758123 C55.2893588,83.5758123 55.052008,83.3791354 55.0006935,83.1083186 L53.9720016,77.6732762 C53.7694897,76.6039103 52.7665408,75.893574 51.6870493,76.0571281 C49.0858008,76.4504817 46.4054354,76.6497329 43.7207795,76.6497329 C41.7234627,76.6497329 39.7517174,76.5383513 37.8599471,76.3185058 C36.8139216,76.1981999 35.8394616,76.9112822 35.6439862,77.944093 L34.6664371,83.1083186 C34.6151226,83.379307 34.3777718,83.5758123 34.101978,83.5758123 L28.0631754,83.5758123 C27.7873817,83.5758123 27.5500308,83.3791354 27.4980299,83.1041997 L25.7097466,73.8157673 C25.5945894,73.2173274 25.218741,72.7084733 24.6779656,72.4196364 C16.5184513,68.0637422 12.2056338,60.7863562 12.2056338,51.3747004 C12.2056338,46.6194459 13.2459959,42.4145776 15.2977163,38.876454 C17.2123121,35.5746516 20.0086928,32.8446879 23.6091145,30.7620759 C24.2204259,30.4083665 24.4292878,29.6261213 24.07575,29.0146382 C23.7222123,28.4033268 22.9399671,28.1948082 22.328484,28.5480027 C15.3471429,32.586571 11.1364395,38.8170734 9.97714458,46.7304842 L9.97714458,46.7303126 C9.85409285,46.7191572 9.73086949,46.7085168 9.60816099,46.6958169 C9.63047163,45.842006 9.47601338,44.9804723 9.13963765,44.1443383 C8.39772321,42.3001068 6.87373518,40.96902 5.25690059,40.7532933 C3.98279168,40.5827028 2.77029445,41.1236499 1.92884025,42.235406 C0.708791728,43.8476068 0.907699625,45.1234319 1.28921149,45.909796 C1.93330238,47.2369356 3.58892315,48.1756985 6.33639211,48.7659006 C6.26087919,48.8789984 6.17781497,48.992611 6.08685623,49.1067385 C4.46350006,51.1426698 2.55096374,51.5928298 1.30911944,51.63522 C0.582135967,51.6597617 0,52.2434422 0,52.9709406 L0,52.9771189 C0,53.6946632 0.566175281,54.2798884 1.28303316,54.3126679 C1.37485001,54.3169584 1.47078574,54.3191894 1.57066874,54.3191894 C3.14202396,54.3191894 5.66398388,53.7396278 8.08691889,50.7014341 C8.46946048,50.221927 8.7811229,49.7159905 9.0207048,49.1932351 C9.2620029,49.2205227 9.49386189,49.2438631 9.71593853,49.2644575 C9.71593853,49.2639427 9.71593853,49.2635994 9.71611015,49.2630846 C9.6725186,49.9560872 9.64832014,50.6592155 9.64832014,51.3747004 C9.64832014,56.6997342 10.9177953,61.4476091 13.4212202,65.4870355 C15.7295129,69.2111954 19.0344045,72.2605444 23.247339,74.5537345 L24.9858523,83.5837068 C25.2654218,85.0610141 26.5596102,86.1332976 28.0631754,86.1332976 L34.101978,86.1332976 C35.6055432,86.1332976 36.8997317,85.0610141 37.1793011,83.5837068 L38.0631455,78.9142624 C39.898796,79.1087082 41.7993189,79.2072182 43.7206078,79.2072182 C46.3566952,79.2072182 48.9896935,79.0235845 51.5557598,78.6611225 L52.4874862,83.58405 C52.7672273,85.0613573 54.0614158,86.1334692 55.5648094,86.1334692 L61.6036119,86.1334692 C63.1071771,86.1334692 64.4013656,85.0611857 64.6811067,83.5833635 L66.4894695,74.0084969 C71.5982618,71.3070222 75.4490775,67.7582582 77.9372282,63.4581406 C78.1165714,63.1481944 78.3927084,62.9207975 78.714668,62.8176537 L84.5133738,60.9602075 C86.5208161,60.3168031 87.8695799,58.4686244 87.8695799,56.3606126 L87.8695799,50.3925176 C87.8695799,48.2846774 86.5208161,46.4364987 84.5133738,45.7934375 Z M72.2998454,30.595261 C71.8076385,34.8044198 70.4873637,38.4050131 69.160739,39.1563667 C67.6528833,40.0105208 64.1715661,40.1754478 61.5577893,38.2634264 C58.9409234,36.3491739 58.0699505,32.9068144 59.0387469,28.3084208 L59.0387469,28.3082492 C59.1360556,27.846419 59.4641936,27.446887 59.916413,27.239913 C66.3185357,24.3093252 70.0095729,23.350826 71.3808189,23.350826 C71.5877929,23.350826 71.7419079,23.3726218 71.8445369,23.4127809 C72.2564255,23.8517856 72.7966861,26.347316 72.2998454,30.595261 Z M3.59046774,44.7930629 C3.4581485,44.5201867 3.7704974,44.040508 3.9685472,43.7786155 C4.28244068,43.3639809 4.57162084,43.2792005 4.79009344,43.2792005 C4.8362593,43.2792005 4.87933599,43.2829761 4.91880865,43.2882964 C5.50677971,43.3667268 6.33055702,44.0137353 6.76698737,45.098547 C6.86978791,45.353918 7.00330849,45.7769619 7.03454338,46.3045227 C5.26428026,45.9377701 3.88891539,45.4090081 3.59046774,44.7930629 Z" id="Shape"></path>
                <path d="M40.8315522,16.0082242 L40.8315522,11.4321413 C42.4096006,11.5448958 42.9958554,12.2662158 43.5368025,12.2662158 C44.213158,12.2662158 44.5287677,11.409659 44.5287677,10.9812948 C44.5287677,9.8765751 42.3644644,9.40324639 40.8315522,9.35811026 L40.8315522,8.74920153 C40.8315522,8.47872798 40.4932886,8.23073668 40.1551967,8.23073668 C39.771797,8.23073668 39.5013234,8.47872798 39.5013234,8.74920153 L39.5013234,9.40290315 C37.359674,9.62841219 35.2180246,10.7556141 35.2180246,13.5961013 C35.2180246,16.4817246 37.4724285,17.2933168 39.5013234,18.0146368 L39.5013234,23.312383 C37.2017834,23.1320101 36.5932179,21.5539617 35.849244,21.5539617 C35.285643,21.5539617 34.8123143,22.2979356 34.8123143,22.8390543 C34.8123143,23.9436024 36.7059724,25.4540324 39.5013234,25.4991686 L39.5013234,25.4991686 L39.5013234,26.1980063 C39.5013234,26.4684799 39.7719686,26.7164712 40.1551967,26.7164712 C40.4934602,26.7164712 40.8315522,26.4684799 40.8315522,26.1980063 L40.8315522,25.4315502 C43.266329,25.0932866 44.934478,23.5603743 44.934478,20.7875056 C44.934478,17.721681 42.7928286,16.7295442 40.8315522,16.0082242 Z M39.6365602,15.5800316 C38.4417398,15.1291852 37.4724285,14.6558565 37.4724285,13.3709355 C37.4724285,12.1985974 38.3741215,11.6349964 39.6365602,11.4772774 L39.6365602,15.5800316 L39.6365602,15.5800316 Z M40.6961438,23.2672469 L40.6961438,18.5106194 C41.8006918,18.9839481 42.6799025,19.6151675 42.6799025,21.0353253 C42.6799025,22.3205895 41.9134464,23.0419095 40.6961438,23.2672469 Z" id="Shape"></path>
            </g>
        </g>
    </g>
</svg>