<?xml version="1.0" encoding="UTF-8"?>
<svg width="100px" height="100px" viewBox="0 0 100 100" version="1.1" xmlns="http://www.w3.org/2000/svg" xmlns:xlink="http://www.w3.org/1999/xlink">
    <!-- Generator: Sketch 41 (35326) - http://www.bohemiancoding.com/sketch -->
    <title>adv</title>
    <desc>Created with Sketch.</desc>
    <defs></defs>
    <g id="Page-1" stroke="none" stroke-width="1" fill="none" fill-rule="evenodd">
        <g id="adv" fill="#69737B">
            <g id="ex2" transform="translate(7.000000, 7.000000)">
                <path d="M25.015867,17.2819791 L22.0152264,14.2813385 L17.7129922,14.2813385 L19.5640452,12.4302853 L19.5640452,7.05611172 C19.5640452,3.16514933 16.3988957,0 12.5079335,0 C8.61697127,0 5.45182177,3.16514933 5.45182177,7.05611172 L5.45182177,12.4302853 L7.30287481,14.2813385 L3.00064061,14.2813385 L0,17.2819791 L0,31.4165756 L25.015867,31.4165756 L25.015867,17.2819791 Z M7.97867702,11.3840093 L7.97867702,7.05611172 C7.97867702,4.55886802 10.0106898,2.52685525 12.5079335,2.52685525 C15.0051772,2.52685525 17.03719,4.55886802 17.03719,7.05611172 L17.03719,11.3840093 L14.1392029,14.2813385 L10.8760061,14.2813385 L7.97867702,11.3840093 Z M22.4890117,28.8897204 L2.52685525,28.8897204 L2.52685525,18.328255 L4.0469167,16.8081937 L20.9682923,16.8081937 L22.4890117,18.328255 L22.4890117,28.8897204 Z" id="Shape"></path>
                <path d="M83.249352,69.1147554 L78.9471178,69.1147554 L80.7981708,67.2637024 L80.7981708,61.8895287 C80.7981708,57.9985664 77.6330213,54.8334169 73.7420591,54.8334169 C69.8517549,54.8334169 66.6866055,57.9985664 66.6866055,61.8895287 L66.6866055,67.2637024 L68.5370004,69.1147554 L64.2347662,69.1147554 L61.2341256,72.115396 L61.2341256,86.2499926 L86.2499926,86.2499926 L86.2499926,72.115396 L83.249352,69.1147554 Z M69.2128026,66.2174263 L69.2128026,61.8895287 C69.2128026,59.391627 71.2448154,57.3602722 73.7420591,57.3602722 C76.2393028,57.3602722 78.2713156,59.392285 78.2713156,61.8895287 L78.2713156,66.2174263 L75.3733284,69.1147554 L72.1101317,69.1147554 L69.2128026,66.2174263 Z M83.7231373,83.7231373 L63.7609808,83.7231373 L63.7609808,73.1616721 L65.2810423,71.6416107 L82.2024179,71.6416107 L83.7231373,73.1616721 L83.7231373,83.7231373 Z" id="Shape"></path>
                <path d="M25.7416799,33.0886431 L25.7416799,53.1613495 L43.1249963,63.1977027 L60.5083127,53.1613495 L60.5083127,33.0886431 L43.1249963,23.0522899 L25.7416799,33.0886431 Z M57.9814574,51.7024854 L43.1249963,60.2799746 L28.2685351,51.7024854 L28.2685351,34.5475071 L43.1249963,25.970018 L57.9814574,34.5475071 L57.9814574,51.7024854 Z" id="Shape"></path>
                <path d="M17.1405015,50.7516246 L22.4232082,50.7516246 L12.5072755,33.5795374 L2.59265877,50.7516246 L7.87536553,50.7516246 L7.87536553,78.374627 L57.0227002,78.374627 L57.0227002,69.1094911 L17.1405015,69.1094911 L17.1405015,50.7516246 Z M54.4958449,71.6363464 L54.4958449,75.8477718 L10.4022208,75.8477718 L10.4022208,48.2247693 L6.96925108,48.2247693 L12.5072755,38.6325898 L18.0466159,48.2247693 L14.6136462,48.2247693 L14.6136462,71.6363464 L54.4958449,71.6363464 Z" id="Shape"></path>
                <path d="M69.1094911,34.8245399 L63.8267844,34.8245399 L73.7414011,51.9966271 L83.6573338,34.8245399 L78.374627,34.8245399 L78.374627,7.87536553 L29.1108202,7.87536553 L29.1108202,17.1405015 L69.1094911,17.1405015 L69.1094911,34.8245399 Z M31.6376755,14.6136462 L31.6376755,10.4022208 L75.8477718,10.4022208 L75.8477718,37.3513952 L79.2807415,37.3513952 L73.7414011,46.9435747 L68.2033767,37.3513952 L71.6363464,37.3513952 L71.6363464,14.6136462 L31.6376755,14.6136462 Z" id="Shape"></path>
                <polygon id="Shape" points="31.0059617 34.6692438 29.742534 36.8578688 41.8615687 43.8540993 41.8615687 57.8478764 44.3884239 57.8478764 44.3884239 43.8540993 56.5074586 36.8578688 55.2440309 34.6692438 43.1249963 41.6661322"></polygon>
            </g>
        </g>
    </g>
</svg>