<?xml version="1.0" encoding="UTF-8"?>
<svg width="100px" height="100px" viewBox="0 0 100 100" version="1.1" xmlns="http://www.w3.org/2000/svg" xmlns:xlink="http://www.w3.org/1999/xlink">
    <!-- Generator: Sketch 41 (35326) - http://www.bohemiancoding.com/sketch -->
    <title>adv</title>
    <desc>Created with Sketch.</desc>
    <defs></defs>
    <g id="Page-1" stroke="none" stroke-width="1" fill="none" fill-rule="evenodd">
        <g id="adv" stroke="#69737B" fill="#69737B">
            <g id="ex3" transform="translate(14.000000, 16.000000)">
                <path d="M35.1176691,61.0729698 C35.1176691,57.2919009 32.0527065,54.2269383 28.272315,54.2269383 C24.4912461,54.2269383 21.4262833,57.2919009 21.4262833,61.0722924 C21.4262833,64.8533615 24.4912461,67.9183239 28.272315,67.9183239 C32.050674,67.914259 35.1136041,64.8520064 35.1176691,61.0729698 L35.1176691,61.0729698 Z M23.8544058,61.0729698 C23.8544058,58.6326527 25.8319977,56.6550607 28.272315,56.6550607 C30.7119547,56.6550607 32.6895467,58.6326527 32.6895467,61.0722924 C32.6895467,63.5126097 30.7119547,65.4902014 28.272315,65.4902014 C25.8333528,65.4874917 23.8571159,63.5112546 23.8544058,61.0729698 L23.8544058,61.0729698 Z" id="Shape"></path>
                <path d="M53.6212627,67.9183239 C57.4023317,67.9190015 60.4672943,64.8540389 60.4672943,61.0729698 C60.4679717,57.2919009 57.4030091,54.2269383 53.6219402,54.2269383 C49.8408713,54.2269383 46.7759087,57.2919009 46.7759087,61.0729698 C46.780651,64.851329 49.8422261,67.9135816 53.6212627,67.9183239 L53.6212627,67.9183239 Z M53.6212627,56.6550607 C56.0609025,56.6550607 58.0391718,58.6326527 58.0391718,61.0722924 C58.0398493,63.5119321 56.0615799,65.4902014 53.6219402,65.4902014 C51.1823005,65.4902014 49.2040311,63.5126097 49.2040311,61.0729698 C49.2067411,58.6346852 51.1829779,56.6584483 53.6212627,56.6550607 L53.6212627,56.6550607 Z" id="Shape"></path>
                <path d="M1.21406121,2.42812242 L8.61969915,2.42812242 C11.0566289,2.41863748 13.1344893,4.19298257 13.5057535,6.60213529 L19.3680703,43.6330348 C19.9215792,47.2237292 23.0190612,49.8693257 26.6524376,49.8550985 L62.8886417,49.8550985 C63.558679,49.8550985 64.1027029,49.3110744 64.1027029,48.6410373 C64.1027029,47.9703227 63.558679,47.4269761 62.8886417,47.4269761 L26.6524376,47.4269761 C24.2155078,47.4364608 22.1376474,45.6614385 21.7663832,43.2529632 L20.769796,36.9570532 L57.8819943,36.9570532 C61.0241906,36.9556981 63.8208673,34.9652338 64.8506513,31.9971523 L71.7359773,12.1250298 C71.8653779,11.7537656 71.8064362,11.343207 71.5787998,11.0227545 C71.3504858,10.7029795 70.9819315,10.5126048 70.5889876,10.5126048 L16.5829108,10.5126048 L15.9040664,6.22206371 C15.3505574,2.63136928 12.2530755,-0.0142272712 8.61969915,-3.62467082e-15 L1.21406121,-3.62467082e-15 C0.543346505,-3.62467082e-15 0,0.544024125 0,1.21406121 C0,1.88477592 0.543346505,2.42812242 1.21406121,2.42812242 L1.21406121,2.42812242 Z M68.8830689,12.9414048 L62.5566719,31.2017797 C61.8656326,33.1929212 59.9896642,34.5282531 57.8819943,34.5289307 L20.384982,34.5289307 L16.9670474,12.9407272 L68.8830689,12.9414048 Z" id="Shape"></path>
            </g>
        </g>
    </g>
</svg>