<?xml version="1.0" encoding="UTF-8"?>
<svg width="100px" height="100px" viewBox="0 0 100 100" version="1.1" xmlns="http://www.w3.org/2000/svg" xmlns:xlink="http://www.w3.org/1999/xlink">
    <!-- Generator: Sketch 41 (35326) - http://www.bohemiancoding.com/sketch -->
    <title>adv</title>
    <desc>Created with Sketch.</desc>
    <defs></defs>
    <g id="Page-1" stroke="none" stroke-width="1" fill="none" fill-rule="evenodd">
        <g id="adv" fill="#69737B">
            <g id="ex4" transform="translate(21.000000, 14.000000)">
                <g id="Group" transform="translate(0.000000, 0.000000)">
                    <path d="M37.4866459,15.053961 L20.3120692,15.053961 C16.7409487,15.053961 13.8356189,17.9592909 13.8356189,21.5304113 L13.8356189,38.704988 C13.8356189,42.2761084 16.7409487,45.1814383 20.3120692,45.1814383 L37.4866459,45.1814383 C41.0577663,45.1814383 43.9630962,42.2761084 43.9630962,38.704988 L43.9630962,21.5304113 C43.9633236,17.9592909 41.0579937,15.053961 37.4866459,15.053961 Z M40.5525113,38.7052154 C40.5525113,40.3958413 39.1772718,41.7708535 37.4868733,41.7708535 L20.3122966,41.7708535 C18.6216706,41.7708535 17.2466585,40.395614 17.2466585,38.7052154 L17.2466585,21.5306387 C17.2466585,19.8400128 18.621898,18.4650007 20.3122966,18.4650007 L37.4868733,18.4650007 C39.1774992,18.4650007 40.5525113,19.8402402 40.5525113,21.5306387 L40.5525113,38.7052154 Z" id="Shape"></path>
                    <rect id="Rectangle-path" x="16.2006761" y="53.0704197" width="2.96263153" height="10.9098241"></rect>
                    <path d="M57.1081393,11.9885503 L45.619614,0.499570303 C45.2996798,0.179636113 44.8660519,0 44.4135508,0 L1.89686639,0 C0.954800046,0 0.191460262,0.763567172 0.191460262,1.70540613 L0.191460262,70.6465627 C0.191460262,71.5884017 0.954800046,72.3519688 1.89686639,72.3519688 L55.9023034,72.3519688 C56.8443698,72.3519688 57.6077096,71.5884017 57.6077096,70.6465627 L57.6077096,13.1941588 C57.6077096,12.7418851 57.4280735,12.3082571 57.1081393,11.9885503 Z M46.1189569,5.82248392 L51.7849983,11.4887526 L46.1189569,11.4887526 L46.1189569,5.82248392 Z M3.60227252,3.41081226 L42.7083721,3.41081226 L42.7083721,5.74449001 L3.60227252,5.74449001 L3.60227252,3.41081226 Z M54.1968973,68.9411566 L3.60227252,68.9411566 L3.60227252,9.15530228 L42.7083721,9.15530228 L42.7083721,13.1943862 C42.7083721,14.1364525 43.4717118,14.8997923 44.4137782,14.8997923 L54.1968973,14.8997923 L54.1968973,68.9411566 Z" id="Shape"></path>
                    <polygon id="Shape" points="25.1624716 26.4360689 27.1939514 26.4360689 27.1939514 33.7995578 25.1624716 33.7995578 25.1624716 37.2103701 32.6360161 37.2103701 32.6360161 33.7995578 30.6045363 33.7995578 30.6045363 26.4360689 32.6360161 26.4360689 32.6360161 23.0252566 25.1624716 23.0252566"></polygon>
                    <path d="M26.3794494,55.3315609 C26.8419556,55.3315609 27.2749013,55.3961389 27.677832,55.5257498 C28.0807626,55.6549059 28.4836932,55.8143045 28.8866238,56.0032635 L29.7895795,53.6825468 C28.7151737,53.1702428 27.5882413,52.9139771 26.4092372,52.9139771 C25.3296014,52.9139771 24.3907185,53.1440933 23.5921336,53.6040981 C22.7935488,54.064103 22.1816491,54.7223898 21.7564345,55.5778215 C21.3312199,56.433708 21.1183852,57.4262544 21.1183852,58.5554606 C21.1183852,60.361372 21.5574704,61.7418414 22.4356409,62.6970962 C23.3133566,63.6523511 24.5758119,64.1298648 26.2225521,64.1298648 C27.3717684,64.1298648 28.4016063,63.9283995 29.3118384,63.5254688 L29.3118384,61.0330746 C28.8541074,61.222261 28.3988777,61.3839335 27.9463766,61.5180921 C27.4936481,61.6524781 27.025912,61.7197848 26.5433958,61.7197848 C24.9466809,61.7197848 24.148096,60.6701642 24.148096,58.5704682 C24.148096,57.5606404 24.3443314,56.768195 24.7374844,56.1938142 C25.1306374,55.6189786 25.6777317,55.3315609 26.3794494,55.3315609 Z" id="Shape"></path>
                    <path d="M36.3563027,52.8987422 C34.6252018,52.8987422 33.3054448,53.3776202 32.397714,54.3353763 C31.4897557,55.292905 31.0358903,56.6797412 31.0358903,58.4954303 C31.0358903,60.3311295 31.492257,61.7293351 32.4049904,62.6891377 C33.3179511,63.649395 34.6299769,64.12941 36.3415225,64.12941 C38.0778533,64.12941 39.396246,63.6518963 40.2967004,62.6966415 C41.1971548,61.7413866 41.6473821,60.3459097 41.6473821,58.5104379 C41.6473821,56.6695088 41.1994287,55.2740318 40.3042042,54.3240069 C39.4085249,53.373982 38.0926335,52.8987422 36.3563027,52.8987422 Z M38.0016785,60.9057376 C37.641042,61.418269 37.0875808,61.6745347 36.3412951,61.6745347 C34.8737363,61.6745347 34.1399569,60.6196842 34.1399569,58.5106653 C34.1399569,56.3814089 34.8787388,55.3165533 36.3560753,55.3165533 C37.0823509,55.3165533 37.6285357,55.576912 37.9941747,56.0964924 C38.3595864,56.6165275 38.5426333,57.4210244 38.5426333,58.5106653 C38.5428607,59.5950762 38.3623151,60.393661 38.0016785,60.9057376 Z" id="Shape"></path>
                </g>
            </g>
        </g>
    </g>
</svg>