<?xml version="1.0" encoding="UTF-8"?>
<svg width="100px" height="100px" viewBox="0 0 100 100" version="1.1" xmlns="http://www.w3.org/2000/svg" xmlns:xlink="http://www.w3.org/1999/xlink">
    <!-- Generator: Sketch 41 (35326) - http://www.bohemiancoding.com/sketch -->
    <title>adv</title>
    <desc>Created with Sketch.</desc>
    <defs></defs>
    <g id="Page-1" stroke="none" stroke-width="1" fill="none" fill-rule="evenodd">
        <g id="adv" fill="#69737B">
            <g id="ex5" transform="translate(8.000000, 14.000000)">
                <path d="M82.7516446,0 L1.40996894,0 C0.638545686,0 0,0.700881155 0,1.47230441 L0,41.2393653 C0.00425371457,41.6079249 0.155609192,41.9595034 0.420401081,42.2159006 C0.685192971,42.4722979 1.0414635,42.6122522 1.40996894,42.6046343 L19.5562256,42.6046343 L19.5562256,71.1651048 C19.5562256,71.9365281 20.1813263,72.6374092 20.9530988,72.6374092 L63.2085148,72.6374092 C63.9801126,72.6374092 64.605388,71.9365281 64.605388,71.1651048 L64.605388,42.6046343 L82.7516446,42.6046343 C83.1201501,42.6122522 83.4764206,42.4722979 83.7412125,42.2159006 C84.0060044,41.9595034 84.1573599,41.6079249 84.1616136,41.2393653 L84.1616136,1.47230441 C84.1616136,0.700881155 83.5230679,0 82.7516446,0 Z M19.5562256,26.715201 L11.8734227,26.715201 L11.8734227,15.8894333 L19.5562256,15.8894333 L19.5562256,26.715201 Z M61.8116415,69.8436627 L22.3499721,69.8436627 L22.3499721,15.8894333 L23.5722362,15.8894333 L23.5722362,67.6041257 C23.5751953,67.7866546 23.6158571,67.9666009 23.6916688,68.1326676 C23.9162175,68.6472804 24.4270605,68.9774334 24.988491,68.9707916 L59.6484087,68.9707916 C60.4198319,68.9707916 61.1137287,68.3758982 61.1137287,67.6043003 L61.1137287,15.8894333 L61.8121653,15.8894333 L61.8116415,69.8436627 Z M56.957507,56.9225851 C52.3478252,56.9225851 48.5413456,60.6202832 48.5413456,65.2303142 L48.5413456,66.1768704 L35.620268,66.1768704 L35.620268,65.3094121 C35.6282032,60.6936924 31.899064,56.9422156 27.2833792,56.9225851 L26.3659827,56.9225851 L26.3659827,15.8894333 L58.3194584,15.8894333 L58.3194584,56.9225851 L56.957507,56.9225851 Z M58.3194584,59.7163316 L58.3194584,66.1768704 L51.3350921,66.1768704 L51.3350921,65.2303142 C51.3350921,62.1608598 53.887878,59.7163316 56.957507,59.7163316 L58.3194584,59.7163316 Z M27.2833792,59.7163316 C30.3568418,59.7342192 32.8361987,62.2359127 32.8265215,65.3094121 L32.8265215,66.1768704 L26.3659827,66.1768704 L26.3659827,59.7163316 L27.2833792,59.7163316 Z M81.3678671,39.8108878 L64.605388,39.8108878 L64.605388,29.5089475 L73.7137001,29.5089475 C74.0734246,29.5242448 74.4236388,29.3910973 74.682342,29.1406809 C74.9410452,28.8902644 75.0855196,28.5445689 75.0819374,28.184537 L75.0819374,14.5274818 C75.0981368,13.7547991 74.486322,13.1145641 73.7137001,13.0956868 L10.4479135,13.0956868 C9.6752916,13.1145641 9.06347675,13.7547991 9.07967615,14.5274818 L9.07967615,28.1848863 C9.0761904,28.5448578 9.22070718,28.8904612 9.47939931,29.140801 C9.73809145,29.3911408 10.0882502,29.5242413 10.4479135,29.5089475 L19.5562256,29.5089475 L19.5562256,39.8108878 L2.79374651,39.8108878 L2.79374651,2.79374651 L81.3678671,2.79374651 L81.3678671,39.8108878 Z M64.605388,26.715201 L64.605388,15.8894333 L72.2881909,15.8894333 L72.2881909,26.715201 L64.605388,26.715201 Z" id="Shape"></path>
                <path d="M42.0808068,21.2871923 C35.4676907,21.2871923 30.1067008,26.6481822 30.1067008,33.2612983 C30.1067008,39.8744144 35.4676907,45.2354042 42.0808068,45.2354042 C48.6939229,45.2354042 54.0549128,39.8744144 54.0549128,33.2612983 C54.0474767,26.6512647 48.6908404,21.2946283 42.0808068,21.2871923 Z M42.0808068,42.9628736 C36.7227747,42.9628736 32.3792315,38.6193304 32.3792315,33.2612983 C32.3792315,27.9032662 36.7227747,23.559723 42.0808068,23.559723 C47.4388389,23.559723 51.7823821,27.9032662 51.7823821,33.2612983 C51.7767463,38.6171092 47.4366173,42.9575559 42.0808068,42.9635838 L42.0808068,42.9628736 Z" id="Shape"></path>
            </g>
        </g>
    </g>
</svg>