<?xml version="1.0" encoding="UTF-8"?>
<svg width="100px" height="100px" viewBox="0 0 100 100" version="1.1" xmlns="http://www.w3.org/2000/svg" xmlns:xlink="http://www.w3.org/1999/xlink">
    <!-- Generator: Sketch 41 (35326) - http://www.bohemiancoding.com/sketch -->
    <title>adv</title>
    <desc>Created with Sketch.</desc>
    <defs></defs>
    <g id="Page-1" stroke="none" stroke-width="1" fill="none" fill-rule="evenodd">
        <g id="adv" fill="#69737B">
            <g id="ex6" transform="translate(12.000000, 12.000000)">
                <g id="Group">
                    <path d="M73.0685982,25.7591478 L49.3003285,1.99117131 C48.017253,0.708242423 46.3062413,0.00161264058 44.4821982,0.00161264058 C42.6583017,0.00161264058 40.9471435,0.707949216 39.664068,1.9908781 L1.98955867,39.665534 C0.706629783,40.9486095 0,42.6594746 0,44.4835177 C0,46.3075608 0.706629783,48.018719 1.98955867,49.3015013 L4.92045963,52.2324023 C4.92075283,52.2325489 4.92089944,52.2328421 4.92119265,52.2331353 C4.92148585,52.2334285 4.92177906,52.2337217 4.92207227,52.2340149 L24.619744,71.9316866 L21.8923289,71.9316866 C21.0288332,71.9316866 20.328654,72.6317192 20.328654,73.4953616 C20.328654,74.3588573 21.0288332,75.0590365 21.8923289,75.0590365 L30.5696547,75.0590365 C30.5717072,75.0590365 30.573613,75.0591831 30.5756655,75.0591831 C30.5777179,75.0591831 30.5796238,75.0590365 30.5816762,75.0590365 L53.1664144,75.0593297 C54.0299101,75.0593297 54.7300893,74.3591505 54.7300893,73.4956548 C54.7300893,72.6320124 54.0299101,71.9319798 53.1664144,71.9319798 L36.5321734,71.9316866 L73.0687448,35.3951151 C75.7252037,32.7383631 75.7252037,28.4156067 73.0685982,25.7591478 Z M70.8572282,33.1837451 L33.1824257,70.8585476 C32.4914825,71.5493442 31.5678792,71.9302206 30.581383,71.9316866 L30.5695081,71.9316866 C29.5833051,71.930074 28.659995,71.5493442 27.9693451,70.8585476 L8.23839432,51.1274503 L44.4194518,14.9460995 C45.0300562,14.3354952 45.0300562,13.3453338 44.4194518,12.7347295 C43.8087009,12.1241251 42.8188328,12.1241251 42.2079352,12.7348761 L6.02687767,48.9162268 L4.20078212,47.0901313 C3.5086661,46.3980152 3.12749651,45.4723595 3.12749651,44.4836643 C3.12749651,43.494969 3.5086661,42.5691667 4.20092872,41.8769041 L41.875438,4.20239476 C42.5677006,3.51027874 43.4935029,3.12910915 44.4821982,3.12910915 C45.4708935,3.12910915 46.3966958,3.51027874 47.0889584,4.20254136 L55.5484311,12.6618674 L19.3669338,48.843658 C18.7563294,49.4541157 18.7563294,50.4442771 19.3669338,51.0551746 C19.6723093,51.3604035 20.0725373,51.513018 20.4726188,51.513018 C20.8727003,51.513018 21.2729283,51.3602569 21.5783038,51.055028 L57.7598012,14.8733841 L70.8572282,27.9703713 C72.2943841,29.4076739 72.2942375,31.7464425 70.8572282,33.1837451 Z" id="Shape"></path>
                    <path d="M38.5275962,45.163319 C37.9169918,44.5527146 36.9271237,44.5528612 36.3160795,45.163319 L24.0110455,57.4682064 C23.4004411,58.0788108 23.4004411,59.0688255 24.0110455,59.6797231 C24.3164209,59.9850986 24.716649,60.137713 25.1167305,60.137713 C25.5168119,60.137713 25.91704,59.984952 26.2224155,59.6797231 L38.5274496,47.3748356 C39.1382005,46.763938 39.1382005,45.7739233 38.5275962,45.163319 Z" id="Shape"></path>
                    <path d="M33.4806176,56.8442611 L28.4337856,61.8910931 C27.8231812,62.5016975 27.8231812,63.4918588 28.4337856,64.1026098 C28.739161,64.4078387 29.1393891,64.5605997 29.5394706,64.5605997 C29.9398453,64.5605997 30.3397801,64.4078387 30.6451556,64.1026098 L35.6919876,59.0557778 C36.302592,58.4451734 36.302592,57.4550121 35.6919876,56.8442611 C35.0813832,56.2335102 34.0916617,56.2335102 33.4806176,56.8442611 Z" id="Shape"></path>
                    <path d="M38.1248758,52.2004427 L37.4614941,52.8636778 C36.8507432,53.4742821 36.8507432,54.4642968 37.4613475,55.0751944 C37.7665764,55.3805699 38.1669511,55.5333309 38.5670326,55.5333309 C38.967114,55.5333309 39.3673421,55.3805699 39.672571,55.0751944 L40.3359527,54.4119593 C40.9467037,53.8013549 40.9467037,52.8113402 40.3360993,52.2005893 C39.7257881,51.5899849 38.7354802,51.5898383 38.1248758,52.2004427 Z" id="Shape"></path>
                    <path d="M59.6784036,24.0126581 C59.3851963,23.7194507 58.9874605,23.5546682 58.5727186,23.5546682 C58.1579768,23.5546682 57.7603876,23.7194507 57.4670336,24.0126581 L50.8324836,30.6470615 C50.5392763,30.9404154 50.3744937,31.3380046 50.3744937,31.7527465 C50.3744937,32.1674883 50.5392763,32.5652241 50.8324836,32.8584315 L55.2555169,37.281025 C55.5608924,37.5864005 55.9611205,37.7390149 56.361202,37.7390149 C56.7615766,37.7390149 57.1615115,37.5862539 57.466887,37.281025 L64.1011437,30.6469149 C64.7117481,30.0363105 64.7117481,29.0461492 64.1011437,28.4355448 L59.6784036,24.0126581 Z M56.3610554,33.9641165 L54.1495387,31.7527465 L58.572572,27.3298598 L60.7839421,29.5413764 L56.3610554,33.9641165 Z" id="Shape"></path>
                    <path d="M46.9628793,11.7555634 C47.3632539,11.7555634 47.763482,11.6028024 48.0687109,11.2972803 L48.7320926,10.6336054 C49.3425503,10.0228544 49.3424037,9.03269311 48.7316528,8.42223535 C48.1210484,7.81177759 47.1307405,7.81192419 46.5202827,8.42267516 L45.856901,9.08635006 C45.2464433,9.69710103 45.2465899,10.6872624 45.8573408,11.2977201 C46.1627163,11.6030956 46.5626512,11.7555634 46.9628793,11.7555634 Z" id="Shape"></path>
                    <path d="M15.7181146,52.4924772 L15.0547329,53.1558589 C14.4441285,53.7663167 14.4441285,54.756478 15.0547329,55.3673756 C15.3601083,55.6726044 15.7603364,55.8252189 16.1604179,55.8252189 C16.5604994,55.8252189 16.9607274,55.6726044 17.2661029,55.3673756 L17.9294846,54.7039939 C18.540089,54.0932429 18.540089,53.1030816 17.9294846,52.4924772 C17.3187336,51.8817262 16.3288655,51.8817262 15.7181146,52.4924772 Z" id="Shape"></path>
                </g>
            </g>
        </g>
    </g>
</svg>