<?xml version="1.0" encoding="UTF-8"?>
<svg width="100px" height="100px" viewBox="0 0 100 100" version="1.1" xmlns="http://www.w3.org/2000/svg" xmlns:xlink="http://www.w3.org/1999/xlink">
    <!-- Generator: Sketch 41 (35326) - http://www.bohemiancoding.com/sketch -->
    <title>adv</title>
    <desc>Created with Sketch.</desc>
    <defs></defs>
    <g id="Page-1" stroke="none" stroke-width="1" fill="none" fill-rule="evenodd">
        <g id="adv" fill="#69737B">
            <path d="M82.6983626,17.9437745 L16.4559342,17.9437745 C11.6818218,17.948806 7.81264863,21.8179791 7.80761719,26.5920916 L7.80761719,73.8818252 C7.81264863,78.6559376 11.6818218,82.5251107 16.4559342,82.5301422 L82.6983626,82.5301422 C87.4724751,82.5251107 91.3416482,78.6559376 91.3466797,73.8818252 L91.3466797,26.5920916 C91.3416482,21.8179791 87.4724751,17.948806 82.6983626,17.9437745 Z M33.226424,72.7145324 C33.1789847,72.6865001 33.1322643,72.6570303 33.0862626,72.6275605 C32.9849152,72.5254942 32.8677546,72.4413974 32.7390938,72.3781451 C31.9771906,71.7693414 31.4582342,70.9082475 31.2749462,69.9508374 L30.1471861,64.0389018 L36.0591216,65.1659431 C37.6591178,65.4721419 38.9248829,66.6976555 39.2821147,68.2861513 C39.6393467,69.8753657 39.0204801,71.5249575 37.7058382,72.4859614 C36.3904776,73.4469655 34.6309131,73.5368125 33.2257053,72.7145324 L33.226424,72.7145324 Z M10.3837116,58.2412518 L16.3617745,58.2412518 C17.3378729,59.3503238 18.6553899,60.1021637 20.1073181,60.3788928 L26.0228475,61.5073715 L20.1073181,62.6358503 C19.1599708,62.8162632 18.2643755,63.2000899 17.4809092,63.7614542 L10.3837116,63.7614542 L10.3837116,58.2412518 Z M38.6812177,56.1165489 C38.6373724,56.1675821 38.5978396,56.2222091 38.5626197,56.2804299 C37.9530973,57.0969599 37.060377,57.6561678 36.0598403,57.8488 L30.1479049,58.9758413 L31.2756649,53.0639057 C31.5847388,51.4315648 32.8512227,50.1485488 34.4792513,49.817193 C36.1072796,49.4865559 37.774122,50.1729873 38.6963121,51.5551941 C39.6185021,52.9374011 39.6127519,54.7400922 38.6819364,56.1165489 L38.6812177,56.1165489 Z M28.7448534,52.5816069 L28.3243693,54.7832187 L27.9046039,52.5816069 C27.5933738,50.9535783 26.6869967,49.4994939 25.3615733,48.5032698 L25.3615733,20.519869 L30.8817757,20.519869 L30.8817757,48.8360633 C29.7734224,49.8121615 29.0208636,51.1303974 28.7441347,52.5816069 L28.7448534,52.5816069 Z M23.4230333,50.3002107 C24.4415396,50.8967952 25.1524093,51.9045195 25.3737925,53.0639057 L26.5015525,58.9758413 L20.5896171,57.8480811 C19.6278942,57.6640744 18.7639251,57.1400864 18.1565592,56.3724333 C18.0961818,56.2538352 18.0185541,56.1445812 17.9251131,56.048984 C16.8958254,54.4597695 17.0927702,52.3710053 18.4016619,51.0024551 C19.7105535,49.633905 21.7878171,49.3428006 23.4223146,50.3002107 L23.4230333,50.3002107 Z M20.5896171,65.1659431 L26.5015525,64.038183 L25.3737925,69.9501185 C24.9878096,71.9741927 23.1556485,73.3959324 21.0992295,73.2665526 C19.0420916,73.1371729 17.4025626,71.4976441 17.2731829,69.4405061 C17.1438032,67.3833682 18.5648241,65.5519261 20.5896171,65.1659431 L20.5896171,65.1659431 Z M27.9046039,70.4324174 L28.3243693,68.2308054 L28.7441347,70.4324174 C29.0215823,71.8843457 29.7734224,73.2025816 30.8817757,74.1801174 L30.8817757,79.9540478 L25.3615733,79.9540478 L25.3615733,74.5093169 C26.6869967,73.5145304 27.5940925,72.0611647 27.9046039,70.4331362 L27.9046039,70.4324174 Z M39.1678294,63.7614542 C38.3843631,63.2000899 37.4887679,62.8162632 36.5414206,62.6358503 L30.6258911,61.5073715 L36.5414206,60.3788928 C37.9933488,60.1021637 39.3108658,59.3503238 40.2869642,58.2412518 L88.7705852,58.2412518 L88.7705852,63.7614542 L39.1678294,63.7614542 Z M88.7705852,26.5920916 L88.7705852,55.6651574 L41.7000784,55.6651574 C42.3699779,53.336322 41.7216418,50.8277926 40.0087977,49.1149485 C38.2952348,47.4013857 35.7867055,46.7537681 33.4578701,47.4229489 L33.4578701,20.519869 L82.6983626,20.519869 C86.0500168,20.5234628 88.7669914,23.2404374 88.7705852,26.5920916 Z M16.4559342,20.519869 L22.7854789,20.519869 L22.7854789,47.3216015 C20.4933009,46.8163017 18.1033696,47.554485 16.4961857,49.2658915 C14.8882831,50.9772981 14.3003239,53.4081996 14.9486603,55.6651574 L10.3837116,55.6651574 L10.3837116,26.5920916 C10.3873055,23.2404374 13.1042801,20.5234628 16.4559342,20.519869 Z M10.3837116,73.8818252 L10.3837116,66.3375486 L15.3296116,66.3375486 C14.2435405,68.6354766 14.5583647,71.3510137 16.1425477,73.339149 C17.7267308,75.3272845 20.303544,76.2408491 22.7854789,75.695298 L22.7854789,79.9540478 L16.4559342,79.9540478 C13.1042801,79.950454 10.3873055,77.2334793 10.3837116,73.8818252 Z M82.6983626,79.9540478 L33.4578701,79.9540478 L33.4578701,75.5910753 C35.9743061,76.3134456 38.6797802,75.495478 40.3746548,73.5008738 C42.0695295,71.5062694 42.4389805,68.7037604 41.319127,66.3375486 L88.7705852,66.3375486 L88.7705852,73.8818252 C88.7669914,77.2334793 86.0500168,79.950454 82.6983626,79.9540478 Z" id="ex7"></path>
        </g>
    </g>
</svg>