<?xml version="1.0" encoding="UTF-8"?>
<svg width="100px" height="100px" viewBox="0 0 100 100" version="1.1" xmlns="http://www.w3.org/2000/svg" xmlns:xlink="http://www.w3.org/1999/xlink">
    <!-- Generator: Sketch 41 (35326) - http://www.bohemiancoding.com/sketch -->
    <title>adv</title>
    <desc>Created with Sketch.</desc>
    <defs></defs>
    <g id="Page-1" stroke="none" stroke-width="1" fill="none" fill-rule="evenodd">
        <g id="adv" fill="#69737B">
            <g id="ex8" transform="translate(8.000000, 8.000000)">
                <path d="M79.1311891,3.30376474e-14 L32.4595716,3.30376474e-14 C31.7667962,3.30376474e-14 31.2053437,0.561452532 31.2053437,1.25486228 C31.2053437,1.94763782 31.7667962,2.50909035 32.4595716,2.50909035 L79.1311891,2.50909035 C79.9654378,2.50909035 80.6442561,3.18790864 80.6442561,4.02215741 L80.6442561,41.659781 C80.6442561,42.3525563 81.2057087,42.9146432 81.8984842,42.9146432 C82.5918939,42.9146432 83.1533465,42.3525563 83.1533465,41.659781 L83.1533465,4.02215741 C83.1533465,1.80426115 81.3490853,2.84217094e-14 79.1311891,2.84217094e-14 L79.1311891,3.30376474e-14 Z" id="Shape"></path>
                <path d="M81.8984842,45.4237336 C81.2057087,45.4237336 80.6442561,45.9851861 80.6442561,46.6785959 L80.6442561,79.1311891 C80.6442561,79.9654378 79.9654378,80.6442561 79.1311891,80.6442561 L4.02215741,80.6442561 C3.18790864,80.6442561 2.50909035,79.9654378 2.50909035,79.1311891 L2.50909035,69.9303453 C2.50909035,69.23757 1.94763782,68.6761174 1.25486228,68.6761174 C0.561452532,68.6761174 0,69.23757 0,69.9303453 L0,79.1311891 C0,81.3490853 1.80426115,83.1533465 4.02215741,83.1533465 L79.1311891,83.1533465 C81.3490853,83.1533465 83.1533465,81.3490853 83.1533465,79.1311891 L83.1533465,46.6785959 C83.1533465,45.9851861 82.5918939,45.4237336 81.8984842,45.4237336 Z" id="Shape"></path>
                <path d="M1.25486228,66.1670271 C1.94763782,66.1670271 2.50909035,65.6049402 2.50909035,64.9121648 L2.50909035,4.02215741 C2.50909035,3.18790864 3.18790864,2.50909035 4.02215741,2.50909035 L27.441391,2.50909035 C28.1341664,2.50909035 28.6962533,1.94763782 28.6962533,1.25486228 C28.6962533,0.561452532 28.1341664,2.84217094e-14 27.441391,2.84217094e-14 L4.02215741,2.84217094e-14 C1.80426115,2.84217094e-14 0,1.80426115 0,4.02215741 L0,64.9121648 C0,65.6049402 0.561452532,66.1670271 1.25486228,66.1670271 Z" id="Shape"></path>
                <path d="M5.0181807,6.27304298 L5.0181807,76.8803035 C5.0181807,77.5730789 5.57963324,78.1351658 6.27304298,78.1351658 L76.8803035,78.1351658 C77.5737132,78.1351658 78.1351658,77.5730789 78.1351658,76.8803035 L78.1351658,6.27304298 C78.1351658,5.58026761 77.5737132,5.0181807 76.8803035,5.0181807 L6.27304298,5.0181807 C5.57963324,5.0181807 5.0181807,5.58026761 5.0181807,6.27304298 Z M42.8315355,7.52727089 L75.6260756,7.52727089 L75.6260756,40.321811 L42.8315355,40.321811 L42.8315355,7.52727089 Z M42.8315355,42.8315355 L75.6260756,42.8315355 L75.6260756,75.6260756 L42.8315355,75.6260756 L42.8315355,42.8315355 Z M7.52727089,7.52727089 L40.321811,7.52727089 L40.321811,40.321811 L7.52727089,40.321811 L7.52727089,7.52727089 Z M7.52727089,42.8315355 L40.321811,42.8315355 L40.321811,75.6260756 L7.52727089,75.6260756 L7.52727089,42.8315355 Z" id="Shape"></path>
                <path d="M65.6988328,67.1928675 C63.4403343,68.7027627 62.7653224,68.2516974 61.419105,67.3533733 C60.3659849,66.6504473 59.0800366,65.7870156 57.0112265,65.8517255 C57.9254108,64.04683 58.0827444,61.9443962 57.3677648,59.8603604 L59.940296,59.8603604 C60.6337059,59.8603604 61.1951584,59.2989079 61.1951584,58.6061325 C61.1951584,57.9127228 60.6337059,57.3512701 59.940296,57.3512701 L56.2784834,57.3512701 C54.3657382,52.5259501 59.0882839,47.4037262 64.2860024,49.6165472 C64.9242185,49.8880745 65.6607682,49.5911708 65.9316612,48.9535891 C66.2031884,48.3160074 65.9069192,47.5794578 65.268703,47.3079303 C58.4170783,44.3909146 51.8319058,50.6544414 53.6387046,57.3512701 L51.7798843,57.3512701 C51.0871089,57.3512701 50.5256562,57.9127228 50.5256562,58.6061325 C50.5256562,59.2989079 51.0871089,59.8603604 51.7798843,59.8603604 L54.658201,59.8603604 C56.0424828,62.8998173 55.1885675,65.7229403 51.9378522,67.3996851 C51.3250126,67.7162556 51.082668,68.4686654 51.3960665,69.0834085 C51.7088304,69.6981515 52.4593369,69.9449368 53.0766177,69.6353449 C56.9680866,67.6832663 58.2508631,68.2555038 60.0265757,69.4405811 C61.5491589,70.4569055 63.442872,71.720015 67.0932652,69.2781722 C67.6693092,68.8930855 67.8241052,68.1140305 67.4390186,67.5379864 C67.0539319,66.9625769 66.2742423,66.8077809 65.6988328,67.1928675 L65.6988328,67.1928675 Z" id="Shape"></path>
                <path d="M30.5912351,49.2517616 L32.5579051,49.2517616 C33.2506805,49.2517616 33.812133,48.6896746 33.812133,47.9968993 C33.812133,47.3041239 33.2506805,46.7426714 32.5579051,46.7426714 L30.5912351,46.7426714 C25.5863771,46.7426714 21.3599397,50.4412798 20.0809698,55.4639012 L16.1609523,55.4639012 C15.4675425,55.4639012 14.90609,56.0253539 14.90609,56.7187636 C14.90609,57.411539 15.4675425,57.9729916 16.1609523,57.9729916 L19.7009585,57.9729916 C19.6597217,58.7761543 19.6876358,59.5710696 19.8037328,60.4142 L16.1609523,60.4142 C15.4675425,60.4142 14.90609,60.9756526 14.90609,61.6690625 C14.90609,62.3618379 15.4675425,62.9232904 16.1609523,62.9232904 L20.4140348,62.9232904 C21.9930807,67.3781153 25.9581411,70.5476259 30.5912351,70.5476259 L32.5579051,70.5476259 C33.2506805,70.5476259 33.812133,69.9861734 33.812133,69.2927636 C33.812133,68.5999883 33.2506805,68.0385357 32.5579051,68.0385357 L30.5912351,68.0385357 C27.3373479,68.0385357 24.511687,65.9570376 23.1172546,62.9232904 L29.8749866,62.9232904 C30.567762,62.9232904 31.1298489,62.3618379 31.1298489,61.6690625 C31.1298489,60.9756526 30.567762,60.4142 29.8749866,60.4142 L22.3432748,60.4142 C22.1935541,59.5399836 22.1656401,58.7596596 22.2157583,57.9729916 L29.8749866,57.9729916 C30.567762,57.9729916 31.1298489,57.411539 31.1298489,56.7187636 C31.1298489,56.0253539 30.567762,55.4639012 29.8749866,55.4639012 L22.6883937,55.4639012 C23.8569762,51.8452284 26.9579708,49.2517616 30.5912351,49.2517616 L30.5912351,49.2517616 Z" id="Shape"></path>
                <path d="M64.867756,13.6499588 L58.5864658,20.3702606 L52.3045411,13.6499588 C51.8312714,13.1443343 51.0376249,13.1170547 50.5307315,13.5903244 C50.025107,14.0635939 49.9978273,14.8578749 50.4717314,15.3634993 L56.3165478,21.6162412 L52.539907,21.6162412 C51.8471316,21.6162412 51.2856791,22.1783283 51.2856791,22.8711037 C51.2856791,23.563879 51.8471316,24.1253316 52.539907,24.1253316 L57.3316033,24.1253316 L57.3316033,27.3037242 L52.539907,27.3037242 C51.8471316,27.3037242 51.2856791,27.8658111 51.2856791,28.5585865 C51.2856791,29.2513618 51.8471316,29.8128144 52.539907,29.8128144 L57.3316033,29.8128144 L57.3316033,34.4966611 C57.3316033,35.1900709 57.893056,35.7515234 58.5864658,35.7515234 C59.2792411,35.7515234 59.8406937,35.1900709 59.8406937,34.4966611 L59.8406937,29.8128144 L65.3365848,29.8128144 C66.0299946,29.8128144 66.5914473,29.2513618 66.5914473,28.5585865 C66.5914473,27.8658111 66.0299946,27.3037242 65.3365848,27.3037242 L59.8406937,27.3037242 L59.8406937,24.1253316 L65.3365848,24.1253316 C66.0299946,24.1253316 66.5914473,23.563879 66.5914473,22.8711037 C66.5914473,22.1783283 66.0299946,21.6162412 65.3365848,21.6162412 L60.8563837,21.6162412 L66.7012001,15.3634993 C67.1744697,14.8578749 67.1478245,14.0635939 66.6415655,13.5903244 C66.1353067,13.1170547 65.3410257,13.1437 64.867756,13.6499588 Z" id="Shape"></path>
                <path d="M21.2831762,18.0597406 C21.2831762,15.9674574 23.1255019,15.5284459 24.6709239,15.5284459 C26.1478297,15.5284459 26.9516268,15.9427154 27.5384557,16.2453289 C27.8639078,16.4128131 28.1208439,16.5447703 28.3904679,16.5447703 C29.1879209,16.5447703 29.604728,15.5804675 29.604728,15.0634236 C29.604728,13.8028515 27.3773155,13.2204635 25.5394307,13.0808934 L25.5394307,10.0522214 C25.5394307,9.35944607 24.9779782,8.79735917 24.2852028,8.79735917 C23.5917931,8.79735917 23.0303405,9.35944607 23.0303405,10.0522214 C23.0303405,10.0991678 23.0303405,13.1481407 23.0309749,13.1950871 C21.1093478,13.5440124 18.5336447,14.6815091 18.5336447,18.274171 C18.5336447,24.9500642 27.3367133,22.6040172 27.3367133,27.7192624 C27.3367133,29.6973519 26.1053242,30.7866333 23.8683957,30.7866333 C21.8719084,30.7866333 20.9723153,29.903535 20.3157014,29.2583404 C19.9521846,28.9011677 19.664797,28.6194898 19.293033,28.6194898 C18.6249997,28.6194898 18.0521277,29.4340718 18.0521277,30.1008365 C18.0521277,31.2852792 20.0029373,33.0203898 23.0309749,33.3280786 L23.0309749,35.9297927 C23.0309749,36.622568 23.5924274,37.1840206 24.2852028,37.1840206 C24.9786126,37.1840206 25.5400651,36.622568 25.5400651,35.9297927 L25.5400651,33.2379923 C28.4158443,32.7063569 30.0868794,30.6476975 30.0868794,27.5054664 C30.086245,20.0980989 21.2831762,22.2785649 21.2831762,18.0597406 Z" id="Shape"></path>
            </g>
        </g>
    </g>
</svg>