<?xml version="1.0" encoding="UTF-8"?>
<svg width="100px" height="100px" viewBox="0 0 100 100" version="1.1" xmlns="http://www.w3.org/2000/svg" xmlns:xlink="http://www.w3.org/1999/xlink">
    <!-- Generator: Sketch 41 (35326) - http://www.bohemiancoding.com/sketch -->
    <title>adv</title>
    <desc>Created with Sketch.</desc>
    <defs></defs>
    <g id="Page-1" stroke="none" stroke-width="1" fill="none" fill-rule="evenodd">
        <g id="adv" fill="#69737B">
            <g id="ex8" transform="translate(6.000000, 6.000000)">
                <path d="M21.7791129,87.1164515 C9.77029295,87.1164515 0,77.3461586 0,65.3373386 C0,53.3285187 9.77029295,43.5582258 21.7791129,43.5582258 C33.7879328,43.5582258 43.5582258,53.3285187 43.5582258,65.3373386 C43.5582258,77.3461586 33.7879328,87.1164515 21.7791129,87.1164515 Z M21.7791129,46.4620631 C11.3714246,46.4620631 2.90383736,54.9296503 2.90383736,65.3373386 C2.90383736,75.7450269 11.3714246,84.2126142 21.7791129,84.2126142 C32.1868012,84.2126142 40.6543884,75.7450269 40.6543884,65.3373386 C40.6543884,54.9296503 32.1868012,46.4620631 21.7791129,46.4620631 Z" id="Shape"></path>
                <path d="M13.0676006,39.2021374 C12.2660379,39.2021374 11.6153496,38.5534431 11.6153496,37.750551 L11.6153496,33.3944625 C11.6153496,19.7838463 22.6883483,8.71151227 36.2982999,8.71151227 C37.0998628,8.71151227 37.750551,9.36087115 37.750551,10.1637632 C37.750551,10.9666553 37.0998628,11.6153496 36.2982999,11.6153496 C24.2894799,11.6153496 14.519187,21.3856426 14.519187,33.3944625 L14.519187,37.750551 C14.519187,38.5534431 13.8691635,39.2021374 13.0676006,39.2021374 Z" id="Shape"></path>
                <path d="M13.06893,39.2021374 C12.6435567,39.2021374 12.220842,39.0167012 11.9350442,38.6577925 L6.12736948,31.3985312 C5.62622647,30.7711056 5.72791724,29.8578824 6.35401365,29.3567394 C6.97944528,28.8542672 7.89399787,28.9572873 8.39514087,29.5833837 L14.2028156,36.8433094 C14.7039586,37.4700704 14.6022677,38.3832938 13.9761714,38.8844366 C13.7063253,39.0991173 13.3866306,39.2021374 13.06893,39.2021374 Z" id="Shape"></path>
                <path d="M13.0662714,39.2021374 C12.747906,39.2021374 12.4268821,39.0991173 12.1596946,38.8844366 C11.5342628,38.3819644 11.432572,37.4687412 11.933715,36.8433094 L17.7413897,29.5833837 C18.2418681,28.9592813 19.1557559,28.8542672 19.782517,29.3567394 C20.4086132,29.8592116 20.5103041,30.772435 20.0091611,31.3985312 L14.2014864,38.6577925 C13.9136948,39.0153718 13.4929739,39.2021374 13.0662714,39.2021374 Z" id="Shape"></path>
                <path d="M50.8181516,78.4049393 C50.0165887,78.4049393 49.3659005,77.7555804 49.3659005,76.9526883 C49.3659005,76.1497962 50.0165887,75.5011019 50.8181516,75.5011019 C62.8269716,75.5011019 72.5972645,65.7308089 72.5972645,53.721989 L72.5972645,49.3659005 C72.5972645,48.5630084 73.247288,47.9143141 74.0488509,47.9143141 C74.8504136,47.9143141 75.5011019,48.5630084 75.5011019,49.3659005 L75.5011019,53.721989 C75.5011019,67.3326052 64.4281032,78.4049393 50.8181516,78.4049393 L50.8181516,78.4049393 Z" id="Shape"></path>
                <path d="M79.8585196,58.0774128 C79.4324817,58.0774128 79.0104316,57.8919767 78.7239692,57.5330678 L72.9162945,50.2731421 C72.4158161,49.6463811 72.517507,48.7331577 73.1429387,48.2320149 C73.7690351,47.730872 74.6835877,47.8325628 75.1847305,48.458659 L80.9924052,55.7179203 C81.4928836,56.3453459 81.3911927,57.2585692 80.7657611,57.7597122 C80.495915,57.9743926 80.1762204,58.0774128 79.8585196,58.0774128 Z" id="Shape"></path>
                <path d="M68.2398468,58.0774128 C67.9214814,58.0774128 67.6011222,57.9743926 67.3339346,57.7597122 C66.7078383,57.2572399 66.6061474,56.3440166 67.1072904,55.7179203 L72.9149651,48.458659 C73.4161081,47.833892 74.3293313,47.730872 74.956757,48.2320149 C75.5821888,48.7344871 75.6838795,49.6477103 75.1827365,50.2731421 L69.3750618,57.5330678 C69.0879348,57.8906473 68.6665493,58.0774128 68.2398468,58.0774128 Z" id="Shape"></path>
                <path d="M65.3373386,43.5582258 C53.3285187,43.5582258 43.5582258,33.7879328 43.5582258,21.7791129 C43.5582258,9.77029295 53.3285187,0 65.3373386,0 C77.3461586,0 87.1164515,9.77029295 87.1164515,21.7791129 C87.1164515,33.7879328 77.3461586,43.5582258 65.3373386,43.5582258 Z M65.3373386,2.90383736 C54.9296503,2.90383736 46.4620631,11.3714246 46.4620631,21.7791129 C46.4620631,32.1868012 54.9296503,40.6543884 65.3373386,40.6543884 C75.7450269,40.6543884 84.2126142,32.1868012 84.2126142,21.7791129 C84.2126142,11.3714246 75.7450269,2.90383736 65.3373386,2.90383736 Z" id="Shape"></path>
                <path d="M68.241176,23.2313639 L59.5296639,23.2313639 C58.728101,23.2313639 58.0774128,22.582005 58.0774128,21.7791129 L58.0774128,13.0676006 C58.0774128,12.2647085 58.728101,11.6153496 59.5296639,11.6153496 L68.241176,11.6153496 C71.4441041,11.6153496 74.0488509,14.2200965 74.0488509,17.4230245 C74.0488509,20.6259524 71.4441041,23.2313639 68.241176,23.2313639 L68.241176,23.2313639 Z M60.9812503,20.3268619 L68.241176,20.3268619 C69.8429724,20.3268619 71.1450134,19.0248208 71.1450134,17.4230245 C71.1450134,15.8218927 69.8429724,14.519187 68.241176,14.519187 L60.9812503,14.519187 L60.9812503,20.3268619 Z" id="Shape"></path>
                <path d="M68.241176,31.9428761 L59.5296639,31.9428761 C58.728101,31.9428761 58.0774128,31.2935172 58.0774128,30.4906251 L58.0774128,21.7791129 C58.0774128,20.9762208 58.728101,20.3268619 59.5296639,20.3268619 L68.241176,20.3268619 C71.4441041,20.3268619 74.0488509,22.9322733 74.0488509,26.1352012 C74.0488509,29.3381293 71.4441041,31.9428761 68.241176,31.9428761 L68.241176,31.9428761 Z M60.9812503,29.0390388 L68.241176,29.0390388 C69.8429724,29.0390388 71.1450134,27.736333 71.1450134,26.1352012 C71.1450134,24.533405 69.8429724,23.2313639 68.241176,23.2313639 L60.9812503,23.2313639 L60.9812503,29.0390388 Z" id="Shape"></path>
                <path d="M62.4335013,14.519187 C61.6319384,14.519187 60.9812503,13.8704927 60.9812503,13.0676006 L60.9812503,8.71151227 C60.9812503,7.90862016 61.6319384,7.25992588 62.4335013,7.25992588 C63.235064,7.25992588 63.8850877,7.90862016 63.8850877,8.71151227 L63.8850877,13.0676006 C63.8850877,13.8704927 63.235064,14.519187 62.4335013,14.519187 L62.4335013,14.519187 Z" id="Shape"></path>
                <path d="M68.241176,14.519187 C67.4396133,14.519187 66.7895896,13.8704927 66.7895896,13.0676006 L66.7895896,8.71151227 C66.7895896,7.90862016 67.4396133,7.25992588 68.241176,7.25992588 C69.0427389,7.25992588 69.693427,7.90862016 69.693427,8.71151227 L69.693427,13.0676006 C69.693427,13.8704927 69.0427389,14.519187 68.241176,14.519187 L68.241176,14.519187 Z" id="Shape"></path>
                <path d="M62.4335013,36.2982999 C61.6319384,36.2982999 60.9812503,35.6496056 60.9812503,34.8467135 L60.9812503,30.4906251 C60.9812503,29.687733 61.6319384,29.0390388 62.4335013,29.0390388 C63.235064,29.0390388 63.8850877,29.687733 63.8850877,30.4906251 L63.8850877,34.8467135 C63.8850877,35.6496056 63.235064,36.2982999 62.4335013,36.2982999 L62.4335013,36.2982999 Z" id="Shape"></path>
                <path d="M68.241176,36.2982999 C67.4396133,36.2982999 66.7895896,35.6496056 66.7895896,34.8467135 L66.7895896,30.4906251 C66.7895896,29.687733 67.4396133,29.0390388 68.241176,29.0390388 C69.0427389,29.0390388 69.693427,29.687733 69.693427,30.4906251 L69.693427,34.8467135 C69.693427,35.6496056 69.0427389,36.2982999 68.241176,36.2982999 L68.241176,36.2982999 Z" id="Shape"></path>
                <path d="M59.5296639,14.519187 L56.6258264,14.519187 C55.8242636,14.519187 55.1735754,13.8704927 55.1735754,13.0676006 C55.1735754,12.2647085 55.8242636,11.6153496 56.6258264,11.6153496 L59.5296639,11.6153496 C60.3312266,11.6153496 60.9812503,12.2647085 60.9812503,13.0676006 C60.9812503,13.8704927 60.3312266,14.519187 59.5296639,14.519187 L59.5296639,14.519187 Z" id="Shape"></path>
                <path d="M59.5296639,31.9428761 L56.6258264,31.9428761 C55.8242636,31.9428761 55.1735754,31.2935172 55.1735754,30.4906251 C55.1735754,29.687733 55.8242636,29.0390388 56.6258264,29.0390388 L59.5296639,29.0390388 C60.3312266,29.0390388 60.9812503,29.687733 60.9812503,30.4906251 C60.9812503,31.2935172 60.3312266,31.9428761 59.5296639,31.9428761 L59.5296639,31.9428761 Z" id="Shape"></path>
                <path d="M30.4906251,69.693427 C30.2699627,69.693427 30.047971,69.6435787 29.8419309,69.5405585 L21.7791129,65.5088172 L13.7162949,69.5392292 C13.1573278,69.8197098 12.4820477,69.7107079 12.0407229,69.2660599 C11.5993981,68.8234057 11.489067,68.1481256 11.7682181,67.5904879 L20.4797303,50.1674634 C20.9715682,49.183123 22.5846636,49.183123 23.077166,50.1674634 L31.7886783,67.5904879 C32.0678295,68.149455 31.9588276,68.8247351 31.5155089,69.2660599 C31.2383516,69.5465403 30.8668146,69.693427 30.4906251,69.693427 L30.4906251,69.693427 Z M21.7791129,62.4335013 C22.0011047,62.4335013 22.2230963,62.4840144 22.4278072,62.5857051 L27.2444952,64.993052 L21.7791129,54.0642816 L16.3137306,64.993052 L21.1304186,62.5857051 C21.3351295,62.4840144 21.5571211,62.4335013 21.7791129,62.4335013 Z" id="Shape"></path>
                <path d="M21.7791129,81.3087768 C21.3218366,81.3087768 20.8918107,81.0940962 20.6173121,80.7278763 L11.9057998,69.1125267 C11.6472526,68.7682401 11.5561962,68.3269153 11.6545638,67.9088531 C11.753596,67.488797 12.0334118,67.1365348 12.4182417,66.9431228 L21.1304186,62.5870345 C21.5398404,62.3823234 22.0203793,62.3823234 22.4298011,62.5870345 L31.1413134,66.9431228 C31.5261432,67.1365348 31.8059592,67.488797 31.9049914,67.9088531 C32.0033589,68.3269153 31.9123025,68.7682401 31.6537552,69.1125267 L22.9422431,80.7278763 C22.666415,81.0940962 22.2363892,81.3087768 21.7791129,81.3087768 Z M15.2728954,68.7609291 L21.7791129,77.4365504 L28.2853304,68.7609291 L21.7791129,65.5088172 L15.2728954,68.7609291 Z" id="Shape"></path>
            </g>
        </g>
    </g>
</svg>