<?xml version="1.0" encoding="UTF-8"?>
<svg width="760px" height="760px" viewBox="0 0 760 760" version="1.1" xmlns="http://www.w3.org/2000/svg" xmlns:xlink="http://www.w3.org/1999/xlink">
    <!-- Generator: Sketch 41 (35326) - http://www.bohemiancoding.com/sketch -->
    <title>fork</title>
    <desc>Created with Sketch.</desc>
    <defs></defs>
    <g id="Page-1" stroke="none" stroke-width="1" fill="none" fill-rule="evenodd">
        <g id="fork">
            <g id="chromosome" transform="translate(74.901049, 109.380000)">
                <g id="Group">
                    <path d="M143.4404,164.720633 C172.653937,132.418096 198.58394,92.2920763 198.58394,27.2793496 C198.58394,12.2370483 186.345652,0 171.30459,0 C156.568339,0 144.53202,11.747616 144.048783,26.3686336 L66.6614713,26.3686336 C66.1794734,11.747616 54.1431543,0 39.4056641,0 C24.3633629,0 12.1263145,12.2370483 12.1263145,27.2793496 C12.1263145,92.2623386 39.0773107,133.378375 67.281006,164.693373 C33.5708868,199.321643 0.135841002,241.049779 0.135841002,314.873528 C0.135841002,388.696037 33.5696477,430.425413 67.281006,465.053682 C39.0773107,496.367442 12.1263145,537.483478 12.1263145,602.467706 C12.1263145,617.508768 24.3633629,629.747056 39.4056641,629.747056 C54.4479653,629.747056 66.6850137,617.510007 66.6850137,602.467706 C66.6850137,584.425618 69.1693476,569.197456 73.7675337,555.620974 L136.950155,555.620974 C139.118526,562.061656 140.845789,568.911231 142.041491,576.317149 L94.2964338,576.317149 C89.1642088,576.317149 85.0034141,580.477943 85.0034141,585.610168 C85.0034141,590.742393 89.1642088,594.903188 94.2964338,594.903188 L143.85301,594.903188 C143.954614,597.375131 144.024002,599.881768 144.024002,602.467706 C144.024002,617.508768 156.26105,629.747056 171.303351,629.747056 C186.345652,629.747056 198.582701,617.510007 198.582701,602.467706 C198.582701,537.454979 172.652698,497.328959 143.439161,465.026423 C178.28179,429.068632 210.573174,386.826282 210.573174,314.873528 C210.573174,242.920774 178.283029,200.678424 143.4404,164.720633 Z M105.373713,125.518958 C84.7246235,102.174893 71.0279515,78.7986117 67.5585575,44.954673 L143.138067,44.954673 C142.379757,52.3420041 141.139448,59.2076871 139.469183,65.6508474 L101.640397,65.6508474 C96.5081725,65.6508474 92.3473778,69.8116421 92.3473778,74.9438671 C92.3473778,80.0760921 96.5081725,84.2368868 101.640397,84.2368868 L133.050804,84.2368868 C126.263182,99.690559 116.690133,112.782565 105.373713,125.518958 Z M39.4056641,18.5860394 C44.1996232,18.5860394 48.0989743,22.4853905 48.0989743,27.2793496 C48.0989743,77.3873118 65.6627815,108.989774 92.6162558,139.140047 C88.6661029,143.191804 84.5784133,147.280732 80.3854028,151.470026 C53.8247135,121.846357 30.7123539,85.5416268 30.7123539,27.2793496 C30.7123539,22.4853905 34.6129441,18.5860394 39.4056641,18.5860394 Z M48.0989743,602.466467 C48.0989743,607.259187 44.1996232,611.159777 39.4056641,611.159777 C34.611705,611.159777 30.7123539,607.260426 30.7123539,602.466467 C30.7123539,544.20419 53.8247135,507.899459 80.3854028,478.274552 C84.5784133,482.465084 88.6661029,486.554013 92.6162558,490.60453 C65.6627815,520.756042 48.0989743,552.358505 48.0989743,602.466467 Z M81.8425483,537.033696 C88.0465683,525.440963 95.9951978,514.829574 105.373713,504.226858 C114.561412,514.56813 122.593059,525.151021 128.925942,537.033696 L81.8425483,537.033696 Z M171.30459,611.159777 C166.51187,611.159777 162.61128,607.260426 162.61128,602.466467 C162.61128,597.069081 162.378335,591.912075 161.97192,586.928538 C162.033874,586.496103 162.076002,586.057472 162.076002,585.608929 C162.076002,584.559437 161.893859,583.553313 161.57294,582.61286 C155.691078,527.289655 125.258297,496.843244 93.2110091,464.81702 C58.2965145,429.922351 18.7218804,390.372498 18.7218804,314.872289 C18.7218804,239.372079 58.2965145,199.822227 93.2147263,164.926318 C128.9024,129.260948 162.61128,95.5743708 162.61128,27.2781105 C162.61128,22.4853905 166.510631,18.5848003 171.30459,18.5848003 C176.098549,18.5848003 179.9979,22.4841514 179.9979,27.2781105 C179.9979,102.779559 140.422027,142.329412 105.505055,177.224081 C70.642601,212.064231 37.6883141,245.035865 36.1816058,310.207193 C36.1754105,310.349686 36.1605416,310.489701 36.1605416,310.634672 C36.1605416,310.711494 36.1704542,310.784599 36.1716932,310.861421 C36.1456728,312.192182 36.1097398,313.514269 36.1097398,314.873528 C36.1097398,383.169788 69.8186199,416.856365 105.506294,452.521736 C140.423266,487.416405 179.99914,526.966258 179.99914,602.467706 C179.9979,607.259187 176.09731,611.159777 171.30459,611.159777 Z M105.350171,425.962285 C96.5279976,416.884864 88.4195281,407.967282 81.3890489,398.492119 L129.204733,398.492119 C122.191601,407.988346 114.112869,416.920797 105.350171,425.962285 Z M140.972174,379.90608 L69.5770014,379.90608 C66.1658436,373.450529 63.2490745,366.613344 60.933254,359.209905 L149.654333,359.209905 C147.321165,366.589802 144.395722,373.43566 140.972174,379.90608 Z M154.036921,340.623866 L56.6200538,340.623866 C55.5965825,334.163359 54.9658963,327.290241 54.7688843,319.927691 L128.536875,319.927691 C133.6691,319.927691 137.829894,315.766897 137.829894,310.634672 C137.829894,305.502447 133.6691,301.341652 128.536875,301.341652 L55.2149492,301.341652 C55.7787257,293.964233 56.8009579,287.091116 58.2469518,280.645478 L152.471976,280.645478 C154.771689,290.890103 156.016953,302.160677 156.016953,314.872289 C156.015714,324.154157 155.320596,332.681432 154.036921,340.623866 Z M63.9342798,262.060677 C66.8572443,254.678302 70.410895,247.851031 74.4713251,241.364503 L136.19804,241.364503 C140.291925,247.885725 143.845576,254.714235 146.764823,262.060677 L63.9342798,262.060677 Z M88.0527636,222.778464 C93.3894351,216.363802 99.1981919,210.115175 105.348932,203.786009 C111.526931,210.158543 117.304711,216.413365 122.590581,222.778464 L88.0527636,222.778464 Z M118.642906,439.373971 C118.572279,439.303344 118.504131,439.235195 118.433504,439.164569 C149.667962,406.958679 174.602993,373.939961 174.602993,314.873528 C174.602993,256.009063 150.713737,223.855215 118.434743,190.581248 C118.50537,190.510621 118.573518,190.442472 118.644145,190.371845 C122.616602,186.401867 126.644816,182.369936 130.67303,178.245074 C163.725203,212.416127 191.988374,249.974795 191.988374,314.872289 C191.988374,379.769782 163.725203,417.329689 130.67303,451.500742 C126.643577,447.375881 122.615362,443.343949 118.642906,439.373971 Z" id="Shape" fill="#69737B"></path>
                    <path d="M604.987026,314.872289 C604.987026,242.920774 572.69688,200.677185 537.853013,164.719394 C567.06655,132.416857 592.996553,92.2908372 592.996553,27.2781105 C592.995314,12.2370483 580.758265,0 565.715964,0 C550.979713,0 538.943394,11.747616 538.460157,26.3686336 L461.074084,26.3686336 C460.590847,11.747616 448.554528,0 433.818277,0 C418.775976,0 406.538927,12.2370483 406.538927,27.2793496 C406.538927,92.2623386 433.489924,133.378375 461.693619,164.692134 C427.982261,199.320404 394.547215,241.04854 394.547215,314.872289 C394.547215,388.694798 427.981021,430.424174 461.693619,465.052443 C433.489924,496.366202 406.538927,537.482239 406.538927,602.466467 C406.538927,617.507529 418.775976,629.745816 433.818277,629.745816 C448.860578,629.745816 461.097626,617.508768 461.097626,602.466467 C461.097626,584.424379 463.58196,569.196217 468.181386,555.619735 L531.364007,555.619735 C533.532378,562.060417 535.259641,568.909992 536.455343,576.315909 L492.382887,576.315909 C487.250662,576.315909 483.089867,580.476704 483.089867,585.608929 C483.089867,590.741154 487.250662,594.901949 492.382887,594.901949 L538.268101,594.901949 C538.369705,597.373892 538.439093,599.880529 538.439093,602.466467 C538.439093,617.507529 550.676141,629.745816 565.718442,629.745816 C580.760743,629.745816 592.997792,617.508768 592.997792,602.466467 C592.997792,537.45374 567.067789,497.32772 537.854252,465.025184 C572.695641,429.067393 604.987026,386.823803 604.987026,314.872289 Z M586.400987,314.872289 C586.400987,379.769782 558.137816,417.329689 525.084404,451.500742 C521.05619,447.375881 517.027975,443.343949 513.055519,439.373971 C512.986131,439.304583 512.916743,439.235195 512.847355,439.165808 C545.115198,405.912905 569.015606,373.812337 569.015606,314.873528 C569.015606,255.934719 545.116437,223.834151 512.848595,190.581248 C512.917982,190.51186 512.98737,190.442472 513.056758,190.373084 C517.029214,186.403106 521.057429,182.371175 525.085643,178.246313 C558.136577,212.416127 586.400987,249.974795 586.400987,314.872289 Z M452.658326,280.646717 L514.1459,280.646717 C519.278125,280.646717 523.43892,276.485922 523.43892,271.353697 C523.43892,266.221472 519.278125,262.060677 514.1459,262.060677 L458.345654,262.060677 C461.268618,254.678302 464.822269,247.851031 468.882699,241.364503 L530.624283,241.364503 C541.143981,258.122915 548.064183,276.9419 549.915352,301.342891 L449.625084,301.342891 C450.190099,293.964233 451.213571,287.092355 452.658326,280.646717 Z M499.761545,203.78477 C505.943261,210.159782 511.72352,216.413365 517.013106,222.778464 L482.464137,222.778464 C487.800809,216.363802 493.610805,210.113936 499.761545,203.78477 Z M550.360178,319.927691 C550.164405,327.295197 549.525046,334.157163 548.501574,340.623866 L451.031428,340.623866 C450.007956,334.163359 449.37727,327.290241 449.180258,319.927691 L550.360178,319.927691 Z M544.183418,359.209905 C541.871315,366.587324 538.958263,373.426986 535.522324,379.90608 L463.988375,379.90608 C460.577217,373.450529 457.660448,366.613344 455.345867,359.209905 L544.183418,359.209905 Z M523.700363,398.492119 C516.740511,407.861961 508.66054,416.784499 499.761545,425.961046 C490.939371,416.883625 482.832141,407.966043 475.800423,398.492119 L523.700363,398.492119 Z M499.786326,125.518958 C488.171291,112.387302 478.755603,99.243255 472.122865,84.2356477 L527.464656,84.2356477 C520.675795,99.690559 511.101507,112.782565 499.786326,125.518958 Z M533.881796,65.6496083 L465.654923,65.6496083 C463.967311,59.1742322 462.725764,52.3122665 461.97117,44.9534339 L537.55068,44.9534339 C536.79237,52.3420041 535.552061,59.2076871 533.881796,65.6496083 Z M433.818277,18.5860394 C438.612236,18.5860394 442.511587,22.4853905 442.511587,27.2793496 C442.511587,49.2889374 445.904159,67.7238103 451.987989,84.0386357 L451.987989,84.2368868 L452.064811,84.2368868 C459.835015,104.97519 471.963025,122.287466 487.030108,139.141286 C483.079955,143.191804 478.992265,147.280732 474.799255,151.471265 C448.238565,121.847596 425.126206,85.5428658 425.126206,27.2793496 C425.124967,22.4853905 429.024318,18.5860394 433.818277,18.5860394 Z M442.511587,602.466467 C442.511587,607.259187 438.612236,611.159777 433.818277,611.159777 C429.024318,611.159777 425.124967,607.260426 425.124967,602.466467 C425.124967,544.20419 448.237326,507.899459 474.798016,478.274552 C478.991026,482.465084 483.077477,486.554013 487.028869,490.60453 C460.074155,520.757281 442.511587,552.358505 442.511587,602.466467 Z M476.255161,537.033696 C482.459181,525.440963 490.407811,514.829574 499.786326,504.226858 C508.974025,514.56813 517.005672,525.151021 523.338555,537.033696 L476.255161,537.033696 Z M565.715964,611.159777 C560.923244,611.159777 557.022654,607.260426 557.022654,602.466467 C557.022654,597.069081 556.789709,591.912075 556.384533,586.928538 C556.446487,586.496103 556.488615,586.057472 556.488615,585.608929 C556.488615,584.559437 556.306472,583.553313 555.985553,582.61286 C550.102452,527.289655 519.67091,496.843244 487.623622,464.81702 C452.707888,429.922351 413.133254,390.372498 413.133254,314.873528 C413.133254,239.374558 452.707888,199.823466 487.6261,164.927557 C523.313774,129.262187 557.022654,95.5756099 557.022654,27.2793496 C557.022654,22.4866295 560.922005,18.5860394 565.715964,18.5860394 C570.509923,18.5860394 574.409274,22.4853905 574.409274,27.2793496 C574.409274,102.780798 534.833401,142.330651 499.916428,177.22532 C464.228755,212.890691 430.519874,246.577267 430.519874,314.873528 C430.519874,383.169788 464.228755,416.856365 499.916428,452.521736 C534.833401,487.416405 574.409274,526.966258 574.409274,602.467706 C574.409274,607.259187 570.509923,611.159777 565.715964,611.159777 Z" id="Shape" fill="#FF7900"></path>
                </g>
            </g>
            <text font-family="HelveticaNeue-Light, Helvetica Neue" font-size="60" font-weight="300" letter-spacing="5" fill="#FF7900">
                <tspan x="321.1" y="411.38">for</tspan>
                <tspan x="403.9" y="411.38">k</tspan>
            </text>
            <text id="BitCoin" font-family="HelveticaNeue-Bold, Helvetica Neue" font-size="45" font-weight="bold" fill="#FF7900">
                <tspan x="101.123057" y="76.88">BitCoin</tspan>
            </text>
            <text id="BitCoin-Oil" font-family="HelveticaNeue-Bold, Helvetica Neue" font-size="45" font-weight="bold" fill="#FF7900">
                <tspan x="460.16567" y="76.88">BitCoin Oil</tspan>
            </text>
        </g>
    </g>
</svg>