<?xml version="1.0" encoding="UTF-8"?>
<svg width="760px" height="760px" viewBox="0 0 760 760" version="1.1" xmlns="http://www.w3.org/2000/svg" xmlns:xlink="http://www.w3.org/1999/xlink">
    <!-- Generator: Sketch 41 (35326) - http://www.bohemiancoding.com/sketch -->
    <title>need</title>
    <desc>Created with Sketch.</desc>
    <defs></defs>
    <g id="Page-1" stroke="none" stroke-width="1" fill="none" fill-rule="evenodd">
        <g id="need">
            <g id="001-ico" transform="translate(22.000000, 22.000000)">
                <circle id="Oval" cx="357.719639" cy="357.719639" r="205.991527"></circle>
                <path d="M58.8376525,316.309025 C62.1997447,316.918718 65.6663319,316.16778 68.4747281,314.221424 C71.2831243,312.275068 73.2032548,309.292748 73.8126707,305.930606 C97.8852851,173.542157 210.430605,75.4736748 344.867714,69.7416919 L344.867714,99.4649902 C344.867714,104.067587 347.32317,108.320563 351.309136,110.621861 C355.295102,112.92316 360.206015,112.92316 364.191981,110.621861 C368.177947,108.320563 370.633403,104.067587 370.633403,99.4649902 L370.633403,13.0984022 C370.633403,5.98340377 364.865557,0.215557929 357.750558,0.215557929 C350.63556,0.215557929 344.867714,5.98340377 344.867714,13.0984022 L344.867714,43.6874276 C197.908928,49.5290703 74.7113174,156.627626 48.4798457,301.344313 C47.2157069,308.335198 51.8494818,315.029965 58.8376525,316.309025 L58.8376525,316.309025 Z" id="Shape" fill="#69737B"></path>
                <path d="M299.551021,640.410468 C170.360407,613.437135 75.8086256,502.438432 69.7210793,370.602484 L99.4546839,370.602484 C106.569682,370.602484 112.337528,364.834638 112.337528,357.719639 C112.337528,350.604641 106.569682,344.836795 99.4546839,344.836795 L13.0880959,344.836795 C5.9730975,344.836795 0.205251654,350.604641 0.205251654,357.719639 C0.205251654,364.834638 5.9730975,370.602484 13.0880959,370.602484 L43.6771213,370.602484 C49.9117044,514.724367 153.161984,636.234232 294.387577,665.650536 C295.242134,665.82555 296.112472,665.911893 296.984758,665.908193 C303.601378,665.909534 309.143178,660.898318 309.805506,654.314932 C310.467835,647.731545 306.035309,641.716852 299.551021,640.400162 L299.551021,640.410468 Z" id="Shape" fill="#69737B"></path>
                <path d="M655.426711,406.963023 C648.463966,405.533956 641.654017,409.995646 640.18373,416.949804 C612.739885,545.596923 502.00112,639.562091 370.602484,645.697587 L370.602484,615.963983 C370.602484,608.848984 364.834638,603.081138 357.719639,603.081138 C350.604641,603.081138 344.836795,608.848984 344.836795,615.963983 L344.836795,702.340877 C344.836795,709.455875 350.604641,715.223721 357.719639,715.223721 C364.834638,715.223721 370.602484,709.455875 370.602484,702.340877 L370.602484,671.741545 C514.234127,665.427921 635.436385,562.817072 665.361961,422.195698 C666.817273,415.247181 662.372312,408.43219 655.426711,406.963023 L655.426711,406.963023 Z" id="Shape" fill="#69737B"></path>
                <path d="M702.340877,344.836795 L671.741545,344.836795 C665.509217,200.721121 562.269145,79.2132778 421.051702,49.7887427 C416.502327,48.766683 411.75576,50.2826372 408.640999,53.7524616 C405.526238,57.2222859 404.529493,62.1043461 406.034839,66.5174345 C407.540185,70.9305229 411.312642,74.1857631 415.898564,75.0288112 C545.089178,102.002144 639.64096,213.000847 645.728506,344.836795 L615.963983,344.836795 C611.361385,344.836795 607.10841,347.292251 604.807111,351.278217 C602.505813,355.264183 602.505813,360.175096 604.807111,364.161062 C607.10841,368.147028 611.361385,370.602484 615.963983,370.602484 L702.330571,370.602484 C709.445569,370.602484 715.213415,364.834638 715.213415,357.719639 C715.213415,350.604641 709.445569,344.836795 702.330571,344.836795 L702.340877,344.836795 Z" id="Shape" fill="#69737B"></path>
                <path d="M138.855575,357.719639 C138.855575,478.594925 236.844354,576.583704 357.719639,576.583704 C478.594925,576.583704 576.583704,478.594925 576.583704,357.719639 C576.583704,236.844354 478.594925,138.855575 357.719639,138.855575 C236.900862,138.991888 138.991888,236.900862 138.855575,357.719639 Z M550.828322,357.719639 C550.828322,464.363586 464.377328,550.816118 357.733381,550.818015 C251.089434,550.819913 164.635364,464.370457 164.63157,357.72651 C164.627775,251.082563 251.075693,164.626955 357.719639,164.621263 C464.313132,164.746207 550.693072,251.126147 550.818016,357.719639 L550.828322,357.719639 Z" id="Shape" fill="#69737B"></path>
                <rect id="Rectangle-path" fill="#FF7900" x="235.765483" y="305.425598" width="21.1175583" height="104.588083"></rect>
                <path d="M321.152974,321.647676 C331.815479,321.255577 341.172978,328.69258 343.198097,339.168344 L364.099224,334.1698 C362.346959,326.897303 358.648894,320.238648 353.40131,314.907371 C344.914493,307.158849 333.706475,303.083206 322.224827,303.570468 C308.877464,303.032486 295.949748,308.293765 286.77124,317.999254 C277.203786,329.266565 272.372303,343.801647 273.290631,358.554448 C272.493976,372.779807 277.30393,386.750873 286.688789,397.470944 C303.333782,413.930856 329.261913,416.407791 348.722261,403.397052 C356.629597,396.9001 362.139676,387.947581 364.377493,377.961164 L343.898924,371.468211 C342.819858,377.851408 339.775361,383.738636 335.190121,388.308665 C331.209191,391.851574 326.037952,393.761804 320.709804,393.657622 C313.55757,393.86612 306.710273,390.758208 302.158509,385.237395 C296.632646,376.908231 294.116516,366.941885 295.026566,356.987894 C294.179886,347.408974 296.734121,337.83789 302.240959,329.954534 C306.951996,324.451365 313.913206,321.393744 321.152974,321.647676 Z" id="Shape" fill="#FF7900"></path>
                <path d="M429.100903,411.796667 C442.848326,412.444008 456.228414,407.247712 465.935531,397.491556 C484.335663,374.167344 484.293003,341.255076 465.832469,317.978641 C456.064819,308.208362 442.633585,303.004226 428.83294,303.642612 C421.11897,303.488112 413.453009,304.890208 406.293116,307.765123 C401.191068,309.950952 396.589622,313.156532 392.771282,317.185058 C388.702446,321.350078 385.404864,326.20398 383.031852,331.521087 C379.607739,340.028059 377.979617,349.151152 378.24974,358.317403 C377.439325,372.684976 382.395536,386.781983 392.018924,397.48125 C401.817627,407.253647 415.277453,412.449783 429.100903,411.796667 Z M407.983345,330.645054 C413.47221,324.942472 421.040412,321.711656 428.955379,321.692228 C436.870346,321.6728 444.454316,324.866424 449.971111,330.541991 C455.789418,338.208507 458.594577,347.742381 457.855411,357.338307 C458.59627,367.121227 455.712982,376.834902 449.754679,384.629325 C444.402358,390.437896 436.859901,393.736364 428.961378,393.722651 C421.062855,393.708938 413.531897,390.384302 408.199776,384.557181 C397.338484,368.243639 397.253332,347.024629 407.983345,330.624441 L407.983345,330.645054 Z" id="Shape" fill="#FF7900"></path>
            </g>
        </g>
    </g>
</svg>