<?xml version="1.0" encoding="UTF-8"?>
<svg width="25px" height="25px" viewBox="0 0 25 25" version="1.1" xmlns="http://www.w3.org/2000/svg" xmlns:xlink="http://www.w3.org/1999/xlink">
    <!-- Generator: Sketch 41 (35326) - http://www.bohemiancoding.com/sketch -->
    <title>icon</title>
    <desc>Created with Sketch.</desc>
    <defs></defs>
    <g id="Page-1" stroke="none" stroke-width="1" fill="none" fill-rule="evenodd">
        <g id="icon">
            <circle id="Oval" stroke="#FF7900" stroke-width="1.5" cx="12.5" cy="12.5" r="11.0958252"></circle>
            <circle id="Oval" stroke="#FF7900" stroke-width="0.6" cx="12.5" cy="12.5" r="8.58787537"></circle>
            <g id="10" transform="translate(5.500000, 7.500000)" fill="#222222">
                <g id="group-70svg" transform="translate(0.000000, 0.000000)">
                    <path d="M11.5700335,9.62317608 C11.387996,9.62317608 11.2404336,9.47583327 11.2404336,9.29379574 C11.2404336,7.19059246 9.52941247,5.47935179 7.42598961,5.47935179 C5.32256674,5.47935179 3.61132607,7.19059246 3.61132607,9.29379574 C3.61132607,9.47583327 3.46376368,9.62317608 3.28194573,9.62317608 C3.10012778,9.62317608 2.95256539,9.47583327 2.95256539,9.29379574 C2.95256539,6.82739573 4.95937002,4.8205911 7.42598961,4.8205911 C9.8926092,4.8205911 11.8991942,6.82739573 11.8991942,9.29379574 C11.8991942,9.47583327 11.7518514,9.62317608 11.5700335,9.62317608 Z" id="path-1_66_"></path>
                    <path d="M7.42598961,5.35638312 C5.9951614,5.35638312 4.83113127,4.192353 4.83113127,2.76152479 C4.83113127,1.33091617 5.9951614,0.16688604 7.42598961,0.16688604 C8.85681781,0.16688604 10.0208479,1.33091617 10.0208479,2.76152479 C10.0208479,4.192353 8.85681781,5.35638312 7.42598961,5.35638312 Z M7.42598961,0.825646724 C6.35835813,0.825646724 5.48989196,1.69411289 5.48989196,2.76152479 C5.48989196,3.82915627 6.35835813,4.69762244 7.42598961,4.69762244 C8.49362109,4.69762244 9.36208726,3.82915627 9.36208726,2.76152479 C9.36208726,1.69411289 8.49362109,0.825646724 7.42598961,0.825646724 Z" id="path-2_66_"></path>
                    <path d="M2.86451104,8.67587821 L0.329380342,8.67587821 C0.147562393,8.67587821 0,8.52831582 0,8.34649787 C0,6.22419053 1.60715648,4.62384124 3.73846688,4.62384124 C4.38910285,4.62384124 5.03249246,4.80500043 5.65062956,5.1624879 C5.80807337,5.25361646 5.86187216,5.45497764 5.77096318,5.61264103 C5.67983462,5.77008483 5.47825385,5.82388362 5.32081005,5.73297465 C4.80412208,5.4338973 4.27184345,5.28260193 3.73846688,5.28260193 C2.09507856,5.28260193 0.829599289,6.43675065 0.674790528,8.01711753 L2.86451104,8.01711753 C3.04632899,8.01711753 3.19389138,8.16467992 3.19389138,8.34649787 C3.19389138,8.52831582 3.04632899,8.67587821 2.86451104,8.67587821 Z" id="path-3_54_"></path>
                    <path d="M3.75383797,5.22858355 C2.53974203,5.22858355 1.55225976,4.2408817 1.55225976,3.02700534 C1.55225976,1.81312899 2.53974203,0.825646724 3.75383797,0.825646724 C4.34189167,0.825646724 4.89459189,1.05467586 5.31048946,1.47035385 C5.43916738,1.59903177 5.43916738,1.8078589 5.31048946,1.93631724 C5.18181154,2.06499516 4.97320399,2.06499516 4.84474566,1.93631724 C4.55313426,1.64492543 4.16600257,1.48440741 3.75383797,1.48440741 C2.90315834,1.48440741 2.21102044,2.17632571 2.21102044,3.02700534 C2.21102044,3.87746539 2.90315834,4.56982287 3.75383797,4.56982287 C4.25954659,4.56982287 4.73407386,4.32103092 5.02261104,3.90469416 C5.12625606,3.75515549 5.33135022,3.7180453 5.48088889,3.82169032 C5.63042757,3.92533533 5.66775734,4.13064908 5.56389274,4.27996817 C5.15216731,4.87351154 4.47562009,5.22858355 3.75383797,5.22858355 Z" id="path-4_33_"></path>
                    <path d="M13.4130263,8.67587821 L11.6479868,8.67587821 C11.4661689,8.67587821 11.3186065,8.52831582 11.3186065,8.34649787 C11.3186065,8.16467992 11.4661689,8.01711753 11.6479868,8.01711753 L13.0656398,8.01711753 C12.9108311,6.60934595 11.7742493,5.4740817 10.30148,5.31466161 C10.1400836,5.29731425 10.0151387,5.16468377 10.0078923,5.00240905 C10.0004264,4.84013434 10.1124157,4.69652451 10.2716162,4.66446482 C11.0061343,4.51624367 11.5190893,3.90337664 11.5190893,3.17368939 C11.5190893,2.33508704 10.7279177,1.57136382 9.8590124,1.57136382 C9.67719445,1.57136382 9.52963206,1.42402101 9.52963206,1.24198348 C9.52963206,1.05994594 9.67719445,0.912603135 9.8590124,0.912603135 C11.0941887,0.912603135 12.17785,1.96925527 12.17785,3.17368939 C12.17785,3.8689015 11.8559356,4.48967365 11.3335384,4.89041973 C12.7569007,5.43257978 13.7424066,6.78457629 13.7424066,8.34649787 C13.7424066,8.52831582 13.5948442,8.67587821 13.4130263,8.67587821 Z" id="path-5_16_"></path>
                </g>
            </g>
        </g>
    </g>
</svg>