<?xml version="1.0" encoding="UTF-8"?>
<svg width="25px" height="25px" viewBox="0 0 25 25" version="1.1" xmlns="http://www.w3.org/2000/svg" xmlns:xlink="http://www.w3.org/1999/xlink">
    <!-- Generator: Sketch 41 (35326) - http://www.bohemiancoding.com/sketch -->
    <title>icon</title>
    <desc>Created with Sketch.</desc>
    <defs></defs>
    <g id="Page-1" stroke="none" stroke-width="1" fill="none" fill-rule="evenodd">
        <g id="icon">
            <circle id="Oval" stroke="#FF7900" stroke-width="1.5" cx="12.5" cy="12.5" r="11.0958252"></circle>
            <circle id="Oval" stroke="#FF7900" stroke-width="0.6" cx="12.5" cy="12.5" r="8.58787537"></circle>
            <g id="12" transform="translate(5.000000, 6.500000)" fill="#222222">
                <path d="M14.4044928,4.09230645 L10.4729791,0.160229659 C10.4010037,0.0882031 10.3033302,0.0477617483 10.2014589,0.0477617483 C10.0996389,0.0477617483 10.0019653,0.0882542916 9.92993878,0.160229659 L8.02335941,2.0670138 C8.02320584,2.06716737 8.02305226,2.06737214 8.02289869,2.06752571 L7.1322675,2.9581569 L6.49140006,2.31728945 C6.49001788,2.31585609 6.48878929,2.31426915 6.48740711,2.31288698 L4.58123727,0.406205223 C4.50926191,0.334178663 4.41163956,0.293737312 4.3097683,0.293737312 L4.30971711,0.293737312 C4.20789705,0.293737312 4.1102747,0.334178663 4.03819695,0.406205223 L0.112467911,4.33193426 C-0.0374722398,4.48187441 -0.0374722398,4.72493205 0.112467911,4.8748722 L2.01904728,6.78170753 C2.09102265,6.85373409 2.18869619,6.89417544 2.29056745,6.89417544 C2.3924387,6.89417544 2.49006105,6.8536829 2.56208761,6.78170753 L2.94274823,6.40104691 L3.31603727,6.77433594 L3.05987458,7.03049863 C2.90998562,7.18038759 2.90993443,7.42344523 3.05982339,7.57338539 L6.1535356,10.6682238 C6.22556216,10.7402504 6.3232357,10.7807429 6.42515815,10.7807429 C6.5270294,10.7807429 6.62470294,10.7402504 6.6967295,10.6681726 L6.95273862,10.4119587 L7.51881516,10.9780865 C7.59079052,11.0500618 7.68846407,11.0905544 7.79033532,11.0905544 C7.89215538,11.0905544 7.98977773,11.050113 8.06185548,10.9780865 L9.50177237,9.5381184 C9.50284739,9.53704337 9.5040248,9.53617312 9.50504863,9.53514928 C9.50612366,9.53412545 9.50694272,9.53294805 9.50806894,9.53187302 L10.4188184,8.62107235 C10.4191768,8.62071401 10.4195863,8.62040686 10.4198934,8.62004852 C10.4202518,8.61969018 10.4205589,8.61928065 10.4209173,8.61892231 L11.3358133,7.70397512 C11.4077886,7.63194856 11.44823,7.53432621 11.44823,7.43245495 C11.44823,7.3305837 11.4077374,7.23296135 11.3357621,7.16093479 L10.769532,6.59485825 L11.3891037,5.97472339 L11.9557945,6.54126066 C12.0307902,6.61620514 12.1290269,6.65367738 12.2272635,6.65367738 C12.3255002,6.65367738 12.423788,6.61620514 12.4987837,6.54120947 L14.4046464,4.63514201 C14.5544329,4.48525305 14.5544329,4.24219541 14.4044928,4.09230645 Z M0.926926019,4.60345442 L4.30971711,1.22066333 L5.67305139,2.58430476 L5.4162744,2.84108174 L2.6710233,5.58648642 C2.670409,5.58710072 2.66994828,5.58771502 2.66938517,5.58832932 L2.29056745,5.96719823 L0.926926019,4.60345442 Z M6.42495338,9.85366332 L3.8742303,7.3019676 L4.12936916,7.04672636 C4.1297275,7.04641922 4.13008584,7.04611207 4.13044418,7.04580492 C4.13080252,7.04549777 4.13105848,7.04508823 4.13141682,7.04478108 L4.38604376,6.79010295 L6.9370228,9.34113318 L6.42495338,9.85366332 Z M7.79018175,10.1636284 L7.49531822,9.86876484 L7.75142972,9.61244858 C7.90126748,9.46250843 7.90121629,9.21950197 7.75132733,9.06961302 L4.65746154,5.97569604 C4.58543498,5.90366948 4.48781263,5.86322812 4.38594138,5.86322812 C4.28412132,5.86322812 4.18644778,5.90372067 4.11442122,5.97569604 L3.85882164,6.23134681 L3.4855326,5.85805777 L5.65805225,3.68523097 L6.21568218,3.12754985 L6.58922717,3.50109484 L5.0136014,5.07672062 C4.94157484,5.14874718 4.90113349,5.24636953 4.90113349,5.34824078 C4.90113349,5.45006085 4.94162603,5.54773439 5.0136014,5.61976095 L6.24931505,6.85506507 C6.32134161,6.92704044 6.41896396,6.96748179 6.52078403,6.96748179 L6.52088641,6.96748179 C6.62270647,6.9674306 6.72032882,6.92698925 6.79235538,6.85496269 L8.36695733,5.27959287 L9.95456194,6.86709509 C9.95778701,6.87026897 9.96126803,6.87308451 9.96454429,6.87615601 L10.5211504,7.43260853 L10.1482709,7.80548803 L9.17900943,6.83591942 C9.02917166,6.68592808 8.78606283,6.68592808 8.63607149,6.83581704 C8.48613134,6.98575719 8.48608014,7.22881483 8.6360203,7.37875498 L9.60538414,8.34842597 L9.2333237,8.72058879 L8.26380628,7.75112257 C8.11391733,7.60118242 7.87080849,7.60123361 7.72086834,7.75117376 C7.57092819,7.90111391 7.57092819,8.14422274 7.72091953,8.29416289 L8.69038576,9.26352674 L7.79018175,10.1636284 Z M10.8456027,5.43214379 L10.2262357,6.05202269 L10.0945709,5.92035793 C10.0915506,5.91733763 10.0882744,5.91477805 10.0851517,5.91191132 L8.63822153,4.46508357 C8.56624617,4.39305701 8.46857262,4.35261566 8.36670137,4.35261566 C8.26488131,4.35261566 8.16715657,4.3931082 8.09518121,4.46513476 L6.52057926,6.04055577 L5.82800831,5.34818959 L7.40301979,3.77322931 C7.40322456,3.77302454 7.40348052,3.77287096 7.40368528,3.7726662 C7.40389005,3.77246143 7.40409482,3.77225667 7.40429958,3.7720519 L8.29493077,2.88147191 L8.63929656,3.22573531 L10.8456027,5.43214379 Z M12.2270588,5.72685374 L9.29613578,2.79659626 L8.8379199,2.33838039 L10.2015101,0.974687768 L13.5900859,4.36372423 L12.2270588,5.72685374 Z" id="Shape"></path>
            </g>
        </g>
    </g>
</svg>