<?xml version="1.0" encoding="UTF-8"?>
<svg width="25px" height="25px" viewBox="0 0 25 25" version="1.1" xmlns="http://www.w3.org/2000/svg" xmlns:xlink="http://www.w3.org/1999/xlink">
    <!-- Generator: Sketch 41 (35326) - http://www.bohemiancoding.com/sketch -->
    <title>icon</title>
    <desc>Created with Sketch.</desc>
    <defs></defs>
    <g id="Page-1" stroke="none" stroke-width="1" fill="none" fill-rule="evenodd">
        <g id="icon">
            <circle id="Oval" stroke="#FF7900" stroke-width="1.5" cx="12.5" cy="12.5" r="11.0958252"></circle>
            <circle id="Oval" stroke="#FF7900" stroke-width="0.6" cx="12.5" cy="12.5" r="8.58787537"></circle>
            <path d="M12.3687934,18.507495 C12.6232295,18.507495 12.8294908,18.3012337 12.8294908,18.0467975 L12.8294908,17.1482532 L13.6513751,17.1482532 C15.0577517,17.1466293 16.1975541,16.0071565 16.199585,14.6007805 L16.199585,14.4128159 C16.1983976,13.5211662 15.7309086,12.695092 14.9671271,12.2350068 C15.8189633,11.5634144 16.1516465,10.4257962 15.7958834,9.40105533 C15.4401202,8.37631447 14.4740703,7.68958238 13.3893304,7.69031842 L12.8294908,7.69031842 L12.8294908,6.95320246 C12.8294908,6.69876628 12.6232295,6.49250499 12.3687934,6.49250499 C12.1143572,6.49250499 11.9080959,6.69876628 11.9080959,6.95320246 L11.9080959,7.69031842 L10.8713423,7.69031842 L10.8713423,6.95320246 C10.8713423,6.69876628 10.665081,6.49250499 10.4106448,6.49250499 C10.1562086,6.49250499 9.94994737,6.69876628 9.94994737,6.95320246 L9.94994737,7.69031842 L9.26111251,7.69031842 C9.00667632,7.69031842 8.80041504,7.8965797 8.80041504,8.15101589 C8.80041504,8.40545207 9.00667632,8.61171336 9.26111251,8.61171336 L9.94994737,8.61171336 L9.94994737,16.2268583 L9.26111251,16.2268583 C9.00667632,16.2268583 8.80041504,16.4331195 8.80041504,16.6875557 C8.80041504,16.9419919 9.00667632,17.1482532 9.26111251,17.1482532 L9.94994737,17.1482532 L9.94994737,18.0456919 C9.94994737,18.300128 10.1562086,18.5063893 10.4106448,18.5063893 C10.665081,18.5063893 10.8713423,18.300128 10.8713423,18.0456919 L10.8713423,17.1482532 L11.9080959,17.1482532 L11.9080959,18.0456919 C11.9078022,18.1680679 11.9562101,18.2855323 12.0426395,18.3721692 C12.1290689,18.458806 12.246417,18.5074954 12.3687934,18.507495 Z M13.3893304,8.61245047 C14.278147,8.62582976 14.9916598,9.35016376 14.9916598,10.2390811 C14.9916598,11.1279984 14.278147,11.8523324 13.3893304,11.8657117 L10.8713423,11.8657117 L10.8713423,8.6113448 L13.3893304,8.61245047 Z M10.8713423,12.786001 L13.6513751,12.786001 C14.5494192,12.7870165 15.2771745,13.5147718 15.27819,14.4128159 L15.27819,14.6007805 C15.2771745,15.4988245 14.5494192,16.2265798 13.6513751,16.2275954 L10.8713423,16.2275954 L10.8713423,12.786001 Z" id="Shape" fill="#222222"></path>
        </g>
    </g>
</svg>