<?xml version="1.0" encoding="UTF-8"?>
<svg width="25px" height="25px" viewBox="0 0 25 25" version="1.1" xmlns="http://www.w3.org/2000/svg" xmlns:xlink="http://www.w3.org/1999/xlink">
    <!-- Generator: Sketch 41 (35326) - http://www.bohemiancoding.com/sketch -->
    <title>icon</title>
    <desc>Created with Sketch.</desc>
    <defs></defs>
    <g id="Page-1" stroke="none" stroke-width="1" fill="none" fill-rule="evenodd">
        <g id="icon">
            <circle id="Oval" stroke="#FF7900" stroke-width="1.5" cx="12.5" cy="12.5" r="11.0958252"></circle>
            <circle id="Oval" stroke="#FF7900" stroke-width="0.6" cx="12.5" cy="12.5" r="8.58787537"></circle>
            <g id="11" transform="translate(5.500000, 6.764544)">
                <path d="M6.64538851,8.56692175 L6.64538851,4.64055113 C6.64525742,4.17772493 6.26865198,3.80118503 5.80585855,3.80118503 L3.73400429,3.80115226 C4.59729328,3.61225966 5.24566943,2.84210612 5.24566943,1.92294241 C5.24566943,0.862633575 4.38306863,0 3.32272702,0 C2.26241819,0 1.39978462,0.862600804 1.39978462,1.92294241 C1.39978462,2.84207335 2.04812799,3.61222689 2.91141699,3.80115226 L0.839529952,3.80111949 C0.376736526,3.80111949 0.000131084386,4.17765939 0,4.6405839 L6.55421932e-05,8.56685621 C6.55421932e-05,9.02971518 0.376605442,9.40632062 0.839529952,9.40638617 L5.8059241,9.40638617 C6.26881584,9.40638617 6.64538851,9.02981349 6.64538851,8.56692175 Z M2.2518659,1.92294241 C2.2518659,1.33244002 2.73225741,0.852048511 3.3227598,0.852048511 C3.91326218,0.852048511 4.39365369,1.33244002 4.39365369,1.92294241 C4.39365369,2.51344479 3.91326218,2.9938363 3.3227598,2.9938363 C2.73225741,2.9938363 2.2518659,2.51344479 2.2518659,1.92294241 Z" id="Shape" fill="#222222"></path>
                <path d="M13.8860086,8.56692175 L13.8860086,4.64055113 C13.8858775,4.17772493 13.5092721,3.80118503 13.0464786,3.80118503 L10.9746244,3.80115226 C11.8379134,3.61225966 12.4862895,2.84210612 12.4862895,1.92294241 C12.4862895,0.862633575 11.6236887,0 10.5633471,0 C9.50303828,0 8.64040471,0.862600804 8.64040471,1.92294241 C8.64040471,2.84207335 9.28874808,3.61222689 10.1520371,3.80115226 L8.08015004,3.80111949 C7.61735661,3.80111949 7.24075117,4.17765939 7.24062009,4.6405839 L7.24068563,8.56685621 C7.24068563,9.02971518 7.61722553,9.40632062 8.08015004,9.40638617 L13.0465442,9.40638617 C13.5094359,9.40638617 13.8860086,9.02981349 13.8860086,8.56692175 Z M9.49248599,1.92294241 C9.49248599,1.33244002 9.97287749,0.852048511 10.5633799,0.852048511 C11.1538823,0.852048511 11.6342738,1.33244002 11.6342738,1.92294241 C11.6342738,2.51344479 11.1538823,2.9938363 10.5633799,2.9938363 C9.97287749,2.9938363 9.49248599,2.51344479 9.49248599,1.92294241 Z" id="Shape-Copy" fill="#222222"></path>
                <path d="M11.3173671,10.182504 C11.2487444,10.0328384 11.1000292,9.9360654 10.9353872,9.93403359 L9.77129233,9.91961431 C9.76948992,9.91958154 9.76772028,9.91958154 9.76591787,9.91958154 C9.53307922,9.91958154 9.34290855,10.1068684 9.34002469,10.3403296 C9.33710807,10.5755933 9.52544356,10.7686806 9.76074003,10.7715973 L9.8796008,10.773072 C9.12570172,11.3408312 8.20345752,11.6544506 7.24054439,11.6544506 C5.94054776,11.6544506 4.71464658,11.0827916 3.87714844,10.0860259 C3.72584428,9.90591599 3.45712129,9.88258297 3.2769458,10.0338871 C3.09680308,10.185224 3.07347006,10.453947 3.22480699,10.6340898 C4.22455483,11.824041 5.68824309,12.5064991 7.24054439,12.5064991 C8.42823447,12.5064991 9.56378574,12.1065934 10.4796396,11.3859243 L10.4761986,11.5316573 C10.4705948,11.7668883 10.6567674,11.9621057 10.8919983,11.9676768 C10.8954393,11.9677751 10.8988802,11.9678078 10.9022884,11.9678078 C11.1328658,11.9678078 11.3224794,11.7836671 11.327985,11.5519099 L11.3560042,10.3701841 L11.3557421,10.3701841 C11.3572495,10.306641 11.3448293,10.2424752 11.3173671,10.182504 Z" id="Shape" fill="#222222"></path>
                <rect id="Rectangle" fill="#FFFFFF" x="0.881078685" y="4.59427834" width="4.88323114" height="4.05805736"></rect>
                <rect id="Rectangle-Copy" fill="#FFFFFF" x="8.12169877" y="4.59427834" width="4.88323114" height="4.05805736"></rect>
            </g>
        </g>
    </g>
</svg>