<?xml version="1.0" encoding="UTF-8"?>
<svg width="25px" height="25px" viewBox="0 0 25 25" version="1.1" xmlns="http://www.w3.org/2000/svg" xmlns:xlink="http://www.w3.org/1999/xlink">
    <!-- Generator: Sketch 41 (35326) - http://www.bohemiancoding.com/sketch -->
    <title>icon</title>
    <desc>Created with Sketch.</desc>
    <defs></defs>
    <g id="Page-1" stroke="none" stroke-width="1" fill="none" fill-rule="evenodd">
        <g id="icon">
            <circle id="Oval" stroke="#FF7900" stroke-width="1.5" cx="12.5" cy="12.5" r="11.0958252"></circle>
            <circle id="Oval" stroke="#FF7900" stroke-width="0.6" cx="12.5" cy="12.5" r="8.58787537"></circle>
            <path d="M15.5786486,12.7498149 C15.8111921,12.5172714 16.1772911,12.5172714 16.4098346,12.7498149 C16.6345219,12.9823584 16.6345219,13.3484574 16.4098346,13.5810009 L12.926919,17.0644402 C12.8190272,17.1723321 12.6692357,17.2388479 12.5032079,17.2388479 C12.3371802,17.2388479 12.1873887,17.1723321 12.0789731,17.0644402 L8.59605755,13.5810009 C8.36351401,13.3484574 8.36351401,12.9823584 8.59605755,12.7498149 C8.82860108,12.5172714 9.19470003,12.5172714 9.42724357,12.7498149 L11.9129454,15.2438967 L11.9129454,6.38995869 C11.9124217,6.06575948 12.178485,5.80807611 12.5026842,5.80807611 C12.8268834,5.80807611 13.0845668,6.06575948 13.0845668,6.38995869 L13.0845668,15.2433729 L15.5786486,12.7498149 Z" id="5" fill="#1E201D"></path>
            <rect id="5" fill="#222222" x="9.5" y="18" width="6" height="1"></rect>
        </g>
    </g>
</svg>