<?xml version="1.0" encoding="UTF-8"?>
<svg width="25px" height="25px" viewBox="0 0 25 25" version="1.1" xmlns="http://www.w3.org/2000/svg" xmlns:xlink="http://www.w3.org/1999/xlink">
    <!-- Generator: Sketch 41 (35326) - http://www.bohemiancoding.com/sketch -->
    <title>icon</title>
    <desc>Created with Sketch.</desc>
    <defs></defs>
    <g id="Page-1" stroke="none" stroke-width="1" fill="none" fill-rule="evenodd">
        <g id="icon">
            <circle id="Oval" stroke="#FF7900" stroke-width="1.5" cx="12.5" cy="12.5" r="11.0958252"></circle>
            <circle id="Oval" stroke="#FF7900" stroke-width="0.6" cx="12.5" cy="12.5" r="8.58787537"></circle>
            <g id="19" transform="translate(10.000000, 6.000000)" fill="#000000">
                <path d="M4.21553352,0.0399268159 C4.00499943,0.0399268159 3.83430385,0.210622401 3.83430385,0.421156487 L3.83430385,3.69439444 L2.80231513,4.72638316 C2.72597389,4.80243848 2.68537293,4.90732429 2.69061484,5.01497402 L3.0241908,11.6864933 C3.03214897,11.8303598 2.9799205,11.9710812 2.88008598,12.0749663 C2.67141039,12.2855004 2.33154414,12.2870253 2.1209624,12.078302 C2.11981871,12.077206 2.11872268,12.0760623 2.11762664,12.0749663 C2.01774447,11.9710812 1.96556366,11.8303598 1.97352182,11.6864933 L2.30938516,5.01497402 C2.31472238,4.90737194 2.27426438,4.80253378 2.1980661,4.72638316 L1.16569615,3.69439444 L1.16569615,0.421156487 C1.16569615,0.210622401 0.995000568,0.0399268159 0.784466482,0.0399268159 C0.573932396,0.0399268159 0.403236811,0.210622401 0.403236811,0.421156487 L0.403236811,3.85222352 C0.403236811,3.95334469 0.443456542,4.05027234 0.514937105,4.1217529 L1.53892,5.14611702 L1.21373109,11.649514 C1.1791345,12.3598878 1.72696154,12.9638509 2.43733537,12.9984475 C3.14770921,13.0330441 3.75167232,12.4852171 3.78626891,11.7748432 C3.78831802,11.7330986 3.78831802,11.6913063 3.78626891,11.6495616 L3.46108,5.14616468 L4.4850629,4.12180055 C4.55654346,4.05031999 4.59676319,3.95339235 4.59676319,3.85227118 L4.59676319,0.42120414 C4.59676319,0.210622401 4.4260676,0.0399268159 4.21553352,0.0399268159 Z" id="Shape" transform="translate(2.500000, 6.519963) rotate(-180.000000) translate(-2.500000, -6.519963) "></path>
                <path d="M2.88122967,9.18770329 C2.67069559,9.18770329 2.5,9.35839888 2.5,9.56893296 L2.5,12.6187703 C2.5,12.8293044 2.67069559,13 2.88122967,13 C3.09176376,13 3.26245934,12.8293044 3.26245934,12.6187703 L3.26245934,9.56893296 C3.26245934,9.35839888 3.09176376,9.18770329 2.88122967,9.18770329 Z" id="Shape" transform="translate(3.000000, 11.093852) rotate(-180.000000) translate(-3.000000, -11.093852) "></path>
                <path d="M1.68675099,9.18770329 C1.47621691,9.18770329 1.30552132,9.35839888 1.30552132,9.56893296 L1.30552132,12.6187703 C1.30552132,12.8293044 1.47621691,13 1.68675099,13 C1.89728508,13 2.06798066,12.8293044 2.06798066,12.6187703 L2.06798066,9.56893296 C2.06798066,9.35839888 1.89728508,9.18770329 1.68675099,9.18770329 Z" id="Shape" transform="translate(1.805521, 11.093852) rotate(-180.000000) translate(-1.805521, -11.093852) "></path>
            </g>
        </g>
    </g>
</svg>