<?xml version="1.0" encoding="UTF-8"?>
<svg width="25px" height="25px" viewBox="0 0 25 25" version="1.1" xmlns="http://www.w3.org/2000/svg" xmlns:xlink="http://www.w3.org/1999/xlink">
    <!-- Generator: Sketch 41 (35326) - http://www.bohemiancoding.com/sketch -->
    <title>icon</title>
    <desc>Created with Sketch.</desc>
    <defs></defs>
    <g id="Page-1" stroke="none" stroke-width="1" fill="none" fill-rule="evenodd">
        <g id="icon">
            <circle id="Oval" stroke="#FF7900" stroke-width="1.5" cx="12.5" cy="12.5" r="11.0958252"></circle>
            <circle id="Oval" stroke="#FF7900" stroke-width="0.6" cx="12.5" cy="12.5" r="8.58787537"></circle>
            <path d="M6.31853278,10.34375 L6.31853278,9.65625 L8.67400153,9.65625 L8.67400153,10.34375 L8.06462653,10.4609375 L8.06462653,14.5429688 L8.67400153,14.6601562 L8.67400153,15.34375 L6.31853278,15.34375 L6.31853278,14.6601562 L6.92790778,14.5429688 L6.92790778,10.4609375 L6.31853278,10.34375 Z M13.7677515,11.5742188 L12.9200953,11.5742188 L12.8029078,10.8164062 C12.6909281,10.7044265 12.5496534,10.6158857 12.3790797,10.5507812 C12.2085059,10.4856768 12.007336,10.453125 11.775564,10.453125 C11.2807699,10.453125 10.8999143,10.6328107 10.6329859,10.9921875 C10.3660575,11.3515643 10.2325953,11.8203096 10.2325953,12.3984375 L10.2325953,12.5976562 C10.2325953,13.1757841 10.3654065,13.6458315 10.6310328,14.0078125 C10.8966591,14.3697935 11.2716554,14.5507812 11.7560328,14.5507812 C11.9799922,14.5507812 12.1850683,14.5182295 12.3712672,14.453125 C12.557466,14.3880205 12.7013448,14.2994797 12.8029078,14.1875 L12.9200953,13.4296875 L13.7677515,13.4296875 L13.7677515,14.5546875 C13.5385837,14.8203138 13.2462689,15.0319003 12.8907984,15.1894531 C12.5353279,15.347006 12.1375454,15.4257812 11.697439,15.4257812 C10.9344144,15.4257812 10.3094206,15.161461 9.82243903,14.6328125 C9.33545743,14.104164 9.09197028,13.4257854 9.09197028,12.5976562 L9.09197028,12.40625 C9.09197028,11.580725 9.33415536,10.9023464 9.81853278,10.3710938 C10.3029102,9.83984109 10.929206,9.57421875 11.697439,9.57421875 C12.1375454,9.57421875 12.5346768,9.65429607 12.8888453,9.81445312 C13.2430137,9.97461018 13.5359795,10.1861966 13.7677515,10.4492188 L13.7677515,11.5742188 Z M19.4904078,12.5429688 C19.4904078,13.3763062 19.2521289,14.0651014 18.775564,14.609375 C18.2989991,15.1536486 17.6753075,15.4257812 16.9044703,15.4257812 C16.1362373,15.4257812 15.5158008,15.1536486 15.0431422,14.609375 C14.5704835,14.0651014 14.3341578,13.3763062 14.3341578,12.5429688 L14.3341578,12.4570312 C14.3341578,11.6289021 14.5698325,10.941409 15.041189,10.3945312 C15.5125456,9.84765352 16.132331,9.57421875 16.900564,9.57421875 C17.6714012,9.57421875 18.2957439,9.84765352 18.7736109,10.3945312 C19.2514779,10.941409 19.4904078,11.6289021 19.4904078,12.4570312 L19.4904078,12.5429688 Z M18.353689,12.4492188 C18.353689,11.8606741 18.2312944,11.3828143 17.9865015,11.015625 C17.7417086,10.6484357 17.3797331,10.4648438 16.900564,10.4648438 C16.421395,10.4648438 16.0639767,10.6471336 15.8282984,11.0117188 C15.5926201,11.3763039 15.4747828,11.8554658 15.4747828,12.4492188 L15.4747828,12.5429688 C15.4747828,13.1419301 15.5939222,13.6243471 15.8322047,13.9902344 C16.0704871,14.3561216 16.4279054,14.5390625 16.9044703,14.5390625 C17.3862435,14.5390625 17.7482191,14.3561216 17.9904078,13.9902344 C18.2325965,13.6243471 18.353689,13.1419301 18.353689,12.5429688 L18.353689,12.4492188 Z" id="6" fill="#222222"></path>
        </g>
    </g>
</svg>