<?xml version="1.0" encoding="UTF-8"?>
<svg width="25px" height="25px" viewBox="0 0 25 25" version="1.1" xmlns="http://www.w3.org/2000/svg" xmlns:xlink="http://www.w3.org/1999/xlink">
    <!-- Generator: Sketch 41 (35326) - http://www.bohemiancoding.com/sketch -->
    <title>icon</title>
    <desc>Created with Sketch.</desc>
    <defs></defs>
    <g id="Page-1" stroke="none" stroke-width="1" fill="none" fill-rule="evenodd">
        <g id="icon">
            <circle id="Oval" stroke="#FF7900" stroke-width="1.5" cx="12.5" cy="12.5" r="11.0958252"></circle>
            <circle id="Oval" stroke="#FF7900" stroke-width="0.6" cx="12.5" cy="12.5" r="8.58787537"></circle>
            <g id="15" transform="translate(7.146369, 7.000000)" fill="#000000">
                <path d="M11.2511218,4.46207319 L10.9675828,4.46207319 L10.9675828,2.75839474 C10.9675828,2.06176868 10.4005047,1.49713494 9.706323,1.49713494 L9.44478269,1.49713494 L9.44722699,0.864060735 C9.44722699,0.394754763 9.06591589,0.0134436607 8.59660992,0.0134436607 L1.03393972,0.0134436607 C0.469305972,0.0134436607 0.00733290581,0.468083821 2.84217094e-14,1.03271757 L2.84217094e-14,1.04738338 L2.84217094e-14,9.3922302 C2.84217094e-14,9.86153617 0.381311102,10.2428473 0.850617075,10.2428473 L9.7087673,10.2428473 C10.4053934,10.2428473 10.9700271,9.67576922 10.9700271,8.98158747 L10.9700271,7.27546472 L11.2535661,7.27546472 C11.6202114,7.27546472 11.9184163,6.97725988 11.9184163,6.61061459 L11.9184163,5.12692332 C11.9159719,4.76027802 11.6177671,4.46207319 11.2511218,4.46207319 Z M1.03393972,0.600076126 L8.59660992,0.600076126 C8.74082373,0.600076126 8.86059453,0.717402619 8.86059453,0.861616433 L8.85815022,1.49713494 L1.03393972,1.49713494 C0.787065224,1.49713494 0.586632465,1.29670218 0.586632465,1.04982768 C0.586632465,0.802953187 0.787065224,0.600076126 1.03393972,0.600076126 Z M10.3809503,8.97914317 C10.3809503,9.35067706 10.0778569,9.65377051 9.706323,9.65377051 L0.848172773,9.65377051 C0.703958958,9.65377051 0.584188163,9.53644401 0.584188163,9.3897859 L0.584188163,1.98110672 C0.721069072,2.04710287 0.872615792,2.0837674 1.03393972,2.0837674 L9.706323,2.0837674 C10.0778569,2.0837674 10.3809503,2.38686084 10.3809503,2.75839474 L10.3809503,4.46207319 L8.37906704,4.46207319 C8.01242175,4.46207319 7.71421692,4.76027802 7.71421692,5.12692332 L7.71421692,6.61061459 C7.71421692,6.97725988 8.01242175,7.27546472 8.37906704,7.27546472 L10.3809503,7.27546472 L10.3809503,8.97914317 L10.3809503,8.97914317 Z M11.3293395,6.61061459 C11.3293395,6.65461203 11.2951193,6.68883225 11.2511218,6.68883225 L8.38151135,6.68883225 C8.33751391,6.68883225 8.30329368,6.65461203 8.30329368,6.61061459 L8.30329368,5.12692332 C8.30329368,5.08537018 8.33751391,5.04870565 8.38151135,5.04870565 L11.2511218,5.04870565 C11.292675,5.04870565 11.3293395,5.08292588 11.3293395,5.12692332 L11.3293395,6.61061459 L11.3293395,6.61061459 Z" id="Shape"></path>
            </g>
        </g>
    </g>
</svg>