<?xml version="1.0" encoding="UTF-8"?>
<svg width="25px" height="25px" viewBox="0 0 25 25" version="1.1" xmlns="http://www.w3.org/2000/svg" xmlns:xlink="http://www.w3.org/1999/xlink">
    <!-- Generator: Sketch 41 (35326) - http://www.bohemiancoding.com/sketch -->
    <title>icon</title>
    <desc>Created with Sketch.</desc>
    <defs></defs>
    <g id="Page-1" stroke="none" stroke-width="1" fill="none" fill-rule="evenodd">
        <g id="icon">
            <circle id="Oval" stroke="#FF7900" stroke-width="1.5" cx="12.5" cy="12.5" r="11.0958252"></circle>
            <circle id="Oval" stroke="#FF7900" stroke-width="0.6" cx="12.5" cy="12.5" r="8.58787537"></circle>
            <g id="13-b" transform="translate(6.000000, 8.000000)" fill="#000000">
                <path d="M12.2581494,1.39211243 C12.2573322,1.39211243 12.2565151,1.39211243 12.255698,1.3921427 L10.5972323,1.3921427 L10.5972323,0.18158383 C10.5972323,0.081289028 10.5159433,-1.77635684e-15 10.4156485,-1.77635684e-15 L1.10160857,-1.77635684e-15 C0.493756698,0.00133161475 0.00133161475,0.493756698 -2.84217094e-14,1.10160857 L-2.84217094e-14,8.67486485 C0.00133161475,9.28271672 0.493756698,9.7751418 1.10160857,9.77647342 L11.3380944,9.77647342 C11.9459462,9.7751418 12.4383713,9.28271672 12.4397029,8.67486485 L12.4397029,1.57372653 C12.4397029,1.47343173 12.3584139,1.3921427 12.2581494,1.39211243 Z M1.10160857,9.41572688 C0.694316039,9.41439526 0.364499275,9.0845785 0.36316766,8.67728597 L0.36316766,1.10887192 C0.364499275,0.701579392 0.694346303,0.371762628 1.10160857,0.370431014 L10.2340647,0.370431014 L10.2340647,8.67486485 C10.2347305,8.94787614 10.3365082,9.21096084 10.5197566,9.41330576 L1.10160857,9.41572688 Z M12.0644297,8.67486485 C12.0645205,9.07843491 11.7415736,9.40782798 11.3380944,9.41572688 C10.9370059,9.42247574 10.6064023,9.10279741 10.5996534,8.70170899 C10.5995021,8.69356798 10.5995021,8.68542697 10.5996534,8.67728597 L10.5996534,1.75773148 L12.0644297,1.75773148 L12.0644297,8.67486485 Z" id="Shape"></path>
                <path d="M2.82302328,1.11129304 C2.7513582,1.11259439 2.69358427,1.17036831 2.69228292,1.2420334 L2.69228292,2.24195502 L1.89573519,1.15729428 C1.85251824,1.09918745 1.77074498,1.08626474 1.71173024,1.12824086 C1.67647271,1.15411656 1.65646823,1.19591111 1.65846565,1.23961228 L1.65846565,2.65354504 C1.65692219,2.72708649 1.71530139,2.78791707 1.78881258,2.78946054 C1.792989,2.78955133 1.79713517,2.78943027 1.8013116,2.78912763 C1.87337011,2.78655519 1.93081113,2.72805494 1.93205195,2.65596616 L1.93205195,1.64636006 L2.71165186,2.72617857 L2.72375745,2.74070528 C2.74805942,2.77072714 2.78440645,2.78843156 2.82302328,2.78912763 C2.89601998,2.78782628 2.9548834,2.72896286 2.95618476,2.65596616 L2.95618476,1.2420334 C2.95361232,1.16997488 2.89511206,1.11253386 2.82302328,1.11129304 Z" id="Shape"></path>
                <path d="M4.31685292,2.52038356 L3.65104555,2.52038356 L3.65104555,2.07005566 L4.2175871,2.07005566 C4.29179435,2.06006855 4.34387865,1.9918233 4.33389154,1.91761604 C4.32575053,1.8570881 4.2781453,1.8094526 4.2175871,1.8013116 L3.65104555,1.8013116 L3.65104555,1.35582593 L4.31685292,1.35582593 C4.39024305,1.35325349 4.44877358,1.29366373 4.4500144,1.22024334 C4.44871305,1.14724664 4.38984962,1.08838321 4.31685292,1.08708186 L3.51546295,1.08708186 C3.4419215,1.08708186 3.38230148,1.14670189 3.38230148,1.22024334 L3.38230148,2.65354504 C3.38096986,2.72708649 3.43950038,2.78776575 3.51301157,2.78909737 C3.5138287,2.78909737 3.51464583,2.78912763 3.51546295,2.78912763 L4.31685292,2.78912763 C4.39106018,2.77914052 4.44314448,2.71089527 4.43315737,2.63668801 C4.42501636,2.5761298 4.37738087,2.52852457 4.31685292,2.52038356 Z" id="Shape"></path>
                <path d="M6.88323772,1.11613528 C6.81502273,1.0873845 6.73636667,1.11861692 6.70649613,1.18634769 L6.22227258,2.31216744 L5.90994839,1.56646318 C5.88794649,1.51655789 5.83858595,1.48429649 5.78405027,1.48414517 C5.72912116,1.48299514 5.67912508,1.51568023 5.65815215,1.56646318 L5.34582796,2.31216744 L4.86160441,1.18634769 C4.82223099,1.12424602 4.73994325,1.10581526 4.67784158,1.14518869 C4.62996397,1.17554345 4.60656992,1.23286342 4.61949264,1.28803464 L5.33856461,2.70438851 C5.34210549,2.71192424 5.34616086,2.71918759 5.3506702,2.72617857 L5.3506702,2.74070528 L5.36761802,2.74070528 C5.37379187,2.74703045 5.38120654,2.75196347 5.38940808,2.75523198 L5.4063559,2.75523198 L5.46688385,2.75523198 C5.47320902,2.75347667 5.47992762,2.75347667 5.48625279,2.75523198 L5.50562173,2.74070528 L5.52014844,2.74070528 L5.53467514,2.72617857 L5.53467514,2.70438851 L5.85184157,1.9514209 L6.17142911,2.70438851 C6.17024881,2.71159134 6.17024881,2.71897575 6.17142911,2.72617857 L6.17142911,2.74070528 L6.18837693,2.74070528 C6.19406656,2.74754493 6.20166282,2.75259902 6.21016699,2.75523198 L6.22711482,2.75523198 L6.28522164,2.75523198 L6.30459058,2.75523198 C6.30459058,2.75523198 6.31911729,2.75523198 6.32638064,2.74070528 L6.34332847,2.74070528 L6.34332847,2.72617857 C6.34868519,2.71973234 6.35277083,2.71234794 6.35543406,2.70438851 L6.95102902,1.28803464 C6.97971927,1.22184733 6.94939477,1.14491631 6.88323772,1.11613528 Z" id="Shape"></path>
                <path d="M8.63854808,2.06521343 C8.57835304,1.97681237 8.49443105,1.9071447 8.39643631,1.86426066 C8.28899921,1.81520276 8.17599354,1.77943074 8.05990094,1.75773148 C7.95309939,1.74205474 7.85032294,1.70588929 7.75726123,1.6512023 C7.73168817,1.63452685 7.70950468,1.61316048 7.69189105,1.58825323 C7.67942229,1.56791585 7.67349055,1.54424942 7.67494322,1.52046194 C7.67902886,1.45769446 7.71331794,1.40082846 7.7669457,1.36793152 C7.84657021,1.31294188 7.94135697,1.28416085 8.03811088,1.28561352 C8.18410428,1.28385821 8.32495281,1.33948339 8.43033196,1.44056505 C8.48344523,1.47893977 8.55759196,1.4669855 8.59596667,1.41387223 C8.59820621,1.41075504 8.60029442,1.40754706 8.60223132,1.40424829 C8.63918363,1.3472007 8.62420296,1.27108681 8.56833567,1.23234893 C8.42016326,1.10693503 8.232224,1.03829634 8.03811088,1.03865951 C7.88778974,1.03681341 7.74058578,1.08163435 7.6168364,1.16697875 C7.49953324,1.24823751 7.42768657,1.38024896 7.42314698,1.52288306 C7.42266276,1.59297441 7.44197117,1.66179469 7.47883269,1.72141471 C7.53439734,1.80448931 7.61250865,1.87001081 7.70399664,1.91026189 C7.80450329,1.95493152 7.9102456,1.98664816 8.01874194,2.00468549 C8.13613589,2.02184516 8.24938367,2.06040146 8.35285619,2.11847802 C8.38227277,2.13684825 8.40711949,2.16169497 8.42548972,2.19111155 C8.4402888,2.21420296 8.44788506,2.24116816 8.44727978,2.26858732 C8.44343626,2.34031293 8.40448652,2.40550153 8.34317172,2.4429078 C8.25392327,2.50322389 8.14824148,2.53451684 8.040532,2.53248915 C7.86948003,2.52229019 7.70638749,2.45685949 7.5756774,2.34606309 C7.52214043,2.30215006 7.44315146,2.30971606 7.3989358,2.36301091 C7.35692941,2.41757685 7.36546385,2.49556711 7.41830474,2.53975251 C7.59259496,2.68722884 7.81016265,2.77390485 8.03811088,2.78670651 C8.19905468,2.78955133 8.35672998,2.74121976 8.48843878,2.6487028 C8.61497245,2.56399395 8.69256927,2.42320595 8.69665491,2.27100844 C8.69659438,2.1983749 8.6764991,2.12716378 8.63854808,2.06521343 Z" id="Shape"></path>
                <path d="M8.81771079,3.37261701 L1.49867188,3.37261701 C1.39837708,3.37261701 1.31708805,3.45390603 1.31708805,3.55420084 C1.31708805,3.65449564 1.39837708,3.73578467 1.49867188,3.73578467 L8.81771079,3.73578467 C8.9180056,3.73578467 8.99929462,3.65449564 8.99929462,3.55420084 C8.99929462,3.45390603 8.9180056,3.37261701 8.81771079,3.37261701 Z" id="Shape"></path>
                <path d="M8.00905747,4.84465659 L1.49867188,4.84465659 C1.39837708,4.84465659 1.31708805,4.92594562 1.31708805,5.02624042 C1.31708805,5.12653522 1.39837708,5.20782425 1.49867188,5.20782425 L8.00905747,5.20782425 C8.10935227,5.20782425 8.1906413,5.12653522 8.1906413,5.02624042 C8.1906413,4.92594562 8.10935227,4.84465659 8.00905747,4.84465659 Z" id="Shape"></path>
                <path d="M8.00905747,5.78405027 L1.49867188,5.78405027 C1.39837708,5.78405027 1.31708805,5.8653393 1.31708805,5.9656341 C1.31708805,6.0659289 1.39837708,6.14721793 1.49867188,6.14721793 L8.00905747,6.14721793 C8.10935227,6.14721793 8.1906413,6.0659289 8.1906413,5.9656341 C8.1906413,5.8653393 8.10935227,5.78405027 8.00905747,5.78405027 Z" id="Shape"></path>
                <path d="M8.00905747,6.72102284 L1.49867188,6.72102284 C1.39837708,6.72102284 1.31708805,6.80231186 1.31708805,6.90260667 C1.31708805,7.00290147 1.39837708,7.0841905 1.49867188,7.0841905 L8.00905747,7.0841905 C8.10935227,7.0841905 8.1906413,7.00290147 8.1906413,6.90260667 C8.1906413,6.80231186 8.10935227,6.72102284 8.00905747,6.72102284 Z" id="Shape"></path>
                <path d="M8.00905747,7.66041652 L1.49867188,7.66041652 C1.39837708,7.66041652 1.31708805,7.74170554 1.31708805,7.84200035 C1.31708805,7.94229515 1.39837708,8.02358418 1.49867188,8.02358418 L8.00905747,8.02358418 C8.10935227,8.02358418 8.1906413,7.94229515 8.1906413,7.84200035 C8.1906413,7.74170554 8.10935227,7.66041652 8.00905747,7.66041652 Z" id="Shape"></path>
            </g>
        </g>
    </g>
</svg>