<?xml version="1.0" encoding="UTF-8"?>
<svg width="25px" height="25px" viewBox="0 0 25 25" version="1.1" xmlns="http://www.w3.org/2000/svg" xmlns:xlink="http://www.w3.org/1999/xlink">
    <!-- Generator: Sketch 41 (35326) - http://www.bohemiancoding.com/sketch -->
    <title>icon</title>
    <desc>Created with Sketch.</desc>
    <defs></defs>
    <g id="Page-1" stroke="none" stroke-width="1" fill="none" fill-rule="evenodd">
        <g id="icon">
            <circle id="Oval" stroke="#FF7900" stroke-width="1.5" cx="12.5" cy="12.5" r="11.0958252"></circle>
            <circle id="Oval" stroke="#FF7900" stroke-width="0.6" cx="12.5" cy="12.5" r="8.58787537"></circle>
            <g id="18" transform="translate(5.000000, 5.500000)" fill="#181919">
                <path d="M2.96313295,4.65749043 C2.38777741,4.65749043 1.84744815,4.88104243 1.44175316,5.28664309 C1.03602672,5.69255817 0.812569054,6.23273022 0.812569054,6.80811721 C0.812569054,7.3835042 1.03602672,7.92367625 1.44175316,8.32927692 C1.84744815,8.735192 2.38777741,8.95842958 2.96313295,8.95842958 C3.53845706,8.95842958 4.07872343,8.735192 4.48444987,8.32927692 C4.8901763,7.92367625 5.11360253,7.3835042 5.11360253,6.80811721 C5.11360253,6.23273022 4.8901763,5.69255817 4.48444987,5.28664309 C4.07872343,4.88104243 3.53845706,4.65749043 2.96313295,4.65749043 Z M2.96313295,9.09111445 C2.35237381,9.09111445 1.77877901,8.85404243 1.34802482,8.42297382 C0.917270621,7.99253404 0.680041395,7.41871915 0.680041395,6.80811721 C0.680041395,6.19720086 0.917270621,5.62370039 1.34802482,5.19294619 C1.77877901,4.762192 2.35237381,4.52480556 2.96313295,4.52480556 C3.57386065,4.52480556 4.1474869,4.762192 4.57817821,5.19294619 C5.0089324,5.62370039 5.24619307,6.19720086 5.24619307,6.80811721 C5.24619307,7.41871915 5.0089324,7.99253404 4.57817821,8.42297382 C4.1474869,8.85404243 3.57386065,9.09111445 2.96313295,9.09111445 Z M2.96369891,3.97331442 C2.23459241,3.97331442 1.51064238,4.25566279 0.960629018,4.80558184 C-0.143516608,5.90982179 -0.143516608,7.70641264 0.960629018,8.81065259 C2.06477464,9.91457812 3.86142838,9.91457812 4.96557401,8.81065259 C5.97904116,7.79696535 6.07625955,6.1846241 5.1916728,5.06026132 L5.1552945,5.01404171 L7.39710283,2.77223338 L8.61931284,3.99438051 L9.09191622,3.52180857 L7.8697691,2.29966145 L8.70870219,1.46047681 L10.4972125,3.24920719 L10.9698787,2.77632083 L9.18136846,0.987904876 L9.47943778,0.68983555 L8.97699603,0.187393796 L4.63980436,4.52449114 L4.5941507,4.49242039 C4.10085854,4.14404401 3.53069091,3.97331442 2.96369891,3.97331442 Z M2.96307007,9.77246068 C2.17123696,9.77246068 1.42681825,9.46401552 0.866900678,8.90434949 C-0.288966893,7.74823038 -0.288966893,5.86768963 0.866900678,4.71188494 C1.8769721,3.7016563 3.44872184,3.55450816 4.62464935,4.35218946 L8.97699603,3.55271368e-15 L9.66689446,0.68983555 L9.36882514,0.987904876 L11.1573354,2.77632083 L10.4972125,3.43660099 L8.70870219,1.64818503 L8.05719433,2.29966145 L9.2793729,3.52180857 L8.61931284,4.1817743 L7.39710283,2.95962718 L5.3318094,5.02504638 C6.2191316,6.19971622 6.10628657,7.85733382 5.05930235,8.90434949 C4.49941622,9.46401552 3.75496607,9.77246068 2.96307007,9.77246068 L2.96307007,9.77246068 Z" id="Fill-281"></path>
                <path d="M11.6001633,4.66503649 C11.0248392,4.66503649 10.4845414,4.88827406 10.078815,5.29418915 C9.67311996,5.69978981 9.44966229,6.24027628 9.44966229,6.81566327 C9.44966229,7.39073584 9.67311996,7.93122231 10.078815,8.33682298 C10.4845414,8.74242364 11.0248392,8.96597564 11.6001633,8.96597564 C12.1755189,8.96597564 12.7157852,8.74242364 13.1215117,8.33682298 C13.5272381,7.93122231 13.7506958,7.39073584 13.7506958,6.81566327 C13.7506958,6.24027628 13.5272381,5.69978981 13.1215117,5.29418915 C12.7157852,4.88827406 12.1755189,4.66503649 11.6001633,4.66503649 Z M11.6001633,9.09866051 C10.9894356,9.09866051 10.4158094,8.86127407 9.98508661,8.43051988 C9.55433242,7.99976568 9.31710319,7.4262652 9.31710319,6.81566327 C9.31710319,6.20474692 9.55433242,5.63124645 9.98508661,5.20049225 C10.4158094,4.76973806 10.9894356,4.53235162 11.6001633,4.53235162 C12.2109224,4.53235162 12.7844858,4.76973806 13.21524,5.20049225 C13.6460256,5.63124645 13.8832549,6.20474692 13.8832549,6.81566327 C13.8832549,7.4262652 13.6460256,7.99976568 13.21524,8.43051988 C12.7844858,8.86127407 12.2109224,9.09866051 11.6001633,9.09866051 Z M5.08385848,12.9336305 L5.58626879,13.4360723 L9.92346046,9.09897493 L9.96911412,9.13104568 C11.0968726,9.92746931 12.624981,9.79541328 13.6026672,8.81788423 C14.7067814,7.7139587 14.7067814,5.91705343 13.6026672,4.8131279 C12.4984587,3.70888794 10.7017736,3.70888794 9.59769081,4.8131279 C8.58416078,5.82650072 8.48694239,7.43884197 9.37159202,8.56320474 L9.40797032,8.60942436 L7.16616199,10.8515471 L5.94395198,9.62939998 L5.47138004,10.1019719 L6.69349572,11.324119 L5.85456263,12.1629893 L4.06605234,10.3745733 L3.59338608,10.8471452 L5.3819278,12.6355612 L5.08385848,12.9336305 Z M5.58626879,13.6234661 L4.8964018,12.9336305 L5.19447113,12.6355612 L3.4059294,10.8471452 L4.06605234,10.1871795 L5.85456263,11.9755955 L6.50607049,11.324119 L5.28392337,10.1019719 L5.94395198,9.44169177 L7.16616199,10.6638389 L9.23145542,8.5987341 C8.34410178,7.42374985 8.45691536,5.76644667 9.50396247,4.719431 C10.06388,4.15945054 10.8082988,3.85100539 11.6002262,3.85100539 C12.3920279,3.85100539 13.136478,4.15945054 13.6963641,4.719431 C14.8522317,5.87523568 14.8522317,7.75577644 13.6963641,8.91158113 C12.6862927,9.92180976 11.1146059,10.0692723 9.93861547,9.2712766 L5.58626879,13.6234661 L5.58626879,13.6234661 Z" id="Fill-282"></path>
            </g>
        </g>
    </g>
</svg>