<?xml version="1.0" encoding="UTF-8"?>
<svg width="25px" height="25px" viewBox="0 0 25 25" version="1.1" xmlns="http://www.w3.org/2000/svg" xmlns:xlink="http://www.w3.org/1999/xlink">
    <!-- Generator: Sketch 41 (35326) - http://www.bohemiancoding.com/sketch -->
    <title>icon</title>
    <desc>Created with Sketch.</desc>
    <defs></defs>
    <g id="Page-1" stroke="none" stroke-width="1" fill="none" fill-rule="evenodd">
        <g id="icon">
            <circle id="Oval" stroke="#FF7900" stroke-width="1.5" cx="12.5" cy="12.5" r="11.0958252"></circle>
            <circle id="Oval" stroke="#FF7900" stroke-width="0.6" cx="12.5" cy="12.5" r="8.58787537"></circle>
            <path d="M16.353353,16.9807946 L16.353353,12.4273537 C16.353201,11.8906107 15.9164489,11.4539346 15.3797439,11.4539346 L12.9769993,11.4538966 C13.9781619,11.2348365 14.7300885,10.3416838 14.7300885,9.27572283 C14.7300885,8.04607488 13.729724,7.04567237 12.500038,7.04567237 C11.2703901,7.04567237 10.2699875,8.04603687 10.2699875,9.27572283 C10.2699875,10.3416458 11.0218761,11.2347985 12.0230387,11.4538966 L9.62025609,11.4538586 C9.08355115,11.4538586 8.64679904,11.8905347 8.64664702,12.4273917 L8.64672303,16.9807186 C8.64672303,17.5174995 9.08339913,17.9542516 9.62025609,17.9543276 L15.3798199,17.9543276 C15.9166389,17.9543276 16.353353,17.5176135 16.353353,16.9807946 Z M11.2581525,9.27572283 C11.2581525,8.59091286 11.815266,8.0337993 12.500076,8.0337993 C13.184886,8.0337993 13.7419995,8.59091286 13.7419995,9.27572283 C13.7419995,9.9605328 13.184886,10.5176464 12.500076,10.5176464 C11.815266,10.5176464 11.2581525,9.9605328 11.2581525,9.27572283 Z M15.365226,16.9662007 L9.63488797,16.9662007 L9.63481196,12.4419855 L11.6190848,12.4420236 L11.9764067,12.8897211 L11.5131272,15.6445429 C11.4885761,15.7905957 11.5308375,15.9399549 11.628244,16.0514992 L12.1279322,16.6235867 C12.2217663,16.7309885 12.3574057,16.7926324 12.500038,16.7926324 C12.6426323,16.7926324 12.7783097,16.7310265 12.8721438,16.6236247 L13.371832,16.0515752 C13.4692765,15.9399929 13.5115379,15.7906717 13.4869488,15.6445809 L13.0236693,12.8897211 L13.3809912,12.4420236 L15.365188,12.4420616 L15.365188,16.9662007 L15.365226,16.9662007 Z" id="9" fill="#222222"></path>
        </g>
    </g>
</svg>