<?xml version="1.0" encoding="UTF-8"?>
<svg width="25px" height="25px" viewBox="0 0 25 25" version="1.1" xmlns="http://www.w3.org/2000/svg" xmlns:xlink="http://www.w3.org/1999/xlink">
    <!-- Generator: Sketch 41 (35326) - http://www.bohemiancoding.com/sketch -->
    <title>icon</title>
    <desc>Created with Sketch.</desc>
    <defs></defs>
    <g id="Page-1" stroke="none" stroke-width="1" fill="none" fill-rule="evenodd">
        <g id="icon">
            <circle id="Oval" stroke="#FF7900" stroke-width="1.5" cx="12.5" cy="12.5" r="11.0958252"></circle>
            <circle id="Oval" stroke="#FF7900" stroke-width="0.6" cx="12.5" cy="12.5" r="8.58787537"></circle>
            <g id="14" transform="translate(6.109306, 6.109306)" fill="#222222">
                <g id="Group" transform="translate(-0.000000, 0.000000)">
                    <path d="M2.22288886,6.33910686 C2.22288886,8.60879132 4.06942239,10.4553639 6.33910686,10.4553639 C8.60879132,10.4553639 10.4553249,8.60879132 10.4553249,6.33910686 C10.4553249,4.06942239 8.60879132,2.22284983 6.33910686,2.22284983 C4.06942239,2.22284983 2.22288886,4.06942239 2.22288886,6.33910686 Z M9.86989192,6.33910686 C9.86989192,8.28602263 8.2859836,9.86993095 6.33910686,9.86993095 C4.39223011,9.86993095 2.80832179,8.28602263 2.80832179,6.33910686 C2.80832179,4.39219109 4.39223011,2.80828276 6.33910686,2.80828276 C8.2859836,2.80828276 9.86989192,4.39219109 9.86989192,6.33910686 Z" id="Shape"></path>
                    <path d="M6.07574009,4.03269623 L6.07574009,4.49120731 C5.91099927,4.52926045 5.75554731,4.60080036 5.6124675,4.70645149 C5.22096898,4.99538215 5.04502687,5.39577925 5.14177942,5.77752056 C5.23486325,6.14462604 5.56883323,6.41142734 6.013411,6.47375643 C7.02140943,6.61500188 7.18548677,6.76553621 7.14232084,7.1185913 C7.11933284,7.30671041 7.0112229,7.44139902 6.82095719,7.51871519 C6.49932034,7.64953994 5.94171498,7.5940409 5.4207187,7.17537829 L5.05400351,7.63174278 C5.36900545,7.88488398 5.72490965,8.05247392 6.07566204,8.12557497 L6.07566204,8.64543942 L6.66109497,8.64543942 L6.66109497,8.15632972 C6.79391019,8.14095235 6.92176874,8.1096512 7.04143124,8.06098221 C7.42633388,7.9045155 7.6749087,7.58689862 7.72346061,7.18950674 C7.77856936,6.73848921 7.60165153,6.38949312 7.21187028,6.18025939 C6.90978688,6.01809446 6.511029,5.95225277 6.09466909,5.89390462 C5.88726972,5.86486715 5.74321419,5.76752917 5.70925908,5.63358211 C5.67300126,5.49061939 5.76678762,5.32010229 5.96009757,5.17741277 C6.16480396,5.02637107 6.40604136,5.00412462 6.69758696,5.10934643 C6.94495189,5.1986835 7.12721667,5.34816404 7.129012,5.34964714 L7.31646763,5.12484089 L7.50474286,4.90069813 C7.47953022,4.87950546 7.24859644,4.69005936 6.91568024,4.56579147 C6.82966063,4.53367071 6.74477285,4.50916059 6.661134,4.49151954 L6.661134,4.03265721 L6.07574009,4.03269623 L6.07574009,4.03269623 Z" id="Shape"></path>
                    <path d="M6.33910686,0.585432936 C7.59817796,0.585432936 8.79585666,0.98770342 9.78535541,1.73081296 L9.01555012,1.73081296 L9.01555012,2.3162459 L10.8992782,2.3162459 L10.8992782,0.432517853 L10.3138452,0.432517853 L10.3138452,1.40039461 C9.19082874,0.493246763 7.80257211,0 6.33910686,0 C2.84372097,0 0,2.84372097 0,6.33910686 L0.585432936,6.33910686 C0.585432936,3.16652869 3.16652869,0.585432936 6.33910686,0.585432936 Z" id="Shape"></path>
                    <path d="M12.0927808,6.33910686 C12.0927808,9.51168502 9.51168502,12.0927808 6.33910686,12.0927808 C5.11574717,12.0927808 3.94698885,11.7115859 2.9726333,11.0062172 L3.73693552,11.0062172 L3.73693552,10.4207843 L1.85320747,10.4207843 L1.85320747,12.3045124 L2.43864041,12.3045124 L2.43864041,11.3364795 C3.54885543,12.2057693 4.91010409,12.6782137 6.33910686,12.6782137 C9.83453177,12.6782137 12.6782137,9.83453177 12.6782137,6.33910686 L12.0927808,6.33910686 Z" id="Shape"></path>
                </g>
            </g>
        </g>
    </g>
</svg>