<?xml version="1.0" encoding="UTF-8"?>
<svg width="25px" height="25px" viewBox="0 0 25 25" version="1.1" xmlns="http://www.w3.org/2000/svg" xmlns:xlink="http://www.w3.org/1999/xlink">
    <!-- Generator: Sketch 41 (35326) - http://www.bohemiancoding.com/sketch -->
    <title>icon</title>
    <desc>Created with Sketch.</desc>
    <defs></defs>
    <g id="Page-1" stroke="none" stroke-width="1" fill="none" fill-rule="evenodd">
        <g id="icon">
            <circle id="Oval" stroke="#FF7900" stroke-width="1.5" cx="12.5" cy="12.5" r="11.0958252"></circle>
            <circle id="Oval" stroke="#FF7900" stroke-width="0.6" cx="12.5" cy="12.5" r="8.58787537"></circle>
            <g id="8" transform="translate(6.807636, 6.000000)" fill="#222222">
                <g id="_x39__24_" transform="translate(0.000000, 0.000000)">
                    <path d="M6.11426038,6.19318937 L6.11426038,3.92969895 C6.11426038,3.68866411 5.91865377,3.49305749 5.67763747,3.49305749 C5.43662118,3.49305749 5.24099601,3.68866411 5.24099601,3.92969895 L5.24099601,6.19318937 C4.73319789,6.37352958 4.36773164,6.8533733 4.36773164,7.42275644 C4.36773164,8.14625051 4.95412485,8.73264372 5.67761892,8.73264372 C6.40111299,8.73264372 6.98750621,8.14625051 6.98750621,7.42275644 C6.98752476,6.8533733 6.62207706,6.37351103 6.11426038,6.19318937 Z M6.1099012,1.76836175 C6.11032785,1.76094186 6.11426038,1.75439382 6.11426038,1.74652874 L6.11426038,0.873264372 L7.86078913,0.873264372 C8.10180542,0.873264372 8.29741204,0.677657753 8.29741204,0.436622911 C8.29741204,0.195588069 8.10182397,0 7.86080768,0 L3.49448582,0 C3.25346952,0 3.05784436,0.195606619 3.05784436,0.436641461 C3.05784436,0.677676303 3.25345097,0.873282922 3.49448582,0.873282922 L5.24101456,0.873282922 L5.24101456,1.74654729 C5.24101456,1.75439382 5.2449471,1.76094186 5.24537374,1.7683803 C2.31296248,1.99017909 0.00142832714,4.43399118 0.00142832714,7.42273789 C0.00142832714,10.557749 2.54262635,13.098947 5.67763747,13.098947 C8.81264859,13.098947 11.3538466,10.557749 11.3538466,7.42273789 C11.3538466,4.43399118 9.04233102,1.99017909 6.1099012,1.76836175 Z M5.67763747,12.2256827 C3.02510413,12.2256827 0.8746927,10.0752712 0.8746927,7.42273789 C0.8746927,4.770186 3.02510413,2.61979312 5.67763747,2.61979312 C8.33017082,2.61979312 10.4805822,4.77020455 10.4805822,7.42273789 C10.4805822,10.0752712 8.33017082,12.2256827 5.67763747,12.2256827 Z" id="Shape"></path>
                </g>
            </g>
        </g>
    </g>
</svg>