<?xml version="1.0" encoding="UTF-8"?>
<svg width="25px" height="25px" viewBox="0 0 25 25" version="1.1" xmlns="http://www.w3.org/2000/svg" xmlns:xlink="http://www.w3.org/1999/xlink">
    <!-- Generator: Sketch 41 (35326) - http://www.bohemiancoding.com/sketch -->
    <title>icon</title>
    <desc>Created with Sketch.</desc>
    <defs></defs>
    <g id="Page-1" stroke="none" stroke-width="1" fill="none" fill-rule="evenodd">
        <g id="icon">
            <circle id="Oval" stroke="#FF7900" stroke-width="1.5" cx="12.5" cy="12.5" r="11.0958252"></circle>
            <circle id="Oval" stroke="#FF7900" stroke-width="0.6" cx="12.5" cy="12.5" r="8.58787537"></circle>
            <g id="19" transform="translate(5.673751, 5.250981)" fill="#000000">
                <g id="002-competitive" transform="translate(0.000000, -0.000000)">
                    <path d="M13.4422832,4.28663061 C13.320249,4.09127485 13.1645144,3.98060505 12.9794848,3.95787622 C12.6843466,3.92145396 12.3581177,4.10564172 11.8532288,4.593049 C11.7696091,4.6737504 11.7672521,4.80698067 11.8479815,4.89060034 C11.9286829,4.97419196 12.0619132,4.97654902 12.1455609,4.89584762 C12.5214286,4.53302803 12.7847464,4.35815629 12.9281064,4.37563785 C12.9478047,4.37805104 13.0077134,4.3854309 13.0853001,4.50962575 C13.1917328,4.68012009 12.7356689,5.19794473 12.3691734,5.61402275 C11.8199493,6.23760663 11.1974598,6.94436122 11.0719741,7.70796597 C10.8914623,8.80621776 9.55203228,10.155076 9.53856334,10.1685169 C9.47309867,10.2338413 9.45794612,10.3342691 9.50124315,10.4159806 L9.73565883,10.8584634 L8.11211836,12.4820039 C7.80990901,11.8371503 7.34020777,10.7291896 7.33838385,10.0696605 C7.36711759,9.21996677 8.50434513,7.7651809 9.60495399,6.3573399 C9.99232633,5.86185125 10.310979,5.718856 10.4801545,5.75078861 C10.5405683,5.76206885 10.5802175,5.79762124 10.5979797,5.85643562 C10.6262083,5.94987639 10.5977833,6.11879935 10.4246793,6.28730141 C9.68930323,7.00328784 9.30397929,8.25090457 9.28790074,8.30362986 C9.25408809,8.41480474 9.31680284,8.53226512 9.42794966,8.5661339 C9.53909648,8.60003073 9.65669717,8.5373721 9.69056594,8.42619722 C9.69421378,8.41427159 10.0613546,7.22847169 10.7182742,6.58886537 C10.8705574,6.44059479 10.9701714,6.26566692 11.0093716,6.09040234 C11.0310342,6.06758932 11.0529493,6.04474824 11.0741629,6.02199134 L11.2143801,5.87077443 C11.3145273,5.7627423 11.4108864,5.65880698 11.5035414,5.559221 C11.5827276,5.47411413 11.5779293,5.34096804 11.4928224,5.26175383 C11.4077717,5.18265187 11.2745695,5.18742212 11.1953833,5.27247287 C11.1071618,5.36731666 11.0154888,5.46617307 10.9205047,5.56859313 C10.8366325,5.44846702 10.7094352,5.36540856 10.5575167,5.33698348 C10.3330063,5.2949211 9.86751415,5.33790947 9.27328133,6.09803474 C8.08922116,7.61261709 6.96899816,9.04562818 6.91860187,10.0347254 C6.91453313,10.0724665 6.9139158,10.1149498 6.9194998,10.1518491 C6.95536086,10.9249663 7.45323463,12.0840528 7.79596304,12.7979908 L7.47315744,13.1207964 C7.43367661,13.1602772 7.41150897,13.2137882 7.41150897,13.2696282 C7.41150897,13.3254682 7.43367661,13.3789511 7.47315744,13.41846 L8.35986268,14.3051652 C8.40094295,14.3462455 8.45481871,14.3667857 8.50866642,14.3667857 C8.56251412,14.3667857 8.61638988,14.3462455 8.65747015,14.3051652 L9.06995645,13.8926789 C9.15214505,13.8104623 9.15214505,13.677232 9.06995645,13.5950434 C8.98776785,13.5128829 8.85450952,13.5128829 8.77234899,13.5950434 L8.50866642,13.858726 L7.91965281,13.2697124 L10.1406811,11.0487122 C10.1426453,11.0468321 10.1445534,11.044924 10.1464335,11.0429598 L10.6251701,10.5642232 L11.2142398,11.1532648 L9.43246737,12.9350373 C9.35027877,13.0172539 9.35027877,13.1504842 9.43246737,13.2326728 C9.51465597,13.3148333 9.6479143,13.3148333 9.73007483,13.2326728 L11.660651,11.3020685 C11.7001319,11.2625877 11.7222995,11.2090767 11.7222995,11.1532368 C11.7222995,11.0973968 11.7001319,11.0439139 11.660651,11.004405 L10.7739738,10.1177278 C10.6917852,10.0355672 10.5585269,10.0355672 10.4763664,10.1177278 L10.0470439,10.5470503 L9.94459577,10.3536587 C10.286763,9.98977284 11.3152849,8.82294169 11.4873226,7.77618054 C11.5931941,7.13180398 12.1732565,6.47322891 12.6850201,5.89215637 C12.9394989,5.60319148 13.1798914,5.33030513 13.3336057,5.08693821 C13.4092843,4.96714882 13.6395751,4.6025895 13.4422832,4.28663061 Z" id="Shape"></path>
                    <path d="M10.8611815,11.0011951 L10.7407089,10.8807194 C10.6565333,10.7965703 10.5200534,10.7965703 10.4359065,10.8807194 C10.3517309,10.9649259 10.3517309,11.1013807 10.4359065,11.1855585 L10.556379,11.3060342 C10.5984525,11.3481087 10.6536307,11.369146 10.7087803,11.369146 C10.7639298,11.369146 10.8191081,11.3481087 10.8611815,11.3060342 C10.9453571,11.2218277 10.9453571,11.0853729 10.8611815,11.0011951 Z" id="Shape"></path>
                    <path d="M6.60634694,10.0348096 C6.55595065,9.04571236 5.43572765,7.61267321 4.25166748,6.09811892 C3.65743466,5.33802171 3.19194247,5.29497722 2.96743207,5.33706766 C2.81551364,5.36549274 2.68828828,5.4485512 2.60441606,5.56870538 L2.59465108,5.55818277 C1.64076949,4.52932408 1.06519677,3.90851816 0.561037491,3.95616454 C0.369217331,3.97437567 0.208291552,4.08560667 0.0827217427,4.28674285 C-0.114542115,4.60278592 0.115804828,4.96740136 0.191511497,5.08721881 C0.345281901,5.33066991 0.585730549,5.60364044 0.840321584,5.89268951 C0.989433979,6.06200532 1.14368141,6.23710155 1.29136273,6.41803431 C1.33294808,6.4689918 1.39347413,6.49539654 1.45450527,6.49539654 C1.50130984,6.49539654 1.54839501,6.47985114 1.587483,6.44797465 C1.67750041,6.37448474 1.69091323,6.24189986 1.61739527,6.15185438 C1.46471922,5.96486059 1.30786218,5.78673385 1.15616824,5.61452783 C0.789560514,5.19828145 0.333300156,4.68023233 0.439760906,4.50965381 C0.518834811,4.38298965 0.578434872,4.37732147 0.600855046,4.37518889 C0.89849057,4.34791428 1.54109933,5.04091933 2.28598786,5.84434163 L2.45112268,6.02235613 C2.47211178,6.04488854 2.49402687,6.06770156 2.51560524,6.0904304 C2.55483352,6.26569498 2.6544195,6.44062285 2.80670271,6.58889344 C3.46365028,7.22849975 3.83079115,8.41429965 3.83441093,8.42622528 C3.8682797,8.5373721 3.98582427,8.60003073 4.09694303,8.56624614 C4.20814597,8.53243348 4.27088878,8.41486086 4.23707613,8.30365792 C4.22102564,8.25090457 3.83567364,7.00328784 3.10029755,6.28732947 C2.92719361,6.11879935 2.89874047,5.94990445 2.92699719,5.85646368 C2.94475935,5.7976493 2.98440854,5.76212497 3.04482235,5.75081667 C3.21399786,5.71896824 3.5326786,5.86187931 3.92002288,6.35736796 C5.02063174,7.7651809 6.15785928,9.21996677 6.18659302,10.0696886 C6.18479716,10.7292177 5.71506786,11.8371783 5.41285851,12.4820319 L3.78931804,10.8584914 L4.02373372,10.4160087 C4.06700269,10.3343252 4.05185014,10.2339254 3.98646965,10.168573 C3.97297265,10.1551041 2.63354265,8.80621776 2.45303078,7.70805015 C2.41335353,7.46617042 2.3220734,7.2181455 2.17397117,6.94983298 C2.11779447,6.8480583 1.98975535,6.81110289 1.88803679,6.8672796 C1.78629017,6.9234563 1.74933476,7.05146736 1.80551147,7.15321398 C1.92998693,7.37873455 2.00594614,7.5825084 2.03771039,7.77623666 C2.20977611,8.82299781 3.23829807,9.98982896 3.58043722,10.3536868 L3.47798909,10.5470783 L3.04866661,10.1177558 C2.96647802,10.0355953 2.83321969,10.0355953 2.75105915,10.1177558 L1.86438196,11.004433 C1.82490113,11.0439139 1.8027335,11.0974248 1.8027335,11.1532648 C1.8027335,11.2091048 1.82490113,11.2625877 1.86438196,11.3020966 L4.86750672,14.3052214 C4.90695949,14.3446741 4.96049853,14.3668418 5.01631045,14.3668418 C5.07212238,14.3668418 5.12566142,14.3446741 5.16511419,14.3052214 L6.05181943,13.4185161 C6.09130027,13.3790353 6.1134679,13.3255243 6.1134679,13.2696843 C6.1134679,13.2138443 6.09130027,13.1603614 6.05181943,13.1208525 L5.72901383,12.7980469 C6.07174224,12.0841089 6.56961601,10.9250224 6.60547707,10.1519052 C6.60682396,10.1426173 6.60786219,10.133189 6.60803055,10.1234801 C6.60847952,10.0947183 6.60943357,10.0636837 6.60634694,10.0348096 Z M5.01628239,13.8588102 L2.31079316,11.1532929 L2.89986288,10.5642512 L3.37859954,11.0429879 C3.38047957,11.0449521 3.38238767,11.0468321 3.3843519,11.0487402 L5.60538018,13.2697404 L5.01628239,13.8588102 Z" id="Shape"></path>
                    <path d="M3.10211774,10.8806913 C3.01797088,10.7965423 2.88149088,10.7965423 2.79731528,10.8806913 L2.67684273,11.001167 C2.59266713,11.0853735 2.59266713,11.2218284 2.67684273,11.3060062 C2.71891616,11.3480807 2.77409443,11.3691179 2.82924396,11.3691179 C2.88439349,11.3691179 2.93957176,11.3480807 2.98164519,11.3060062 L3.10211774,11.1855305 C3.18629334,11.1013239 3.18629334,10.9648691 3.10211774,10.8806913 Z" id="Shape"></path>
                    <path d="M7.38619859,0.536540856 L6.9113062,0.0616204026 C6.87185343,0.0221676312 6.81831439,0 6.76250247,0 C6.70669054,0 6.65315151,0.0221676312 6.61369873,0.0616204026 L6.13880634,0.536540856 C6.05661774,0.618757513 6.05661774,0.751987782 6.13880634,0.83417638 C6.22099494,0.916336916 6.35425327,0.916364977 6.4364138,0.834148319 L6.55205027,0.718511853 L6.55205027,7.31326989 C6.55205027,7.42952368 6.64627673,7.52372208 6.76250247,7.52372208 C6.8787282,7.52372208 6.97295466,7.42952368 6.97295466,7.31326989 L6.97295466,0.718511853 L7.08859113,0.834148319 C7.12967139,0.875256648 7.18354716,0.895796782 7.23739486,0.895796782 C7.29124256,0.895796782 7.34511832,0.875256648 7.38619859,0.83417638 C7.46838719,0.751959722 7.46838719,0.618729453 7.38619859,0.536540856 Z" id="Shape"></path>
                    <path d="M5.77273176,5.06471446 L3.68698215,2.97899291 L3.68698215,2.00142843 L3.80264668,2.11709296 C3.88483527,2.1992535 4.0180936,2.1992535 4.10025414,2.11709296 C4.18244274,2.0348763 4.18244274,1.90164603 4.10025414,1.81945744 L3.62533369,1.34453698 C3.58588092,1.30508421 3.53234188,1.28291658 3.47652996,1.28291658 C3.42071803,1.28291658 3.367179,1.30508421 3.32772622,1.34456504 L2.85283383,1.81945744 C2.77064523,1.90167409 2.77064523,2.03490436 2.85283383,2.11709296 C2.8939141,2.15817323 2.9477618,2.17874142 3.00163756,2.17874142 C3.05548527,2.17874142 3.10936103,2.15820129 3.1504413,2.11712102 L3.26607776,2.00148455 L3.26607776,3.06614818 C3.26607776,3.1219601 3.28824539,3.17547108 3.32772622,3.21497997 L5.41347584,5.30070152 L5.41347584,5.85186179 C5.41347584,5.96811558 5.5077023,6.06231398 5.62392803,6.06231398 C5.74015376,6.06231398 5.83438023,5.96811558 5.83438023,5.85186179 L5.83438023,5.21354625 C5.83438023,5.15773433 5.8122126,5.10422335 5.77273176,5.06471446 Z" id="Shape"></path>
                    <path d="M10.6721711,1.81945744 L10.1972787,1.34456504 C10.1578259,1.30508421 10.1042869,1.28291658 10.048475,1.28291658 C9.99266305,1.28291658 9.93912401,1.30508421 9.89967124,1.34453698 L9.42475079,1.81945744 C9.34256219,1.90167409 9.34256219,2.03490436 9.42475079,2.11709296 C9.50693939,2.1992535 9.64019772,2.1992535 9.72235825,2.11709296 L9.83802278,2.00142843 L9.83802278,3.26742466 L8.12550312,3.26742466 C8.00927739,3.26742466 7.91505093,3.36162306 7.91505093,3.47787685 L7.91505093,5.85180567 C7.91505093,5.96805946 8.00927739,6.06225786 8.12550312,6.06225786 C8.24172885,6.06225786 8.33595532,5.96805946 8.33595532,5.85180567 L8.33595532,3.68832905 L10.048475,3.68832905 C10.1647007,3.68832905 10.2589272,3.59413064 10.2589272,3.47787685 L10.2589272,2.00145649 L10.3745636,2.11709296 C10.4156439,2.15817323 10.4695197,2.17871336 10.5233674,2.17871336 C10.5772151,2.17871336 10.6310908,2.15817323 10.6721711,2.11709296 C10.7543597,2.0348763 10.7543597,1.90164603 10.6721711,1.81945744 Z" id="Shape"></path>
                </g>
            </g>
        </g>
    </g>
</svg>