<?xml version="1.0" encoding="UTF-8"?>
<svg width="25px" height="25px" viewBox="0 0 25 25" version="1.1" xmlns="http://www.w3.org/2000/svg" xmlns:xlink="http://www.w3.org/1999/xlink">
    <!-- Generator: Sketch 41 (35326) - http://www.bohemiancoding.com/sketch -->
    <title>icon</title>
    <desc>Created with Sketch.</desc>
    <defs></defs>
    <g id="Page-1" stroke="none" stroke-width="1" fill="none" fill-rule="evenodd">
        <g id="icon">
            <circle id="Oval" stroke="#FF7900" stroke-width="1.5" cx="12.5" cy="12.5" r="11.0958252"></circle>
            <circle id="Oval" stroke="#FF7900" stroke-width="0.6" cx="12.5" cy="12.5" r="8.58787537"></circle>
            <path d="M12.8076357,6.10062485 C10.6878427,6.10062485 8.40806528,6.60137595 8.40806528,7.70046864 L8.40806528,17.2995314 C8.40806528,18.398624 10.6878427,18.8993752 12.8076357,18.8993752 C14.9274287,18.8993752 17.2072061,18.398624 17.2072061,17.2995314 L17.2072061,7.70046864 C17.2072061,6.60137595 14.9274287,6.10062485 12.8076357,6.10062485 Z M16.4072842,17.2935319 C16.3468901,17.5155103 15.1474072,18.0994533 12.8076357,18.0994533 C10.4678642,18.0994533 9.26838128,17.5155103 9.20798718,17.2995314 L9.20798718,16.6707928 C10.0591041,17.0995509 11.4649668,17.2995314 12.8076357,17.2995314 C14.1503046,17.2995314 15.5565673,17.0975511 16.4072842,16.6703928 L16.4072842,17.2935319 Z M16.4072842,15.6936882 C16.3468901,15.9156665 15.1474072,16.4996095 12.8076357,16.4996095 C10.4678642,16.4996095 9.26838128,15.9156665 9.20798718,15.6996876 L9.20798718,15.070949 C10.0591041,15.4997071 11.4649668,15.6996876 12.8076357,15.6996876 C14.1503046,15.6996876 15.5565673,15.4977073 16.4072842,15.070549 L16.4072842,15.6936882 Z M16.4072842,14.0938444 C16.3468901,14.3158227 15.1474072,14.8997657 12.8076357,14.8997657 C10.4678642,14.8997657 9.26838128,14.3158227 9.20798718,14.0998438 L9.20798718,13.4711052 C10.0591041,13.8998633 11.4649668,14.0998438 12.8076357,14.0998438 C14.1503046,14.0998438 15.5565673,13.8978635 16.4072842,13.4707052 L16.4072842,14.0938444 Z M16.4072842,12.4940006 C16.3468901,12.7159789 15.1474072,13.2999219 12.8076357,13.2999219 C10.4678642,13.2999219 9.26838128,12.7159789 9.20798718,12.5 L9.20798718,11.8712614 C10.0591041,12.3000195 11.4649668,12.5 12.8076357,12.5 C14.1503046,12.5 15.5565673,12.2980197 16.4072842,11.8708614 L16.4072842,12.4940006 Z M16.4072842,10.8941568 C16.3468901,11.1161351 15.1474072,11.7000781 12.8076357,11.7000781 C10.4678642,11.7000781 9.26838128,11.1161351 9.20798718,10.9001562 L9.20798718,10.2714176 C10.0591041,10.6981759 11.4649668,10.9001562 12.8076357,10.9001562 C14.1503046,10.9001562 15.5565673,10.6981759 16.4072842,10.2710176 L16.4072842,10.8941568 Z M16.4072842,9.29431301 C16.3468901,9.51629134 15.1474072,10.1002343 12.8076357,10.1002343 C10.4678642,10.1002343 9.26838128,9.51629134 9.20798718,9.30031242 L9.20798718,8.67157382 C10.0591041,9.09833215 11.4649668,9.30031242 12.8076357,9.30031242 C14.1503046,9.30031242 15.5565673,9.09833215 16.4072842,8.67117385 L16.4072842,9.29431301 Z M12.8076357,8.50039053 C10.4714638,8.50039053 9.27238089,7.91804739 9.20798718,7.70766793 L9.20798718,7.70526817 C9.27238089,7.48248992 10.4714638,6.90054674 12.8076357,6.90054674 C15.1274092,6.90054674 16.327292,7.47409074 16.4072842,7.70046864 C16.327292,7.92684653 15.1274092,8.50039053 12.8076357,8.50039053 Z" id="7" fill="#222222"></path>
        </g>
    </g>
</svg>