<?xml version="1.0" encoding="UTF-8"?>
<svg width="25px" height="25px" viewBox="0 0 25 25" version="1.1" xmlns="http://www.w3.org/2000/svg" xmlns:xlink="http://www.w3.org/1999/xlink">
    <!-- Generator: Sketch 41 (35326) - http://www.bohemiancoding.com/sketch -->
    <title>icon</title>
    <desc>Created with Sketch.</desc>
    <defs></defs>
    <g id="Page-1" stroke="none" stroke-width="1" fill="none" fill-rule="evenodd">
        <g id="icon">
            <circle id="Oval" stroke="#FF7900" stroke-width="1.5" cx="12.5" cy="12.5" r="11.0958252"></circle>
            <circle id="Oval" stroke="#FF7900" stroke-width="0.6" cx="12.5" cy="12.5" r="8.58787537"></circle>
            <path d="M17.6806857,10.6896802 C17.6806857,7.83305661 15.3566401,5.50897801 12.4999835,5.50897801 C9.64332693,5.50897801 7.3193143,7.83305661 7.3193143,10.6896802 C7.3193143,12.4414972 8.21372863,14.0788488 9.67202577,15.0310237 L9.67202577,16.6631632 C9.67202577,18.2224671 10.9406137,19.491022 12.4999175,19.491022 C14.0592214,19.491022 15.3278093,18.2224341 15.3278093,16.6631632 L15.3278093,15.7464496 C15.3278093,15.7462186 15.3277763,15.0310896 15.3277763,15.0310896 C16.7862384,14.0788818 17.6806857,12.4415632 17.6806857,10.6896802 Z M14.3291555,16.6631962 C14.3291555,17.6718121 13.5085994,18.4923352 12.4999835,18.4923352 C11.4913676,18.4923352 10.6708115,17.6717792 10.6708115,16.6631962 L10.6708115,16.2457765 L14.3291555,16.2457765 L14.3291555,16.6631962 Z M14.5797591,14.3186985 C14.4247193,14.4077639 14.3291555,14.5728977 14.3291555,14.7517212 L14.3291555,15.2470897 L12.9993104,15.2470897 L12.9993104,12.6648864 C13.6477064,12.4539334 14.1178396,11.8440995 14.1178396,11.1262325 C14.1178396,10.8504597 13.8942525,10.6268726 13.6184797,10.6268726 C13.3427069,10.6268726 13.1191198,10.8504597 13.1191198,11.1262325 C13.1191198,11.4676168 12.8413678,11.7454018 12.4999835,11.7454018 C12.1585992,11.7454018 11.8808142,11.4676498 11.8808142,11.1262325 C11.8808142,10.8504597 11.6572271,10.6268726 11.3814543,10.6268726 C11.1056815,10.6268726 10.8820944,10.8504597 10.8820944,11.1262325 C10.8820944,11.8440665 11.3521947,12.4539334 12.0006236,12.6648864 L12.0006236,15.2470897 L10.6708775,15.2470897 L10.6708775,14.7516882 C10.6708775,14.5728977 10.5753137,14.4077639 10.4202739,14.3186985 C9.12358096,13.5737491 8.31810006,12.1832076 8.31810006,10.6896802 C8.31810006,8.38374455 10.1941138,6.50769779 12.5000825,6.50769779 C14.8060511,6.50769779 16.6820649,8.38371156 16.6820649,10.6896802 C16.6819989,12.1832406 15.876452,13.5738151 14.5797591,14.3186985 Z" id="3" fill="#222222"></path>
        </g>
    </g>
</svg>