<?xml version="1.0" encoding="UTF-8"?>
<svg width="25px" height="25px" viewBox="0 0 25 25" version="1.1" xmlns="http://www.w3.org/2000/svg" xmlns:xlink="http://www.w3.org/1999/xlink">
    <!-- Generator: Sketch 41 (35326) - http://www.bohemiancoding.com/sketch -->
    <title>icon</title>
    <desc>Created with Sketch.</desc>
    <defs></defs>
    <g id="Page-1" stroke="none" stroke-width="1" fill="none" fill-rule="evenodd">
        <g id="icon">
            <circle id="Oval" stroke="#FF7900" stroke-width="1.5" cx="12.5" cy="12.5" r="11.0958252"></circle>
            <circle id="Oval" stroke="#FF7900" stroke-width="0.6" cx="12.5" cy="12.5" r="8.58787537"></circle>
            <g id="16" transform="translate(6.500000, 7.000000)" fill="#000000">
                <path d="M10.7714214,1.87572949 L9.6500383,1.87572949 L9.6500383,0.825175478 C9.6500383,0.651272724 9.50905195,0.510286377 9.3351492,0.510286377 L0.964935057,0.510286377 C0.791032303,0.510286377 0.650045956,0.651272724 0.650045956,0.825175478 L0.650045956,9.05322769 C0.650045956,9.62284108 1.11347874,10.0862739 1.68309213,10.0862739 L10.0532223,10.0862739 C10.6228357,10.0862739 11.0862685,9.62284108 11.0862685,9.05322769 L11.0862685,2.19061859 C11.0863105,2.01671584 10.9453241,1.87572949 10.7714214,1.87572949 Z M1.27982416,1.14006458 L9.0202601,1.14006458 L9.0202601,2.19057661 L9.0202601,9.05322769 C9.0202601,9.19622933 9.04948181,9.33255531 9.10225722,9.45649566 L1.68309213,9.45649566 C1.46073844,9.45649566 1.27982416,9.27558138 1.27982416,9.05322769 L1.27982416,1.14006458 Z M10.0532643,9.45649566 C9.83095259,9.45649566 9.6500383,9.27558138 9.6500383,9.05322769 L9.6500383,2.50550769 L10.4565323,2.50550769 L10.4565323,9.05322769 C10.4565323,9.27558138 10.275618,9.45649566 10.0532643,9.45649566 Z" id="Shape"></path>
                <path d="M2.01129055,4.57613445 L8.28891966,4.57613445 C8.46282242,4.57613445 8.60380877,4.4351481 8.60380877,4.26124535 L8.60380877,2.15677851 C8.60380877,1.98287575 8.46282242,1.84188941 8.28891966,1.84188941 L2.01129055,1.84188941 C1.83738779,1.84188941 1.69640145,1.98287575 1.69640145,2.15677851 L1.69640145,4.26124535 C1.69640145,4.4351481 1.83738779,4.57613445 2.01129055,4.57613445 Z M2.32617965,2.47166761 L7.97403056,2.47166761 L7.97403056,3.94635625 L2.32617965,3.94635625 L2.32617965,2.47166761 Z" id="Shape"></path>
                <path d="M2.01129055,8.71533069 L4.75326087,8.71533069 C4.92716362,8.71533069 5.06814997,8.57434434 5.06814997,8.40044159 L5.06814997,5.65826134 C5.06814997,5.48435859 4.92716362,5.34337224 4.75326087,5.34337224 L2.01129055,5.34337224 C1.83738779,5.34337224 1.69640145,5.48435859 1.69640145,5.65826134 L1.69640145,8.40044159 C1.69640145,8.57434434 1.83738779,8.71533069 2.01129055,8.71533069 Z M2.32617965,5.97310846 L4.43837177,5.97310846 L4.43837177,8.0855105 L2.32617965,8.0855105 L2.32617965,5.97310846 Z" id="Shape"></path>
                <path d="M8.28887768,5.34333026 L5.6370916,5.34333026 C5.46318884,5.34333026 5.3222025,5.4843166 5.3222025,5.65821936 C5.3222025,5.83212211 5.46318884,5.97310846 5.6370916,5.97310846 L8.28887768,5.97310846 C8.46278043,5.97310846 8.60376678,5.83212211 8.60376678,5.65821936 C8.60376678,5.4843166 8.46278043,5.34333026 8.28887768,5.34333026 Z" id="Shape"></path>
                <path d="M8.28887768,8.08555249 L5.6370916,8.08555249 C5.46318884,8.08555249 5.3222025,8.22653883 5.3222025,8.40044159 C5.3222025,8.57434434 5.46318884,8.71533069 5.6370916,8.71533069 L8.28887768,8.71533069 C8.46278043,8.71533069 8.60376678,8.57434434 8.60376678,8.40044159 C8.60376678,8.22653883 8.46278043,8.08555249 8.28887768,8.08555249 Z" id="Shape"></path>
                <path d="M8.28887768,6.71427343 L5.6370916,6.71427343 C5.46318884,6.71427343 5.3222025,6.85525978 5.3222025,7.02916253 C5.3222025,7.20306529 5.46318884,7.34405163 5.6370916,7.34405163 L8.28887768,7.34405163 C8.46278043,7.34405163 8.60376678,7.20306529 8.60376678,7.02916253 C8.60376678,6.85525978 8.46278043,6.71427343 8.28887768,6.71427343 Z" id="Shape"></path>
            </g>
        </g>
    </g>
</svg>