<?xml version="1.0" encoding="UTF-8"?>
<svg width="25px" height="25px" viewBox="0 0 25 25" version="1.1" xmlns="http://www.w3.org/2000/svg" xmlns:xlink="http://www.w3.org/1999/xlink">
    <!-- Generator: Sketch 41 (35326) - http://www.bohemiancoding.com/sketch -->
    <title>icon</title>
    <desc>Created with Sketch.</desc>
    <defs></defs>
    <g id="Page-1" stroke="none" stroke-width="1" fill="none" fill-rule="evenodd">
        <g id="icon">
            <circle id="Oval" stroke="#FF7900" stroke-width="1.5" cx="12.5" cy="12.5" r="11.0958252"></circle>
            <circle id="Oval" stroke="#FF7900" stroke-width="0.6" cx="12.5" cy="12.5" r="8.58787537"></circle>
            <g id="2-b" transform="translate(7.278279, 6.500000)" fill="#000000">
                <path d="M2.24024185,2.94780863 C1.6261724,2.94780863 1.12841329,2.4499771 1.12841329,1.83598006 C1.12841329,1.2219106 1.6261724,0.72422392 2.24024185,0.72422392 C2.8542389,0.72422392 3.35199799,1.2219106 3.35199799,1.83598006 C3.35141861,2.44968741 2.85394921,2.94715683 2.24024185,2.94780863 Z M2.24024185,1.0948093 C1.83083807,1.0948093 1.49899866,1.42657627 1.49899866,1.83598006 C1.49899866,2.24531142 1.83083807,2.57722323 2.24024185,2.57722323 C2.64957321,2.57722323 2.98141262,2.24531142 2.98141262,1.83598006 C2.98141262,1.42657627 2.64957321,1.0948093 2.24024185,1.0948093 Z" id="Shape"></path>
                <path d="M6.68741126,8.13622121 L6.68741126,9.24804977 L4.64915546,9.24804977 L4.64915546,6.70551685 L3.5373269,6.33485906 L3.5373269,4.43022257 L5.20499732,4.43022257 C5.71644425,4.42957077 6.1309176,4.01509741 6.1315694,3.50372291 L6.1315694,3.13313753 L0.943084398,3.13313753 C0.431637456,3.13364448 0.0172365293,3.54811783 0.0165847231,4.05963719 L0.0165847231,6.09789299 C0.0165847231,6.40489152 0.26550048,6.65380727 0.572499004,6.65380727 L0.943084398,6.65380727 L0.943084398,9.98922052 L0.0165847231,9.98922052 L0.0165847231,11.286378 L0.387242535,11.286378 L0.387242535,10.3598059 L2.98141262,10.3598059 L2.98141262,11.286378 L3.35199799,11.286378 L3.35199799,9.61863515 L6.68741126,9.61863515 L6.68741126,11.286378 L7.05806906,11.286378 L7.05806906,8.50680659 L10.7640677,8.50680659 L10.7640677,11.286378 L11.1346531,11.286378 L11.1346531,8.13622121 L6.68741126,8.13622121 Z M0.943084398,4.24489366 L0.943084398,6.2832219 L0.572499004,6.2832219 C0.470166169,6.2832219 0.387242535,6.20022583 0.387242535,6.09789299 L0.387242535,4.05963719 C0.387242535,3.75249383 0.636085874,3.50372291 0.943084398,3.50372291 L5.76091159,3.50372291 C5.76091159,3.81072141 5.51199583,4.05963719 5.20499732,4.05963719 L3.16674152,4.05963719 L3.16674152,6.60209768 L4.27849765,6.97268307 L4.27849765,9.24804977 L3.72265579,9.24804977 L3.72265579,7.26657313 L1.86958405,6.57168027 L1.86958405,9.98922052 L1.31374219,9.98922052 L1.31374219,4.24489366 L0.943084398,4.24489366 Z M2.98141262,9.24804977 L2.98141262,9.98922052 L2.24024185,9.98922052 L2.24024185,7.10651965 L3.35199799,7.52338292 L3.35199799,9.24804977 L2.98141262,9.24804977 Z" id="Shape"></path>
                <path d="M8.1698252,7.58030693 L9.65223914,7.58030693 L9.65223914,2.94780863 L10.7251769,2.94780863 L8.91106839,2.84217094e-14 L7.09695988,2.94780863 L8.1698252,2.94780863 L8.1698252,7.58030693 Z M7.76034899,2.57722323 L8.91106839,0.707059818 L10.0617878,2.57722323 L9.28165376,2.57722323 L9.28165376,7.20972155 L8.54048301,7.20972155 L8.54048301,2.57722323 L7.76034899,2.57722323 Z" id="Shape"></path>
            </g>
        </g>
    </g>
</svg>