<?xml version="1.0" encoding="UTF-8"?>
<svg width="25px" height="25px" viewBox="0 0 25 25" version="1.1" xmlns="http://www.w3.org/2000/svg" xmlns:xlink="http://www.w3.org/1999/xlink">
    <!-- Generator: Sketch 41 (35326) - http://www.bohemiancoding.com/sketch -->
    <title>icon</title>
    <desc>Created with Sketch.</desc>
    <defs></defs>
    <g id="Page-1" stroke="none" stroke-width="1" fill="none" fill-rule="evenodd">
        <g id="icon">
            <circle id="Oval" stroke="#FF7900" stroke-width="1.5" cx="12.5" cy="12.5" r="11.0958252"></circle>
            <circle id="Oval" stroke="#FF7900" stroke-width="0.6" cx="12.5" cy="12.5" r="8.58787537"></circle>
            <g id="17" transform="translate(5.000000, 5.000000)" fill="#000000">
                <g transform="translate(6.510008, 5.612194) scale(1, -1) rotate(-98.000000) translate(-6.510008, -5.612194) translate(2.010008, 0.612194)" id="Shape">
                    <path d="M3.85328809,6.8629614 L3.20779907,6.21757272 L5.42908319,3.99608793 C6.2361351,4.43106959 7.25951393,4.31700631 7.94170628,3.63593773 C8.77261837,2.80390187 8.77261837,1.45486875 7.94170628,0.623996798 C7.10975068,-0.207998933 5.76061723,-0.207998933 4.92860143,0.623996798 C4.24757299,1.30510551 4.1340716,2.32970845 4.56877231,3.13557638 L0.195677529,7.50955413 C-0.0411783704,7.74612908 -0.0411783704,8.13359106 0.195677529,8.37006568 C0.432172215,8.60664064 0.819714462,8.60664064 1.05618908,8.37006568 L1.70157776,9.01553463 C1.82051743,9.13439403 2.01304437,9.13439403 2.1318837,9.01553463 L2.56218965,8.58528889 C2.68126979,8.46644956 2.68126979,8.27388248 2.56218965,8.15504315 L1.91676083,7.5095742 L2.34700658,7.078004 L2.99271633,7.72469707 C3.11157573,7.84355647 3.30418295,7.84355647 3.42302228,7.72469707 L3.85328809,7.29445133 C3.97212742,7.17434775 3.97212742,6.98310512 3.85328809,6.8629614 Z M5.78921332,1.48458862 C6.14577145,1.12803049 6.72473693,1.12803049 7.08129506,1.48458862 C7.43652874,1.83996277 7.43652874,2.41997176 7.08129506,2.77540611 C6.72473693,3.13078027 6.14577145,3.13078027 5.78921332,2.77540611 C5.43377896,2.41999183 5.43377896,1.83998284 5.78921332,1.48458862 Z"></path>
                </g>
                <g transform="translate(8.489992, 9.387806) scale(1, -1) rotate(-277.000000) translate(-8.489992, -9.387806) translate(3.989992, 4.387806)" id="Shape">
                    <path d="M3.85328809,6.8629614 L3.20779907,6.21757272 L5.42908319,3.99608793 C6.2361351,4.43106959 7.25951393,4.31700631 7.94170628,3.63593773 C8.77261837,2.80390187 8.77261837,1.45486875 7.94170628,0.623996798 C7.10975068,-0.207998933 5.76061723,-0.207998933 4.92860143,0.623996798 C4.24757299,1.30510551 4.1340716,2.32970845 4.56877231,3.13557638 L0.195677529,7.50955413 C-0.0411783704,7.74612908 -0.0411783704,8.13359106 0.195677529,8.37006568 C0.432172215,8.60664064 0.819714462,8.60664064 1.05618908,8.37006568 L1.70157776,9.01553463 C1.82051743,9.13439403 2.01304437,9.13439403 2.1318837,9.01553463 L2.56218965,8.58528889 C2.68126979,8.46644956 2.68126979,8.27388248 2.56218965,8.15504315 L1.91676083,7.5095742 L2.34700658,7.078004 L2.99271633,7.72469707 C3.11157573,7.84355647 3.30418295,7.84355647 3.42302228,7.72469707 L3.85328809,7.29445133 C3.97212742,7.17434775 3.97212742,6.98310512 3.85328809,6.8629614 Z M5.78921332,1.48458862 C6.14577145,1.12803049 6.72473693,1.12803049 7.08129506,1.48458862 C7.43652874,1.83996277 7.43652874,2.41997176 7.08129506,2.77540611 C6.72473693,3.13078027 6.14577145,3.13078027 5.78921332,2.77540611 C5.43377896,2.41999183 5.43377896,1.83998284 5.78921332,1.48458862 Z"></path>
                </g>
            </g>
        </g>
    </g>
</svg>