<?xml version="1.0" encoding="UTF-8"?>
<svg width="25px" height="25px" viewBox="0 0 25 25" version="1.1" xmlns="http://www.w3.org/2000/svg" xmlns:xlink="http://www.w3.org/1999/xlink">
    <!-- Generator: Sketch 41 (35326) - http://www.bohemiancoding.com/sketch -->
    <title>icon</title>
    <desc>Created with Sketch.</desc>
    <defs></defs>
    <g id="Page-1" stroke="none" stroke-width="1" fill="none" fill-rule="evenodd">
        <g id="icon">
            <circle id="Oval" stroke="#FF7900" stroke-width="1.5" cx="12.5" cy="12.5" r="11.0958252"></circle>
            <circle id="Oval" stroke="#FF7900" stroke-width="0.6" cx="12.5" cy="12.5" r="8.58787537"></circle>
            <g id="4" transform="translate(5.000000, 7.405655)" fill="#222222">
                <path d="M14.5552903,5.06864342 L14.6980931,4.8355578 L14.5552903,4.602356 C14.5313543,4.56343093 13.9568901,3.6362011 12.8408447,2.70699592 C11.3564635,1.47127044 9.60774059,0.818026535 7.78360756,0.818026535 C5.9599393,0.818026535 4.20691714,1.47092185 2.71405383,2.70606637 C1.59161769,3.63480674 1.0106466,4.56133945 0.9864782,4.60038071 L0.84065445,4.8355578 L0.9864782,5.0707349 C1.0106466,5.10977616 1.59161769,6.03630886 2.71405383,6.96504924 C4.20691714,8.20019375 5.9599393,8.85308907 7.78360756,8.85308907 C9.60774059,8.85308907 11.3564635,8.19984516 12.8408447,6.96411968 C13.9568901,6.0349145 14.5313543,5.10768467 14.5552903,5.06864342 L14.5552903,5.06864342 Z M12.2461627,6.29786202 C10.9108587,7.40124231 9.40939705,7.96060129 7.78360756,7.96060129 C6.1572371,7.96060129 4.65089523,7.40089375 3.30652815,6.29681628 C2.61122195,5.72583791 2.13982202,5.14765549 1.9089441,4.8355578 C2.13993821,4.52322775 2.61133814,3.94516151 3.30652815,3.37418314 C4.65089523,2.27022185 6.15712088,1.71039813 7.78360756,1.71039813 C9.40939705,1.71039813 10.9107425,2.26987329 12.2461627,3.37313739 C12.9383316,3.94504532 13.4056648,4.52404111 13.6334054,4.8355578 C13.4054324,5.14719068 12.9382154,5.72618647 12.2461627,6.29786202 Z" id="Shape"></path>
                <path d="M7.76937375,2.15449244 C6.29103472,2.15449244 5.08830839,3.35721876 5.08830839,4.8355578 C5.08830839,6.31389684 6.29103472,7.51662316 7.76937375,7.51662316 C9.24771279,7.51662316 10.4504391,6.31389684 10.4504391,4.8355578 C10.4504391,3.35721876 9.24771279,2.15449244 7.76937375,2.15449244 Z M7.76937375,6.62425157 C6.78311723,6.62425157 5.98067998,5.82181432 5.98067998,4.8355578 C5.98067998,3.84930128 6.78311723,3.04686403 7.76937375,3.04686403 C8.75563027,3.04686403 9.55806752,3.84930128 9.55806752,4.8355578 C9.55806752,5.82181432 8.75563027,6.62425157 7.76937375,6.62425157 Z" id="Shape"></path>
            </g>
        </g>
    </g>
</svg>