<?xml version="1.0" encoding="UTF-8"?>
<svg width="60px" height="60px" viewBox="0 0 60 60" version="1.1" xmlns="http://www.w3.org/2000/svg" xmlns:xlink="http://www.w3.org/1999/xlink">
    <!-- Generator: Sketch 41 (35326) - http://www.bohemiancoding.com/sketch -->
    <title>linux</title>
    <desc>Created with Sketch.</desc>
    <defs></defs>
    <g id="Page-1" stroke="none" stroke-width="1" fill="none" fill-rule="evenodd">
        <g id="linux" fill="#FFFFFF">
            <g id="other-linux-logo" transform="translate(7.000000, 2.000000)">
                <g id="layer1" transform="translate(0.145320, 0.060830)">
                    <ellipse id="path4143" cx="16.2854174" cy="12.7224518" rx="0.0522120662" ry="0.0522120662"></ellipse>
                    <path d="M10.5699764,5.06459343 C7.49850714,9.3185362 8.34878602,13.1498448 8.22587922,14.5018111 C8.10297413,15.8537795 -1.08422415,31.5901655 0.138659784,33.8366643 C0.822045304,35.092076 3.86271424,33.0869378 3.92416679,34.8690753 C3.98562105,36.6512145 0.952432255,54.4848839 22.0710076,54.4848839 C22.12566,54.4848839 22.1773563,54.4848822 22.2284572,54.4848822 C22.2832971,54.4849528 22.3352429,54.484366 22.3872506,54.4848839 C43.5058264,54.4848839 40.4723018,36.6512145 40.533756,34.8690753 C40.5952086,33.0869378 43.6358774,35.092076 44.319263,33.8366643 C45.5421469,31.5901655 36.3549487,15.8537795 36.2320436,14.5018111 C36.1091368,13.1498448 36.959415,9.3185362 33.8879459,5.06459343 C31.0749133,1.16858148 26.898995,0.256353177 22.7938966,0.130058834 C22.5803648,0.130058834 22.4201105,0.128459285 22.2289613,0.128444625 C22.0492685,0.128430856 21.8378496,0.129988165 21.664026,0.130394904 C17.5590395,0.256730154 13.3829297,1.1686914 10.5699764,5.06459343 Z M15.3462214,9.84016718 C16.4628341,9.84016718 17.3680263,10.7453593 17.3680263,11.861972 C17.3680263,12.9785847 16.4628341,13.8837769 15.3462214,13.8837769 C14.2296087,13.8837769 13.3244166,12.9785847 13.3244166,11.861972 C13.3244166,10.7453593 14.2296087,9.84016718 15.3462214,9.84016718 Z M29.1117012,9.84016718 C30.2283139,9.84016718 31.133506,10.7453593 31.133506,11.861972 C31.133506,12.9785847 30.2283139,13.8837769 29.1117012,13.8837769 C27.9950885,13.8837769 27.0898964,12.9785847 27.0898964,11.861972 C27.0898964,10.7453593 27.9950885,9.84016718 29.1117012,9.84016718 Z M14.0479784,19.0206255 C16.1247987,18.9537769 20.0445328,21.9586021 21.8313885,22.5510546 C22.0222709,22.602202 22.0912549,22.643815 22.2289613,22.643815 C22.3666677,22.643815 22.4470633,22.5991443 22.6265359,22.5510546 C24.4771842,21.9376408 28.6163539,18.7355372 30.6257027,19.0397819 C32.8468041,19.376088 31.0055009,22.7093731 31.9518397,25.1599761 C34.3338304,31.3282962 37.5347432,40.8840135 34.1181546,46.4463944 C33.0559671,48.1756897 30.5880076,51.1434789 22.7811257,51.2414599 C22.5968076,51.2426644 22.4168274,51.2448668 22.2289613,51.2451594 C22.0409868,51.2448152 21.8608913,51.2426816 21.6764597,51.2414599 C13.8699701,51.1433602 11.4022704,48.1756535 10.3401036,46.4463944 C6.92351496,40.8840135 10.1244278,31.3282962 12.5064184,25.1599761 C13.4527573,22.7093731 11.6114558,19.376088 13.8325572,19.0397819 C13.9019662,19.0292685 13.9736672,19.0230224 14.0479784,19.0206255 Z" id="Combined-Shape"></path>
                </g>
            </g>
        </g>
    </g>
</svg>