<?xml version="1.0" encoding="UTF-8"?>
<svg width="760px" height="760px" viewBox="0 0 760 760" version="1.1" xmlns="http://www.w3.org/2000/svg" xmlns:xlink="http://www.w3.org/1999/xlink">
    <!-- Generator: Sketch 41 (35326) - http://www.bohemiancoding.com/sketch -->
    <title>need</title>
    <desc>Created with Sketch.</desc>
    <defs></defs>
    <g id="Page-1" stroke="none" stroke-width="1" fill="none" fill-rule="evenodd">
        <g id="need">
            <g id="bitcoin" transform="translate(51.000000, 51.000000)">
                <g id="Group">
                    <path d="M276.021064,276.021064 L530.809738,276.021064 L530.809738,265.404869 C530.809738,119.060624 411.749113,0 265.404869,0 C119.060624,0 0,119.060624 0,265.404869 C0,411.749113 119.060624,530.809738 265.404869,530.809738 L276.021064,530.809738 L276.021064,276.021064 Z M446.389757,102.042864 C483.312882,142.904598 506.817138,196.112966 509.343792,254.788674 L403.181844,254.788674 C402.003447,211.0818 393.659118,173.680946 381.641585,142.108383 C416.834271,129.698051 436.42115,113.211101 446.389757,102.042864 Z M431.410306,86.8298569 C423.883424,95.4926718 406.833815,110.779992 373.414034,122.415342 C351.587138,75.1520427 322.201511,43.0168211 300.417079,23.7802762 C350.674145,31.0311373 395.888519,53.7816426 431.410306,86.8298569 Z M276.021064,31.232845 C287.80504,40.6175611 304.610476,55.8942654 321.299134,77.5937675 C333.592688,93.5817567 343.805467,110.67383 352.393969,128.583351 C331.894097,133.63666 306.744331,137.193085 276.021064,137.872521 L276.021064,31.232845 L276.021064,31.232845 Z M276.021064,159.094295 C310.215827,158.38301 338.221349,154.285158 361.024935,148.382554 C373.774985,181.09105 380.70736,216.655303 381.800828,254.778058 L276.021064,254.778058 L276.021064,159.094295 Z M230.392659,23.7802762 C208.608227,43.0168211 179.2226,75.1520427 157.395703,122.415342 C123.975922,110.790608 106.926314,95.503288 99.3994315,86.8298569 C134.931835,53.7816426 180.135593,31.0311373 230.392659,23.7802762 Z M84.4199807,102.042864 C94.3992037,113.221717 113.975467,129.698051 149.168152,142.108383 C137.140004,173.680946 128.806291,211.0818 127.627893,254.788674 L21.4659458,254.788674 C23.9819839,196.112966 47.4968553,142.904598 84.4199807,102.042864 Z M84.4199807,428.766874 C47.4968553,387.894524 23.9819839,334.696772 21.4553296,276.021064 L127.627893,276.021064 C128.806291,319.727937 137.15062,357.128791 149.168152,388.701355 C113.975467,401.111686 94.3885875,417.598637 84.4199807,428.766874 Z M99.3994315,443.979881 C106.926314,435.317066 123.975922,420.029745 157.395703,408.394396 C179.2226,455.657695 208.608227,487.792917 230.392659,507.029461 C180.135593,499.7786 134.921219,477.028095 99.3994315,443.979881 Z M254.788674,499.566276 C243.004698,490.192177 226.199262,474.915472 209.510603,453.205354 C197.21705,437.217365 187.004271,420.125291 178.415769,402.215771 C198.915641,397.162462 224.065406,393.606037 254.788674,392.9266 L254.788674,499.566276 Z M254.788674,371.715443 C220.593911,372.426728 192.588389,376.524579 169.784803,382.427184 C157.034753,349.718688 150.102378,314.154435 149.00891,276.03168 L254.788674,276.03168 L254.788674,371.715443 Z M254.788674,254.788674 L148.860283,254.788674 C150.081145,213.523525 158.287464,178.203445 169.954662,148.435635 C192.7264,154.317007 220.67884,158.38301 254.788674,159.094295 L254.788674,254.788674 Z M254.788674,137.872521 C224.13972,137.203701 199.032419,133.657892 178.564396,128.625816 C202.631309,78.496144 235.477816,46.8598836 254.788674,31.3390069 L254.788674,137.872521 Z" id="Shape" fill="#69737B"></path>
                    <path d="M557.350225,281.785657 L546.723414,300.151674 C602.394739,332.361209 636.971685,392.25778 636.971685,456.496374 C636.971685,556.012584 556.012584,636.971685 456.496374,636.971685 C428.607631,636.971685 401.122303,630.506423 376.333488,618.223485 C379.95361,611.046938 382.183011,603.074175 382.183011,594.506906 C382.183011,565.238057 358.370886,541.425932 329.102037,541.425932 C299.833188,541.425932 276.021064,565.238057 276.021064,594.506906 C276.021064,623.775755 299.833188,647.58788 329.102037,647.58788 C342.000714,647.58788 353.689144,642.778744 362.893385,635.092619 C391.652657,650.178231 423.809111,658.204075 456.496374,658.204075 C567.722247,658.204075 658.204075,567.722247 658.204075,456.496374 C658.204075,384.709665 619.561126,317.763941 557.350225,281.785657 Z M329.102037,626.35549 C311.542851,626.35549 297.253453,612.066092 297.253453,594.506906 C297.253453,576.94772 311.542851,562.658322 329.102037,562.658322 C346.661223,562.658322 360.950622,576.94772 360.950622,594.506906 C360.950622,612.066092 346.661223,626.35549 329.102037,626.35549 Z" id="Shape" fill="#69737B"></path>
                    <path d="M480.392383,418.135315 L480.392383,400.73902 L464.461711,400.73902 L464.461711,416.669693 L448.531038,416.669693 L448.531038,400.73902 L432.600365,400.73902 L432.600365,416.669693 L416.669693,416.669693 L416.669693,496.323056 L432.600365,496.323056 L432.600365,512.253729 L448.531038,512.253729 L448.531038,496.323056 L464.461711,496.323056 L464.461711,512.253729 L480.392383,512.253729 L480.392383,494.857434 C489.640139,491.559785 496.323056,482.797915 496.323056,472.427047 C496.323056,466.309669 494.013108,460.725968 490.221608,456.496374 C494.013108,452.266781 496.323056,446.68308 496.323056,440.565702 C496.323056,430.194834 489.640139,421.432964 480.392383,418.135315 Z M472.427047,480.392383 L432.600365,480.392383 L432.600365,464.461711 L472.427047,464.461711 C476.815947,464.461711 480.392383,468.030181 480.392383,472.427047 C480.392383,476.823913 476.815947,480.392383 472.427047,480.392383 Z M472.427047,448.531038 L432.600365,448.531038 L432.600365,432.600365 L472.427047,432.600365 C476.815947,432.600365 480.392383,436.168836 480.392383,440.565702 C480.392383,444.962567 476.815947,448.531038 472.427047,448.531038 Z" id="Shape" fill="#FF7900"></path>
                    <path d="M456.496374,360.950622 C478.471898,360.950622 499.94846,368.615514 516.944987,382.522729 L530.395706,366.099476 C509.609197,349.092332 483.365963,339.718232 456.496374,339.718232 C392.109153,339.718232 339.718232,392.109153 339.718232,456.496374 C339.718232,483.365963 349.081716,509.609197 366.08886,530.395706 L382.522729,516.934371 C368.615514,499.94846 360.950622,478.471898 360.950622,456.496374 C360.950622,403.8082 403.818816,360.950622 456.496374,360.950622 Z" id="Shape" fill="#69737B"></path>
                    <path d="M573.274517,456.496374 C573.274517,429.626785 563.911033,403.383552 546.903889,382.597043 L530.470019,396.058378 C544.377235,413.044289 552.042127,434.520851 552.042127,456.496374 C552.042127,509.184549 509.173933,552.042127 456.496374,552.042127 C434.520851,552.042127 413.044289,544.377235 396.047761,530.470019 L382.597043,546.893273 C403.383552,563.900417 429.626785,573.274517 456.496374,573.274517 C520.883596,573.274517 573.274517,520.883596 573.274517,456.496374 Z" id="Shape" fill="#69737B"></path>
                    <rect id="Rectangle-path" fill="#69737B" x="318.485843" y="583.890711" width="21.2323895" height="21.2323895"></rect>
                </g>
            </g>
        </g>
    </g>
</svg>