<?xml version="1.0" encoding="UTF-8"?>
<svg width="204px" height="100px" viewBox="0 0 204 100" version="1.1" xmlns="http://www.w3.org/2000/svg" xmlns:xlink="http://www.w3.org/1999/xlink">
    <!-- Generator: Sketch 41 (35326) - http://www.bohemiancoding.com/sketch -->
    <title>swiss-made</title>
    <desc>Created with Sketch.</desc>
    <defs></defs>
    <g id="Page-1" stroke="none" stroke-width="1" fill="none" fill-rule="evenodd">
        <g id="swiss-made">
            <rect id="Rectangle" fill="#FF0000" x="1.51779713" y="22" width="58" height="58"></rect>
            <path d="M37.5177971,44 L37.5177971,28.5 L23.5177971,28.5 L23.5177971,44 L8.01779713,44 L8.01779713,58 L23.5177971,58 L23.5177971,73.5 L37.5177971,73.5 L37.5177971,58 L53.0177971,58 L53.0177971,44 L37.5177971,44 Z" id="Combined-Shape" fill="#FFFFFF"></path>
            <path d="M76.1716879,47.848 C77.5036879,48.676 80.1676879,49.396 82.7596879,49.396 C88.9876879,49.396 91.9396879,46.012 91.9396879,42.088 C91.9396879,38.596 89.9236879,36.472 85.7116879,34.888 C82.4716879,33.628 81.0676879,32.764 81.0676879,30.892 C81.0676879,29.452 82.2556879,27.976 85.0636879,27.976 C87.3316879,27.976 89.0236879,28.66 89.9236879,29.128 L90.9676879,25.564 C89.7076879,24.916 87.7996879,24.34 85.1716879,24.34 C79.8796879,24.34 76.5676879,27.328 76.5676879,31.324 C76.5676879,34.816 79.1236879,36.94 83.1556879,38.38 C86.2156879,39.496 87.4396879,40.576 87.4396879,42.412 C87.4396879,44.392 85.8556879,45.724 83.0476879,45.724 C80.7796879,45.724 78.5836879,45.004 77.1796879,44.176 L76.1716879,47.848 Z M112.647688,49 L115.455688,37.588 C116.175688,34.816 116.643688,32.476 117.039688,29.884 L117.111688,29.884 C117.435688,32.512 117.867688,34.816 118.479688,37.588 L120.999688,49 L125.715688,49 L132.267688,24.736 L127.767688,24.736 L125.247688,35.68 C124.599688,38.668 124.023688,41.44 123.591688,44.104 L123.519688,44.104 C123.159688,41.476 122.619688,38.776 122.043688,35.896 L119.631688,24.736 L114.987688,24.736 L112.359688,35.716 C111.675688,38.776 110.991688,41.656 110.595688,44.212 L110.523688,44.212 C110.127688,41.8 109.551688,38.704 108.939688,35.752 L106.635688,24.736 L101.919688,24.736 L107.859688,49 L112.647688,49 Z M143.219688,24.736 L143.219688,49 L147.647688,49 L147.647688,24.736 L143.219688,24.736 Z M159.643688,47.848 C160.975688,48.676 163.639688,49.396 166.231688,49.396 C172.459688,49.396 175.411688,46.012 175.411688,42.088 C175.411688,38.596 173.395688,36.472 169.183688,34.888 C165.943688,33.628 164.539688,32.764 164.539688,30.892 C164.539688,29.452 165.727688,27.976 168.535688,27.976 C170.803688,27.976 172.495688,28.66 173.395688,29.128 L174.439688,25.564 C173.179688,24.916 171.271688,24.34 168.643688,24.34 C163.351688,24.34 160.039688,27.328 160.039688,31.324 C160.039688,34.816 162.595688,36.94 166.627688,38.38 C169.687688,39.496 170.911688,40.576 170.911688,42.412 C170.911688,44.392 169.327688,45.724 166.519688,45.724 C164.251688,45.724 162.055688,45.004 160.651688,44.176 L159.643688,47.848 Z M186.327688,47.848 C187.659688,48.676 190.323688,49.396 192.915688,49.396 C199.143688,49.396 202.095688,46.012 202.095688,42.088 C202.095688,38.596 200.079688,36.472 195.867688,34.888 C192.627688,33.628 191.223688,32.764 191.223688,30.892 C191.223688,29.452 192.411688,27.976 195.219688,27.976 C197.487688,27.976 199.179688,28.66 200.079688,29.128 L201.123688,25.564 C199.863688,24.916 197.955688,24.34 195.327688,24.34 C190.035688,24.34 186.723688,27.328 186.723688,31.324 C186.723688,34.816 189.279688,36.94 193.311688,38.38 C196.371688,39.496 197.595688,40.576 197.595688,42.412 C197.595688,44.392 196.011688,45.724 193.203688,45.724 C190.935688,45.724 188.739688,45.004 187.335688,44.176 L186.327688,47.848 Z" id="SWISS" fill="#FFFFFF"></path>
            <path d="M98.2036879,79 L102.523688,79 L101.119688,54.736 L95.3596879,54.736 L92.0116879,64.456 C91.0756879,67.3 90.2476879,70.288 89.5996879,72.916 L89.4916879,72.916 C88.8796879,70.216 88.1236879,67.336 87.2596879,64.492 L84.0916879,54.736 L78.2596879,54.736 L76.6396879,79 L80.7796879,79 L81.3196879,69.244 C81.4996879,65.932 81.6436879,62.08 81.7516879,58.912 L81.8236879,58.912 C82.4716879,61.936 83.3356879,65.248 84.2716879,68.344 L87.5116879,78.712 L90.8956879,78.712 L94.4596879,68.2 C95.5396879,65.14 96.5476879,61.864 97.3396879,58.912 L97.4476879,58.912 C97.4116879,62.188 97.5916879,65.968 97.7356879,69.1 L98.2036879,79 Z M129.335688,72.124 L131.531688,79 L136.319688,79 L128.435688,54.736 L122.783688,54.736 L115.007688,79 L119.579688,79 L121.667688,72.124 L129.335688,72.124 Z M122.387688,68.776 L124.259688,62.8 C124.655688,61.36 125.051688,59.668 125.411688,58.264 L125.483688,58.264 C125.843688,59.668 126.239688,61.324 126.707688,62.8 L128.615688,68.776 L122.387688,68.776 Z M149.703688,78.928 C151.179688,79.108 153.123688,79.252 155.679688,79.252 C160.395688,79.252 164.247688,78.136 166.659688,75.94 C168.963688,73.852 170.439688,70.648 170.439688,66.292 C170.439688,62.188 168.999688,59.272 166.623688,57.364 C164.391688,55.492 161.295688,54.556 156.759688,54.556 C154.131688,54.556 151.683688,54.772 149.703688,55.06 L149.703688,78.928 Z M154.131688,58.264 C154.779688,58.12 155.751688,58.012 157.155688,58.012 C162.699688,58.012 165.795688,61.108 165.759688,66.436 C165.759688,72.592 162.339688,75.796 156.579688,75.76 C155.679688,75.76 154.743688,75.76 154.131688,75.652 L154.131688,58.264 Z M197.863688,64.636 L188.719688,64.636 L188.719688,58.372 L198.403688,58.372 L198.403688,54.736 L184.291688,54.736 L184.291688,79 L198.943688,79 L198.943688,75.364 L188.719688,75.364 L188.719688,68.236 L197.863688,68.236 L197.863688,64.636 Z" id="MADE" fill="#FFFFFF"></path>
        </g>
    </g>
</svg>