<?xml version="1.0" encoding="UTF-8"?>
<svg width="210px" height="65px" viewBox="0 0 210 65" version="1.1" xmlns="http://www.w3.org/2000/svg" xmlns:xlink="http://www.w3.org/1999/xlink">
    <!-- Generator: Sketch 41 (35326) - http://www.bohemiancoding.com/sketch -->
    <title>swiss-made</title>
    <desc>Created with Sketch.</desc>
    <defs></defs>
    <g id="Page-1" stroke="none" stroke-width="1" fill="none" fill-rule="evenodd">
        <g id="swiss-made">
            <g id="Group" transform="translate(5.000000, 4.000000)">
                <rect id="Rectangle" fill="#FF0000" x="0" y="0" width="58" height="58"></rect>
                <path d="M36,22 L36,6.5 L22,6.5 L22,22 L6.5,22 L6.5,36 L22,36 L22,51.5 L36,51.5 L36,36 L51.5,36 L51.5,22 L36,22 Z" id="Combined-Shape" fill="#FFFFFF"></path>
                <path d="M74.6538908,25.848 C75.9858908,26.676 78.6498908,27.396 81.2418908,27.396 C87.4698908,27.396 90.4218908,24.012 90.4218908,20.088 C90.4218908,16.596 88.4058908,14.472 84.1938908,12.888 C80.9538908,11.628 79.5498908,10.764 79.5498908,8.892 C79.5498908,7.452 80.7378908,5.976 83.5458908,5.976 C85.8138908,5.976 87.5058908,6.66 88.4058908,7.128 L89.4498908,3.564 C88.1898908,2.916 86.2818908,2.34 83.6538908,2.34 C78.3618908,2.34 75.0498908,5.328 75.0498908,9.324 C75.0498908,12.816 77.6058908,14.94 81.6378908,16.38 C84.6978908,17.496 85.9218908,18.576 85.9218908,20.412 C85.9218908,22.392 84.3378908,23.724 81.5298908,23.724 C79.2618908,23.724 77.0658908,23.004 75.6618908,22.176 L74.6538908,25.848 Z M111.129891,27 L113.937891,15.588 C114.657891,12.816 115.125891,10.476 115.521891,7.884 L115.593891,7.884 C115.917891,10.512 116.349891,12.816 116.961891,15.588 L119.481891,27 L124.197891,27 L130.749891,2.736 L126.249891,2.736 L123.729891,13.68 C123.081891,16.668 122.505891,19.44 122.073891,22.104 L122.001891,22.104 C121.641891,19.476 121.101891,16.776 120.525891,13.896 L118.113891,2.736 L113.469891,2.736 L110.841891,13.716 C110.157891,16.776 109.473891,19.656 109.077891,22.212 L109.005891,22.212 C108.609891,19.8 108.033891,16.704 107.421891,13.752 L105.117891,2.736 L100.401891,2.736 L106.341891,27 L111.129891,27 Z M141.701891,2.736 L141.701891,27 L146.129891,27 L146.129891,2.736 L141.701891,2.736 Z M158.125891,25.848 C159.457891,26.676 162.121891,27.396 164.713891,27.396 C170.941891,27.396 173.893891,24.012 173.893891,20.088 C173.893891,16.596 171.877891,14.472 167.665891,12.888 C164.425891,11.628 163.021891,10.764 163.021891,8.892 C163.021891,7.452 164.209891,5.976 167.017891,5.976 C169.285891,5.976 170.977891,6.66 171.877891,7.128 L172.921891,3.564 C171.661891,2.916 169.753891,2.34 167.125891,2.34 C161.833891,2.34 158.521891,5.328 158.521891,9.324 C158.521891,12.816 161.077891,14.94 165.109891,16.38 C168.169891,17.496 169.393891,18.576 169.393891,20.412 C169.393891,22.392 167.809891,23.724 165.001891,23.724 C162.733891,23.724 160.537891,23.004 159.133891,22.176 L158.125891,25.848 Z M184.809891,25.848 C186.141891,26.676 188.805891,27.396 191.397891,27.396 C197.625891,27.396 200.577891,24.012 200.577891,20.088 C200.577891,16.596 198.561891,14.472 194.349891,12.888 C191.109891,11.628 189.705891,10.764 189.705891,8.892 C189.705891,7.452 190.893891,5.976 193.701891,5.976 C195.969891,5.976 197.661891,6.66 198.561891,7.128 L199.605891,3.564 C198.345891,2.916 196.437891,2.34 193.809891,2.34 C188.517891,2.34 185.205891,5.328 185.205891,9.324 C185.205891,12.816 187.761891,14.94 191.793891,16.38 C194.853891,17.496 196.077891,18.576 196.077891,20.412 C196.077891,22.392 194.493891,23.724 191.685891,23.724 C189.417891,23.724 187.221891,23.004 185.817891,22.176 L184.809891,25.848 Z" id="SWISS" fill="#FFFFFF"></path>
                <path d="M96.6858908,57 L101.005891,57 L99.6018908,32.736 L93.8418908,32.736 L90.4938908,42.456 C89.5578908,45.3 88.7298908,48.288 88.0818908,50.916 L87.9738908,50.916 C87.3618908,48.216 86.6058908,45.336 85.7418908,42.492 L82.5738908,32.736 L76.7418908,32.736 L75.1218908,57 L79.2618908,57 L79.8018908,47.244 C79.9818908,43.932 80.1258908,40.08 80.2338908,36.912 L80.3058908,36.912 C80.9538908,39.936 81.8178908,43.248 82.7538908,46.344 L85.9938908,56.712 L89.3778908,56.712 L92.9418908,46.2 C94.0218908,43.14 95.0298908,39.864 95.8218908,36.912 L95.9298908,36.912 C95.8938908,40.188 96.0738908,43.968 96.2178908,47.1 L96.6858908,57 Z M127.817891,50.124 L130.013891,57 L134.801891,57 L126.917891,32.736 L121.265891,32.736 L113.489891,57 L118.061891,57 L120.149891,50.124 L127.817891,50.124 Z M120.869891,46.776 L122.741891,40.8 C123.137891,39.36 123.533891,37.668 123.893891,36.264 L123.965891,36.264 C124.325891,37.668 124.721891,39.324 125.189891,40.8 L127.097891,46.776 L120.869891,46.776 Z M148.185891,56.928 C149.661891,57.108 151.605891,57.252 154.161891,57.252 C158.877891,57.252 162.729891,56.136 165.141891,53.94 C167.445891,51.852 168.921891,48.648 168.921891,44.292 C168.921891,40.188 167.481891,37.272 165.105891,35.364 C162.873891,33.492 159.777891,32.556 155.241891,32.556 C152.613891,32.556 150.165891,32.772 148.185891,33.06 L148.185891,56.928 Z M152.613891,36.264 C153.261891,36.12 154.233891,36.012 155.637891,36.012 C161.181891,36.012 164.277891,39.108 164.241891,44.436 C164.241891,50.592 160.821891,53.796 155.061891,53.76 C154.161891,53.76 153.225891,53.76 152.613891,53.652 L152.613891,36.264 Z M196.345891,42.636 L187.201891,42.636 L187.201891,36.372 L196.885891,36.372 L196.885891,32.736 L182.773891,32.736 L182.773891,57 L197.425891,57 L197.425891,53.364 L187.201891,53.364 L187.201891,46.236 L196.345891,46.236 L196.345891,42.636 Z" id="MADE" fill="#FFFFFF"></path>
            </g>
        </g>
    </g>
</svg>