<?xml version="1.0" encoding="UTF-8"?>
<svg width="760px" height="760px" viewBox="0 0 760 760" version="1.1" xmlns="http://www.w3.org/2000/svg" xmlns:xlink="http://www.w3.org/1999/xlink">
    <!-- Generator: Sketch 41 (35326) - http://www.bohemiancoding.com/sketch -->
    <title>why</title>
    <desc>Created with Sketch.</desc>
    <defs></defs>
    <g id="Page-1" stroke="none" stroke-width="1" fill="none" fill-rule="evenodd">
        <g id="why">
            <g id="001-two-ways" transform="translate(252.916373, 226.916373)" fill="#FF7900">
                <g id="Group-2" transform="translate(0.048843, 0.907793)">
                    <path d="M45.2367195,229.432421 L92.1950967,229.529292 L92.1950967,229.529292 C97.7617654,229.520386 102.269722,225.005204 102.269715,219.438529 L102.269715,82.4059599 L127.294809,82.4059599 C131.317809,82.4030198 134.954702,80.0107207 136.550438,76.3177316 C138.146174,72.6247424 137.395837,68.3367267 134.640884,65.4050415 L76.0821655,3.1813572 C72.0212399,-0.866584131 65.4509394,-0.866584131 61.3900138,3.1813572 L2.82322225,65.4050415 C0.0682696233,68.3367267 -0.682067449,72.6247424 0.913668609,76.3177316 C2.50940467,80.0107207 6.1462975,82.4030198 10.1692981,82.4059599 L35.1943917,82.4059599 L35.1943917,219.341657 C35.1943277,224.895772 39.6826693,229.405761 45.2367195,229.432421 L45.2367195,229.432421 Z M33.5233612,62.2244328 L68.7360897,24.8159542 L103.940745,62.2244328 L92.2112419,62.2244328 C86.6382671,62.2244328 82.1204784,66.7422215 82.1204784,72.3151963 L82.1204784,209.323547 L55.3436283,209.275112 L55.3436283,72.3151963 C55.3436283,66.7422215 50.8258396,62.2244328 45.2528648,62.2244328 L33.5233612,62.2244328 Z" id="Shape"></path>
                    <path d="M178.507452,301.69036 C180.413044,303.717321 183.071469,304.866835 185.853528,304.866835 C188.635586,304.866835 191.294011,303.717321 193.199603,301.69036 L251.766395,239.466676 C254.521348,236.534991 255.271685,232.246975 253.675949,228.553986 C252.080213,224.860997 248.44332,222.468698 244.420319,222.465758 L219.395226,222.465758 L219.395226,85.5300603 C219.395233,79.9633845 214.887276,75.4482034 209.320607,75.4392967 L162.36223,75.3424254 C159.699081,75.4106543 157.154928,76.4599377 155.217969,78.2889283 C153.319248,80.181341 152.253037,82.7524496 152.255321,85.4331889 L152.255321,222.465758 L127.294809,222.465758 C123.271808,222.468698 119.634915,224.860997 118.039179,228.553986 C116.443443,232.246975 117.19378,236.534991 119.948733,239.466676 L178.507452,301.69036 Z M162.36223,242.647285 C167.935205,242.647285 172.452994,238.129496 172.452994,232.556521 L172.452994,95.5481703 L199.229844,95.596606 L199.229844,232.556521 C199.229844,238.129496 203.747632,242.647285 209.320607,242.647285 L221.050111,242.647285 L185.837382,280.055763 L150.632727,242.647285 L162.36223,242.647285 Z" id="Shape"></path>
                </g>
            </g>
            <path d="M90.4747281,336.221424 C93.2831243,334.275068 95.2032548,331.292748 95.8126707,327.930606 C119.885285,195.542157 232.430605,97.4736748 366.867714,91.7416919 L366.867714,65.6874276 C219.908928,71.5290703 96.7113174,178.627626 70.4798457,323.344313 C69.2157069,330.335198 73.8494818,337.029965 80.8376525,338.309025 C84.1997447,338.918718 87.6663319,338.16778 90.4747281,336.221424 Z" id="Shape" fill="#69737B"></path>
            <path d="M411.244934,699.230599 C414.05333,697.284243 415.973461,694.301923 416.582876,690.939781 C440.655491,558.551332 553.20081,460.48285 687.63792,454.750867 L687.63792,428.696603 C540.679134,434.538245 417.481523,541.636801 391.250052,686.353488 C389.985913,693.344373 394.619688,700.039141 401.607858,701.3182 C404.969951,701.927893 408.436538,701.176955 411.244934,699.230599 Z" id="Shape" fill="#69737B" transform="translate(539.340086, 565.110800) rotate(-180.000000) translate(-539.340086, -565.110800) "></path>
            <path d="M160.855575,379.719639 C160.855575,500.594925 258.844354,598.583704 379.719639,598.583704 C500.594925,598.583704 598.583704,500.594925 598.583704,379.719639 C598.583704,258.844354 500.594925,160.855575 379.719639,160.855575 C258.900862,160.991888 160.991888,258.900862 160.855575,379.719639 Z M572.828322,379.719639 C572.828322,486.363586 486.377328,572.816118 379.733381,572.818015 C273.089434,572.819913 186.635364,486.370457 186.63157,379.72651 C186.627775,273.082563 273.075693,186.626955 379.719639,186.621263 C486.313132,186.746207 572.693072,273.126147 572.818016,379.719639 L572.828322,379.719639 Z" id="Shape" fill="#69737B"></path>
        </g>
    </g>
</svg>