<?xml version="1.0" encoding="UTF-8"?>
<svg width="760px" height="760px" viewBox="0 0 760 760" version="1.1" xmlns="http://www.w3.org/2000/svg" xmlns:xlink="http://www.w3.org/1999/xlink">
    <!-- Generator: Sketch 41 (35326) - http://www.bohemiancoding.com/sketch -->
    <title>world</title>
    <desc>Created with Sketch.</desc>
    <defs></defs>
    <g id="Page-1" stroke="none" stroke-width="1" fill="none" fill-rule="evenodd">
        <g id="world">
            <g transform="translate(52.000000, 52.000000)" id="Page-1">
                <g>
                    <g id="world">
                        <g id="bitcoin">
                            <g id="Group">
                                <path d="M275.03462,275.03462 L528.91273,275.03462 L528.91273,264.456365 C528.91273,118.635125 410.277605,0 264.456365,0 C118.635125,0 0,118.635125 0,264.456365 C0,410.277605 118.635125,528.91273 264.456365,528.91273 L275.03462,528.91273 L275.03462,275.03462 Z M444.794449,101.678183 C481.585619,142.393885 505.005874,195.412097 507.523499,253.87811 L401.740953,253.87811 C400.566767,210.327436 392.252259,173.060245 380.277675,141.600516 C415.344588,129.234536 434.861468,112.806507 444.794449,101.678183 Z M429.868532,86.5195443 C422.36855,95.1514001 405.379873,110.384087 372.079527,121.977854 C350.330636,74.8834643 321.050027,42.8630876 299.343449,23.6952903 C349.420906,30.9202382 394.473692,53.5894378 429.868532,86.5195443 Z M275.03462,31.121225 C286.776482,40.4724021 303.521859,55.6945105 320.150875,77.3164628 C332.400494,93.2473143 342.576775,110.278304 351.134583,128.12382 C330.707973,133.159069 305.648088,136.702784 275.03462,137.379792 L275.03462,31.121225 L275.03462,31.121225 Z M275.03462,158.525723 C309.107178,157.81698 337.012613,153.733774 359.734704,147.852265 C372.439188,180.443867 379.346788,215.88102 380.436348,253.867532 L275.03462,253.867532 L275.03462,158.525723 Z M229.569281,23.6952903 C207.862703,42.8630876 178.582094,74.8834643 156.833203,121.977854 C123.532857,110.394665 106.54418,95.1619784 99.0441978,86.5195443 C134.449616,53.5894378 179.491824,30.9202382 229.569281,23.6952903 Z M84.1182806,101.678183 C94.0618399,112.817085 113.568141,129.234536 148.635055,141.600516 C136.649893,173.060245 128.345963,210.327436 127.171777,253.87811 L21.3892308,253.87811 C23.8962771,195.412097 47.3271111,142.393885 84.1182806,101.678183 Z M84.1182806,427.234547 C47.3271111,386.508266 23.8962771,333.500633 21.3786525,275.03462 L127.171777,275.03462 C128.345963,318.585294 136.660471,355.852485 148.635055,387.312214 C113.568141,399.678193 94.0512616,416.106223 84.1182806,427.234547 Z M99.0441978,442.393185 C106.54418,433.76133 123.532857,418.528643 156.833203,406.934876 C178.582094,454.029266 207.862703,486.049642 229.569281,505.21744 C179.491824,497.992492 134.439038,475.323292 99.0441978,442.393185 Z M253.87811,497.780927 C242.136248,488.440328 225.390871,473.218219 208.761854,451.585689 C196.512236,435.654837 186.335955,418.623847 177.778147,400.778332 C198.204756,395.743083 223.264642,392.199367 253.87811,391.522359 L253.87811,497.780927 Z M253.87811,370.387006 C219.805552,371.09575 191.900117,375.178956 169.178026,381.060465 C156.473542,348.468863 149.565942,313.03171 148.476382,275.045198 L253.87811,275.045198 L253.87811,370.387006 Z M253.87811,253.87811 L148.328286,253.87811 C149.544785,212.760435 157.721776,177.566582 169.347278,147.905156 C192.037634,153.765509 219.890178,157.81698 253.87811,158.525723 L253.87811,253.87811 Z M253.87811,137.379792 C223.338689,136.713362 198.321117,133.180225 177.926242,128.166133 C201.907145,78.2156145 234.636265,46.6924158 253.87811,31.2270076 L253.87811,137.379792 Z" id="Shape" fill="#69737B"></path>
                                <path d="M555.358366,280.778612 L544.769533,299.078992 C600.241901,331.173417 634.695276,390.855929 634.695276,454.864948 C634.695276,554.025506 554.025506,634.695276 454.864948,634.695276 C427.075873,634.695276 399.688772,628.253119 374.988547,616.014078 C378.595732,608.863178 380.817165,600.918909 380.817165,592.382257 C380.817165,563.21801 357.09014,539.490984 327.925893,539.490984 C298.761645,539.490984 275.03462,563.21801 275.03462,592.382257 C275.03462,621.546505 298.761645,645.27353 327.925893,645.27353 C340.778472,645.27353 352.42513,640.481581 361.596477,632.822925 C390.252969,647.854625 422.294502,655.851785 454.864948,655.851785 C565.693321,655.851785 655.851785,565.693321 655.851785,454.864948 C655.851785,383.33479 617.346938,316.628317 555.358366,280.778612 Z M327.925893,624.117021 C310.429459,624.117021 296.191129,609.878691 296.191129,592.382257 C296.191129,574.885824 310.429459,560.647494 327.925893,560.647494 C345.422326,560.647494 359.660656,574.885824 359.660656,592.382257 C359.660656,609.878691 345.422326,624.117021 327.925893,624.117021 Z" id="Shape" fill="#69737B"></path>
                                <path d="M477.22849,418.964008 L477.22849,402.68335 L462.319462,402.68335 L462.319462,417.592378 L447.410434,417.592378 L447.410434,402.68335 L432.501406,402.68335 L432.501406,417.592378 L417.592378,417.592378 L417.592378,492.137517 L432.501406,492.137517 L432.501406,507.046545 L447.410434,507.046545 L447.410434,492.137517 L462.319462,492.137517 L462.319462,507.046545 L477.22849,507.046545 L477.22849,490.765887 C485.88318,487.679718 492.137517,479.479753 492.137517,469.773976 C492.137517,464.048909 489.975708,458.823295 486.42736,454.864948 C489.975708,450.906601 492.137517,445.680986 492.137517,439.95592 C492.137517,430.250143 485.88318,422.050177 477.22849,418.964008 Z M469.773976,477.22849 L432.501406,477.22849 L432.501406,462.319462 L469.773976,462.319462 C473.881413,462.319462 477.22849,465.659084 477.22849,469.773976 C477.22849,473.888867 473.881413,477.22849 469.773976,477.22849 Z M469.773976,447.410434 L432.501406,447.410434 L432.501406,432.501406 L469.773976,432.501406 C473.881413,432.501406 477.22849,435.841028 477.22849,439.95592 C477.22849,444.070811 473.881413,447.410434 469.773976,447.410434 Z" id="Shape" fill="#FF7900"></path>
                                <path d="M454.864948,359.660656 C476.761935,359.660656 498.161744,367.298156 515.097529,381.15567 L528.500178,364.79111 C507.787955,347.844746 481.63851,338.504147 454.864948,338.504147 C390.707834,338.504147 338.504147,390.707834 338.504147,454.864948 C338.504147,481.63851 347.834168,507.787955 364.780532,528.500178 L381.15567,515.086951 C367.298156,498.161744 359.660656,476.761935 359.660656,454.864948 C359.660656,402.36507 402.375648,359.660656 454.864948,359.660656 Z" id="Shape" fill="#69737B"></path>
                                <path d="M571.225748,454.864948 C571.225748,428.091385 561.895728,401.94194 544.949364,381.229717 L528.574226,394.642944 C542.431739,411.568152 550.069239,432.967961 550.069239,454.864948 C550.069239,507.364825 507.354247,550.069239 454.864948,550.069239 C432.967961,550.069239 411.568152,542.431739 394.632366,528.574226 L381.229717,544.938786 C401.94194,561.885149 428.091385,571.225748 454.864948,571.225748 C519.022062,571.225748 571.225748,519.022062 571.225748,454.864948 Z" id="Shape" fill="#69737B"></path>
                                <rect id="Rectangle-path" fill="#69737B" x="317.347638" y="581.804003" width="21.1565092" height="21.1565092"></rect>
                            </g>
                        </g>
                    </g>
                </g>
            </g>
        </g>
    </g>
</svg>